<?xml version="1.0" standalone="no"?>
<!DOCTYPE svg PUBLIC "-//W3C//DTD SVG 1.1//EN" "http://www.w3.org/Graphics/SVG/1.1/DTD/svg11.dtd" >
<svg xmlns="http://www.w3.org/2000/svg">
<metadata></metadata>
<defs>
<font id="trend_hm_slabone" horiz-adv-x="1947" >
<font-face units-per-em="2048" ascent="1536" descent="-512" />
<missing-glyph horiz-adv-x="860" />
<glyph horiz-adv-x="2048" />
<glyph horiz-adv-x="2048" />
<glyph unicode="&#xd;" horiz-adv-x="2048" />
<glyph unicode=" "  horiz-adv-x="860" />
<glyph unicode="&#x09;" horiz-adv-x="860" />
<glyph unicode="&#xa0;" horiz-adv-x="860" />
<glyph unicode="!" horiz-adv-x="811" d="M256 102q0 5 1 15.5t1 15.5t-1 15.5t-1 15.5q0 25 25 43q21 31 30 39q10 5 22 14.5t22 15t26 5.5q11 0 24 -4.5t21 -4.5q3 0 8 1t8 1q29 -3 57.5 -21.5t35.5 -43.5q0 -8 14 -24t16 -33q0 -6 -1 -17.5t-1 -17.5v-23q0 -37 -18.5 -62.5t-36.5 -32.5l-19 -7q-9 -6 -17 -14 t-15.5 -11.5t-24.5 -3.5q-48 0 -73 8t-46 33q-3 6 -18.5 18.5t-27 32t-11.5 47.5zM260 1438q0 88 51 88q33 0 77 -3t54 -3q4 0 14.5 1t14.5 1q32 0 51 -17.5t19 -48.5q0 -13 -6.5 -43t-6.5 -63q0 -11 9.5 -37t9.5 -45q0 -12 -6 -38.5t-6 -41.5v-21q0 -125 -27 -221 q14 -28 14 -59q0 -29 -9 -78t-9 -94q0 -56 -8.5 -139t-8.5 -115q0 -4 1 -13.5t1 -13.5q0 -33 -40 -33q-7 0 -21.5 2.5t-21.5 2.5h-21q-22 0 -40 14t-21 35q0 6 4 18q0 7 -1 22.5t-1 22.5v31q0 69 -21 219v29q0 9 -1 24t-1 21q0 8 1 24t1 27q0 13 -10 74t-10 82v149 q0 12 -8.5 34t-8.5 42q0 82 11 100q-6 12 -12.5 34t-6.5 30zM324 66q-2 -7 2 -13l16 -6q-3 1 -9.5 8t-8.5 11zM334 1081q0 -4 1 -11.5t1 -10.5v-10q0 -14 4 -42.5t4 -45.5q2 172 2 182q-7 -23 -10 -47q0 -3 -1 -8t-1 -7zM381 625q2 14 2 18q0 8 -2 8v-26zM383 121q0 -4 7 -4 h5t6.5 -0.5t8.5 -1.5l4 1q4 1 4 5q0 6 -21 6q-11 0 -12.5 -0.5t-1.5 -5.5zM414 180q9 1 24 -8q2 5 -3.5 8t-12 2.5t-8.5 -2.5zM424 731q0 -4 1 -11.5t1 -10.5v-11q0 -14 4 -42.5t4 -45.5q2 173 2 183q-6 -22 -10 -48q0 -3 -1 -7.5t-1 -6.5zM436 1016q7 -38 10 -80 q0 1 1.5 11t1.5 18q0 22 -5 57zM465 1303l4 -23h2l6 82zM469 193q10 -7 18 -19q3 3 -0.5 8t-9.5 8.5t-8 2.5z" />
<glyph unicode="&#x22;" horiz-adv-x="1019" d="M250 1397q0 3 1 8t1 8q-2 6 -2 21t8 26q0 12 -2 33t-2 33q0 2 1 7.5t1 8.5q0 4 6 4q4 0 14 2t17 2q16 0 48 -3t46 -3q5 0 12.5 4t18.5 4q9 0 21 -3t20 -3l4 -4q0 -7 10 -20.5t10 -28.5q0 -46 -19.5 -125t-19.5 -113v-51q0 -67 -14 -67q-3 0 -8 1t-8 1q-4 -1 -11 -4.5 t-12 -4.5q-19 0 -35 1.5t-27 4t-19.5 7t-13.5 7.5t-9 8.5t-5.5 7.5t-3.5 8l-2 6q-14 23 -14 75q0 5 1 14.5t1 14.5q0 7 -1 22t-1 23q0 3 1 8.5t1 8.5q0 7 -7 21.5t-7 29.5zM324 1262q0 -39 6 -45q0 33 2 47q-2 -2 -8 -2zM373 1487l6 -82h2l14 22zM557 1397q0 3 1 8t1 8 q-2 6 -2 21t8 26q0 12 -2 33t-2 33q0 2 1 7.5t1 8.5q0 4 6 4q5 0 14 2t17 2q16 0 48 -3t46 -3q5 0 12.5 4t18.5 4q9 0 21 -3t20 -3l4 -4q0 -7 10.5 -20.5t10.5 -28.5q0 -46 -19.5 -125t-19.5 -113v-51q0 -67 -15 -67q-3 0 -8 1t-8 1q-3 -1 -10.5 -4.5t-12.5 -4.5 q-19 0 -35 1.5t-26.5 4t-19.5 7t-13.5 7.5t-8.5 8.5t-5.5 8t-3.5 7.5t-2 6q-15 25 -15 75q0 5 1 14.5t1 14.5q0 7 -1 22t-1 23q0 3 1 8.5t1 8.5q0 7 -7 21.5t-7 29.5zM631 1262q0 -39 6 -45q0 33 2 47q-2 -2 -8 -2zM680 1487l6 -82h2l14 22z" />
<glyph unicode="#" horiz-adv-x="1638" d="M184 444q0 11 5 17.5t18.5 8.5t19.5 2.5t25 0.5q36 0 91.5 -2t78.5 -2q13 25 27 97.5t16 76.5q3 14 8 23h-14q-14 0 -41.5 -3.5t-42.5 -3.5q-13 0 -29 5.5t-24 5.5h-5q0 2 -8 17t-8 26q0 6 5 14t5 14q0 10 -5 28t-5 28q0 20 8 47.5t8 38.5q1 0 5 -1t6 -1q15 0 62.5 5 t90 10t43.5 5h23q19 66 28.5 101.5t10 40l1 9t1.5 9.5q1 2 3.5 4.5t4.5 5t3.5 6t2.5 6.5h2q2 0 13 3.5t22 3.5q14 0 44.5 -1.5t47.5 -1.5q4 0 7 1.5t8 3.5l10 4q16 0 30.5 -6.5t16.5 -6.5h26q-7 -42 -13 -62.5t-11 -31t-8 -20.5q-23 -77 -23 -78q41 -4 127 -4q70 0 110 7.5 t54.5 25t17.5 34t3.5 46.5t7.5 51q9 34 55 34q28 -4 51 -4q6 0 16.5 2t16.5 2q3 0 8 -1t8 -1q8 0 15 6.5t16 6.5q13 0 26.5 -7.5t18.5 -7.5q3 0 8 1t8 1q0 -4 -3 -11t-3 -11q0 -2 6 -14q0 -18 -3.5 -36t-7.5 -29t-8.5 -21t-4.5 -11q-3 -9 -7 -28.5t-7 -28.5q99 -12 114 -12 q1 0 3.5 1t4.5 1q0 -8 11.5 -22.5t11.5 -26.5q0 -6 -8 -23t-8 -43q0 -8 3 -24t3 -27q0 -28 -10.5 -40.5t-47.5 -12.5q-8 0 -25 1t-26 1q-69 0 -98 -2q-4 -29 -10 -53.5t-11 -34.5l-4 -9q-3 -10 -22 -43t-21 -55q8 -2 27 -2q9 0 29 4q13 0 37 -3t32 -3q4 0 12.5 1t12.5 1v-21 q0 -6 6 -48.5t6 -73.5q-6 -12 -6 -21q0 -2 1 -5.5t1 -4.5q0 -19 -8 -31t-27 -16.5t-32 -5.5t-42 0.5t-38 1.5q-12 0 -33 6t-33 6q-20 0 -38 -100l-3 -27q-37 -109 -41 -127q-10 -2 -31 -2q-11 0 -33.5 1t-35.5 1q-8 0 -26 -3t-26 -3q-7 0 -20 3t-20 3h-35l8 27q-6 12 -6 24 q0 23 22 45q0 20 12.5 45t14.5 33l22 80h-8q-18 0 -56.5 -3t-59.5 -3q-25 0 -70 3t-66 3q-12 0 -30.5 -41t-24.5 -68q0 -34 -9.5 -69.5t-20.5 -55.5t-17 -20h-16q-5 0 -13 -4t-12 -4q-2 0 -6.5 1t-7.5 1h-49q-23 0 -49 3t-27 3h-43l12 39q-2 6 -2 14q0 34 5 55t11.5 28 t14 16.5t10.5 21.5t11 37t11 39q-6 0 -16.5 1t-15.5 1q-13 0 -37 -3t-35 -3q-8 0 -20 4t-15 4h-12q-5 0 -14 36v3q0 8 2 14q0 14 -3.5 40t-3.5 44q0 5 1.5 15.5t1.5 15.5q-9 18 -9 22zM254 356q1 -3 1.5 -8t1.5 -9t3 -7q4 0 11 1t10 1q-10 5 -27 22zM369 774l6 -24 q4 0 10.5 1t9.5 1q-8 4 -26 22zM457 66q2 2 10 2q1 0 4 1t4 1q8 17 4 39v4q-2 -8 -11 -24.5t-11 -22.5zM477 336l2 -2q4 2 39 82q1 2 1 6t1 6q-12 -10 -26 -38.5t-17 -53.5zM578 547l30 49q0 22 12.5 56t20.5 46l-2 4q-27 -36 -41 -81t-16 -50q-1 -3 -1.5 -11t-2.5 -13z M629 889q19 19 35 69v5q-5 10 -9 12q-20 -73 -26 -86zM666 467q4 0 11 -1t11 -1q41 0 68.5 8t42.5 8q26 0 63.5 -8t38.5 -8q10 0 19 8.5t15.5 23t10 25.5t6.5 26l4 15q27 55 35 96q-17 0 -45 -3t-43 -3q-27 0 -81 -2t-79 -2q-22 0 -32 2q-20 -42 -29 -116q0 -10 -8 -36.5 t-8 -31.5zM678 348q21 1 56.5 3t61.5 3.5t29 1.5q-16 5 -47 9q-28 0 -60.5 -8t-39.5 -9zM809 297l4 -4h2l6 4h-8h-4zM809 297h4q2 -1 2 -4h-2zM924 715l4 -4h2q0 3 -6 4zM924 715h12l-6 -4h-2zM944 82q2 2 10 2q1 0 4.5 1t4.5 1q8 17 4 39v4q-2 -8 -11.5 -24t-11.5 -23z M1006 352l2 -2q4 2 39 82q1 2 1 6t1 6q-12 -10 -26 -38.5t-17 -53.5zM1106 563l31 49q0 22 12 56.5t20 46.5l-2 4q-27 -36 -41 -81t-16 -50q-1 -3 -1.5 -11.5t-2.5 -13.5zM1157 905q19 19 35 70v4q-5 11 -8 12q-18 -67 -27 -86zM1241 756q21 1 56.5 3t62 3.5t29.5 1.5 q-8 2 -48 8q-28 0 -61 -7.5t-39 -8.5z" />
<glyph unicode="$" horiz-adv-x="1155" d="M166 246q0 17 15.5 38.5t31.5 44.5t16 44v20q0 16 8.5 27.5t22.5 11.5q16 0 29 -7.5t26.5 -17.5t26.5 -14q38 -5 111.5 -33t115.5 -28q19 0 38.5 4t39 13t34.5 22t24.5 32.5t9.5 42.5q0 29 -6.5 56t-20.5 52.5t-38 46.5t-56 34q-65 33 -111 58.5t-60 34.5l-13 9 q-59 27 -109 91t-57 92q-15 54 -15 88q0 44 5.5 80.5t19.5 74.5t42 68.5t69 50.5q27 8 48 21.5t30.5 25t22 20.5t26.5 9q-3 12 -3 24v29q0 3 -1 9.5t-1 9.5v7q0 25 0.5 37.5t2 32.5t6 29t11.5 20t19 15t29 4q20 0 32.5 -0.5t31.5 -1.5t31 -4t26 -8t22 -12.5t13.5 -18.5 t5.5 -25q0 -107 -12 -131q5 -4 27.5 -10t49.5 -12.5t37 -10.5q111 -41 111 -104q0 -34 -26 -92t-48 -58q-16 0 -38.5 6.5t-45 16t-27.5 10.5q-20 5 -45.5 15t-33.5 10t-25.5 -1t-24.5 -1h-22q-26 0 -46.5 -6t-31.5 -14t-18 -17.5t-9 -15t-2 -7.5q-6 -6 -6 -16q0 -3 1 -10 t1 -10q0 -15 -4 -40t-4 -36q0 -9 55 -64q8 -5 19.5 -16t13.5 -12q14 -12 51.5 -30.5t53.5 -35.5q11 -5 46.5 -19t62 -30.5t54.5 -44.5q3 -2 26.5 -20.5t33.5 -27.5t23.5 -25t17.5 -30q1 -5 11 -22t11 -27q0 -5 -1 -14t-1 -14q0 -15 8.5 -49t8.5 -56t-13 -50t-14 -38 q-6 -29 -8.5 -39t-15.5 -32.5t-37 -47.5q-8 -11 -19 -21.5t-22.5 -18.5t-23.5 -15.5t-25 -13t-23.5 -10t-22 -8t-18.5 -5.5t-15 -4l-7 -2q-20 -5 -23 -8v-31q0 -22 -2 -66.5t-2 -64.5q6 -24 6 -31q0 -19 -12.5 -31.5t-37 -17t-40.5 -5.5t-43 -1q-88 0 -88 57q0 11 4 34t4 36 v55q0 12 -4 34t-4 26q-121 0 -209 44.5t-88 86.5zM246 254l7.5 -2.5t8.5 -2.5t8 -1q0 1 1 3t1 3l-22 14q0 -3 -2 -7t-2 -7zM332 1071q2 -4 2 -12q0 2 0.5 5t1 5.5t0.5 5v4.5zM338 1001q12 -23 34.5 -48t35.5 -25q-30 23 -41 55q-3 4 -15 15.5t-14 19.5v-17zM383 879 q6 -7 17.5 -13.5t15.5 -1.5q3 4 -3 7t-16.5 5t-13.5 3zM487 1083zM500 184q16 -12 71 -12q56 0 72 10q-10 -2 -31 -2h-30q-12 0 -32 3t-32 3t-18 -2zM514 787l2.5 -2.5t2.5 -3l2 -3t2.5 -3t2.5 -1.5q18 -5 48.5 -22.5t43.5 -22.5q-35 21 -55 41q-10 0 -14 2q-10 1 -35 15z M565 -37l13 -39l-9 111q-1 -5 -2.5 -13.5t-3.5 -30t2 -28.5zM594 1417l12 -39l-8 111q0 -2 -1 -5.5t-2 -13t-2 -18t-1 -19t2 -16.5zM690 1214q23 -8 37 -10q-30 10 -37 10zM715 217h16q29 0 35 25q-6 -4 -15 -8.5t-20 -9t-16 -7.5zM733 602q22 -39 25 -47l10 -6 q-2 7 -16.5 30t-18.5 23zM807 297q1 1 8 6.5t8 7.5v27q1 5 11 20l-9 31v-33q0 -23 -18 -59zM829 1272q18 -6 52 -23l4 11q-13 0 -30 6t-26 6z" />
<glyph unicode="%" horiz-adv-x="1689" d="M168 1194q0 31 13 63.5t29 58t17 27.5q20 48 48 68.5t112 48.5q21 7 61.5 8t63.5 7q39 0 66.5 -13t56.5 -33.5t57 -29.5q24 -16 42.5 -42t31 -53.5t14.5 -29.5q3 -8 11 -20.5t12 -23.5t4 -26q0 -58 -5.5 -93t-12.5 -45.5t-13.5 -22t-7.5 -25.5q-8 -32 -37 -62 t-50.5 -43.5t-41.5 -23.5q-57 -29 -160 -29q-31 0 -92 14q-19 0 -37.5 7t-35 19.5t-27 22.5t-23.5 24.5t-14 15.5q-27 34 -42 67.5t-16 50.5l-2 17q-2 6 -8 21t-8 21t-4 21t-2 33zM246 1139q0 -26 14 -54q4 -7 13.5 -13.5t11.5 -8.5zM266 80q0 30 68 98q10 10 26 33.5 t21 30.5q60 67 94.5 116.5t54.5 69.5q2 4 6 20t7 23q18 39 45.5 74.5t66 78t58.5 68.5q15 15 30.5 56t26.5 55q1 2 23 23t28 38q24 44 50 83t46.5 63.5t37.5 42t27 25.5l9 7q31 40 91 125.5t98 132.5q8 10 25.5 40t31.5 44q26 39 53 39q43 0 60 -39q57 -27 57 -65 q0 -5 -2.5 -10.5t-7.5 -11.5t-10 -10.5t-12.5 -10t-11 -8l-10.5 -7.5l-7 -4q-23 -61 -47.5 -97.5t-86.5 -110.5q-27 -41 -92.5 -119.5t-95.5 -124.5q-44 -80 -78.5 -129.5t-89.5 -104.5q-24 -35 -66.5 -87.5t-52.5 -71.5q-29 -47 -100 -148q-7 -21 -35 -47t-35 -37 q-12 -17 -32.5 -40t-28.5 -38q-7 -12 -25.5 -48t-31.5 -59t-32.5 -44t-35.5 -21q-28 0 -56.5 25.5t-43.5 50.5t-15 31zM287 1309q-3 -4 1 -12q2 -6 5 1q4 15 6 17zM322 1169q12 -32 12 -63v-27q8 -17 28 -33.5t41.5 -26t36.5 -9.5q11 0 42.5 7t52.5 7q3 0 10.5 -1t11.5 -1 q9 0 20.5 6.5t22 15.5t21 20.5t18 20.5t13 16l5.5 7q2 8 2 31q0 14 -1.5 27.5t-4 25t-5.5 21.5t-7.5 18.5t-8 15t-7.5 13t-6.5 9.5t-5.5 7l-3 4q-9 4 -24.5 12t-36 18t-45.5 19q-5 1 -17 6.5t-18 5.5q-5 -4 -23 -8q-24 -4 -45.5 -17t-31.5 -25l-9 -11q-38 -38 -38 -111z M365 37q6 0 32 33q-6 3 -6 8q-5 -12 -26 -41zM424 1384q29 5 100 5q-5 1 -25.5 8.5t-29.5 5.5q-3 1 -12 -1t-18.5 -7t-14.5 -11zM436 930q6 -1 17.5 -5.5t21 -6.5t17.5 0q5 -2 21.5 5t23.5 15q-33 -8 -101 -8zM578 410l2 -4l98 120q-2 3 -1.5 5t2 7t1.5 7zM698 1270 q0 -1 0.5 -3.5l1.5 -7.5t0 -6l9 13q2 4 -6 9q-5 2 -5 -2v-3zM823 717q3 0 14.5 12t18.5 21q-6 3 -6 8q-3 -8 -27 -41zM877 291q0 32 6.5 62t15.5 51t18.5 37t15 24l5.5 8q11 11 21 20t18 15t22.5 14.5t24 14.5t34.5 20t44 25q28 14 59 14q13 0 25.5 -1t21 -1.5t19 -3 t15.5 -3.5t14 -4t11 -3.5t11.5 -4.5l9.5 -4q23 0 43.5 -4.5t36.5 -11.5t31 -20t25.5 -24t21.5 -31t18 -33t16 -37.5t13.5 -37.5t13.5 -40q0 -4 1 -15t1 -16q0 -19 -4 -59q0 -10 2 -31t2 -33q0 -31 -19.5 -65.5t-38.5 -52.5l-19 -19q-12 -12 -43.5 -26t-56.5 -22t-34 -9 q-24 -9 -57 -9q-6 0 -31 5q-9 0 -27.5 -1.5t-27.5 -1.5q-58 0 -103.5 17.5t-66.5 50.5q-8 12 -19 27.5t-20 27.5t-18.5 26t-16.5 29.5t-12 32.5q-22 69 -22 103zM961 254q0 -9 5 -27.5t9 -25.5t13.5 -14.5t10.5 -8.5zM1001 412l7 2q4 14 6 16q-1 0 -4.5 -1.5t-4.5 -2t-4 -3 t-2 -5t2 -6.5zM1026 295q0 -4 -0.5 -15t0 -16t1.5 -15.5t4.5 -19t9.5 -20.5t16 -25.5t24 -29.5q14 -18 49 -30.5t68 -14.5h10h12.5t12 1t13 3t11 5.5t11 9t8.5 13.5q8 8 22 16t25.5 14.5t22.5 17.5t17.5 30t6.5 47q0 100 -41 130q-8 6 -8 3q-43 43 -129 43 q-29 0 -57.5 -10.5t-42.5 -20t-35 -26.5q-10 -10 -30 -88q-1 -3 -1 -2zM1055 74q4 -4 6 -4q-4 4 -6 4zM1071 946q3 1 9 7t14 15t10 11l-6 8q-5 -11 -27 -41zM1139 500q23 4 100 4q-5 1 -25.5 8.5t-29.5 5.5q-5 2 -21.5 -4t-23.5 -14zM1145 1130l2 -4l53 64l-55 -35v-25z M1151 45q6 -1 17.5 -5.5t20.5 -6.5t17 0q5 -2 21.5 5t23.5 15q-33 -8 -100 -8zM1303 1335q6 0 32 33q-6 3 -6 6q-10 -19 -26 -39zM1413 385l0.5 -1t1 -3.5t1 -4.5t0.5 -4t-1 -3l8 12q2 4 -5 8q-5 3 -5 -1v-3z" />
<glyph unicode="&#x26;" horiz-adv-x="1822" d="M203 397q0 60 10.5 95.5t34.5 74.5q6 10 21 26t20 25q16 24 26.5 35.5t18.5 18t34 25t54 40.5q10 10 32.5 22.5t41.5 12.5q-7 9 -46.5 50t-48.5 63q-2 4 -4 13t-4 13q-3 10 -29 59t-26 85q0 86 8 127q2 8 10.5 23.5t10.5 21.5q2 7 7.5 32.5t12.5 38.5q10 22 66 75t102 71 q77 29 158 29h43q9 0 25 3t20 3q21 -1 56 -17.5t52 -19.5q83 -12 153.5 -54.5t90.5 -95.5q5 -16 8.5 -36t5.5 -36t2 -18v-18q1 -15 5 -50t4 -53q0 -56 -18.5 -105t-42 -80.5t-67 -65.5t-70.5 -50.5t-77 -43.5q-11 -6 -16 -9q6 -5 12 -22.5t12 -22.5t23 -9.5t22 -8.5 q11 -8 19.5 -20t18.5 -30t14 -24q5 -8 13.5 -14t19.5 -12.5t16 -10.5q21 -16 63 -62t70 -63q19 4 36.5 35.5t31.5 69.5t16 42q12 22 28.5 55t24 46.5t19 30.5t23 22.5t26.5 5.5q4 0 10.5 -1t9.5 -1q7 0 20.5 2t20.5 2q16 0 50.5 -3t52.5 -3q7 0 20.5 2t19.5 2q20 0 38 -16 t18 -31q0 -14 -8.5 -46t-8.5 -58q0 -13 3.5 -36t3.5 -32q0 -24 -31 -24q-9 0 -32 3t-32 3q-12 0 -31 -3t-30 -3h-6q-6 -3 -10 -8.5t-8.5 -15t-6.5 -13.5q-37 -58 -119 -152q4 -16 14 -30.5t18 -21.5t24 -20h12q9 0 25 -1t22 -1t19 4.5t20 4.5q23 -2 46.5 -17.5t23.5 -36.5 q0 -13 -5.5 -35t-5.5 -38q0 -17 4.5 -44t4.5 -40q0 -33 -31 -33q-6 0 -20 3t-21 3q-8 0 -30.5 -4t-35.5 -4q-17 0 -36.5 6t-34.5 6h-37q-22 0 -42 11.5t-31.5 24.5t-29 36t-26.5 33q-2 1 -9.5 5t-12 7t-7.5 8q-7 -10 -19 -18t-22 -12t-27.5 -10t-25.5 -9q-13 -6 -33 -20 t-26 -17q-159 -68 -310 -68q-73 0 -144.5 15.5t-113.5 36.5q-18 8 -46.5 32.5t-37.5 30.5q-49 33 -89.5 87.5t-45.5 123.5v21q0 12 -7 34t-7 41zM303 301q0 -33 6 -43v4q0 6 -3 19.5t-3 19.5zM430 258q3 -19 15.5 -32.5t27.5 -18.5q-38 43 -43 51zM455 1212q12 30 12 37v4 q-12 -36 -12 -41zM467 358q0 -26 23 -67t47 -51q99 -47 233 -47q19 0 37 4t40 11.5t34 10.5q3 1 14.5 3.5t15.5 3.5l14 3.5t14 4t12.5 4.5t12.5 5.5t10 6t10 7.5t8 9t7 10q-17 19 -52 52.5t-50 50.5q-27 33 -53.5 60.5t-47.5 46.5t-77 67q-69 56 -88 78q-14 -26 -55.5 -52.5 t-49.5 -35.5q-29 -36 -44 -75.5t-15 -109.5zM477 907q0 -7 4.5 -14.5t7.5 -7.5q-3 2 -6 10.5t-6 11.5zM494 1092q0 -34 26 -64q-1 3 -5.5 22.5t-7.5 37t-3 34.5q-10 -10 -10 -30zM551 956q4 -13 10 -14q-1 1 -5 6t-5 8zM590 711q2 1 7.5 1t6.5 1q-2 1 -5 4.5t-5 3.5 q0 -2 -4 -10zM590 1098q0 -38 18 -90q25 -19 47.5 -54t34.5 -47q6 -6 23.5 -19.5t25.5 -23.5q12 15 41 27t35 16q5 4 10.5 9t11.5 12t9 10q7 5 20.5 14.5t24 17.5t16.5 17q7 8 21 53.5t14 51.5q0 5 -4 16.5t-4 17.5q0 3 1 9t1 8q-4 13 -24.5 34t-20.5 35q-21 21 -68 40.5 t-75 19.5q-18 0 -63.5 -22.5t-57.5 -43.5q-37 -68 -37 -108zM616 809q1 -2 11 -18q-1 2 -11 18zM696 53q4 1 24.5 1t27.5 3q-4 -1 -24 -1t-28 -3zM715 1397q6 -4 24 -4q9 0 29 2t29 2q-10 2 -41 2t-41 -2zM776 590q4 -6 6 -6t4 2q-2 0 -5.5 2t-4.5 2zM819 686q3 -1 7 -5.5 t5 -4.5h3q-5 10 -11 10h-4zM868 522q14 -23 27 -26q-19 24 -27 26zM868 1319q6 -2 20 -10.5t21 -8.5q-3 2 -11.5 7.5t-15.5 8.5t-14 3zM922 143q10 0 32 9q-5 -2 -16.5 -4.5t-15.5 -4.5zM940 563q0 -8 6 -8h2q-2 1 -4 4.5t-4 3.5zM963 154q27 4 34 10q-4 -2 -17.5 -5 t-16.5 -5zM977 1264q18 -9 39 -58q0 41 -39 58zM983 520q4 -7 12 -12.5t18 -10.5t15 -8q3 -3 8.5 -9.5t10.5 -10.5t10 -4q-29 33 -74 55zM1012 1188q0 -14 8 -17q-2 3 -2.5 14t-3.5 13q0 -2 -1 -5.5t-1 -4.5zM1020 1118q0 -13 6 -22v26q0 9 -2 15q-4 -12 -4 -19zM1063 328 q5 -11 12 -11q2 0 4 2zM1102 311l20 -10q-10 10 -20 10zM1137 291q1 -1 6 -6.5t8 -8t8 -5.5t10 -3q-6 3 -17 12t-15 11zM1217 315q2 -1 5.5 -4.5t6.5 -5.5t6 -2h2l-2 2q0 2 1 5.5t1 4.5q-2 0 -7 1t-7 1q-4 0 -6 -2zM1300 90q6 -6 9 -12h10q6 0 8 2q-3 1 -11.5 5.5t-12.5 4.5 h-3zM1354 526q8 7 8 11q0 1 -1 2t-1 2q0 -3 -3 -8t-3 -7zM1374 565h2l2 2v2l11 17l-13 -19zM1395 154q2 -1 4 -4l2 -3h4q12 0 12 3h-6q-2 0 -7 2t-7 2h-2zM1417 633q7 4 19.5 12t13.5 8h-18zM1460 152q2 -2 10 -2q0 4 -4 4z" />
<glyph unicode="'" horiz-adv-x="694" d="M250 1397q0 3 1 8t1 8q-2 6 -2 21t8 26q0 12 -2 33t-2 33q0 2 1 7.5t1 8.5q0 4 6 4q4 0 14 2t17 2q16 0 48 -3t46 -3q5 0 12.5 4t18.5 4q9 0 21 -3t20 -3l4 -4q0 -7 10 -20.5t10 -28.5q0 -46 -19.5 -125t-19.5 -113v-51q0 -67 -14 -67q-3 0 -8 1t-8 1q-4 -1 -11 -4.5 t-12 -4.5q-19 0 -35 1.5t-27 4t-19.5 7t-13.5 7.5t-9 8.5t-5.5 7.5t-3.5 8l-2 6q-14 23 -14 75q0 5 1 14.5t1 14.5q0 7 -1 22t-1 23q0 3 1 8.5t1 8.5q0 7 -7 21.5t-7 29.5zM324 1262q0 -39 6 -45q0 33 2 47q-2 -2 -8 -2zM373 1487l6 -82h2l14 22z" />
<glyph unicode="(" horiz-adv-x="1089" d="M172 446q0 141 51 367q8 33 31.5 83.5t30.5 70.5l1 7q1 7 4 20t10 31t22.5 46.5t37.5 61.5q1 1 7.5 11t10 15.5t12 17.5t15.5 20l17.5 20t20.5 21t22 18.5t25.5 17.5t27.5 14q24 6 74 52.5t90 54.5q15 15 47 26q10 17 27 27q22 35 55 35q9 0 16 -4t10 -7t8.5 -11.5 t6.5 -10.5q3 -5 21 -31.5t32.5 -50t14.5 -31.5q0 -19 -15 -32.5t-28.5 -18t-36.5 -10.5q-9 -19 -19 -30t-27 -24t-30 -26l-19 -22q-62 -62 -129 -97q-73 -86 -106 -135v-8q0 -33 -18 -57q-6 -14 -11.5 -42.5t-19.5 -50.5q-37 -74 -37 -141v-29q0 -29 -3 -81t-3 -78 q0 -53 3.5 -77.5t13.5 -47t14 -35.5q6 -37 13.5 -64.5t11.5 -38.5t16 -36.5t16 -34.5q0 -3 16.5 -34t56 -87t85.5 -102q23 -8 40.5 -25.5t27 -34.5t30 -35t49.5 -26q117 -52 117 -74q0 -15 -11 -30.5t-28 -33t-23 -26.5q-16 -55 -65 -55q-13 0 -31.5 11.5t-41 28.5t-34.5 23 q-7 3 -28.5 29t-30.5 26h-10q-26 3 -49 27t-47 55.5t-44 44.5q-18 11 -38.5 37t-30.5 35q-97 79 -137 172q-17 57 -31.5 99t-21.5 57.5t-12.5 35t-8.5 46.5q-3 24 -18 77t-15 84zM295 334q6 -58 31 -103q0 16 -9.5 41t-11.5 39q-2 11 -10 23zM319 549q0 -38 7 -45q0 33 2 47 q-2 -2 -9 -2zM356 848q21 84 84 147q-2 2 -4 2l-12 -9t-14.5 -11.5t-10.5 -11.5q-33 -19 -41 -64q-5 -45 -2 -53zM360 123q8 -31 19 -47q4 -37 45 -60q36 -20 49 -20q-69 46 -111 129q-2 0 -2 -2zM612 1208q1 0 13 6q-4 -2 -11 -2q-2 -2 -2 -4zM627 1215l2 2q-1 0 -2 -2z M657 1239q37 37 57.5 55t55.5 41q2 2 5 8.5t5 8.5q-2 0 -9.5 -4.5t-20.5 -12.5t-23 -14q-2 -2 -17.5 -17t-22 -22t-16 -19.5t-14.5 -23.5zM776 -332l8 -16q3 -3 10 -6.5t9 -5.5v-2l8 10q-5 3 -16.5 8.5t-18.5 11.5z" />
<glyph unicode=")" horiz-adv-x="1089" d="M154 -303q0 22 116 74q29 8 49.5 26t30.5 35t27.5 34t40.5 25q46 46 85.5 102t55.5 87.5t16 34.5q5 11 16.5 35t16 35.5t12 39t13.5 64.5q4 13 14 35.5t13.5 47t3.5 77.5q0 26 -3.5 78t-3.5 81v29q0 69 -36 141q-14 22 -19.5 50t-11.5 42q-19 25 -19 58v8 q-15 22 -41.5 55.5t-45.5 56.5l-19 23q-39 20 -76 49.5t-55 49.5l-17 20q-13 13 -30 26t-26.5 24t-18.5 30q-23 6 -36.5 10.5t-28.5 18t-15 32.5q0 8 14 31.5t32 50t21 31.5q1 2 6.5 10.5t8.5 11.5t10 7t16 4q34 0 56 -35q15 -9 26 -27q32 -11 47 -26q40 -8 90 -54.5 t74 -52.5q16 -7 31 -16.5t27 -19t25 -23t21 -23t18.5 -23.5l15 -20t12.5 -19l8 -12q22 -33 37.5 -61.5t22.5 -46.5t10.5 -30.5t4.5 -19.5l1 -7q7 -19 30 -70t31 -84q51 -226 51 -367q0 -31 -14.5 -84t-17.5 -77q-4 -34 -11 -53.5t-24.5 -66t-38.5 -118.5q-40 -93 -137 -172 q-10 -9 -30.5 -35t-39.5 -37q-20 -13 -43.5 -44.5t-46.5 -55.5t-49 -27h-11q-9 0 -30.5 -26t-28.5 -29q-12 -6 -34 -23.5t-40.5 -29t-31.5 -11.5q-49 0 -66 56q-6 9 -23 26.5t-27.5 33t-10.5 30.5zM270 -358l9 -11v2q2 2 8.5 6t9.5 7l8 16q-7 -6 -18.5 -11.5t-16.5 -8.5z M301 1346q2 -2 5 -8.5t5 -8.5q52 -35 113 -96q-5 11 -14.5 23.5t-16 19.5t-22 22t-17.5 17q-10 6 -23 14t-20.5 12.5t-9.5 4.5zM453 1210q0 -2 4 -2zM459 1207q7 -5 10 -5l-2 4q-2 0 -4.5 0.5t-3.5 0.5zM608 -10q13 0 49 20q18 10 29.5 25t13.5 25l2 10q11 16 19 47 q0 2 -2 2q-42 -83 -111 -129zM641 989q63 -63 84 -147q3 8 -2 53q-4 20 -14 35.5t-19 21.5l-8 6q-4 6 -10 11.5t-15 12.5t-12 9q-2 0 -4 -2zM754 545q2 -14 2 -47q6 6 6 45q-6 0 -8 2zM756 225q23 43 30 103q-8 -12 -10 -23q-2 -14 -11 -39t-9 -41z" />
<glyph unicode="*" horiz-adv-x="1144" d="M223 1034q0 18 22.5 27.5t37.5 9.5q58 29 170 74q-42 34 -92 56t-85 34t-45 22q0 1 1 2.5l2 3t2 3.5q-3 3 -3 10q0 18 60 94q1 3 5.5 9t6.5 10q3 -5 8 -5h9q17 0 31 -9t25.5 -22t16.5 -16q48 -26 107 -71q0 5 -1 15t-1 15q0 40 6 80q0 21 -6 52t-6 45q4 12 4 20v6h4 q17 0 31 5t28 5q2 0 6 -1t6 -1t7 2t8 2q15 0 29 -7t16 -7t7 1t7 1q0 -4 -1 -10.5t-1 -9.5q0 -16 2.5 -39.5t4.5 -39.5l3 -16q0 -31 -14 -70t-14 -54q0 -2 1 -6.5t1 -6.5q5 0 21.5 12.5t29.5 24.5l14 12q10 7 45.5 39t67.5 43q1 0 4.5 -1t5.5 -1q5 0 8 1.5t7 5.5l6 6 q5 -11 35.5 -35t33.5 -47q0 -2 -1 -5t-1 -4q0 -3 4 -12.5t4 -17.5q-2 -2 -2 -6q0 -3 2 -5q-23 -23 -45 -31t-54 -18t-69 -34q-11 -3 -32 -11.5t-29 -11.5q21 -18 74.5 -39.5t70.5 -32.5q13 -8 34.5 -14.5t31.5 -13.5q1 -1 3 -3.5t3.5 -4.5t5 -4t6.5 -3q0 -1 -2 -3t-2 -3 q4 -12 4 -16q0 -15 -30 -39q-3 -5 -8.5 -21.5t-12.5 -26.5t-18 -12l-6 -8q-11 8 -41 23.5t-54 32t-36 34.5q-12 7 -33 22t-31 21q-1 -5 -5.5 -15.5t-4.5 -18.5q0 -3 1 -10.5t1 -10.5t-1 -10.5t-1 -11.5q0 -19 11 -68t11 -78q0 -12 -6.5 -19t-22.5 -10t-28 -3.5t-37 -0.5h-8 q-9 0 -22.5 6.5t-16.5 6.5h-16q0 3 1 9.5t1 10.5q-8 13 -8 29q0 24 2.5 46t5 32.5t6.5 24t4 14.5q3 14 4.5 45.5t3.5 42.5q-23 -7 -46 -25.5t-34 -33.5l-12 -15q-8 -18 -29.5 -35.5t-38.5 -25.5l-18 -9q-12 -4 -18 -4q-35 0 -67 55t-32 76zM305 983q7 -4 43 14q-4 7 -2 9 q-7 -5 -22.5 -13t-18.5 -10zM541 1157l14 -22h2l2 43zM551 1403q2 -14 2 -47q6 6 6 45q-6 0 -8 2zM600 954q2 -14 2 -47q6 6 6 45q-6 0 -8 2zM793 1280q7 -4 43 14q-4 7 -2 9q-7 -5 -22.5 -13t-18.5 -10z" />
<glyph unicode="+" horiz-adv-x="1445" d="M190 711q0 11 5.5 29t5.5 20t-4 10t-4 12t3 10.5t3 10.5q0 2 -2 8.5t-2 9.5q0 33 49 33q8 0 24 -2t25 -2q14 0 45.5 3t48.5 3q31 0 89 -3t75 -3h63q0 16 1 48t1 48q0 8 -1 26.5t-1 26.5q0 18 5.5 46t5.5 36q0 19 -4.5 57t-4.5 58q0 3 1 10.5t1 10.5q0 6 -4 22q0 43 33 43 q5 0 15.5 -4t15.5 -4q12 0 35.5 5t38.5 5q31 0 53 -16t22 -43q0 -9 -4 -22t-4 -23q0 -12 1 -33t1 -33q0 -14 -1 -43t-1 -45q0 -25 1 -69.5t1 -61.5q-4 -20 -4 -33v-6h62q13 0 35.5 1t33.5 1q22 0 42 -1t33 -2.5t22 -3t14 -2.5t6 -1q15 0 50 3t50 3q21 0 34.5 -2t27.5 -9 t21 -23t7 -40q0 -7 0.5 -24.5t0.5 -26.5t-1 -24t-4 -23.5t-8 -17.5t-13.5 -13t-19.5 -4t-20 6q-5 0 -15.5 -2t-15.5 -2h-22q-6 0 -30.5 -2t-41.5 -2q-60 0 -104 12q-4 0 -12 1t-11 1h-82q-25 0 -35 -4q4 -18 4 -59q0 -27 -3 -82.5t-3 -79.5q0 -6 1 -18t1 -17q0 -10 -1 -30.5 t-1 -30.5q0 -9 2 -26t2 -25v-35q0 -10 -6.5 -17t-17 -10.5t-22.5 -5.5t-25 -2t-23 0.5t-19 0.5l-8 1q-88 0 -88 60q1 6 4.5 18t5 22.5t1.5 22.5q-2 19 -9.5 58t-7.5 57q0 22 8.5 50t8.5 40q0 8 -3.5 24t-3.5 25q0 24 3 51q-54 4 -84 4q-8 0 -26 -4t-30 -4q-43 0 -86 7t-63 7 q-9 0 -28 -2t-28 -2q-35 0 -60.5 13t-25.5 45zM256 715q1 -3 1.5 -8.5t1.5 -9.5t3 -7q4 0 11 1t10 1q-8 4 -27 23zM391 764q10 -3 23.5 -5.5t29 -3.5t26.5 2.5t11 12.5q-80 -6 -90 -6zM659 758q10 -3 23.5 -5.5t29.5 -3.5t27 2.5t11 12.5q-81 -6 -91 -6zM733 442 q0 -4 1 -11.5t1 -10.5v-10q0 -14 4 -42.5t4 -45.5q2 172 2 182q-7 -23 -10 -47q0 -3 -1 -8t-1 -7zM737 1094l15 -23h2l6 82zM961 725q80 10 90 10q-9 3 -47 8q-19 0 -31 -5.5t-12 -12.5zM1149 778q15 -10 22 -10l11 18q-5 -2 -33 -8z" />
<glyph unicode="," horiz-adv-x="817" d="M240 135q0 25 8 43.5t15.5 25.5t10.5 7q14 26 41 44.5t56 18.5q3 0 9 -1t9 -1q7 0 16 1t13 1q50 0 87 -33.5t51.5 -69t14.5 -58.5v-25q4 -20 4 -31q0 -25 -6.5 -53t-14 -46.5t-15 -34.5t-7.5 -17q-17 -33 -35 -60t-31.5 -43.5t-34 -34.5t-29.5 -24.5t-32.5 -21.5 t-29.5 -19q-52 31 -61 68q1 21 27.5 50.5t55.5 54t31 28.5q16 20 23 53q-78 0 -127 56t-49 122zM324 66q-2 -7 2 -13l16 -6q-3 1 -9.5 8t-8.5 11zM367 -205l2 -2q13 9 39 40t22 46h-6q1 0 -1.5 -6t-7 -14.5t-9.5 -14.5zM383 121q0 -4 7 -4h5t6.5 -0.5t8.5 -1.5l4 1q4 1 4 5 q0 6 -21 6q-11 0 -12.5 -0.5t-1.5 -5.5zM414 180q9 1 24 -8q2 5 -3.5 8t-12 2.5t-8.5 -2.5zM469 193q10 -7 18 -19q3 3 -0.5 8t-9.5 8.5t-8 2.5z" />
<glyph unicode="-" horiz-adv-x="1040" d="M250 473q0 4 4 13t4 20v49q0 8 3 18.5t14.5 21.5t29.5 11q17 0 45 -2t37 -2t27.5 1t27.5 1q22 0 66 -5t67 -5q19 0 60 2t61 2q86 0 86 -94q0 -7 -2 -20.5t-2 -20.5q0 -2 1 -7t1 -7q0 -50 -73 -50q-23 0 -43 5.5t-31 5.5q-30 0 -88.5 -1t-85.5 -1q-16 4 -45 4h-99 q-28 0 -46.5 17.5t-18.5 43.5zM305 569q1 -3 1.5 -8t1.5 -9t3 -7q4 0 11 1t10 1q-10 5 -27 22zM383 485q21 1 56.5 3t61.5 4t29 2q-9 3 -47 8q-28 0 -60.5 -8t-39.5 -9zM721 512q15 -10 22 -10l11 18q-5 -2 -33 -8z" />
<glyph unicode="." horiz-adv-x="770" d="M244 102q0 5 1 15.5t1 15.5t-1 15.5t-1 15.5q0 26 24 43q19 29 31 39q10 5 22 14.5t22 15t26 5.5q11 0 24 -4.5t21 -4.5q3 0 8 1t8 1q28 -3 56.5 -21.5t35.5 -43.5q0 -8 14.5 -24t16.5 -33q0 -6 -1 -17.5t-1 -17.5v-23q0 -37 -18.5 -62.5t-36.5 -32.5l-19 -7 q-9 -6 -17 -14t-15.5 -11.5t-24.5 -3.5q-48 0 -73 8t-46 33q-3 6 -18.5 18.5t-27 32t-11.5 47.5zM311 66q-2 -7 2 -13q1 -1 3 -2t4.5 -2t4.5 -1.5t4 -0.5h1q-3 1 -10 8t-9 11zM371 121q0 -4 7 -4h4t6.5 -0.5t8.5 -1.5l4.5 1t4.5 5t-3.5 5t-17.5 1q-11 0 -12.5 -1t-1.5 -5z M401 180q10 1 25 -8q3 7 -9 9q-13 3 -16 -1zM457 193q10 -7 18 -19q3 3 -0.5 8t-9.5 8.5t-8 2.5z" />
<glyph unicode="/" horiz-adv-x="935" d="M137 -397q0 20 6.5 51.5t14 55.5t14.5 46l8 23q7 36 33.5 114t30.5 115q3 12 8.5 47t11.5 51q13 38 27 130q3 20 10.5 43t20 52.5t18.5 49.5q28 85 26.5 96.5t12.5 52.5q21 63 33 120t20 81q0 30 19 115q1 4 0 2q0 23 5.5 46.5t11 38.5t5.5 17q0 26 7 53t22 65t18 46 q8 14 8 35q0 7 -2 19t-2 18q0 32 21 74q0 41 10.5 74.5t43.5 114.5l9 21q9 21 20.5 27t45.5 6q12 -4 22 -4q5 0 19 2t20 2q22 0 42 -14.5t20 -36.5q0 -10 -2 -14q4 -6 4 -17q0 -13 -5.5 -31t-11.5 -31.5t-12.5 -26.5l-7.5 -15q0 -25 -7 -49t-15 -36l-7 -11q-16 -54 -16 -91 v-18q0 -18 -25 -74q-65 -175 -65 -237q-4 -20 -16 -56.5t-15 -50.5q-6 -25 -19 -107t-26 -126q-4 -12 -14.5 -36t-14.5 -38q-3 -38 -11.5 -77t-8.5 -46q0 -4 1 -12t1 -12q-4 -23 -22 -70t-21 -74q-3 -29 -13 -69.5t-14 -65.5q-1 -4 -18 -47.5t-25 -79.5q-8 -24 -8 -35 q0 -3 1 -10t1 -10q-2 -20 -13.5 -50.5t-11.5 -52.5q0 -46 -23.5 -82t-51.5 -36q-18 -9 -66 -9q-34 0 -58 13t-24 41zM240 -295v-27l2 -2l24 80zM336 -152l4 -4l8 2zM365 203l4 -4l41 151q-1 0 -2 1t-2 3t0 4l-3 9zM463 584q3 1 8.5 17t7.5 26q-6 0 -8 4q0 -15 -8 -47z M578 1114l10 -22l2 -2l24 79zM596 895q2 3 16 43l-8 4q-5 -35 -8 -47zM647 1343q3 1 9 17.5t8 25.5q-6 0 -9 5q0 -16 -8 -48z" />
<glyph unicode="0" horiz-adv-x="1800" d="M195 739q0 57 11 111.5t23.5 88t36 90.5t35.5 89q31 62 61.5 103.5t73.5 66.5q0 21 17.5 40.5t47 34t55 24.5t56 19t35.5 11q15 5 34 19.5t42.5 24t60.5 9.5t104.5 -9t84.5 -9q7 0 22 2t23 2q25 0 55.5 -12t67.5 -31t59 -27q185 -80 215 -161q48 -39 86.5 -140.5 t57.5 -187.5q3 -15 18.5 -64t15.5 -81q0 -164 -26 -226q-22 -43 -49 -117t-48 -116q-6 -10 -19.5 -27t-18.5 -24q-51 -84 -87 -119t-141 -88q-20 -10 -38 -17t-37 -11.5t-30.5 -6.5t-36.5 -5t-36 -5q-15 -2 -47.5 -8.5t-57 -9.5t-49.5 -3q-115 0 -222 34.5t-169 94.5 q-15 14 -45 37.5t-52 44t-38 43.5q-3 4 -28 35t-37 48.5t-25.5 45.5t-13.5 49q0 15 -6.5 37.5t-8.5 32.5q-32 156 -32 268zM307 748q0 -2 1 -6.5t1 -6.5q0 5 2 16.5t2 16.5q0 2 -1 6t-1 6q-4 -16 -4 -32zM326 850q1 3 7.5 18.5t6.5 24.5v8q-14 -33 -14 -47v-4zM391 469 q0 -29 15 -31q-3 8 -6.5 29t-6.5 29q-2 -8 -2 -27zM426 1083q4 5 7 11.5t6.5 14.5t6.5 13q-14 -23 -20 -39zM444 367q0 -15 5.5 -26.5t10.5 -16t15 -11.5q-6 8 -15.5 27t-15.5 27zM453 1135q5 5 13.5 12t14.5 12t12 13.5t7 17.5q-30 -27 -47 -55zM463 750q0 -55 4.5 -103 t10.5 -79t18 -63t19 -47t20.5 -39.5t17.5 -31.5q5 -13 16.5 -28t26 -31t20.5 -25q10 -13 19.5 -23t21 -18t18.5 -13t22 -10.5t20.5 -7.5t25.5 -8t25 -8q11 -4 27 -11t26.5 -11t29 -7.5t40.5 -3.5q16 0 42.5 4t80.5 25t102 55q30 17 53.5 40t40 51t27 52.5t20.5 55.5 q7 20 20 58.5t18.5 57t12.5 47.5t10 55.5t3 57.5q0 64 -9.5 108.5t-20 62t-27 39t-23.5 34.5q-3 7 -8 28t-12 34q-2 5 -12.5 16t-14.5 18q-123 156 -311 156q-7 0 -20.5 -1t-22.5 -1h-9q-9 -9 -24 -12.5t-34.5 -5.5t-29.5 -5q-13 -3 -33.5 -19.5t-31.5 -21.5 q-54 -23 -99 -78t-67 -108q-7 -31 -20.5 -79t-21 -83.5t-7.5 -72.5zM592 123q42 -22 80 -27q-5 1 -11 5.5t-12.5 9t-11.5 6.5q-18 6 -45 6zM705 86q24 -6 28 -6h4q-9 6 -30 6h-2zM899 1366q6 -2 27 -2q12 0 18 2h-45zM1249 219q17 6 29.5 20t15.5 31q-7 -10 -24 -27.5 t-21 -23.5zM1296 1116q7 -9 21 -23.5t23.5 -27.5t13.5 -29q-2 19 -10 31.5t-25.5 28t-22.5 20.5zM1475 727q0 -61 2 -61v12q0 9 1 24t1 19q-1 0 -1.5 3t-2.5 3zM1479 768q2 6 2 23q0 16 -2 22v-45z" />
<glyph unicode="1" horiz-adv-x="1210" d="M168 1208q0 13 24 28t50.5 24t60 19.5t39.5 12.5q22 8 105.5 33.5t109.5 38.5q13 6 39 23.5t57.5 32.5t73.5 24h10q68 0 68 -70q0 -20 -4 -60.5t-4 -62.5q0 -20 4 -50.5t4 -47.5q0 -30 -6 -89t-6 -93q0 -30 10 -112t10 -116q0 -27 -11 -71.5t-11 -73.5q0 -197 28 -356 q3 0 8.5 -1t8.5 -1q18 0 51 5t47 5q29 0 49 -14q6 2 18 2q22 0 36 -13.5t20 -39t8 -48t2 -53.5q0 -82 -37 -82q-5 0 -25 5t-38 5q-52 0 -135.5 -6t-124.5 -6q-15 0 -44 3t-42 3q-35 0 -103.5 -6t-99.5 -6q-19 0 -40.5 7.5t-27.5 8.5q-6 0 -17 -1t-16 -1q-16 0 -26.5 6 t-14.5 18t-5.5 22.5t-2.5 29t-2 27.5q-1 11 -6.5 35t-5.5 36q0 22 19 38t51 16q7 0 22 -1.5t21 -1.5q3 0 10.5 1.5t11.5 1.5q11 0 21 -7q21 7 43 7q12 0 33.5 -2.5t31.5 -2.5q4 0 11 1t10 1q0 52 9 158t9 162v57q0 10 1 33t1 33q0 13 -5 36t-5 38q0 30 4 82t4 69q0 15 -7 59 t-7 72q0 12 5 31t5 29q0 8 -2 12q-16 -5 -57.5 -9.5t-59.5 -9.5q-27 -7 -81 -36t-74 -29t-37.5 16.5t-26 34.5t-17.5 42t-10 26q-1 3 -9.5 13.5t-8.5 18.5q0 3 1 9.5t1 9.5q-4 12 -4 18zM266 1153q9 2 27.5 12t21.5 11q13 4 13 6v2q-6 -3 -22 -8.5t-25.5 -10.5t-14.5 -12z M346 117q0 -8 10 -8q3 0 9 1t8 1q3 -1 22.5 -8t30.5 -7q10 0 14 2q-16 6 -51.5 11.5t-42.5 7.5zM354 1194q4 0 15 6t18 6h2q0 3 1 6t1 5q-8 -2 -19.5 -10.5t-15.5 -10.5zM625 252q0 -29 2 -41q1 4 4 10t4 10q-6 18 -6 48v61q-4 -58 -4 -88zM649 905q0 -18 2 -24v43 q0 26 -2 34v-53zM707 547q0 -58 12 -82q-1 23 -6 65.5t-6 65.5v-49zM813 164q4 -2 14 -2q9 0 13 4h-15q-10 0 -12 -2zM893 164l12 -6q6 7 25 11t22 5h-6q-10 0 -29 -4.5t-24 -5.5z" />
<glyph unicode="2" horiz-adv-x="1441" d="M190 47q0 7 4.5 20t4.5 23q0 4 -1 12.5t-1 12.5q0 9 5 19t14.5 21t18.5 20t23 19.5l22 16.5t21 15t14 10q21 17 56 54.5t80 67.5q42 28 79.5 61.5t57 55t53.5 62.5q7 8 41.5 46t55.5 67t32 57q4 8 8.5 21t9 23t9.5 19q28 34 36 54.5t17 80.5q2 15 11 43t9 53 q0 18 -2.5 36t-7 32.5t-11 28.5t-12.5 25t-14.5 21.5t-15 17.5t-14 14.5t-12 11t-9.5 8.5l-6 4q-55 31 -148 31q-51 0 -121 -7t-102 -18q-9 -3 -30.5 -25t-49.5 -22q-16 0 -29.5 5.5t-22 12.5t-17 22.5t-12.5 25t-11.5 31t-11.5 30.5q-1 5 -9.5 23t-8.5 28q0 63 225 107 q24 4 58.5 13t62 14.5t53.5 5.5q30 0 79.5 -7.5t53.5 -7.5q187 -24 262 -125q10 -11 43.5 -43t51 -57t22.5 -57q5 -26 14 -63t15 -64t6 -41q0 -29 -6 -60.5t-16.5 -69.5t-14.5 -55q-13 -66 -19 -84q-9 -24 -22 -46.5t-32 -51.5t-25 -39q-32 -55 -95 -128t-116 -118 q-6 -5 -20.5 -13t-20.5 -13t-17 -17t-16 -16q-55 -29 -84 -63q29 0 83.5 1t80.5 1q25 0 67.5 -6.5t65.5 -6.5q98 0 98 19q0 9 -5.5 23.5t-6.5 21.5q0 5 -0.5 17t0 18.5t1 17t3 16.5t6.5 12.5t11 9.5t16 3t24.5 -6t24.5 -6q10 0 29 4t28 4q28 0 58 -25t30 -49q0 -9 -4.5 -21 t-5.5 -18q0 -12 7 -52t7 -64q0 -14 -1.5 -38t-8 -57.5t-16.5 -40.5q-30 -22 -185 -22q-27 0 -74.5 5t-64.5 5q-15 0 -52 -6t-56 -6q-23 0 -80 7t-86 7q-39 0 -119 -6t-125 -6h-76q-35 0 -57.5 2.5t-42 15t-19.5 35.5zM283 1309q13 5 24 16q-1 0 -9 -3.5t-11.5 -6t-3.5 -6.5z M287 72q0 -4 12 -4q10 0 14 2q-4 0 -10.5 2t-9.5 2q-1 0 -3 -1t-3 -1zM317 1329q16 7 36 13.5t45 13t38 10.5q-74 -10 -119 -37zM352 68q38 0 54 2q-5 0 -16.5 1t-16.5 1q-13 0 -21 -4zM436 227q23 26 68 49l-2 9q-57 -36 -66 -58zM629 168q4 -4 8 -4t4 2h-6q-1 0 -3 1t-3 1 zM664 164q8 -4 18 -4q8 0 16 4h-34zM750 164q20 -4 32 -4q9 0 25 4h-57zM754 1278q24 -12 28 -12q-16 12 -26 12h-2zM784 485l60 66q-2 0 -4.5 -1t-5.5 -1q0 -10 -25 -32t-25 -32zM805 1251q7 -5 24 -20.5t27 -20.5q-2 2 -19.5 20.5t-31.5 20.5zM1028 909q0 -4 4 -6 q0 4 2 11.5t2 11.5v6q-1 -2 -3 -6.5t-3.5 -8.5t-1.5 -8zM1034 72h37q25 0 37 2h-61q-11 0 -13 -2zM1034 1104q0 -8 6 -8q0 10 -4 12q-2 -2 -2 -4zM1145 301q3 -6 6 -27t10 -28q-8 24 -8 41q0 10 2 14h-10z" />
<glyph unicode="3" horiz-adv-x="1372" d="M174 90q0 23 25.5 55.5t29.5 59.5q1 6 3.5 19t4.5 18.5t6 13.5t12.5 11.5t20.5 4.5q30 0 63.5 -13.5t45.5 -25.5q24 -9 73.5 -14.5t69.5 -17.5h9q137 0 151 6q168 57 168 160q0 14 4 44.5t4 53.5v20q0 25 -31.5 63t-101.5 73q-19 9 -40 14t-33 5l-11 1h-24q-12 2 -37 2 q-24 0 -59 -16.5t-56 -16.5q-5 0 -16.5 -1t-16.5 -1q-19 0 -34.5 10t-24 25.5t-13 26t-6.5 20.5q0 6 -10 27.5t-10 40.5q0 12 14 28.5t33 34t25 25.5q19 29 68.5 77.5t82.5 69.5q28 18 37.5 25t38.5 33t76 73q7 12 24 33t25 33q-20 0 -67.5 5t-75.5 5h-39q-14 0 -36.5 4 t-31.5 4q-44 0 -88.5 -5t-73 -10t-33.5 -5q-75 0 -75 55q0 3 2 10t2 11q0 46 -2 69v25q0 5 -2 16.5t-2 16.5q0 24 13.5 38.5t41 20.5t46 7t51.5 1h7q24 0 101 -16q79 -6 182 -6q40 0 120 5t124 5q8 0 29 0.5t33 0t32.5 -1t33.5 -2t30 -4t27.5 -7.5t20.5 -11.5t14.5 -15.5 t4.5 -21q0 -10 -4 -14q1 -5 4.5 -19t5.5 -26t2 -25q0 -24 -13 -44t-29 -31.5t-35 -26t-27 -27.5q-23 -23 -133 -147q-14 -23 -70 -57q-23 -16 -62 -54.5t-63 -52.5q-3 -3 -13.5 -9t-15.5 -13q41 -9 79 -24t57 -15q25 0 46.5 -9.5t53.5 -30.5t59 -34q40 -19 87.5 -77.5 t47.5 -100.5q-4 -16 -4 -29q0 -14 7.5 -38t7.5 -42q0 -62 -18 -143t-50 -113q-9 -12 -24 -33q-46 -61 -65 -75t-85 -39q-34 -13 -55 -21q-89 -17 -111 -28q-25 -13 -94 -13q-10 0 -31 1t-30 1q-15 -1 -42.5 3t-41.5 4q-94 0 -207 32.5t-113 75.5zM305 1380q19 19 27 23 q-3 0 -10 1t-11 1q-2 -3 -3 -7t-1.5 -9.5t-1.5 -8.5zM481 74q17 -13 72 -13q54 0 72 11q-10 -2 -31 -2h-31q-11 0 -31 3t-32 3q-13 0 -19 -2zM551 748q35 12 70 4q3 0 19 3t24 1q-10 5 -13 8q-27 3 -60 -1t-40 -15zM590 1339q8 -2 27 -6.5t35.5 -7t37.5 -2.5q38 5 47 8 q-45 0 -147 8zM729 90h16q29 0 35 25q-8 -6 -28.5 -15t-22.5 -10zM784 723q28 -16 43 -31q2 0 6.5 -1t6.5 -1q-5 6 -28.5 20t-27.5 13zM846 618q1 0 2 -3q1 -1 1 -1.5t1 -1.5q1 1 3 1t3 1q-2 0 -5.5 2t-4.5 2zM858 150q4 4 4 14v8q-4 -12 -4 -18v-4zM907 188q20 5 25 13 q1 2 4.5 8t5.5 8q2 3 19 14q3 7 8 33l-17 -31q-9 -18 -45 -45zM993 516q0 -4 1.5 -6.5t3.5 -5.5t3 -4zM1010 483q5 -9 8 -26q0 -2 -1 -6.5t-1 -6.5q0 -6 4.5 -14.5t5.5 -11.5q-4 53 -16 65zM1030 328q0 -4 4 -4v10q-4 -4 -4 -6zM1053 1282l4 -12q7 2 18.5 8t18.5 8 q-3 0 -9.5 1t-9.5 1q-4 0 -10.5 -3t-9.5 -3h-2z" />
<glyph unicode="4" horiz-adv-x="1441" d="M133 471q0 48 7.5 80.5t15.5 45t23.5 29t21.5 25.5q12 17 42 70t54 82q164 194 276 342q36 49 104.5 133t104.5 131q4 5 12.5 16.5t12 15.5t11.5 9.5t18 7.5t24 2q34 0 68.5 -10t36.5 -10q5 0 15.5 6t20.5 6q29 0 46.5 -22.5t17.5 -51.5q0 -17 -6 -49.5t-6 -46.5 q0 -16 3 -51.5t3 -54.5q0 -17 -4 -52t-4 -55q0 -41 6 -115t6 -106q0 -14 -5 -40t-5 -46q0 -10 7 -31t7 -39v-55h61q40 0 63 -12t23 -47q0 -7 -2 -21.5t-2 -21.5q0 -10 6.5 -27.5t6.5 -26.5q0 -84 -47 -84q-9 0 -28.5 3t-27.5 3q-9 0 -25.5 -2t-25.5 -2q-9 -24 -17 -80 t-10 -67q24 -14 54 -18t50 -2t38.5 -8.5t27.5 -37.5q2 -6 6.5 -12.5t7.5 -13t3 -15.5q0 -80 -25 -111.5t-112 -31.5q-46 0 -120.5 9t-127.5 9q-30 0 -60 -9t-51 -9q-8 0 -29.5 1t-33.5 1q-10 0 -28 -1t-24 -1q-30 0 -46.5 17t-16.5 47v28q0 9 -2 36.5t-2 41.5q0 68 29 68 q13 0 41 -6.5t51 -6.5q46 0 89 7t54 18q0 14 1 43t1 43q0 21 -4 61q-86 19 -145 19q-32 0 -94 -10.5t-107 -10.5q-31 0 -94 3t-92 3q-13 0 -37 -1t-35 -1q-37 0 -56.5 14.5t-19.5 55.5zM360 584h11q8 0 10 2l-12 6q-9 0 -9 -8zM395 475q0 -4 68 -4q63 0 106 14q-10 0 -29 -4 t-28 -4q-6 0 -18 4q-22 -6 -97 -6h-2zM420 725q4 8 16.5 27t16.5 28q-2 -1 -6.5 -3.5t-8 -5t-6.5 -5.5v-6q0 -9 -6 -20t-6 -15zM479 653q35 -26 60 -26q18 0 52 8t56 8t64 -3.5t55 -4.5q3 9 16 19.5t17 15.5v18q0 24 5 74t5 76q0 16 -4 45t-4 45q0 21 -2 63.5t-2 57.5v14 q0 10 -6 10q-31 -27 -73.5 -102.5t-60.5 -93.5t-36 -39l-30 -35t-31 -39.5t-26 -34.5t-29 -39.5t-26 -36.5zM657 1104q62 77 72 94q-53 -53 -72 -94zM674 76q4 1 14 0.5t17.5 0.5t11.5 5h-29q-12 0 -14 -6zM731 1202q6 9 29.5 34.5t30.5 39.5q-36 -31 -60 -74zM780 160h8 q23 0 23 4h-8q-15 0 -23 -4zM840 164q2 2 12.5 5t11.5 9q-20 -10 -24 -14zM858 598q12 0 12 8q-8 -4 -12 -8zM963 1319q0 -8 4 -12v6q0 5 1 14t1 10v2q-6 -12 -6 -20zM967 1247q0 -3 2.5 -9t3.5 -9q-1 3 -1.5 13t-2.5 13q-2 -2 -2 -8zM981 82q0 -2 20 -2h9q-4 2 -19 2h-10z M1085 78q4 1 15.5 1.5t19.5 1.5t13 5q-1 0 -5 1t-6 1q-17 0 -37 -10z" />
<glyph unicode="5" horiz-adv-x="1366" d="M178 104q0 14 17 33t20 29q-2 4 -2 10q0 32 25 72.5t45 40.5q15 0 27 -9t16 -10q8 -4 23 -10t24 -12q17 0 40.5 -15.5t41.5 -15.5h26q13 0 38 -8t50 -8q158 0 262 84q12 12 19 20t11 16.5t5 13t2.5 16.5t3.5 20t10.5 32.5t8.5 40.5q0 34 -12.5 65.5t-27 51.5t-39.5 40 t-37 27.5t-32 18.5q-71 38 -196 35q-33 0 -82 -10t-70 -10q-67 0 -95 42t-28 150q0 67 9.5 176t9.5 131q0 11 -1 35t-1 37v70q0 15 -3 46.5t-3 51.5q0 9 4.5 16t14.5 12t20.5 8.5t27.5 5.5t30.5 3.5t34.5 1.5h34.5h35.5h33q25 0 64.5 -5t50.5 -5q25 0 73.5 7t75.5 7 q11 0 37 -1t41 -1h35q16 0 36 -5.5t27 -6.5q10 -2 29.5 -4.5t26.5 -4t20.5 -5t19 -7.5t12.5 -10.5t9.5 -16t3.5 -22.5q0 -6 -6 -21t-6 -24q0 -15 9 -44t9 -48q0 -13 -8 -31t-8 -31q0 -7 3 -30t3 -37q0 -9 -2.5 -15.5t-7.5 -11.5t-10.5 -8.5t-15 -5.5t-17 -3t-19.5 -1h-19.5 h-21h-20.5q-88 0 -88 51q0 10 4 29t4 28q-1 4 -7.5 18.5t-6.5 24.5h-25q-13 0 -40 -1t-40 -1q-19 0 -63 4t-70 4q-7 0 -22.5 -1t-22.5 -1q-20 -25 -20 -73q0 -34 10 -91t10 -71q0 -21 -6.5 -50t-7.5 -36q23 -31 57 -31q24 0 67.5 6t65.5 6q12 0 23.5 -2t17.5 -4t19.5 -7.5 t21.5 -8.5q23 -9 63.5 -20.5t70 -25t59.5 -38.5q37 -32 55 -53.5t49 -73.5q43 -61 43 -184q0 -69 -21 -145.5t-48 -123.5q-20 -34 -84 -73q-16 -11 -44.5 -34.5t-43.5 -31.5q-63 -35 -142 -52.5t-116 -17.5q-10 0 -30.5 2.5t-29.5 2.5q-8 0 -22 -4.5t-23 -4.5q-25 0 -65 6.5 t-62 6.5q-41 0 -101 18t-106.5 46.5t-46.5 53.5zM348 168q5 -1 27 -12h6h3.5h3.5q-3 1 -11 4.5t-13.5 5.5t-11.5 2h-4zM356 809q2 2 2.5 8.5t0.5 15t1 11.5q-2 6 -2 16q0 12 4.5 34t4.5 30q0 14 -5 22q-1 -13 -2.5 -36t-2.5 -42.5t-1 -38.5v-20zM367 1356l2 -2q1 3 3.5 5.5 t4.5 3.5l2 1h-10q0 -1 -1 -4t-1 -4zM399 154q2 0 13.5 -3.5t17.5 -3.5h2q0 2 -6.5 5.5t-9.5 3.5q-2 0 -5 -1t-5 -1h-7zM459 141q24 -4 39 -4q14 0 20 2q-16 4 -37 4q-16 0 -22 -2zM494 840q4 -2 10.5 -8t12.5 -10.5t13 -4.5h5q-10 13 -41 23zM547 129q2 0 5.5 -2.5t4.5 -3.5 q1 0 23 6q-15 2 -23 2q-10 0 -10 -2zM612 53q6 -2 17 -2q13 0 53 10q-24 0 -70 -8zM629 1286h12q11 0 29.5 -3t25.5 -3t11 2q-5 0 -10 3t-9.5 6.5t-7.5 4.5h-8q-8 0 -43 -10zM698 61q30 5 35 7h-8q-13 0 -27 -7zM739 1282q0 -2 11 -2q14 0 18 4h-14q-11 0 -15 -2zM768 709 q10 -4 28 -16t27 -15q-2 2 -11 11.5t-17.5 14.5t-18.5 5h-8zM866 1272h2q1 0 2.5 -0.5l3 -1t3.5 -0.5t2 2q-1 0 -4 1t-5 1zM913 752q7 -7 11 -7l2 3q-2 0 -6.5 2t-6.5 2zM969 379q0 2 4 14t4 19q0 8 -4 16v-12q0 -8 -2 -20t-2 -17zM973 195q45 29 53 67q-11 -20 -53 -67z M975 1198q3 -3 5 -8.5t3 -11t2 -12t1 -12v-10t0.5 -7l0.5 -2.5q2 0 2 12q0 14 -4.5 39t-5.5 35q0 -11 -4 -23zM1026 653q1 -11 5.5 -19.5t15.5 -19.5l12 -12l-23 45q-6 6 -10 6zM1073 455q0 -21 2 -27q4 20 4 35q0 3 -1 8t-1 8q-4 -4 -4 -24z" />
<glyph unicode="6" horiz-adv-x="1433" d="M203 504q0 69 15 155t15 123q0 35 20.5 74t43 71.5t25.5 47.5q51 156 243 293q28 20 102 76t122.5 89t91.5 54q24 16 45 16q10 0 19 -3t15.5 -7t13.5 -11.5t11 -12.5t9 -15.5t6.5 -14t5.5 -13.5l4 -11q15 -35 37 -58.5t34.5 -36.5t12.5 -30q0 -21 -39.5 -43t-75.5 -33.5 t-41 -11.5q-16 -7 -37 -23.5t-60.5 -47.5t-84.5 -62q-47 -21 -119 -106q-16 -19 -25 -29.5t-18.5 -23t-14 -17.5t-9.5 -14.5t-6.5 -11.5t-4 -11t-2.5 -10.5t-1.5 -13t-2.5 -15.5q24 10 52 30t48.5 36.5t53.5 29.5t71 13h23q7 0 21.5 1t21.5 1q32 0 61 -3.5t54 -11.5t43 -15 t37 -19t27.5 -17.5t23.5 -17.5t16 -13q35 -20 61 -53.5t39 -68.5t20 -66t10 -53t3 -23q8 -49 8 -100q0 -28 -2 -59.5t-2 -57.5q0 -4 1 -12.5t1 -13.5q0 -32 -45 -85l-8 -8q-11 -29 -46 -73.5t-50 -59.5q-106 -106 -226 -106q-121 -17 -168 -17q-13 0 -32.5 3.5t-30.5 3.5 q-3 0 -9 -2.5t-9 -2.5q-15 0 -32 3.5t-34 10t-33 13t-31.5 15t-25.5 14t-20 12t-11 6.5q-4 3 -21.5 12t-23.5 21q-51 26 -95.5 102.5t-60.5 130.5q-4 24 -12 67t-13 74t-5 46zM307 279l2 -5q1 0 4.5 -1t5.5 -1zM330 465q6 0 8 -2q-2 14 -2 47q-6 -6 -6 -45zM375 758 q36 76 74 127q1 3 2 9.5t2 8.5q-1 0 -41 -45q-3 -6 -13.5 -29t-16.5 -39.5t-7 -31.5zM389 256q5 -11 14.5 -23.5t16 -19.5t22 -22t17.5 -17q10 -6 23 -14t20.5 -12.5t9.5 -4.5q-2 2 -5 8.5t-5 8.5q-52 35 -113 96zM489 434q0 -23 17.5 -50.5t19.5 -35.5q2 -6 4.5 -19.5 t5.5 -21.5t10 -19t21 -20t35 -16q8 -4 19.5 -13.5t23.5 -14.5t31 -5h14q20 0 49 -2t43 -2q23 0 64 22.5t51 32.5q36 19 56 88.5t20 108.5q0 79 -34.5 144t-76.5 65q-78 8 -114.5 18.5t-73.5 10.5q-14 0 -41 -13.5t-37 -15.5q-3 -4 -8.5 -10t-9.5 -10t-5 -7q-8 -8 -18 -31.5 t-12 -27.5t-14 -23.5t-19 -34t-14 -42t-7 -56.5zM612 162q4 -4 20 -17.5t17 -13.5t7 8.5t6 10.5q-10 1 -27 6t-23 6zM731 827q6 -2 25 -2q33 0 57 4l-6 9q-41 -8 -76 -11zM856 1335l8 -12l51 37zM893 59l2 -12l45 2q6 9 -10 11q-7 0 -24 -1h-13zM1044 494q7 0 9 -2 q-2 14 -2 47q-7 -7 -7 -45zM1147 268l22 60l-14 22h-2z" />
<glyph unicode="7" horiz-adv-x="1273" d="M162 1106q0 6 7 17t7 20q0 15 -6 40t-6 40q0 9 1 29.5t1 29.5t-1 28.5t-1 28.5q0 74 24 88q7 5 82 13h13q22 0 65.5 -4t67.5 -4q28 0 89 1t91 1q38 0 114 -3.5t111 -3.5q28 0 88 5.5t92 5.5q27 0 53.5 -3t55 -10t46.5 -21.5t18 -35.5q0 -40 -17 -84.5t-45.5 -98.5 t-38.5 -81q-16 -42 -37 -115t-32 -100q-6 -14 -22 -38.5t-21 -33.5q-46 -87 -85.5 -175t-60 -141.5t-38.5 -103.5t-21 -57q-7 -15 -23 -37.5t-22 -32.5q-15 -27 -35 -94.5t-42 -117t-50 -60.5q-58 -10 -111 -10q-55 0 -88 16.5t-33 46.5q0 28 23.5 62t27.5 47q3 6 5.5 22 t5.5 23q7 23 31.5 70t31.5 65q80 213 154 348q35 70 86 217.5t76 204.5q3 8 22.5 40t20.5 54q-16 2 -50 2q-18 0 -54 -4t-54 -4q-28 0 -88 1t-88 1q-3 0 -22 0.5t-30.5 0t-27 -1.5t-23.5 -3.5t-8 -7.5q0 -4 1 -12.5t1 -12.5q0 -6 -4 -24t-4 -29q0 -8 1 -20t1 -17 q0 -26 -27 -26q-15 0 -36.5 6t-28.5 6q-8 0 -30 -2t-34 -2q-25 0 -47 12t-22 39zM250 1309q1 -19 1 -61.5t1 -57.5q0 6 2 22t2 25t-1 27t-1 26q0 3 1 9.5t1 9.5q-4 4 -6 4v-4zM256 1354q1 3 9.5 4.5t10.5 3.5q-20 0 -20 -6v-2zM459 1276h24q19 0 25 2q-4 0 -15 1t-16 1 q-10 0 -18 -4zM545 92q16 31 33 88q-9 -8 -14.5 -23t-10.5 -35.5t-8 -29.5zM557 1276h14q0 6 -6 6q-8 0 -8 -6zM608 1358q2 -2 8 -2q11 0 23 4h-21q-8 0 -10 -2zM893 1251q9 -9 12 -10q0 3 2 6t2 6q-3 -1 -9 -1t-7 -1zM924 1356q2 1 8 0.5t10.5 0.5t5.5 5q-3 -1 -9 -1 t-9.5 -1t-5.5 -4zM973 1104q0 -4 4 -8q3 16 8.5 32.5t14 35.5t12.5 30q-14 -14 -29 -64q-10 -20 -10 -26z" />
<glyph unicode="8" horiz-adv-x="1478" d="M209 367q0 14 5 40t5 44q0 10 -2 34.5t-2 36.5q1 6 5 28t8 31t13 27t27 34.5t45 35.5q10 7 30 27t40 32.5t45 14.5q-4 8 -4 12q0 1 1 3t1 3q-19 9 -35.5 20t-28 21t-22.5 23.5t-17 23t-13 24t-10 21t-7.5 20t-5.5 15.5q-4 9 -16.5 26t-20.5 35.5t-8 42.5q0 30 4 56.5 t4 34.5v18q3 37 20 74t33 55l16 18q17 34 95 93q4 3 22 14.5t25 16t23 13.5t25.5 12.5t22 7t23.5 3.5q6 0 18.5 -1t18.5 -1q36 0 61 4t36 8.5t13 4.5q8 0 24 -2.5t24 -2.5q9 0 28.5 1t28.5 1q35 0 94.5 -22.5t69.5 -24.5q62 -15 122 -59.5t89 -120.5q3 -12 20 -47t17 -66 v-77q0 -11 -4.5 -33t-4.5 -37q0 -53 -41 -101.5t-75 -68.5q-46 -28 -62 -33q4 -10 26.5 -26t47 -31t27.5 -18q120 -111 120 -193q0 -8 5.5 -28.5t5.5 -32.5q0 -10 -1 -33t-1 -41q0 -60 -69 -181q-2 -4 -1 -3q-46 -64 -64 -82q-29 -22 -51.5 -37.5t-43.5 -27t-33 -17.5 t-38 -17.5t-40 -17.5q-7 -3 -23 1t-22 1q-47 -21 -138 -21q-68 0 -112 6.5t-101 26.5h-10q-3 0 -9.5 -1t-12 -1t-9.5 2q-31 13 -53 27.5t-50.5 40t-29.5 26.5q-35 27 -56 52.5t-30 42.5t-12 20q-39 75 -39 107q0 9 -3 22.5t-3 20.5zM356 352l23 -59l-6 82h-2zM356 1096 l15 -23h2l6 82zM446 516q2 2 9 2q0 39 -6 45q0 -26 -3 -47zM446 932q3 -21 3 -47q6 6 6 45q-7 0 -9 2zM492 477q0 -5 2 -14t2 -14q0 -10 -1 -32t-1 -32q0 -27 8 -47t16 -26l8 -7q18 -18 35.5 -32.5t26.5 -19.5l8 -5q23 -4 44.5 -19.5t27.5 -15.5q10 0 29.5 2t29.5 2h39 q55 0 104 21.5t71 42t22 26.5q2 6 2 23q-1 4 10.5 29t11.5 30q0 19 -2 42t-2 54q0 15 -17.5 40.5t-37 48t-21.5 26.5q-3 6 -17.5 16.5t-50.5 21.5t-79 11q-45 0 -103 -12.5t-73 -24.5v-6q0 -17 -27 -35q-29 -16 -47 -45.5t-18 -48.5zM524 1018q0 -4 8.5 -18t19.5 -33t15 -31 q25 -8 47 -21q23 -23 49.5 -32.5t57.5 -11.5t33 -3h22q5 0 19 -2t24 -2q6 0 18.5 8t22.5 16l10 7q3 6 20.5 19.5t31.5 31t14 37.5v14q2 8 8 26t6 26q0 22 -10 41.5t-10 31.5v19q0 54 -84 91q-35 14 -39 11q-18 8 -51 25q-2 0 -6.5 -1t-6.5 -1q-3 0 -10 1t-10 1 q-81 0 -141 -72q-20 -20 -33 -47q-3 -8 -8 -22.5t-7 -21.5t-5 -20.5t-4 -29.5t-1 -37zM690 82l45 -2l2 12q-4 0 -13 0.5t-14 0.5t-12.5 -0.5t-8 -3t0.5 -7.5zM690 1366q-6 -9 10 -11q7 0 24 1h13l-2 12zM838 174q0 -2 5.5 -10t6.5 -8t17 13t20 17q-6 -1 -22.5 -6t-26.5 -6z M838 1274q10 -1 26.5 -6t22.5 -6q-4 4 -20 17t-17 13t-6.5 -8t-5.5 -10zM971 588l28 -39q0 2 2 4.5t3 3.5q-6 8 -17.5 19.5t-15.5 11.5zM971 860q4 0 15.5 11.5t17.5 19.5q-1 1 -3 3.5t-2 4.5zM987 168q2 0 9.5 4.5t20.5 12.5t23 14q2 2 17.5 17t22 22t16 19.5t14.5 23.5 q-64 -64 -113 -97q-2 -2 -5 -8t-5 -8zM987 1280q2 -2 5 -8t5 -8q49 -33 113 -97q-5 11 -14.5 23.5t-16 19.5t-22 22t-17.5 17q-10 6 -23 14t-20.5 12.5t-9.5 4.5zM1071 1057q0 -2 4 -2zM1075 393q1 0 4.5 1t5.5 1q2 2 2 4zM1077 1054q7 -5 10 -5l-2 4q-2 0 -4.5 0.5 t-3.5 0.5z" />
<glyph unicode="9" horiz-adv-x="1433" d="M170 913q0 33 11.5 98t11.5 99q0 49 34 111t56 84q11 9 35 31.5t37.5 33t45 29t74.5 37.5q29 16 81 15t89 17q17 7 35 7q12 0 39 -9q8 0 19 1t14 1q102 0 209.5 -56.5t125.5 -98.5q32 -25 52 -55t37.5 -76t17.5 -47q46 -99 49 -217q0 -13 -6 -34t-6 -30q-5 -54 -13 -102 t-13 -69l-5 -21q-6 -28 -17.5 -60t-23 -58.5t-24.5 -53.5t-22.5 -44.5t-17.5 -31.5l-8 -13q-11 -13 -41.5 -58t-58 -74t-59.5 -44q-5 -11 -17.5 -23.5t-27 -22.5t-28 -18t-23.5 -13l-9 -5q-45 -45 -110 -75q-23 -11 -67 -45.5t-85 -49.5q-2 0 -10.5 -9.5t-22.5 -19.5 t-28 -10q-35 0 -66.5 37t-46.5 70q-3 7 -14.5 23.5t-18.5 33t-8 35.5q0 33 31 33h6q0 14 16 27.5t35 21.5t36.5 14t18.5 7q5 3 23 17.5t33 22t33 7.5h8q25 20 68 51t67.5 50t56 51t56.5 69q8 16 30.5 40.5t26.5 49.5q-10 -5 -41 -21.5t-47 -24.5t-42.5 -17t-51.5 -13 q-8 -1 -24 -4.5t-29 -5.5t-23 -2q-26 0 -84 16q-12 3 -45.5 5t-48.5 10q-17 9 -53 22.5t-57 24t-51.5 40t-57.5 74.5q-7 19 -26 54.5t-29.5 72t-10.5 88.5zM262 1114l14 -22h3l6 82zM379 950q2 -14 2 -47q6 6 6 45q-6 0 -8 2zM463 887q0 -28 51 -96q9 -9 42 -21.5t42 -17.5 q17 -12 20 -13t62 -16q6 0 17.5 -3t17.5 -3q74 0 121 35l4 4q11 6 27.5 14.5t22.5 12.5t16.5 17t19.5 35t22 60q10 33 10 61q0 176 -71 213q-25 9 -52.5 29t-57 31.5t-77.5 11.5q-25 0 -108 -28l-17 -5q-7 0 -14.5 -4.5t-16 -13.5t-14 -16t-14.5 -20t-12 -17 q-39 -78 -39 -158q0 -8 1 -24.5t1 -24.5q0 -7 -2 -21.5t-2 -21.5zM492 1393q-6 -9 10 -11q7 -1 26 0h11l-2 13zM516 82l59 24l-8 13zM618 612l7 -8q32 6 73 10q-1 0 -8.5 1t-13.5 1q-34 0 -58 -4zM770 1292q10 -1 26.5 -6t22.5 -6q-4 4 -20 17.5t-17 13.5t-6.5 -8.5 t-5.5 -10.5zM920 1298q2 -2 5 -8t5 -8q49 -33 112 -96q-4 9 -10 17.5t-14.5 18.5t-14 15.5l-16.5 16.5l-14 14q-9 5 -23 13.5t-21 12.5t-9 4zM979 539q1 0 41 45q3 6 13.5 29t16.5 39.5t7 31.5q-36 -76 -74 -127q-1 -3 -2 -9.5t-2 -8.5zM1094 979q2 -14 2 -47q6 6 6 45 q-6 0 -8 2zM1108 1171q0 -2 4 -2zM1114 1168q7 -5 10 -5l-2 4q-2 0 -4.5 0.5t-3.5 0.5z" />
<glyph unicode=":" horiz-adv-x="829" d="M258 102q0 5 1 15.5t1 15.5t-1 15.5t-1 15.5q0 25 25 43q21 31 30 39q10 5 22 14.5t22 15t26 5.5q11 0 24 -4.5t21 -4.5q3 0 8 1t8 1q29 -3 57.5 -21.5t35.5 -43.5q0 -8 14 -24t16 -33q0 -6 -1 -17.5t-1 -17.5v-23q0 -37 -18.5 -62.5t-36.5 -32.5l-18 -7q-9 -6 -17.5 -14 t-16 -11.5t-24.5 -3.5q-48 0 -73 8t-46 33q-3 6 -18.5 18.5t-27 32t-11.5 47.5zM258 811q0 6 1 17.5t1 17.5v22q0 24 7.5 43t18.5 29.5t22 18t18 9.5l8 3q9 6 17.5 14t15.5 11t24 3q48 0 73 -8t46 -33q3 -6 18.5 -18.5t27 -32t11.5 -47.5q0 -5 -1 -15.5t-1 -15.5t1 -15 t1 -15q0 -26 -24 -43q-19 -29 -31 -39q-10 -5 -22 -14.5t-22 -15t-26 -5.5q-10 0 -24 4t-21 4q-3 0 -8 -1t-8 -1q-28 3 -56.5 22t-35.5 44q0 8 -14.5 24t-16.5 33zM326 66q-2 -7 2 -13l16 -6q-3 1 -9.5 8t-8.5 11zM336 788q-2 -6 2 -12q2 -2 6 -3.5t7 -1.5l3 -1q-1 1 -3.5 3 t-5.5 4.5t-5.5 5.5t-3.5 5zM385 121q0 -4 7 -4h3.5t4.5 -0.5t6 -0.5t6 -1l4 1t4 5t-3.5 5t-17.5 1q-11 0 -12.5 -0.5t-1.5 -5.5zM385 791q-3 -5 3 -8.5t13 -3t9 2.5q-11 -2 -25 9zM406 842q0 -4 3 -5t17 -1q10 0 12 1t2 5t-7 4h-4t-6.5 0.5t-8.5 1.5l-4 -1t-4 -5zM416 180 q9 1 24 -8q2 5 -3.5 8t-12 2.5t-8.5 -2.5zM471 193q10 -7 18 -19q3 3 -0.5 8t-9.5 8.5t-8 2.5zM481 915q2 -1 6 -4t8 -7t5 -7q2 6 -2 12q-1 1 -3 2t-4.5 2t-4.5 1.5t-4 0.5h-1z" />
<glyph unicode=";" horiz-adv-x="866" d="M264 135q0 25 8 43.5t16 25.5t11 7q14 26 40.5 44.5t55.5 18.5q3 0 9.5 -1t9.5 -1q6 0 15 1t13 1q38 0 69.5 -19.5t49 -47.5t26.5 -53t9 -41v-25q4 -20 4 -31q0 -25 -6.5 -53t-14 -46.5t-15 -34.5t-7.5 -17q-17 -33 -35 -60t-31.5 -43.5t-34 -34.5t-29.5 -24.5 t-32.5 -21.5t-29.5 -19q-53 32 -62 68q1 21 27.5 50.5t56 54t31.5 28.5q15 18 22 53q-78 0 -127 56t-49 122zM274 821q0 5 1 15.5t1 15.5t-1 15.5t-1 15.5q0 25 25 43q19 29 31 39q10 5 21.5 14.5t21.5 14.5t26 5q11 0 24 -4t21 -4q3 0 8.5 1t8.5 1q28 -3 56.5 -21.5 t35.5 -43.5q0 -8 14.5 -24.5t16.5 -33.5q0 -6 -1 -17t-1 -17v-23q0 -37 -18.5 -62.5t-37.5 -32.5l-18 -7q-9 -6 -17 -14t-15.5 -11.5t-24.5 -3.5q-48 0 -73 8t-46 33q-3 6 -18.5 18.5t-27.5 32t-12 47.5zM342 784q-2 -6 2 -12q2 -2 6 -3.5t7 -1.5l3 -1q-3 1 -9.5 7.5 t-8.5 10.5zM348 66q-2 -7 2 -13l17 -6q-3 1 -10 8t-9 11zM391 -205l2 -2q13 8 39 39.5t23 46.5h-6q1 0 -1.5 -6t-7.5 -14.5t-10 -14.5zM401 840q0 -4 7 -4q11 0 20 -2l4 1q4 1 4 5t-3 5t-17 1q-15 0 -15 -6zM408 121q0 -4 7 -4h4t6.5 -0.5t8.5 -1.5l4 1q4 1 4 5t-3 5t-17 1 q-10 0 -12 -0.5t-2 -5.5zM432 899q8 1 25 -8q2 5 -4 8t-12.5 2.5t-8.5 -2.5zM438 180q10 1 25 -8q2 5 -4 8t-12.5 2.5t-8.5 -2.5zM487 911q3 -1 10 -7.5t9 -10.5q2 6 -2 12q-1 1 -3 2t-4.5 2t-4.5 1.5t-4 0.5h-1zM494 193q10 -7 18 -19q3 3 -0.5 8t-9.5 8.5t-8 2.5z" />
<glyph unicode="&#x3c;" horiz-adv-x="1087" d="M184 467q0 24 5.5 62.5t5.5 54.5q0 6 -3.5 17t-3.5 20q0 12 7 22t15.5 16t29 19.5t34.5 23.5q41 41 126 80t106 60q28 14 88 57.5t90 58.5q43 43 82 43q25 0 43 -18t18 -39q0 -6 -4 -18q8 -12 8 -27q0 -41 -16.5 -72t-30 -41t-24.5 -14q-125 -59 -154 -88 q-96 -55 -119 -70v-6q0 -19 -35 -35t-36 -18q-18 -12 -35 -29q22 -22 61 -42.5t60 -26.5q53 -43 101 -60.5t69 -31.5q16 -7 41 -30.5t37 -29.5q68 -33 77 -80q0 -8 -2 -22t-2 -23q0 -14 6.5 -24t6.5 -21q0 -35 -8 -54.5t-16 -23.5t-21 -4q-16 0 -48.5 20.5t-44.5 32.5 q-20 17 -53 40.5t-49 39.5q-11 10 -70 35t-71 33q-15 10 -62 38t-77 49.5t-52 43.5q-3 2 -29.5 14.5t-38.5 27t-12 40.5z" />
<glyph unicode="=" horiz-adv-x="1357" d="M258 768q0 27 6.5 70.5t11.5 56.5q2 6 14.5 11.5t31.5 8.5t37 5t37.5 3.5t25.5 2.5q31 0 88.5 -1t77.5 -1t61 -6.5t66 -6.5q41 0 100 7.5t72 7.5h17h43.5t43.5 -1.5t44.5 -6t35 -11.5t27 -19t8.5 -28q0 -3 -1 -7.5t-1 -6.5q0 -6 2 -16t2 -15q0 -103 -31 -113 q-11 -8 -49 -8q-12 0 -34 2t-33 2q-23 0 -80 -4t-84 -4q-94 0 -117 8q-3 1 -11.5 4.5t-13.5 4.5q-20 0 -83.5 -5.5t-100.5 -5.5h-7q-29 0 -45.5 0.5t-45 2t-45.5 6.5t-35 12.5t-26.5 20.5t-8.5 30zM262 299q0 12 5 38.5t5 47.5q-4 20 -4 29q0 11 3.5 18.5t11 11.5t15 6.5 t21 3t23 0.5t25.5 -0.5t26 -0.5h240q39 0 117 4h45q177 0 243 -15.5t66 -66.5q0 -8 -3 -25.5t-3 -25.5q0 -6 2 -19t2 -20q0 -11 -2.5 -16t-6.5 -6.5t-15.5 -5.5t-22.5 -9q-17 -17 -45 -17t-79.5 4.5t-70.5 4.5q-12 0 -36 -2t-36 -2q-74 0 -187 4t-138 4q-18 0 -53.5 -1 t-51.5 -1q-38 0 -67 14t-29 43zM334 309q5 2 33 8q-17 11 -23 11zM336 784q1 -3 1.5 -8t1.5 -9t3 -7q4 0 10.5 1t9.5 1q-8 4 -26 22zM557 336q9 -3 47 -8q21 0 37.5 2.5t35 7t28.5 6.5q-102 -8 -148 -8zM672 803q21 1 56.5 3t61.5 3.5t29 1.5q-9 3 -47 8q-28 0 -61 -7.5 t-39 -8.5zM1010 829q15 -10 22 -10l10 19q-9 -4 -32 -9zM1014 385q6 -3 26 -23q-1 3 -1.5 8.5t-1.5 9.5t-3 7q-4 0 -10.5 -1t-9.5 -1z" />
<glyph unicode="&#x3e;" horiz-adv-x="1089" d="M250 119q0 38 1 62t8 45t12 31t23 24.5t30.5 21.5t46 26t57.5 33q24 10 43.5 21.5t32.5 22t55 43.5q11 5 36.5 21.5t43.5 23.5q38 17 51 30q-13 8 -40.5 32t-55.5 42q-135 44 -272 170q-3 2 -14.5 8t-18.5 10.5t-16.5 12.5t-14 18.5t-4.5 22.5v12q0 10 -1 31.5t-1 31.5 q0 19 1 30t4 26t12 22.5t24 7.5q9 0 19 -3.5t18 -8.5t15 -10t11 -9l4 -3q53 -30 110 -72.5t97 -63.5q8 -4 41.5 -28.5t65.5 -30.5q42 -17 70.5 -35.5t72.5 -62.5q3 -2 32 -19.5t40.5 -32.5t11.5 -38q0 -19 -1 -59t-1 -56v-18q0 -19 -9 -30.5t-26.5 -19.5t-19.5 -10 q-59 -59 -148 -106q-21 -17 -44.5 -32.5t-36.5 -23t-39 -21.5t-33 -18q-23 -13 -67.5 -43.5t-82.5 -50.5q-14 -14 -40.5 -27.5t-37.5 -13.5q-27 0 -46 18t-19 46z" />
<glyph unicode="?" horiz-adv-x="1124" d="M176 1386q0 14 13 27t33 22.5t39 17t35 12.5t17 5q9 3 42 14.5t55 16t47 4.5q3 0 10.5 1t11.5 1q50 0 91 -5t63 -11t58 -17.5t57 -17.5q38 -13 58 -26.5t54 -47.5q40 -39 49.5 -57t42.5 -117q27 -52 27 -108q0 -31 -11 -62t-27 -59.5t-17 -32.5q-10 -23 -21.5 -36.5 t-34.5 -36t-47 -52.5q-26 -32 -92 -88.5t-80 -77.5q-8 -11 -22.5 -29.5t-21.5 -29t-13 -27t-6 -34.5q0 -47 -5 -73.5t-21.5 -38t-31.5 -13.5t-51 -2q-10 0 -26.5 2t-20.5 2h-16q-25 0 -44.5 17t-19.5 50q0 45 9.5 97.5t27.5 80.5q13 13 42.5 62.5t53.5 75.5q19 20 55 54.5 t58.5 60t36.5 51.5q3 5 19.5 28t28 46t11.5 44q0 3 -9 27.5t-9 44.5q0 3 1 9.5t1 10.5q0 27 -66 68l-10 8q-1 0 -3 1t-3 1q-2 0 -7.5 -1t-8.5 -1q-16 1 -46 11t-49 10q-51 0 -101.5 -13t-83 -25.5t-40.5 -12.5q-28 0 -49 14.5t-21 36.5q0 7 6.5 17t6.5 18q0 14 -12.5 40 t-12.5 43zM291 135q0 23 6.5 42t15 32.5t23.5 24.5t26.5 17.5t29.5 12.5t26.5 7.5t23.5 4.5l15 3q6 0 17 2t18 2q43 0 63 -41q32 -14 52 -45t20 -74q0 -102 -138 -170q-14 -6 -43 -6q-76 0 -131 112q-24 24 -24 76zM381 74q-2 -7 2 -13l16 -6q-3 1 -9.5 8t-8.5 11zM391 1405 q6 -2 19 -2q12 0 32 3t31 3h31q21 0 31 -2q-16 10 -72 10t-72 -12zM430 76q-3 -7 9 -9q13 -3 16 1q-10 -1 -25 8zM451 127q0 -4 3 -5t17 -1q10 0 12 0.5t2 5.5q0 4 -7 4h-3.5t-4 0.5t-5.5 0.5t-6 1l-4 -1t-4 -5zM461 506q0 -4 4 -8q0 3 -1 10t-1 10q0 -8 -2 -12zM467 559 q2 6 7 12t12 12t10 11q11 32 41 55q-13 0 -35.5 -25.5t-34.5 -48.5v-16zM526 201q2 -1 6 -4t8 -7.5t5 -7.5q2 7 -2 13q-2 2 -6 3.5t-8 1.5zM639 1389q2 -1 22.5 -10t28.5 -15q-6 25 -35 25h-16zM733 958q4 0 18.5 23.5t16.5 30.5l-10 -6q-3 -10 -25 -48zM756 860q1 0 4.5 2 t5.5 2q-1 1 -3 1t-3 1q-1 -1 -2 -3q-1 -3 -2 -3zM768 1325q0 -6 4 -18v8q0 10 -4 14v-4zM784 1280q19 -43 19 -59v-33q1 3 2.5 8.5t3 11.5t2.5 11q-9 13 -10 20v27q-1 1 -4.5 3t-7 5t-5.5 6zM862 961l6 12q-6 -3 -6 -12zM879 993q12 12 16 66q-1 -3 -5.5 -12t-4.5 -15 q0 -2 1 -6t1 -6q-4 -18 -8 -27zM899 1149q0 -2 4 -6v10q-4 0 -4 -4z" />
<glyph unicode="@" horiz-adv-x="2361" d="M190 575q0 19 10.5 50t12.5 43q3 19 4 51.5t5.5 58.5t15.5 56q19 86 26 106q30 81 47 92q6 33 30.5 67.5t47 54.5t59.5 49.5t44 35.5q9 7 30.5 26.5t36 31.5t35 27.5t37.5 25.5q11 5 63.5 28t80.5 34t77 27t94.5 23.5t91.5 7.5h23q14 2 40 7.5t49 8.5t46 3 q49 0 123 -11.5t76 -11.5q4 0 13 1t13 1q14 -1 39 -9.5t33 -10.5q13 -4 38.5 -8t37.5 -8q17 -8 49 -28.5t49 -27.5q11 -4 31 -7.5t28 -6.5q19 -6 40 -19.5t30 -21.5t33 -31q30 -12 69 -51t61.5 -68t37.5 -51q6 -9 33 -40t38 -54.5t11 -54.5q0 -46 41 -140t41 -141 q0 -4 -11 -84q-6 -30 -10.5 -108t-15.5 -113q-52 -158 -150 -239t-272 -101q-11 -1 -57.5 -7t-71.5 -7q-10 0 -31 2t-33 2q-8 0 -24.5 -7.5t-28.5 -7.5q-23 0 -41 16.5t-18 43.5q0 41 1 62.5t7 32.5t10.5 13t20 4.5t26.5 6.5q-1 6 -13 38.5t-13 55.5q-8 0 -25.5 -1t-26.5 -1 q-38 0 -120 3t-121 3q-3 0 -25 0.5t-31 0t-25.5 -2t-26.5 -5.5t-17 -11q-6 -7 -29 -76q21 -3 29 -5.5t20.5 -11.5t16.5 -29t4 -53q0 -28 -2 -43t-11 -22.5t-16 -8.5t-28.5 -2t-36.5 -3q-35 -7 -64 -7q-19 0 -48.5 6.5t-39.5 6.5q-7 0 -28 -1t-31 -1q-43 0 -59.5 17t-16.5 52 q0 3 -0.5 17t-0.5 22t2.5 21t8.5 20.5t18 13t29 5.5q43 0 76 62t66.5 164t56.5 144q6 11 32 54t43 78.5t35 84.5q5 10 18.5 30.5t16.5 31.5q2 8 3.5 19t2.5 17.5t4 14.5t9 14h-15q-13 0 -37 -2t-36 -2q-17 0 -25 2q-6 -2 -18 -2q-24 0 -41 11.5t-17 33.5v33q0 6 -1 20.5 t-1 20.5q0 53 47 53q13 0 40.5 -3t43.5 -3q26 0 84 4t84 4q53 0 78.5 -17.5t40.5 -68.5q10 -25 10 -34v-7q17 -25 30.5 -54.5t28.5 -70t23 -59.5q19 -47 71.5 -157.5t82.5 -178.5q16 -29 33 -85t24 -70q9 -21 29 -49.5t29 -28.5q99 0 173 60.5t74 135.5q0 8 -1 26t-1 26 q0 27 12.5 83t12.5 89q0 35 -16 90t-21 80q-2 9 -3.5 33.5t-4.5 35.5q-5 17 -25 43.5t-26 40.5q-1 4 -4.5 20.5t-6.5 24.5q-7 15 -25 29.5t-31.5 29.5t-14.5 37q-17 11 -54.5 43t-62.5 46q-10 5 -27 13t-31 16t-28 18q-20 15 -39.5 23.5t-32 11t-40 7t-44.5 7.5 q-10 2 -29.5 10t-27.5 10q-49 17 -113 17q-103 0 -215 -17.5t-184 -40.5q-15 -5 -41.5 -20t-48.5 -21q-87 -28 -228 -196q-61 -74 -104 -307q-2 -8 -7 -22t-8 -22.5t-5 -22.5t-2 -30q0 -139 17 -247.5t75 -221.5q22 -43 77 -108q4 -5 24 -33t39.5 -48t53.5 -48q35 0 71 -33 t40 -55q0 -22 -19.5 -43t-21.5 -25q-2 -3 -11.5 -23.5t-18.5 -31t-21 -10.5q-40 0 -77 17t-60.5 37.5t-53 47.5t-49.5 39q-7 5 -24.5 18t-25 19.5t-21 21t-26 33t-26.5 45.5q-12 22 -29 78t-40 90q-31 61 -49.5 130.5t-18.5 117.5v78q0 24 -10.5 62t-10.5 60zM299 641 q0 -4 2 -6q0 4 2 14.5t2 14.5q-1 -3 -2.5 -8t-2.5 -8.5t-1 -6.5zM360 283q0 -47 37 -93q-32 63 -37 93zM424 -31q9 -15 27 -40t24 -35q2 0 4.5 -2.5t3.5 -2.5h2q-11 10 -29.5 40.5t-31.5 39.5zM645 -145q0 -2 2.5 -5.5t5.5 -3.5zM672 1272q0 -2 1 -4.5t1 -5.5q4 0 4 4 q0 1 -1 4t-1 4q-2 -2 -4 -2zM852 96q6 -2 27 -2q14 0 20 2q-6 2 -22 2q-19 0 -25 -2zM856 1350q6 3 18 6.5t20.5 5.5t8.5 4t-2 2q-2 -1 -6.5 -2.5l-9 -3t-8.5 -2.5q-21 -8 -21 -10zM965 348q7 0 10 6h-10v-6zM1008 997q2 1 5 0.5t5 -0.5t2 2v2q-2 -1 -5 -0.5t-5 0t-2 -3.5z M1042 997h2q1 1 3.5 0.5t5 -0.5t2.5 2v2q-1 -2 -4 -2.5t-6 -0.5t-3 -1zM1100 463q12 -12 41 -12q11 0 33 1t34 1h60q20 0 45 6t37 6h6q-2 29 -24 72.5t-25 52.5q-3 8 -6.5 23.5t-6.5 23.5q-3 9 -13.5 22.5t-14.5 20.5q-3 6 -11.5 29t-16 43t-9.5 20q-11 -10 -17 -39.5 t-10 -38.5t-16 -24t-15 -21q-15 -24 -29 -71.5t-22 -63.5q-1 -3 -5 -8.5t-6 -9t-4.5 -9t-3.5 -11.5t-1 -13zM1145 999q4 0 10 2q2 0 7 2t9 3q-6 0 -12 -1.5t-10 -3t-4 -2.5zM1151 1407q17 0 33 4q-25 0 -33 -4zM1182 879q8 8 8 14q0 2 -4 6q0 -3 -2 -9t-2 -9v-2zM1194 369 h106q-8 1 -40.5 1.5t-47.5 2.5q-2 -2 -9.5 -2.5t-8.5 -1.5zM1212 1006q8 -2 18.5 -7t14.5 -6q-6 10 -10 11.5t-16 1.5h-7zM1333 772q0 -10 6 -10q-2 6 -4 10h-2zM1356 727q5 -24 12 -27q-9 24 -12 27zM1386 1354q7 -5 20.5 -8t23 -4t28.5 -2t23 -1q-68 13 -95 15zM1434 479 q0 -8 8 -24q0 16 -8 24zM1485 111q2 1 7.5 1t6.5 1q-12 4 -14 4v-6zM1675 121l19 4q0 2 -15 2q0 -2 -2 -3t-2 -3zM1706 1223q4 -2 10 -7.5t11.5 -9.5t9.5 -4q-10 17 -31 21zM1925 1004q0 -5 2 -5q0 1 1 4.5t1 4.5q0 4 -4 4v-8zM2028 479q16 50 16 90q0 25 -4 37v-14 q0 -51 -12 -113z" />
<glyph unicode="A" horiz-adv-x="1720" d="M111 203q0 33 59 33q13 0 26.5 -5.5t22.5 -5.5q11 0 31 7.5t33 7.5q4 19 24.5 50t26.5 46q4 9 9 31t9 32q4 11 23 39t22 49q1 8 3 24.5t3.5 25.5t7.5 22t15 25q4 8 18.5 24t18.5 27q8 17 17 54t18 56q6 14 27.5 41t27.5 45q2 5 6.5 17.5t9.5 22.5t11 18q-5 7 -5 18 t7.5 26.5t18.5 34t15 27.5q2 6 10 28t14 35.5t13 24.5q32 49 64 123q-19 8 -47 8q-17 0 -54.5 -4t-56.5 -4q-84 0 -84 72q0 8 1 27t1 28t-4 23.5t-4 27.5q0 54 33 54q9 0 26.5 -2t26.5 -2q13 0 44 1t50 1h39q33 0 45 6q11 0 50.5 0.5t62 -1t52 -7t44.5 -19.5t16 -37 q14 -21 28 -49t22.5 -47t24.5 -55.5t22 -50.5q3 -6 19.5 -50.5t31.5 -64.5q9 -15 15.5 -29t11 -23.5t10.5 -26.5l9 -25.5t10.5 -33.5t11.5 -38q7 -27 39.5 -80.5t33.5 -56.5q18 -38 82 -195t113 -234q34 -55 41 -73q27 -10 51 -10q8 0 24.5 2t24.5 2q23 -2 39 -18.5 t16 -41.5v-22q0 -12 3.5 -36.5t3.5 -39.5q0 -19 -2 -30.5t-8.5 -24.5t-22.5 -19t-41 -6q-20 0 -55.5 2t-45.5 2q-16 0 -55 -10t-67 -10q-27 0 -68.5 9t-60.5 9q-7 0 -27 -2t-31 -2q-28 0 -47.5 17t-19.5 57q0 8 -0.5 27.5t-0.5 31t1 29.5t4.5 29t9 22.5t15 17t22.5 5.5 q5 0 15.5 -1.5t15.5 -1.5q3 0 28 5q-5 22 -50 108l-17 35q-8 8 -47 8q-28 0 -63.5 -3t-45.5 -3q-32 0 -76.5 5t-62.5 5q-79 -18 -107 -18q-21 0 -41 7t-30 7q-8 0 -23.5 -3t-22.5 -3q-8 0 -12 2q-16 -16 -25.5 -41t-18 -58t-15.5 -50q12 2 37 2q39 0 58.5 -18.5t19.5 -63.5 q0 -1 0.5 -30.5t0 -43.5t-3 -37.5t-9.5 -34t-17 -10.5q-8 0 -28.5 2t-29.5 2q-28 0 -78.5 -5t-76.5 -5q-82 0 -127 10q-13 0 -46 -5t-50 -5q-72 0 -72 80v51q0 18 -7 41t-7 37zM213 72q10 0 18 4l-18 6v-10zM401 70h13q38 0 59 8zM549 604q4 10 11.5 38t14.5 42q6 12 21 34 t20 34q-48 -46 -67 -148zM563 1358q4 -2 15 -2q4 0 17 1t21 1q9 0 25 -4q7 3 21.5 4t25 1.5t10.5 2.5q-45 0 -135 -4zM668 864q1 6 7.5 18t6.5 17q-1 -3 -7.5 -15.5t-6.5 -19.5zM674 504q0 -2 2 -2q8 0 8 2q-1 0 -3 1t-3 1q-2 0 -4 -2zM694 580q17 8 39 10.5t47 2.5t35 1 q12 0 33 2t29 2q7 -1 25.5 -5.5t29.5 -4.5q16 0 47 9t49 9q13 0 21 -2q-11 15 -20.5 47.5t-12.5 38.5q-13 27 -36 90t-58 133q-4 9 -11.5 33t-16 41t-20.5 23q-18 -32 -31 -61.5t-30 -74t-25 -65.5q-5 -13 -20 -56t-25 -65q-6 -12 -20 -32.5t-21.5 -38t-7.5 -37.5zM727 496 q8 1 15 0.5t14.5 0t11.5 3.5q-5 -1 -15 -1t-17 -0.5t-9 -2.5zM887 1102q1 -5 3 -9t6.5 -9t7 -7t9.5 -8l7 -6q2 -2 4.5 -6t5 -6.5t6.5 -3.5q-9 9 -25 28t-24 27zM975 991q3 -8 10.5 -36t15.5 -40q-3 41 -14 60q-11 16 -12 16zM1139 797l6 -35q12 -4 19.5 -16t13.5 -29t10 -23 q-9 30 -49 103zM1223 367q16 -50 34 -64q-20 46 -34 64zM1315 63q5 1 14 1t15 0.5t10 3.5h-25q-9 0 -14 -5zM1374 293l3.5 -10.5t4 -11.5t4 -11t5 -11t5.5 -8.5t7 -7.5t8 -4q-6 9 -17.5 32t-19.5 32zM1544 90q0 -10 2 -12q1 0 3 1t3 1h2q0 2 2.5 5.5t2.5 6.5q-3 0 -7.5 -1 t-7.5 -1z" />
<glyph unicode="B" horiz-adv-x="1648" d="M231 1372q0 35 7.5 53.5t27.5 18.5q3 0 9.5 -1t9.5 -1q9 0 20.5 3t13.5 3q9 0 29 -4q8 0 25.5 1t25.5 1q11 -1 54.5 -4.5t68.5 -3.5q16 0 45 4t45 4q26 0 77 -4t77 -4q22 0 66 5t65 5q30 0 87.5 -15.5t88.5 -15.5q54 0 112.5 -31.5t100.5 -74.5t70 -83.5t30 -60.5 q3 -15 3 -32v-41q0 -9 1 -27t1 -27q0 -11 -2.5 -21.5t-6 -21.5t-4.5 -20v-14q0 -22 -10.5 -45t-25 -39.5t-30 -30.5t-25.5 -20.5t-12 -7.5q-3 -2 -22.5 -22.5t-35.5 -27.5q-7 -3 -29.5 -8t-32.5 -12q4 -10 29 -26.5t61 -36.5t51 -30q61 -11 98.5 -85.5t37.5 -151.5 q0 -14 -3.5 -29t-10 -34t-9.5 -29q-3 -12 -7 -38t-9 -40q-7 -15 -28.5 -33t-27.5 -27t-12.5 -27.5t-11.5 -25.5q-23 -33 -65 -50t-127 -33.5t-128 -28.5q-4 -2 -11 -7.5t-16 -8.5t-24 -3q-12 0 -40 2t-42 2h-31q-9 0 -24 2t-21 2q-17 0 -61 -9t-70 -9q-24 0 -53 8t-43 8 q-12 0 -47 -4t-57 -4q-54 0 -136 4h-20q-25 0 -43 14t-18 33q0 8 4 23.5t4 17.5q0 17 -4 54.5t-4 52.5q0 19 10 26t33 7q12 0 32.5 -2.5t30.5 -2.5t55 5v215q0 37 -3 106.5t-3 101.5q0 15 6.5 49.5t5.5 59.5q0 8 -1 26t-1 27v60q0 17 -3 48t-3 48q0 23 1 66.5t1 64.5 q0 6 0.5 24.5t0.5 26t-3 21.5t-9.5 20t-19.5 11.5t-32 5.5q-5 -1 -20 -5t-23 -4q-23 0 -38 17.5t-15 40.5q0 9 1 24t1 19q0 6 -4.5 27.5t-4.5 35.5zM330 1358q0 -4 2 -4t6 4h-2q-1 0 -3 1t-3 1v-2zM342 82l2 -2h8q0 2 -8 2h-2zM358 1358q14 0 42 -3t42 -3q26 0 39 10h-51 q-49 0 -72 -4zM408 84q21 -4 36 -4q19 0 27 2q-6 4 -27 4q-8 0 -20 -1t-16 -1zM485 1006q0 -3 0.5 -9.5t1 -11.5t0.5 -6q0 1 3.5 18t3.5 23q0 9 -9 18v-32zM553 418q0 -10 2 -12v36q-2 -4 -2 -24zM563 545q0 -23 2 -31q6 30 6 39q0 3 -1 8.5t-1 7.5q-6 -4 -6 -24zM586 821 q0 -11 8.5 -19.5t17.5 -8.5q-16 8 -26 28zM590 82q24 -8 35 -8q6 0 10 2q-4 1 -15 4.5t-18 3.5q-8 0 -12 -2zM598 1368h51q35 0 47 2q-8 0 -25 1t-26 1q-19 0 -47 -4zM637 307q0 -21 8 -36t19 -22t30 -11.5t33.5 -5t36.5 -1.5t33 -2h16q49 0 95 6.5t75 15t55.5 19.5 t36.5 16.5t17 10.5q12 8 23 24t19 33.5t12.5 34t4.5 27.5q0 31 -21 82t-43 71q-30 25 -70.5 36.5t-111 20.5t-102.5 15h-21q-15 0 -38.5 -3t-41.5 -3h-28q-17 0 -25 -2q6 -81 6 -92q0 -23 -9 -60.5t-9 -62.5q0 -8 1 -26t1 -27t-1 -29t-1 -29zM639 780q1 -3 14 -10l9 -4 q2 0 -23 14zM643 1022q0 -28 4 -86.5t4 -87.5q26 -23 90 -23q9 0 32 1t36 1q21 0 56.5 -2t49.5 -2q24 0 71 24.5t67 39.5q75 61 75 176q0 8 -1.5 18t-10 28.5t-22.5 34t-43.5 30.5t-69.5 22q-6 2 -15 4.5t-14 4t-12.5 2.5t-15.5 1h-27q-20 0 -54.5 3t-49.5 3q-16 0 -35 -0.5 t-33.5 -1.5t-35 -2t-34.5 -2q-2 -12 -2 -34v-52q0 -17 -5 -49.5t-5 -50.5zM664 76q3 2 13 2t13 2q-8 4 -16 4q-10 0 -10 -8zM883 156q6 0 14 4q-12 0 -14 -4zM1010 676q3 -1 8.5 -3t10 -3.5t7.5 -1.5q-12 8 -24 8h-2zM1061 655q6 -2 14 -5.5t15.5 -7.5t11.5 -5q-3 2 -8 5.5 t-8.5 6t-8.5 4.5t-10 2h-6zM1139 612q1 -1 4.5 -3.5t5.5 -2.5v2q0 4 -8 4h-2zM1145 137q7 0 16 6zM1159 840q12 5 27 16q-1 3 -12 14q-2 -12 -15 -30zM1192 158q6 6 21 15.5t24 19.5t10 24q-6 -8 -27 -28t-28 -31zM1245 1257q4 -8 4 -14q22 -13 33.5 -39.5t20.5 -32.5 q-6 20 -22 49t-36 37zM1280 264q0 -2 2 -2q0 2 3 4.5t3 5.5q-1 0 -1.5 2t-2.5 2q0 -2 -2 -6t-2 -6zM1309 326q12 19 14 39q-2 -12 -12 -31v4q-1 -2 -2 -5v-3v-4zM1309 330l2 4q-1 0 -2 -1v-3z" />
<glyph unicode="C" horiz-adv-x="1744" d="M205 711q0 117 69 311q46 129 93 194.5t161 143.5q20 14 46.5 24.5t62 21.5t51.5 17q113 45 201 45q23 0 119 -14q111 -17 174.5 -40t105.5 -73q5 -5 14 -13t14.5 -15t8.5 -15q-10 70 -10 101q0 9 1 16t2 11.5t5.5 7.5t6.5 5t10 2.5t11 0.5h15.5h17.5q15 -1 35.5 -2 t32 -2t26.5 -2t22.5 -2.5t17.5 -4t15 -6t10 -8.5t7.5 -11.5t3.5 -14.5q0 -11 -8 -43t-8 -54q0 -40 7 -94.5t7 -58.5q0 -26 -8 -62t-8 -59q1 -4 6.5 -19t5.5 -24q0 -27 -35 -27q-23 0 -36 10q-18 -6 -47 -6q-15 0 -31 4q-3 0 -12 -2t-15 -2q-13 0 -26 9t-22 20.5t-19.5 31.5 t-15.5 32t-13.5 33t-9.5 24q-8 4 -69 50t-107 58q-42 11 -189 11q-124 0 -262 -107q-74 -59 -121 -157t-47 -205q0 -56 16 -139.5t31 -108.5q2 -4 24.5 -27t22.5 -47q81 -78 193 -160q30 -23 85.5 -39t92.5 -16q23 0 64 4t61 4q6 0 18.5 -1t18.5 -1q9 0 25 4t24 4h14 q7 2 23.5 8.5t25.5 6.5q5 0 14.5 -2t14.5 -2q41 0 109 28q1 1 17 12t28 11q20 0 36 -13.5t24 -33t13 -39t6.5 -33t0.5 -13.5q2 -5 4.5 -11.5t4.5 -10.5t3.5 -10t1.5 -12q-2 -11 -9.5 -21t-17.5 -16.5t-21.5 -11.5t-22.5 -8t-20.5 -5.5t-14.5 -2.5l-5 -1q-26 -6 -78 -24.5 t-97 -29.5t-85 -11q-107 0 -217 10q-15 1 -41.5 2t-42.5 2t-36 4.5t-34 9.5q-3 1 -21 13t-32 16q-13 5 -41 14.5t-42.5 15.5t-41.5 20.5t-57 35.5q-6 4 -36 23.5t-46.5 32t-36.5 35t-26 44.5q-6 11 -21 27t-20 24q-4 6 -10.5 19.5t-10.5 19.5q-4 7 -16.5 20.5t-16.5 20.5 q-19 32 -37.5 88t-19.5 92q0 5 1 16.5t1 16.5q0 16 -5 50.5t-5 54.5zM293 696q1 -7 1 -36.5t3 -41.5q0 3 -1 9.5t-1 9.5q0 21 8 49q-2 1 -5 5t-5 5zM446 1057q2 0 3 -2t2 -2q1 3 5.5 8.5t4.5 7.5v2q-1 -3 -7 -7t-8 -7zM455 459q15 -41 47 -62q-10 9 -26.5 33t-20.5 29z M496 1104q1 2 5.5 6t4.5 6v2q-1 -3 -5.5 -7.5t-4.5 -6.5zM793 174l26 -14h8q13 0 37 -4t33 -4q-13 5 -44 9.5t-40 6.5q-18 6 -20 6zM850 1294q12 0 37.5 -1t38.5 -1q5 0 14.5 1t13.5 1q-8 1 -21.5 2.5t-24.5 2.5t-21 1q-22 0 -37 -6zM1135 1362q2 -1 6.5 -5t8 -6.5t7.5 -2.5 q1 0 2 1t2 1q-5 1 -11.5 6.5t-10.5 5.5h-4zM1274 111q45 0 61 16q-12 0 -22 -2.5t-21.5 -7t-17.5 -6.5zM1452 1264q0 -22 8 -35q0 13 -2 34.5t-2 32.5q-4 -24 -4 -32z" />
<glyph unicode="D" horiz-adv-x="1914" d="M236 59q0 14 8 48.5t8 56.5q0 2 -6 18t-6 25q0 12 9 19t23 7q10 0 30.5 -4t29.5 -4q35 0 69 17q4 33 7 72.5t4.5 67.5t2.5 78t1 70v79v71q0 20 0.5 70.5t0.5 78t-1.5 68t-5.5 72.5q-1 14 -4.5 37.5t-5 42.5t-1.5 36q0 14 4 47.5t3 51.5v16q-6 -2 -17 -2t-32.5 5t-34.5 5 h-19q-65 0 -65 111q0 92 12 108q15 13 121 13q51 0 131 -7.5t121 -7.5q21 0 63.5 4.5t63.5 4.5q18 0 55 -1t55 -1h113q75 0 135.5 -10.5t120 -36.5t105.5 -53.5t122 -78.5q32 -23 80 -88q9 -14 38.5 -43.5t39.5 -48.5q15 -28 31 -96q4 -19 22.5 -48t22.5 -42q18 -59 18 -123 q0 -26 -7 -76.5t-7 -73.5v-41q0 -24 -6.5 -51t-15 -46.5t-24 -46.5t-24.5 -39.5t-27.5 -37.5t-21.5 -30q-23 -38 -31.5 -51.5t-33 -49t-42 -54t-44.5 -39.5t-54 -32q-141 -56 -348 -80q-20 -2 -70 -8.5t-87 -10t-70 -3.5q-28 0 -86 3t-88 3q-41 0 -126.5 -6t-125.5 -6 q-49 0 -91 17.5t-42 53.5zM326 1350q5 1 15 4.5t19 5.5t19 2h31q0 2 -11 2h-31t-21.5 -1.5t-16 -4.5t-4.5 -8zM485 1010l4 -23v29q0 18 -4 24v-30zM494 358q0 -14 2 -22q4 8 4 14q0 4 -1 12t-1 11q0 7 4 16t4 10q0 6 -4 17t-4 12q0 -12 -2 -35t-2 -35zM498 532q0 -4 1 -11.5 t1 -10.5q6 12 6 27q0 11 -6 41q0 -7 -1 -23.5t-1 -22.5zM522 1362q12 -4 25 -4q12 0 18 2q-8 2 -33 2h-10zM618 1352q12 -2 37 -2q-6 2 -32 2h-5zM645 1030q0 -15 9.5 -45t9.5 -53q0 -33 -8.5 -99.5t-6.5 -101.5q0 -7 2 -20t2 -17q0 -7 -1 -22t-1 -23q0 -14 8.5 -46t8.5 -54 q0 -34 -10.5 -88t-10.5 -84q0 -156 33 -156q23 0 68.5 7.5t54.5 7.5q24 0 68 -3.5t65 -3.5q63 0 150 20t139 50q42 24 63.5 47.5t27.5 43t22.5 58t43.5 78.5q7 10 25 30t25 36t8 43v41q1 13 2.5 36t2.5 41t1 31q0 19 -6 35t-16.5 35.5t-16.5 34.5q-4 10 -14.5 32.5t-17 42 t-7.5 35.5q-11 11 -36 26.5t-40.5 32.5t-19.5 42q-30 12 -74.5 40t-60.5 34q-18 8 -60 12.5t-61 9.5q-86 21 -115 21q-38 0 -248 -15q-2 -12 -2 -35q0 -9 1 -28t1 -29q0 -5 -1 -17t-1 -18q-6 -42 -6 -45zM963 86q10 2 41.5 4t44.5 8q-58 0 -86 -12zM1004 1356h4q8 0 24.5 -2 t24.5 -2q10 0 14 2q-28 4 -53 4q-3 0 -7.5 -1t-6.5 -1zM1016 1268q0 -6 86 -13q-22 5 -76 13h-10zM1128 115q1 1 7 1.5t8 2.5q-13 0 -15 -4zM1333 1253q10 -14 47 -30q-6 3 -22 15.5t-25 14.5zM1393 1212q4 -2 10.5 -9.5t13.5 -8.5q-3 13 -24 18zM1468 381q33 47 33 78 q-14 -23 -33 -78zM1511 899q4 -16 12.5 -42.5t14 -49t8.5 -45.5q-2 29 -13.5 83t-19.5 54h-2zM1513 526l3 -2q6 10 6 35v2q-9 -25 -9 -35z" />
<glyph unicode="E" horiz-adv-x="1562" d="M225 1399q0 43 103 43q29 0 84 -7.5t82 -7.5q34 0 119.5 8.5t125.5 8.5q26 0 80 -7t82 -7q37 0 135 5t146 5q18 0 43 -4t35 -4h20q15 0 31 -13t20 -30q0 -4 -6 -27.5t-6 -44.5q0 -23 6 -66.5t6 -70.5q0 -7 -1 -22t-1 -23q0 -9 2 -27.5t2 -26.5q0 -7 -2 -13t-6.5 -10 t-9.5 -6.5t-13.5 -4.5t-15.5 -2.5t-19 -1t-21 0t-23.5 0.5h-24.5q-90 0 -90 54q0 6 8 26q-2 8 -2 25q0 8 1 25.5t1 25.5q-14 2 -41 2q-10 0 -31.5 -1t-31.5 -1q-15 0 -39 4t-37 4h-25q-5 1 -19.5 5.5t-21.5 5.5q-20 0 -63 -5.5t-70 -5.5h-45q-15 0 -25 -5.5t-16 -16.5 t-9.5 -23t-4 -30t-0.5 -32t1 -34.5t1 -32.5q0 -126 12 -225q11 0 35 -7t39 -7q12 0 39.5 1t42.5 1q11 0 33 -1t34 -1q14 0 33.5 4t26.5 4q34 0 56 -27.5t22 -60.5q0 -50 -5.5 -78t-21.5 -42t-34.5 -17t-55.5 -3q-20 0 -50.5 4.5t-41.5 4.5q-7 0 -20.5 -3t-20.5 -3 q-8 0 -25.5 1t-25.5 1q-35 0 -54 -11q0 -23 -3 -65t-3 -64q0 -10 3 -31.5t3 -31.5q0 -18 -10 -43.5t-10 -46.5q0 -13 2 -38.5t2 -37.5q15 0 41 9t37 11q36 5 94 5q36 0 103 -6.5t102 -6.5q43 0 64.5 11t25.5 29.5t2 38t-0.5 42.5t12.5 37q8 10 48 16t65 6q35 0 66.5 -19.5 t31.5 -47.5q0 -8 -3.5 -23.5t-4.5 -21.5q0 -8 4 -25t4 -24q-1 -8 -7 -20.5t-7 -16.5q0 -4 6 -20.5t6 -26.5q0 -14 -6 -39.5t-6 -36.5q6 -36 6 -37q0 -43 -47 -43q-20 0 -76 4t-76 4q-22 0 -63 -4t-62 -4q-35 0 -100.5 3t-101.5 3h-70q-16 0 -46 1t-44 1q-27 0 -80.5 -10 t-77.5 -10q-6 0 -17.5 1t-17.5 1q-87 -6 -92 -6q-125 0 -125 71q0 13 4.5 41.5t4.5 44.5q-1 8 -5 29.5t-4 30.5q0 12 7.5 21t19.5 9q5 0 15.5 -2t15.5 -2q7 0 22.5 5t24.5 6q7 0 20 -1t19 -1q12 0 18 2q6 261 6 546v84q0 24 4.5 66.5t4.5 56.5q0 8 -1.5 25t-1.5 24v41 q0 17 -6 50.5t-6 54.5q0 2 1 7.5t1 8.5q-12 2 -35 2q-7 0 -22.5 -1t-22.5 -1q-77 0 -77 60q0 10 3 30.5t3 32.5q0 7 -8.5 30.5t-8.5 41.5zM313 1360q2 0 2.5 -2t1.5 -2q0 1 5 6q-7 0 -9 -2zM330 139q4 1 19.5 1.5t23.5 2.5q-35 0 -43 -4zM469 1229q10 -15 14 -19q-4 8 -4 13 q0 1 1 3t1 3h-12zM483 799q15 6 15 37q0 20 -4 36q0 -31 -11 -73zM489 938q0 -11 3 -20q0 9 2 26.5t2 26.5q0 10 -4 30v-12q0 -9 -1.5 -26t-1.5 -25zM563 549q0 -23 6 -41q2 29 2 90q-8 -32 -8 -49zM563 1280q6 -2 19 -2t42 6.5t35 7.5h-28q-49 0 -68 -12zM807 84h22 q17 0 23 2q-5 0 -14 1t-13 1q-12 0 -18 -4zM901 160q10 -4 45 -4q-30 6 -35 6q-2 0 -5 -1t-5 -1zM909 80q2 -2 13 -2q6 0 8 2q-3 0 -9 1t-8 1t-4 -2zM987 152q10 -5 12 -5q5 0 11 3q6 0 6 2h-29zM1104 84q7 2 30 2t31 4q-6 -1 -19.5 -0.5t-24.5 -0.5t-17 -5zM1163 1364 q5 0 11 -6q20 5 26 8h-24q-9 0 -13 -2zM1217 1364q3 0 9 -2t9 -2h2q0 6 -10 6q-2 0 -5.5 -1t-4.5 -1zM1219 324q0 -1 12 -7q4 8 4 11q-3 0 -8 -2t-8 -2z" />
<glyph unicode="F" horiz-adv-x="1482" d="M227 1401q0 41 99 41q30 0 85.5 -6t82.5 -6q17 0 79 10q76 8 189 8q24 0 74 -8t75 -8q41 0 134 5t137 5q16 0 39 -4t34 -4h23q20 0 36 -13t19 -30q0 -7 -5 -37.5t-5 -48.5q0 -15 5.5 -55t4.5 -66q0 -7 -1 -21.5t-1 -21.5q0 -8 1 -24.5t1 -24.5q0 -31 -20.5 -37.5 t-80.5 -5.5h-32q-27 0 -44 2.5t-31.5 14.5t-14.5 34q0 6 8 26q-2 8 -2 25q0 8 1 26.5t1 26.5h-20q-15 0 -41 -1t-39 -1q-15 0 -40.5 5t-37.5 5q-4 0 -13.5 -1t-13.5 -1q-6 1 -23.5 6t-31.5 5q-64 -11 -119 -11q-8 0 -25 1t-24 1q-20 0 -32.5 -17.5t-15.5 -47.5t-3 -56t2 -59 t2 -41v-31.5v-33v-30.5t1.5 -30t4 -26t6 -23.5t9 -17t13 -12t17.5 -3.5q6 0 18.5 1t18.5 1q8 0 24 -2t25 -2q12 0 49 3t58 3q110 0 110 -53q0 -11 -5 -41t-5 -47q0 -9 4 -28.5t4 -28.5q0 -18 -16.5 -23.5t-54.5 -5.5q-40 0 -84.5 3t-65.5 3q-29 0 -64.5 -10t-50.5 -10 q-6 -50 -6 -90q0 -15 3 -43t3 -41t-10 -55.5t-10 -71.5q43 -21 106 -21q21 0 54 7.5t47 7.5q63 0 63 -109q0 -13 -6 -33t-6 -28q0 -6 4 -20t4 -21q0 -10 -9.5 -18.5t-21.5 -8.5q-9 0 -27 4t-26 4h-37q-9 0 -27.5 1t-27.5 1q-26 0 -75.5 -5t-73.5 -5q-3 0 -8.5 1t-8.5 1 q-16 0 -40 -6t-38 -6q-5 0 -16 1t-16 1q-12 -1 -33 -2.5t-38 -2.5t-32 -1q-117 0 -117 71q0 11 3.5 35.5t3.5 38.5q0 2 -4.5 27t-4.5 43q0 33 25 33q5 0 17.5 -2.5t17.5 -2.5q6 0 22 5t25 6q6 0 18.5 -1t18.5 -1q12 0 18 2q8 348 8 546q0 18 -1 56t-1 57t4.5 51t4.5 43 q0 8 -1 25t-1 24v41q0 17 -6.5 50.5t-6.5 54.5q0 2 1 7.5t1 8.5h-73q-40 0 -62 12.5t-22 51.5q0 10 2 31.5t2 33.5q0 7 -7.5 29t-7.5 37zM315 1362q2 0 2.5 -2t1.5 -2q0 1 5 6q-7 0 -9 -2zM332 141q4 1 19.5 1.5t23.5 2.5q-35 0 -43 -4zM471 1231q10 -15 14 -19q-4 8 -4 13 q0 1 1 3t1 3h-12zM485 801q15 6 15 39q0 18 -4 34q0 -31 -11 -73zM492 940q0 -14 2 -20q0 9 2 26.5t2 26.5q0 11 -4 31v-13q0 -9 -1 -26t-1 -25zM565 1282q4 -2 17 -2q15 0 43.5 6.5t33.5 7.5h-26q-49 0 -68 -12zM643 711h10q13 0 38 -4.5t38 -4.5t31 7q-7 0 -31 0.5 t-34 1.5t-25 5t-25 11q0 -3 -1 -8t-1 -8zM659 162q6 -6 19 -6q6 0 10 2q-6 0 -13 2t-9 2h-7zM819 154q2 0 4 -1t4 -1q0 4 -2 4q-6 0 -6 -2zM1165 1366q5 0 11 -6q17 3 26 8h-24q-9 0 -13 -2zM1219 1366q3 0 9 -2t9 -2h2q0 6 -10 6q-2 0 -5.5 -1t-4.5 -1z" />
<glyph unicode="G" horiz-adv-x="1818" d="M205 686q0 12 4 38t4 38v33q0 52 18 115t37.5 103.5t43 84t24.5 45.5q38 87 86 130.5t151 94.5q10 5 26 17t31 19.5t34 10.5q8 4 23.5 15t30.5 17.5t32 6.5h34q16 2 58.5 12.5t66.5 10.5q34 0 94.5 -12.5t71.5 -14.5q66 -9 124.5 -32.5t88.5 -53.5q8 -8 20 -29t19 -28 q-2 8 -2 24q0 6 1 20t1 21q0 20 -10 43.5t-10 34.5q0 27 39 27q27 0 49 -11q10 0 32.5 1t34.5 1q39 0 60.5 -9.5t21.5 -37.5q0 -8 -7 -19.5t-7 -27.5q0 -36 6 -90t6 -76q0 -27 -2 -87t-2 -89q0 -10 2 -31t2 -30q0 -10 -7.5 -17.5t-18.5 -7.5q-14 0 -31 8.5t-23 8.5 q-15 0 -43 -5.5t-41 -5.5q-23 0 -37.5 11.5t-20 24.5t-11.5 38q-9 33 -51 83.5t-58 59.5q-29 23 -103 42.5t-139 19.5q-66 0 -167 -34t-129 -62q-3 -3 -8.5 -9.5t-10.5 -10t-12 -3.5h-6q-11 -22 -29 -42t-23 -28q-4 -7 -10 -25.5t-10 -25.5q-1 -2 -15.5 -27.5t-17.5 -32 t-13 -29t-13.5 -36t-7 -34.5t-3.5 -41q0 -8 1 -26.5t1 -27.5q0 -13 -1 -34t-1 -29q0 -124 80 -242q4 -6 9 -12t11 -12t11.5 -10.5t13.5 -11t13 -10t14.5 -10.5t14 -9.5t15 -9.5l13.5 -9q8 -6 38.5 -28t51 -34t41.5 -18q14 -4 45 -8t45 -8q7 -2 51.5 -18.5t69.5 -16.5 q48 0 107.5 7.5t91.5 18.5q13 3 33 16.5t32 16.5q3 1 17.5 1t21 5t6.5 19v20l4.5 22.5t3.5 26.5q0 179 -14 179q-3 0 -18.5 -7.5t-28.5 -7.5q-15 0 -41 8.5t-45 8.5q-16 0 -50 -6.5t-50 -6.5q-71 0 -117.5 20t-46.5 64q0 8 2 23t2 20q0 10 -3 33t-3 33q0 18 4 23t20 6.5 t27 5.5q2 1 11.5 9.5t25.5 8.5q10 0 21 -2.5t23.5 -6.5t16.5 -5q32 -6 79 -7.5t125 0t101 1.5q12 0 39.5 1t42.5 1q125 0 125 -60q0 -14 -12 -52t-12 -58q0 -70 18 -264q0 -77 -10.5 -141t-36.5 -64q-5 0 -21 4q-23 -12 -54 -38.5t-64 -42.5t-84 -20l-156 -24 q-16 -2 -47.5 -12.5t-52.5 -10.5q-23 0 -65 7t-46 8q-10 1 -43 4t-43.5 4t-39 4t-39.5 5.5t-35 7t-35.5 9t-31 11.5t-32 14.5t-27 18t-26.5 22.5q-87 28 -144 107q-43 27 -67 61q-8 17 -35.5 40t-38.5 48q-5 9 -10 28t-6 23q-5 13 -25.5 60t-30 72t-19 70t-9.5 89zM305 705 q0 -23 2 -25q0 19 -2 25zM319 877q0 -7 3 -13q14 54 14 74q-1 -8 -9 -27.5t-8 -33.5zM393 739q0 -4 1 -12t1 -12q6 36 6 45q0 4 -1 10.5t-1 9.5q-6 -18 -6 -41zM399 651q0 -3 2 -18t3 -20t3.5 -15t7 -15t11.5 -8q-6 6 -27 76zM416 1102q3 0 9.5 13.5t6.5 19.5v4 q-3 -12 -16 -37zM438 309q9 -15 21 -27.5t31.5 -24.5t30.5 -18t36 -18q-10 8 -31.5 21.5t-31.5 21.5q-3 2 -23.5 20.5t-32.5 24.5zM735 1350q64 17 64 18v2q-6 -2 -31.5 -7t-32.5 -13zM942 59q3 0 39 -6q5 3 8 8h-26q-17 0 -21 -2zM1001 1370h5q2 0 6 -1t6 -1t4 2 q-3 0 -7.5 1t-6.5 1q-5 0 -7 -2zM1012 670q10 1 34.5 2t32.5 2q-8 1 -21.5 2.5t-24.5 2.5t-21 1v-10zM1036 1294q14 -4 113 -28q-7 2 -27 10.5t-35.5 13t-33.5 4.5h-17zM1321 664q7 0 24 -1t25 -1q15 0 21 2q-7 0 -24.5 1t-25.5 1q-14 0 -20 -2zM1391 1032q22 0 28 2 q0 1 -6.5 1.5t-13.5 1t-8 1.5v-6zM1442 1376l6 -6q0 6 -6 6zM1458 659q2 -3 10 -8t11 -8q0 4 2 8.5t2 7.5h-25zM1470 311q0 -4 3 -4q2 4 2 8q0 2 -5 7v-11z" />
<glyph unicode="H" horiz-adv-x="1998" d="M223 1391q0 33 15.5 46t54.5 13q10 0 31.5 -8t40.5 -8q14 0 45 5t47 5q27 0 89.5 -3t92.5 -3q15 0 43 1t41 1q58 0 72 -26.5t14 -129.5q0 -40 -8 -55t-41 -15q-6 0 -18 1.5t-17 1.5h-39q-25 0 -35 2q-4 -23 -4 -70q0 -23 2 -70.5t2 -72.5v-88q0 -89 4 -130q24 0 71.5 4.5 t68.5 4.5q1 0 106 -6q12 0 38 3t40 3q36 0 95.5 -7.5t82.5 -7.5q21 0 53 4.5t45 4.5h29q7 1 25 5.5t28 4.5h6q11 56 11 141v76q0 21 2 61t2 58v7q0 16 -1 24.5t-5 20t-15.5 16.5t-29.5 5h-33q-27 0 -55.5 17t-28.5 45q0 8 5 21t5 24q0 21 -7 52t-7 44q0 14 10.5 22.5 t26.5 8.5q14 0 38 -4t31 -4q10 0 26 2t23 2q18 0 31 -13q107 19 166 19q20 0 52 -5t46 -5q13 0 34 4t30 4q26 0 44.5 -15.5t18.5 -39.5q0 -16 -5 -48t-5 -45q6 -48 6 -49q0 -22 -14.5 -32.5t-48.5 -10.5q-9 0 -29 1t-29 1h-5q-21 0 -21 -10q0 -24 -9.5 -68t-9.5 -69 q0 -17 5.5 -48t5.5 -50q0 -15 -4.5 -47t-4.5 -48q0 -13 10.5 -28t10.5 -31q0 -23 -6.5 -58t-14.5 -49q1 -63 6 -214.5t5 -237.5q12 -15 41 -15q8 0 25.5 2.5t25.5 2.5q61 0 71 -43q0 -6 -3 -19.5t-3 -19.5q0 -13 3 -39.5t3 -40.5q0 -23 -4 -33q4 -16 4 -20q0 -15 -10.5 -24 t-27.5 -9q-15 0 -33.5 8t-26.5 8q-14 0 -44 -6t-48 -6q-94 0 -129 4q-8 1 -23 6t-22 6q-7 0 -22.5 -3.5t-22.5 -4.5h-21q-14 0 -38.5 -7t-40.5 -7q-37 0 -55.5 36.5t-18.5 139.5q0 69 37 69q8 0 25 -3t24 -3q9 0 27 2t28 2h16q1 13 8 80t7 107q0 102 -17 157q-25 5 -30 5 q-11 0 -34 -2.5t-34 -2.5q-39 0 -112 5.5t-111 5.5h-51.5h-62.5t-61.5 -0.5t-63.5 -1.5t-52.5 -3t-45.5 -5.5t-26 -8.5q-12 -79 -12 -211q0 -20 1 -61t1 -62q16 -1 44.5 -1t45 -1.5t35 -6.5t27 -18.5t8.5 -35.5q0 -35 -1.5 -58t-6 -52.5t-16.5 -44.5t-31 -15q-9 0 -30 5 t-34 5q-26 0 -88 -8t-98 -8q-20 0 -52 6t-44 6t-45 -5t-50 -5q-75 0 -75 84v43q0 6 -1.5 21t-1.5 28q0 40 13 52t53 12q45 0 86 -9q4 29 4 88v60q0 30 6 93t6 97v60q0 27 4.5 80.5t4.5 78.5q0 14 -6.5 44t-6.5 46v48q0 26 -4 91t-4 101q0 48 6 92q-8 2 -20 2h-19 q-5 1 -14 4.5t-12 4.5q-7 0 -20 -2.5t-19 -2.5q-23 0 -39 17t-16 49v39q0 16 -6.5 36t-6.5 38zM350 1360q6 0 6 -2q6 1 25 1t33 0.5t14 2.5t-20 2q-34 0 -58 -4zM395 80q33 -8 92 -8h23q-12 1 -40 5.5t-44 4.5q-21 0 -31 -2zM440 1364l45 -6q1 0 9 4t10 8q-54 -6 -58 -6h-6z M473 295q2 8 2 31q0 22 -2 28v-59zM496 784q1 -7 1.5 -35t6.5 -38q4 16 4 22q0 8 -2 16.5t-5.5 18.5t-4.5 16zM557 1268q2 -9 4 -27t2 -20q2 6 2 23t2 24h-10zM561 1100q0 -28 6 -49q0 42 -4 82q0 -6 -1 -17t-1 -16zM664 158q3 0 9 -2t9 -2q7 0 10 6h-16q-10 0 -12 -2z M700 1362q2 0 5 -3t6 -3v4q0 4 -6 4q-5 0 -5 -2zM936 707q40 -7 76 -7q46 0 84 9h-80q-55 0 -80 -2zM1311 1350q1 0 4.5 -1t5.5 -1t4 2h-2q-2 0 -5 1t-5 1zM1384 1346q35 10 114.5 15.5t100.5 8.5h-34q-116 0 -181 -24zM1430 176q5 5 16 8v6q0 3 -2 3q-1 -4 -7.5 -8.5 t-6.5 -8.5zM1450 371q0 -23 2 -31q0 6 2 19t2 20q0 12 -6 24v-32zM1499 788q0 -55 12 -77q-3 16 -6 50t-6 50v-23zM1509 563q0 -18 2 -24v-7q2 0 2 19q0 23 -2 31q-2 -6 -2 -19zM1659 147q6 -1 14 -7t10 -7q-1 2 -1 7t-1 8.5t-4 5.5q-2 -2 -9.5 -3.5t-8.5 -3.5z" />
<glyph unicode="I" horiz-adv-x="1042" d="M221 190q0 43 66 43q13 0 35.5 -4t31.5 -4q8 0 20 4t19 4h4q0 32 2 95.5t2 93.5q0 24 -6 65.5t-6 61.5q0 7 1 21.5t1 21.5v51q0 19 5 56.5t5 58.5t-8 64t-8 69q0 27 10.5 68.5t10.5 68.5q0 22 -6.5 64t-6.5 61q0 28 8 49q-9 0 -28.5 -1t-28.5 -1q-53 0 -80.5 18t-27.5 74 q0 8 1 27.5t1 28.5q0 7 -1 23t-1 24q0 26 18 38.5t45 12.5q11 0 35 -3t37 -3q19 0 59.5 3t61.5 3q32 0 97 -5t97 -5q6 0 25 2t28 2q22 0 41 -13.5t19 -35.5v-25q0 -5 2 -15t2 -16q0 -8 -3 -26.5t-3 -30.5v-35q0 -26 -11.5 -34.5t-37.5 -8.5q-5 0 -16.5 1t-16.5 1 q-21 0 -36 -8t-22 -8q-1 0 -4 1t-4 1q0 -12 -3 -34t-3 -32q0 -17 4 -56.5t4 -59.5q0 -25 -8 -64t-8 -55q0 -13 8 -36t8 -40q0 -29 -5 -78t-5 -71q0 -40 7 -117.5t7 -116.5t-3.5 -110t-4.5 -89q8 -4 29 -4q12 0 35 3t34 3q24 0 44 -15t20 -44q0 -14 -8 -45t-8 -51 q0 -8 3 -23.5t3 -23.5q0 -16 -44.5 -25t-114.5 -11t-104 -2t-64 1h-1q-16 0 -39.5 6t-32.5 6q-7 0 -20 -3t-17 -3q-29 0 -40.5 0.5t-32.5 4t-32 13t-15 25.5q-5 17 -6.5 53.5t-2.5 46.5q0 3 -6 20.5t-6 28.5zM317 80q0 -4 2 -6q3 1 10 2t9 2q-3 1 -11 1t-10 1zM322 1364 q12 -4 24 -4q18 0 27 6q-7 0 -20 1t-19 1h-10q-1 0 -1 -1.5t-1 -2.5zM471 1239q1 -4 5 -7.5t5 -6.5q1 1 6 3.5t7 4.5t2 6v4q-16 -4 -25 -4zM473 836q0 -11 8 -35q0 24 -8 35zM475 629q0 -11 2 -15q4 24 4 50q0 3 -1 8.5t-1 7.5q0 -8 -2 -25t-2 -26zM532 1016l7 -70 q1 -3 2 -10q1 -8 2 -8q-1 11 -2 30t-3 33.5t-6 24.5zM532 1063q0 -4 3 -4q0 2 2 6t2 6q0 1 -1 2t-1 2q0 -2 -2.5 -6.5t-2.5 -5.5zM543 1090q5 6 8 16.5t4 20t2 23.5t2 21l-4 -2q0 -13 -2.5 -27.5t-5.5 -28.5t-4 -23zM563 434q0 -15 6 -24v47q0 18 -2 26q0 -7 -2 -24t-2 -25z M612 172q0 -8 3 -10t12 -2l2 2q-4 1 -17 10zM668 1274q4 0 9.5 -0.5l11 -1t9.5 -0.5q2 0 7.5 1t7.5 1q0 10 -2 12q-5 -1 -15 -2.5t-17 -3.5t-11 -6z" />
<glyph unicode="J" horiz-adv-x="1306" d="M104 82q0 15 23 71.5t41 77.5q0 2 -1 5.5t-1 5.5q0 15 9.5 23.5t23.5 8.5q16 0 33 -12.5t20 -13.5q30 -12 57 -19.5t43 -9.5t48.5 -5t52.5 -5q7 0 21.5 -3t21.5 -3q62 0 116 61t62 105q2 12 2 39q0 14 -1 44t-1 44q0 23 3 47t7.5 48.5t5.5 35.5q0 5 -1 16t-1 16 q0 11 1 33t1 35q0 11 -1 33t-1 33q0 14 1 40t1 39q0 12 -1 37t-1 39q0 24 2 71t2 71q0 68 -10 114q-14 -2 -39 -2q-61 0 -89 26.5t-28 88.5q0 9 3 28t3 29q0 7 -3 18.5t-3 18.5q0 8 4.5 13.5t13.5 9t18 5.5t23 2.5t22 0.5h21.5h16.5q25 0 76 -5t76 -5q16 4 53 4 q14 0 42.5 -2t43.5 -2q14 0 44 4t46 4q28 0 49 -10.5t21 -34.5q0 -4 -2 -13t-2 -14q0 -8 1 -27t1 -28t-3.5 -21t-3.5 -18q0 -4 2.5 -18t2.5 -21q0 -33 -31 -33q-7 0 -19 4q-15 -6 -36 -6q-8 0 -24.5 1t-23.5 1h-10q-16 -49 -16 -119q0 -23 2 -73.5t2 -77.5q0 -18 -1 -56 t-1 -55q0 -23 5 -52t5 -50q0 -22 -5 -42t-5 -46q0 -20 1 -58.5t1 -62.5q0 -5 -1 -17.5t-1 -17.5q0 -14 4 -25.5t4 -27.5q0 -41 -6 -53q-21 -63 -36.5 -114.5t-22 -75.5t-13.5 -38q-5 -16 -13 -29t-22.5 -24t-24 -17t-29.5 -16t-27 -14q-63 -35 -117 -53.5t-121 -18.5 q-221 0 -330 70q-16 -4 -20 -4q-23 0 -39.5 14.5t-16.5 32.5zM248 164h24q11 0 15 2q-25 8 -37 10q0 -3 -1 -6.5t-1 -5.5zM616 1354q0 -2 2 -2l7 10q-1 0 -9 -4v-4zM752 1227q6 -6 10 -23.5t6 -21.5v6q0 31 -16 39zM758 446q0 -37 2 -53q4 28 4 47q0 28 -4 60q-2 -16 -2 -54 zM774 946q0 -66 2 -84q4 20 4 35q0 11 -3 35.5t-3 38.5v-25zM774 1102q0 -11 4 -19v27.5t-4 30.5q0 -3 1 -10t1 -11q0 -3 -1 -9t-1 -9zM844 510q0 -27 4 -37q0 3 2 14.5t2 16.5q0 6 -2 10q0 -4 -6 -4zM848 598q0 -6 4 -8v31q-4 -16 -4 -23zM850 657q0 -7 1 -19t1 -17v51 q-2 -6 -2 -15zM854 1239q1 -5 0.5 -9.5t0 -9t3.5 -6.5q0 4 2 12.5t2 12.5h-8z" />
<glyph unicode="K" horiz-adv-x="1726" d="M238 176q0 9 1 16t2.5 12.5t5 10t5.5 7t8 5t8.5 3.5t10 2.5t11 1.5t12.5 1t13 1q9 0 26.5 -1.5t25.5 -1.5h2q20 0 20 13q0 7 -1 27t-1 32q0 16 6.5 41.5t7.5 34.5q7 77 7 209q0 37 -9.5 93t-9.5 83q0 26 5 78t5 78q0 21 -1 60t-1 58q0 25 4.5 73t4.5 71q0 7 -1.5 12.5 t-6 8.5t-8 5.5t-11.5 3t-11.5 0.5h-13.5h-12q-11 0 -23.5 -2t-17.5 -2q-26 0 -44.5 23.5t-18.5 44.5q0 7 1 24t1 25v29q0 25 6 33q-4 16 -4 24q0 33 45 33q21 0 81 -7t103 -7q29 0 81 6t75 6q15 0 42 -1t38 -1h18q13 0 22 -6t14.5 -18.5t9 -24t4.5 -31t1.5 -30.5t0 -31 t-0.5 -25q0 -40 -16 -53.5t-58 -18.5h-34q-2 -12 -13.5 -40t-13.5 -42q-4 -23 -4 -125q0 -37 3 -77t8 -88.5t7 -73.5q17 11 34 28.5t37.5 42t29.5 33.5q17 19 103.5 106t129.5 144q4 6 13 17.5t19.5 24.5t20.5 25t16.5 19t6.5 6q0 10 -14 10q-6 0 -16.5 -4t-16.5 -4 q-28 0 -42.5 19.5t-14.5 46.5q0 11 2 33.5t2 35.5q0 5 -5.5 28.5t-5.5 39.5q0 14 8 23.5t21 9.5q4 0 13 -1t14 -1q4 0 18 2t23 2q8 0 23 -5t22 -5q6 0 25 4t32 4q19 0 65 -5t72 -5q33 0 91.5 5t82.5 5q47 0 63.5 -21t16.5 -63q0 -9 -1 -29.5t-1 -30.5t3 -27.5t3 -27.5 q0 -6 -2 -10.5t-5.5 -7.5t-7.5 -5.5t-10.5 -4t-11 -2t-13 -1t-12 -0.5h-12h-10.5q-13 0 -35.5 1t-33.5 1q-8 0 -23.5 -12t-37 -34.5t-37.5 -40t-39 -44t-27 -30.5q-14 -15 -37 -46t-37 -46q-53 -45 -95.5 -89t-62 -67.5t-71.5 -89.5q-2 -4 -11.5 -13.5t-9.5 -11.5 q0 1 12.5 -15.5t24.5 -32.5l12 -17q11 -19 54.5 -43.5t54.5 -36.5q7 -8 20 -31.5t27 -36.5q23 -14 32.5 -21.5t22.5 -23.5t19 -22q31 -34 95.5 -94t88.5 -87q18 2 53 2q60 0 92.5 -20.5t32.5 -75.5v-25v-23.5t-0.5 -20t-2 -19t-4.5 -15t-8 -13.5t-12 -9t-16.5 -6.5 t-21.5 -1.5q-17 0 -51 4t-48 4q-2 0 -11 -5t-17 -5t-33 10q-12 -3 -33.5 -10t-38 -10.5t-34.5 -3.5q-23 0 -69 10t-67 10q-12 0 -30.5 -4t-28.5 -4q-32 0 -46.5 22t-14.5 52q0 6 1 19.5t1 19.5q0 27 -16.5 47t-16.5 35q0 22 20.5 31t55.5 12.5t47 7.5q-4 11 -17.5 26t-26 25 t-28 22t-16.5 13q-17 14 -39 40.5t-54 52.5t-88 54q-41 27 -131 127q-10 -54 -10 -141q0 -57 10 -232q50 5 58 5q45 0 59 -26.5t14 -113.5q0 -20 -0.5 -32t-4.5 -23.5t-6.5 -17t-15 -11t-20 -7.5t-31 -3.5t-39.5 -1.5h-53h-10q-32 0 -101.5 3t-99.5 3q-15 0 -43 -3t-41 -3 q-53 0 -67 31t-14 145zM399 1360q2 -2 9 -2h10q0 4 -12 4zM436 78q5 0 18 -1t19 -1q8 0 12 2q-6 0 -18.5 1t-17.5 1q-11 0 -13 -2zM483 1020q0 -33 2 -47q1 10 1 33.5t1 41.5t5 31l-5 15q-4 -46 -4 -74zM553 522q2 -8 3.5 -24.5t2.5 -18.5v6v50zM563 76h45q-6 0 -15 1t-11 1 q-15 0 -19 -2zM569 780q1 -3 0.5 -7t0 -8t3.5 -5q0 20 -4 20zM627 76q46 0 69 4q-7 2 -25 2t-24 2q-8 -8 -20 -8zM670 1368q2 0 5.5 -2.5t6.5 -3.5q0 8 -8 8q-4 0 -4 -2zM737 616q3 -8 23 -28q-5 17 -23 28zM856 778q3 6 15 20t14 21q-23 -19 -29 -41zM1108 1278q4 -4 14 -4 q9 0 17 4h-31zM1192 311q12 -12 18 -12q-2 2 -5.5 5t-6 5t-4.5 2h-2zM1243 264q0 -2 1 -5t1 -5q7 -4 23.5 -21t27.5 -20q-9 7 -25.5 25.5t-27.5 25.5zM1307 195q1 -1 3.5 -6.5t5.5 -9t7 -3.5q2 0 4 2q-2 1 -9.5 9t-10.5 8zM1384 1358q9 -6 27 -6h41q0 8 -12 8q-56 0 -56 -2z M1434 78q9 2 13.5 1t7 -0.5t4.5 3.5t5 12q-8 -1 -16.5 -7.5t-13.5 -8.5zM1456 158q5 -9 8 -11q0 6 -1 8.5t-2 2.5h-3h-2z" />
<glyph unicode="L" horiz-adv-x="1486" d="M229 63q0 15 5.5 46.5t5.5 44.5q0 8 -5.5 25t-5.5 24q0 26 37 26h33q14 0 37.5 2t34.5 2h10q25 45 25 72t-6.5 80.5t-6.5 83.5q0 40 3 121.5t3 122.5q0 36 -4 106t-4 105q0 36 4 109.5t4 109.5v7q0 16 -1 24.5t-5 19t-14.5 15.5t-28.5 5q-9 0 -26.5 -3t-26.5 -3 q-32 0 -50 21.5t-18 58.5q0 12 5.5 34t5.5 30q0 7 -4.5 24t-4.5 25q0 22 26.5 33.5t64.5 11.5q18 0 35.5 -7t33.5 -7q39 0 128 9t126 9q120 0 176 -27t56 -98q0 -23 -9.5 -43.5t-9.5 -34.5q0 -2 1 -7t1 -7q0 -31 -63 -31h-135q-21 -26 -21 -125q0 -16 3 -63.5t3 -67.5 q0 -7 -1 -21.5t-1 -21.5q0 -14 9.5 -32.5t9.5 -41.5t-8.5 -49t-8.5 -43t1 -56t1 -56q0 -15 -1 -46t-1 -47q0 -14 5 -41t5 -51q0 -28 -9 -76t-9 -69q0 -59 66 -59q8 0 25.5 1t25.5 1q128 -9 190 -9q28 0 80.5 6.5t77.5 6.5q1 13 1.5 34t1 30t2.5 24t4.5 21t7.5 15.5t12 13 t17.5 8t24.5 6t33 1.5q31 0 60 -5.5t53.5 -24t24.5 -46.5q0 -12 -10.5 -31.5t-10.5 -33.5q0 -10 5 -42t5 -50q0 -16 -6 -54.5t-6 -56.5q0 -5 2 -15.5t2 -15.5q0 -24 -53 -24q-37 0 -55 6q-45 -18 -70 -18q-17 0 -58.5 8t-66.5 8q-15 0 -47 -1t-49 -1h-107q-23 0 -73.5 -3 t-81.5 -3q-19 0 -53.5 6t-49.5 6q-12 0 -38.5 -9t-47.5 -9q-20 0 -55 9t-72 9q-121 0 -121 59zM453 1262q2 0 4 -4.5t4 -4.5l2 2q-2 2 -1 4t-0.5 3.5t-6.5 1.5q-2 0 -2 -2zM483 676q0 -10 2 -14q0 4 1 12t1 12q0 12 -4 16v-26zM496 92h65q-12 4 -29 4q-20 0 -36 -4zM539 504 q0 -8 1 -25t1 -24q2 12 2 41v41q-4 -20 -4 -33zM547 424q0 -25 4 -35q-1 3 -1 16.5t-3 18.5zM551 1192q2 -4 5 -14.5t5 -14.5q0 5 1 13t1 12zM604 197q1 0 4 1t4 1h2v2q0 4 -6 4v-2q0 -2 -2 -3t-2 -3zM758 84q48 -6 51 -6q10 0 14 2q-36 6 -49 6q-3 0 -8.5 -1t-7.5 -1z M784 1354q0 -1 7 -8v4q0 3 -3 6q0 -2 -4 -2zM1034 70h2q2 0 6 2h-4q-4 0 -4 -2zM1069 160h10q4 0 12.5 1t12.5 1q8 0 12 -2q1 2 4.5 3t3.5 3q-35 0 -47 -4q-8 0 -8 -2zM1237 319q2 0 5 -2t5 -2q0 1 1 3.5t1 3.5h-8q-4 0 -4 -3z" />
<glyph unicode="M" horiz-adv-x="2277" d="M221 1391q0 20 11.5 30.5t41.5 10.5q19 0 58 -2.5t55 -2.5q17 0 55 3.5t56 3.5q23 0 40.5 -3t31.5 -12t22.5 -17t19 -28t16 -33t17.5 -43q4 -10 17.5 -27.5t17.5 -25.5q29 -63 47 -90q20 -30 45 -87.5t66 -113.5q7 -13 37.5 -52.5t39.5 -67.5q10 -44 33 -83t61 -104 t72 -153q6 -16 21.5 -45t27.5 -41q6 7 29 29t33 38q17 23 43.5 82t30.5 68q59 121 98 188q93 170 133 248q18 38 66 131.5t77 157.5q15 25 20.5 33t19 22.5t27 19.5t36.5 10.5t57 8.5q81 0 158.5 -15.5t77.5 -52.5q0 -3 -3 -11.5t-3 -16.5v-23q0 -9 -3.5 -29t-3.5 -28v-29 q0 -19 -9.5 -25t-31.5 -6q-21 0 -45 4q-7 0 -88 -6q-16 -104 -16 -123q0 -27 6 -83.5t6 -86.5v-71q0 -72 4 -105q1 -6 8 -40t7 -58l-9 -37q0 -21 8.5 -69t8.5 -78q0 -20 -5 -57.5t-5 -55.5q0 -28 0.5 -40t4 -35.5t13 -34.5t25.5 -11q10 0 31.5 3t31.5 3q28 0 53 -22.5 t25 -65.5v-18.5v-21t-0.5 -21.5t-1.5 -22.5t-2.5 -20t-5 -18.5t-7.5 -14t-10 -10t-14 -3q-9 0 -29.5 4t-29.5 4q-43 0 -148 -7t-149 -7q-10 0 -30.5 1t-29.5 1q-15 0 -39 -6.5t-37 -6.5q-24 0 -43.5 17.5t-19.5 48.5q0 16 6.5 47.5t7.5 36.5q0 1 1 31.5t4.5 49.5t11.5 25 q24 15 112 15q13 0 21 -2q4 230 4 358q0 124 -10 207q-34 -48 -69 -118.5t-51 -109t-50 -126.5q-25 -58 -47 -86q-17 -21 -23 -34t-14 -38t-19 -51q-7 -16 -25.5 -44.5t-23.5 -43.5q-5 -11 -13.5 -36.5t-13.5 -39t-17.5 -33t-27 -29.5t-39.5 -18t-57 -8q-20 0 -37 7.5 t-29 20t-22 27.5t-16 30.5t-10 27.5t-6 21l-3 9q-3 9 -16 21t-16 18q-8 18 -18.5 57t-18.5 58q-5 12 -20.5 31t-20.5 28q-33 60 -71.5 148t-47.5 104q-8 15 -30 63t-44 88t-45 64q-2 -52 -11 -191t-9 -216q0 -175 24 -175q9 0 27.5 1.5t26.5 1.5q34 0 65 -20.5t31 -53.5v-25 q0 -1 5 -16t5 -25q0 -23 -1 -36.5t-5 -28.5t-14 -22t-25 -7h-21q-27 -2 -77 -2q-34 0 -103 5t-102 5q-13 0 -36 -5t-34 -5q-6 0 -20 1t-21 1q-40 -4 -57 -4q-70 0 -70 80q0 18 6.5 44t6.5 34q0 7 -4.5 24t-4.5 25q0 31 68 31q18 0 44 -4.5t34 -4.5q9 0 14.5 6.5t11.5 8.5 q0 6 -1 19.5t-1 19.5q0 44 7.5 134.5t7.5 135.5q0 23 -1 68t-1 67q0 237 14 352q2 20 2 64v51q0 33 2 49q-24 4 -33 4q-17 0 -46 -4t-42 -4q-30 0 -55 15t-25 47q0 8 4.5 25t4.5 26q-1 6 -9 35t-8 45zM311 76h23q14 0 20 2q-7 0 -14 2t-14.5 5.5t-12.5 4.5q0 -3 -1 -7t-1 -7 zM375 1278h39q16 0 22 2q-5 0 -17 1t-18 1q-20 0 -26 -4zM541 520q0 -37 2 -51q0 75 6 131q-8 -31 -8 -80zM586 934h4q2 0 6 -1t6 -1t4 2q-4 6 -20 14v-14zM700 1030q2 -14 10.5 -27t18.5 -14q-4 4 -13 19.5t-16 21.5zM707 160q8 -4 10 -4v2q0 2 -6 2h-4zM868 735 q13 -40 31 -47q-8 7 -17 24t-14 23zM934 414q28 -62 43 -76q-28 59 -43 76zM963 578l6 -11q-2 7 -6 11zM1022 240q1 -3 4.5 -15.5t6 -19t7 -14t9.5 -9.5q-7 42 -27 58zM1051 393q0 -4 8 -8v2q0 4 -6 10q-2 -2 -2 -4zM1243 393q2 0 4 -2t4 -2q0 1 4.5 10t4.5 13v2 q-2 -4 -8.5 -10.5t-8.5 -10.5zM1577 59q8 -2 33 -2t35 2h-5q-8 0 -23 3.5t-22 3.5t-18 -7zM1655 1055q22 0 22 41v4q-3 -8 -11 -22.5t-11 -22.5zM1698 729q2 -21 3 -65t3 -64q4 14 4 43q0 44 -10 86zM1700 307q0 -31 2 -43q1 1 2.5 5t3.5 5q-6 10 -6.5 42t-1.5 38v-47z M1735 934q0 -15 4 -35v16q0 19 5 52t5 49q-14 -40 -14 -82zM1749 866q5 -67 10 -80q0 65 -10 80zM1839 1282q15 2 51 2t49 2q-28 4 -51 4q-33 0 -49 -8z" />
<glyph unicode="N" horiz-adv-x="1990" d="M233 1372q0 35 13 48.5t51 13.5q25 0 76.5 -2t72.5 -2q8 0 31 3t35 3q23 0 42 -17t38 -45t33 -39q8 -13 42 -46.5t52 -57.5q4 -6 9 -17t12 -17t26 -17q20 -15 30.5 -34t12.5 -22q21 -35 47.5 -64t49 -48t24.5 -21q12 -15 42.5 -54.5t54 -67.5t50.5 -56q5 -6 12 -14.5 t10.5 -12.5t10 -9.5t14.5 -10.5q42 -52 83 -105.5t59 -78t38 -48t33 -34t29 -19.5q12 35 12 107q0 18 -1 53t-1 53q0 22 2 66t2 65q0 57 -7 171t-7 175v31q-15 10 -41 10q-8 0 -24.5 -1t-24.5 -1q-35 0 -54.5 22.5t-19.5 59.5q0 24 10 51q-10 20 -10 46q0 19 13 37t40 18 q9 0 25 -3.5t20 -4.5q43 0 145 6t122 6q80 0 121 -14q6 2 20 2q78 0 78 -158q0 -41 -8.5 -58.5t-32.5 -17.5q-10 0 -32.5 4t-31.5 4q-25 0 -57 -8v-14q0 -24 -4.5 -69t-5.5 -64v-47q0 -12 -1 -37t-1 -39q0 -20 9 -43.5t9 -40.5t-4 -45v-49q0 -19 -6 -52.5t-6 -54.5 q0 -33 2 -101t2 -102q0 -14 -4 -38t-4 -37q0 -10 6 -36.5t6 -45.5t-2 -59t-2 -60q0 -15 7 -42t7 -56q0 -74 -35 -74q-5 0 -14.5 2t-13.5 2q-14 0 -36 -5t-34 -5q-23 0 -38.5 3.5t-26.5 13t-17 17t-16.5 25t-18.5 27.5q-16 16 -46 40.5t-38 33.5q-14 15 -35.5 50t-33.5 50 q-7 9 -29 32.5t-31 39.5q-3 3 -6.5 14.5t-7.5 15.5q-5 8 -32 26t-36 30q-13 15 -37 50t-36 48q-5 5 -24.5 22.5t-32 30t-24.5 30.5t-13 32q-7 6 -21 17t-20 16.5t-14.5 18t-14.5 29.5q-10 15 -37 42t-37 40q-11 14 -27 36t-26 34.5t-29.5 34.5t-44.5 47q-8 -31 -8 -72 q0 -24 4 -72t4 -71q0 -32 -6 -59q8 -24 8 -70q0 -17 -6 -43t-6 -47q0 -22 3 -74t3 -80q0 -37 -2 -53q6 -21 6 -47v-19q24 -8 41 -8q10 0 25 5t22 5q27 0 48.5 -14t21.5 -35q0 -6 -3 -26t-3 -29q0 -7 4 -22t4 -25q0 -78 -53 -78q-20 0 -58 6t-57 6q-9 0 -37.5 -8t-52.5 -8 q-19 0 -62.5 5t-64.5 5q-12 0 -32 -5t-32 -5q-62 0 -92 16.5t-30 63.5q0 12 1.5 25.5t3.5 27.5t3 19q-10 17 -10 43q0 40 36 40q9 0 30.5 -2t31.5 -2q35 0 63 21q0 26 1 80t1 80q0 16 -1 48t-1 48q0 29 4.5 80t4.5 78q0 28 -1.5 84t-1.5 83t1.5 83t1.5 83q0 30 -4.5 88 t-4.5 86q0 23 2 35q-60 0 -73 11q-15 -11 -27 -11q-26 0 -44.5 23t-18.5 51q0 13 8 37q-11 26 -11 55zM324 74q22 0 26 4q-6 0 -26 10v-14zM328 1356q4 0 34 -10l9 12h-23q-16 0 -20 -2zM487 645q0 -19 2 -27q3 15 3 35q0 28 -5 43v-51zM492 1356q3 0 8.5 -3t7.5 -3h2 q-2 1 -4 4l-2 4q-8 0 -12 -2zM537 1321q4 -4 10 -14t11.5 -17t12.5 -8q-3 4 -9.5 14t-12.5 16.5t-12 8.5zM541 375q0 -21 10 -23q-2 9 -4 32.5t-4 29.5q0 -5 -1 -19t-1 -20zM553 1155q0 -2 2 -2q0 1 2 2.5t2 3.5v2q-1 0 -2 -1t-2 -1q0 2 -2 2v-6zM606 88h15q14 0 102 -10v18 q-13 -8 -37 -8q-9 0 -28.5 2t-28.5 2q-11 0 -23 -4zM694 993q4 -4 4 -12q8 -4 19.5 -21.5t19.5 -19.5l-17 25.5t-26 27.5zM788 1020q0 -4 3.5 -8t9.5 -9t8 -6q36 -36 45 -41h2q0 8 -24 34.5t-37 35.5q-7 -4 -7 -6zM987 809q10 -22 37 -49q43 -37 45 -39q-16 14 -42.5 45 t-39.5 43zM1305 1360q2 -2 2 -14q24 4 32 10zM1319 242q1 -2 5.5 -9.5t6.5 -9.5q0 11 -12 19zM1419 1249q4 -1 9 -6t8 -6q0 4 4 12h-21zM1452 1057q2 -14 2 -49v-64q0 -33 2 -47q6 37 6 80q0 49 -10 80zM1460 719q1 -4 1 -17.5t1 -15.5v19q0 12 -2 14zM1528 311q0 -14 8 -22 v37q0 18 -4 24q0 -7 -2 -20t-2 -19zM1528 1190h2q4 -16 4 -25q0 -7 -2 -22t-2 -21q0 -8 2 -10q0 26 8 76q-2 0 -3 3t-3 3q-6 0 -6 -4zM1530 170q0 -11 4 -23q0 13 1 39t1 39q0 -5 -3 -25.5t-3 -29.5zM1534 260q0 -10 2 -16q0 3 -1 8t-1 8zM1688 1282q2 0 4.5 -1t3.5 -1 q6 0 6 12q0 4 -2 6q-1 -2 -6.5 -7t-5.5 -9z" />
<glyph unicode="O" d="M184 739q0 90 17 153t49.5 126.5t42.5 91.5q6 17 15.5 33.5t24.5 34t24 27t29 29t24 23.5q38 58 71 74q6 6 13.5 9t20 5.5t17.5 4.5q24 6 56 34q28 24 92 43.5t117 22.5q5 0 14 -1t14 -1q25 0 83 15.5t96 15.5q37 0 55 -2q7 0 40 -9.5t82.5 -21.5t92.5 -16 q38 -4 76.5 -27t84.5 -61.5t62 -49.5q3 -3 55 -43.5t68 -64.5q4 -4 17.5 -25.5t29.5 -59t16 -65.5l1 -18q2 -19 4 -35t10 -43t20 -51q6 -27 16.5 -63t15.5 -57.5t5 -39.5q0 -45 -16 -117q0 -3 -6.5 -11.5t-12.5 -30t-6 -54.5q0 -4 3 -19.5t3 -25.5q0 -21 -14 -50t-24.5 -45 t-39.5 -57l-8 -16q-7 -16 -20 -37t-33 -46.5t-53.5 -54t-73.5 -50.5q-20 -15 -54.5 -35t-94.5 -49t-140 -48.5t-159 -19.5q-21 0 -39.5 1.5t-39.5 6t-28.5 6t-32.5 8.5l-24 7q-44 0 -83 10t-82.5 27t-68.5 24q-35 18 -84.5 59t-64.5 52l-13 11q-14 11 -36.5 30.5t-46 42.5 t-45.5 51.5t-33 54.5q-3 7 -8.5 32t-12.5 36q-74 89 -74 205q0 10 2.5 29.5t2.5 29.5q0 9 -5.5 25.5t-5.5 29.5zM250 895q10 9 10.5 22t5.5 23q-8 0 -14 -20t-2 -25zM387 1069q27 27 43 59q-3 -3 -13.5 -11t-19 -14t-8.5 -7zM428 264q1 -18 36.5 -40t61.5 -25q-74 32 -98 65 zM473 668q0 -25 10 -53t31.5 -69.5t28.5 -56.5q4 -55 45 -102q15 -16 28.5 -28.5t29 -24t24 -18.5t26.5 -16.5t23.5 -13t27.5 -12.5t25.5 -10.5t31.5 -11.5t32 -12q11 -2 58 -13.5t84 -17.5t75 -6q14 0 28 2.5t22.5 5t21 7t16.5 5.5q69 35 114 65t78 70q11 16 35.5 50.5 t32.5 48t24 45.5t21.5 59.5t10.5 72.5t5 101q0 11 -4 45.5t-4 53.5q-15 47 -29 80.5t-26.5 59.5t-18.5 40q-2 3 -16.5 25t-23 31t-29.5 28.5t-53.5 38.5t-77.5 41q-20 9 -52 31t-60 34t-62 12q-33 0 -63.5 -8t-78.5 -24t-92 -27q-118 -24 -174 -111q-5 -23 -20 -45 q-10 -9 -19 -22.5t-14.5 -24t-13.5 -26.5t-13 -25q-33 -57 -33 -123q0 -7 1 -20.5t1 -20.5q0 -18 -7 -54t-7 -56zM737 80l45 -10q66 -17 70 -17l22 10l-40 3zM1167 1262q10 -1 27 -6.5t23 -6.5q-31 31 -37 31q-1 0 -3.5 -4t-5.5 -8.5t-4 -5.5zM1317 102q25 3 61 25.5 t37 40.5q-31 -27 -98 -66zM1485 1106q-1 1 12.5 -30t30 -70t20.5 -52q0 24 -1.5 36.5t-16 44t-45.5 71.5zM1645 446q5 14 12.5 70.5t9.5 87.5q-2 -20 -12 -70.5t-10 -82.5v-5zM1671 776q0 -3 2 -20t2 -19v-4l6 -47q7 10 7 16q0 24 -5.5 47t-11.5 29v-2z" />
<glyph unicode="P" horiz-adv-x="1581" d="M225 59q0 19 4 56.5t4 58.5q0 36 8 46.5t38 10.5q9 0 22.5 -3t17.5 -3q20 2 33.5 11t20 19t10 28.5t3.5 29t-0.5 33t-0.5 29.5q0 35 6 105t6 106q0 38 -6 112.5t-6 112.5q0 48 9 129.5t9 116.5q0 18 -3 55t-3 57q0 25 -17.5 34.5t-42 9t-49 0.5t-42 15.5t-17.5 47.5 q0 13 7.5 31.5t7.5 29.5q0 10 -5.5 31.5t-5.5 30.5q0 15 9 24.5t26.5 13t29.5 4.5t32 1q38 0 112 -3t111 -3q27 0 77.5 2t74.5 2q17 0 50 -4t50 -4q15 0 47 3t51 3q50 0 98 -10t81.5 -23t70.5 -35.5t55 -36.5t45 -37.5t33 -27.5q4 -4 13 -14t14 -15.5t11 -14t9 -14.5 q4 -9 7 -23.5t6 -19.5q5 -14 16.5 -33t16.5 -39t5 -59q2 -22 12.5 -71.5t10.5 -75.5q0 -143 -104.5 -274.5t-243.5 -168.5q-30 -8 -141 -16q-13 -1 -40.5 -6.5t-43.5 -5.5q-8 0 -25 1t-25 1q-81 -6 -84 -6q-25 0 -49 6q2 -8 2 -25q0 -18 -6 -51t-6 -49q0 -27 11.5 -47.5 t23.5 -20.5q8 0 22.5 5.5t22.5 5.5q42 0 69.5 -2t47.5 -10t30.5 -16.5t16.5 -28.5t7 -39t1 -54q0 -22 -2 -34.5t-11 -27.5t-31 -21.5t-58 -6.5q-46 0 -97.5 6t-77.5 6q-38 -3 -125.5 -3.5t-121.5 -4.5q-6 -1 -31 -5.5t-39 -4.5q-30 0 -52 17.5t-22 49.5zM315 94q1 0 3.5 -1 t3.5 -1q5 0 8 6q-1 0 -5 4t-8 4q0 -10 -2 -12zM322 1364q0 -2 1 -5.5t1 -4.5l18 12q-18 0 -20 -2zM471 766l2 -18q2 0 2 24q-2 4 -2 14q0 2 2 17t2 31q0 8 -2 8q-4 -32 -4 -66v-10zM545 1102q0 -26 8 -39q4 46 4 72q0 5 -1 16t-1 16q-10 -30 -10 -65zM561 868q0 -20 4 -26 q0 20 -4 26zM635 965q0 -39 8 -102t8 -107q0 -8 -1 -25.5t-1 -25.5q0 -25 13.5 -45.5t42.5 -20.5q21 0 58 8t58 8q8 0 24 -1t23 -1q53 0 88.5 14.5t87.5 49.5q16 10 29.5 25t29 39.5t24.5 62.5t10 84q-6 71 -13 92q-5 14 -21 36.5t-20 30.5q-22 37 -56 64t-73 41t-74.5 20.5 t-70.5 6.5q-115 0 -168 -15q0 -39 -3 -119t-3 -120zM649 1362q3 -6 13 -6q4 0 10 1.5t13 3.5t9 3q-33 0 -45 -2zM670 489q3 0 8.5 -1t7.5 -1q4 0 6 2q-3 0 -9.5 2.5t-8.5 2.5q-4 0 -4 -5zM784 573q38 2 111 3t90 2q-9 6 -22 6q-8 0 -27 -2t-29 -2q-14 2 -45 2q-51 0 -78 -9z M795 135q3 -14 14 -14q-2 4 -2 18q-8 -4 -12 -4zM834 494q27 5 28 6h-6h-7.5t-6 -0.5t-5.5 -2t-3 -3.5zM928 1294l16 -6q1 1 10 6h-26zM1133 1243q2 -2 5.5 -5t5.5 -5t6 -4t9 -2q-3 1 -8 5.5t-9.5 7.5t-8.5 3zM1159 688q0 -2 2 -2q0 2 2 5.5t3 4.5t-1 2q-6 -6 -6 -10z M1227 1001q1 -8 1 -28t1 -25q0 49 -2 53zM1286 1122q7 -13 14 -39v21q-2 3 -5 8.5t-5 8t-4 1.5zM1290 780q13 0 22 46t9 67q0 40 -8 86q0 -131 -23 -199z" />
<glyph unicode="Q" d="M203 702q0 99 19.5 195t56.5 158q137 224 309 311q67 31 120 45t105 21.5t82 15.5q9 1 37.5 9.5t54.5 8.5q24 0 52 -9t42 -9q3 0 8.5 1t8.5 1q156 -30 227 -64q226 -108 287 -225q5 -7 21.5 -25.5t28.5 -40.5t24 -63q6 -32 17 -47.5t13 -23.5q3 -9 4.5 -27t3.5 -25 q3 -11 8 -25t8 -25t3 -25q0 -13 -4 -34t-4 -30t1 -28t1 -29q0 -174 -95 -385q-11 -24 -32.5 -51.5t-38 -44.5t-46 -45t-36.5 -35q-150 -150 -315 -150q5 -27 83.5 -49.5t124.5 -22.5h29q13 0 40 -4t40 -4q27 0 72 13.5t67 13.5q23 0 51.5 -30t28.5 -64v-17q0 -13 7 -28.5 t7 -24.5q0 -26 -21 -43.5t-52 -24t-50.5 -8.5t-33.5 -2q-16 0 -50.5 2t-52.5 2q-14 0 -38.5 -5t-41.5 -5q-27 0 -50.5 5.5t-50 15.5t-40.5 14q-161 42 -219 82q-8 5 -20.5 20.5t-20.5 20.5q-19 15 -74 39q-14 7 -34.5 25.5t-26.5 23.5q-6 4 -20.5 11.5t-23.5 15t-13 18.5 q-139 45 -181 67q-75 37 -139.5 92.5t-103 106.5t-68 105t-40.5 83.5t-15 45.5q-4 20 -21.5 54.5t-17.5 59.5v41q0 9 -1 28t-1 27zM287 680q0 -25 4 -37v12q0 17 2 47.5t2 45.5v16q0 -5 -4 -36t-4 -48zM403 606q0 -17 7 -31q-1 15 -0.5 28.5t0 27.5t-3.5 20q0 -5 -1.5 -21 t-1.5 -24zM426 907q1 5 4.5 13.5t5.5 16t2 13.5v6q-1 -5 -4.5 -15t-5.5 -18.5t-2 -15.5zM479 694q0 -10 7.5 -38t7.5 -44v-37q0 -31 34 -84t41 -73q4 -3 26.5 -16.5t31.5 -22.5q6 -6 18.5 -22t20.5 -23q96 -71 112 -80q10 -7 78 -27q12 -4 30.5 -13.5t35 -15t34.5 -5.5 q35 0 73.5 9.5t59.5 17.5t69 30.5t61 28.5q1 0 15.5 4t23 7t22.5 9t25.5 15t19.5 20q24 16 40 61.5t26 57.5q1 2 12.5 16t15.5 23q10 22 24 81t19 74q3 10 10.5 27.5t11 33t3.5 35.5q0 18 -9.5 42.5t-11.5 37.5q-3 11 -6.5 40t-8.5 44.5t-27 50.5t-60 78q-148 166 -264 189 q-23 4 -78.5 7t-85.5 11q-2 0 -2 -2q-15 -7 -33.5 -12.5t-43 -10.5t-36.5 -8q-6 -2 -19 -4t-18 -4t-12 -9t-12 -9q-4 -2 -14.5 -4t-14.5 -4q-22 -12 -56 -42.5t-54 -41.5q-5 -20 -44.5 -55.5t-39.5 -61.5q0 -30 -27 -99t-27 -116q0 -12 -2 -34t-2 -32zM600 1272q29 12 55 31 q-11 -4 -29 -15.5t-26 -15.5zM901 -14q4 -3 11 -10t14 -12t14 -5q4 0 8 2q-42 24 -47 25zM928 1315q0 -1 17 -3.5t38.5 -4.5t32.5 -2q14 0 22 2q-24 4 -82 10q-28 0 -28 -2zM1094 -37l9 -4.5t11 -3.5h2q0 1 -4.5 5t-5.5 9zM1186 -86q6 -3 16.5 -12t20.5 -14t20 -5q1 0 3 1 t3 1q-10 2 -32 15.5t-29 13.5h-2zM1260 1329q28 -18 57 -24q-8 3 -27.5 13t-29.5 11zM1270 139q3 1 15 7t17.5 8.5t14.5 8t15 10.5t9 11q-47 -21 -71 -45zM1335 -135l12 -4q12 -4 19 -4q6 0 10 2q-7 0 -21 3t-20 3zM1372 1272q51 -45 111 -88q-7 6 -32.5 28t-43 36t-35.5 24 zM1413 1081q3 -1 7 -6t7 -6q-6 12 -10 12h-4zM1534 561q1 2 5 10.5t5.5 13t3.5 12t2 13.5v13q-2 -7 -5 -19t-5.5 -23.5t-5.5 -19.5zM1595 948q13 -17 21.5 -42.5t16.5 -55.5t16 -47q-5 38 -9.5 59t-16 47.5t-28.5 38.5z" />
<glyph unicode="R" horiz-adv-x="1697" d="M225 195q0 22 55.5 30t114.5 8q0 3 4 23t4 31q0 23 -5 74t-5 77q0 33 6 60q-1 5 -4.5 14.5t-5.5 17.5t-2 15q1 6 6.5 23.5t5.5 35.5q0 454 -8 604q-17 2 -39 6.5t-28 4.5q-5 0 -13.5 -3.5t-13.5 -3.5q-25 0 -40 19t-15 51v49q0 11 -3 37t-3 39q0 31 26 31q16 0 44 -5.5 t46 -5.5q46 0 127 7.5t115 7.5q35 0 53 -2h53q21 0 60.5 -6t56.5 -7q22 -2 94 -3.5t107 -8.5q151 -29 227 -88q115 -89 158 -219q2 -7 15.5 -33t13.5 -51q0 -20 -5 -113q-1 -19 -11.5 -57t-10.5 -59v-25q0 -30 -6.5 -55.5t-23 -50.5t-25 -36.5t-34.5 -38t-30 -30.5 q-69 -72 -145 -108q7 -20 34 -45.5t33 -32.5q10 -14 23.5 -45t24.5 -47t47 -30.5t94 -14.5h35q31 0 51 -15.5t20 -48.5q0 -12 -3 -35t-3 -35q0 -4 1 -19t1 -24q0 -13 -2.5 -23t-5.5 -16.5t-10.5 -10.5t-12 -6.5t-17 -3.5t-17.5 -1h-21h-22q-9 0 -30.5 4t-31.5 4q-8 0 -28 -4 t-33 -4q-28 0 -47 5t-37 21t-27.5 28t-33.5 46.5t-40 55.5q-58 76 -157 200q-4 6 -15.5 24t-20.5 28.5t-20 17.5q-25 -14 -84 -14q-23 0 -54.5 10t-45.5 10q-9 0 -23 -17t-14 -30q0 -8 2 -27.5t2 -31.5v-64q0 -16 11.5 -22.5t29 -5.5t37.5 0.5t37.5 -4t29 -19.5t11.5 -45 v-78q0 -41 -9 -62t-40 -22q-5 0 -17 3t-18 3q-10 -1 -43.5 -12.5t-54.5 -11.5q-24 0 -69.5 12t-72.5 12t-76.5 -12t-89.5 -12q-83 0 -83 71q0 12 3 38t3 40q0 20 -8.5 37.5t-8.5 24.5zM328 1296q0 -4 2 -4q0 2 4.5 3t5.5 3h-2q-2 0 -5 2.5t-5 2.5v-7zM377 1350q8 -2 26 -2 q36 0 76 8q-17 -2 -51 -3t-51 -3zM481 209q0 -10 2 -16q0 3 1 13t1 17q0 15 -2 19q0 -5 -1 -16.5t-1 -16.5zM481 569q0 -3 1 -7t1 -5v43q-2 -10 -2 -31zM481 772q0 -6 2 -8q0 3 1 9.5t1 10.5q0 11 -2 15q0 -4 -1 -13.5t-1 -13.5zM483 545q0 -25 4 -33q-1 6 -0.5 12t0 12 t-3.5 9zM551 1200q0 -7 6 -10v8q0 6 -4 6q0 -1 -1 -2t-1 -2zM557 1126q0 -6 2 -8v4q0 5 1 13t1 12v4q-4 -16 -4 -25zM561 365q0 -26 8 -58v43q0 22 -6 37q-2 -6 -2 -22zM571 666q0 -17 4 -17l3 2q-1 1 -2 5t-2 6.5t-3 3.5zM637 1020q0 -12 5 -37t5 -37v-16q2 -15 9.5 -50 t7.5 -53q0 -15 -7.5 -44t-7.5 -50v-10q0 -21 1 -31t7 -22.5t21 -18.5t41 -8h8q15 0 47 4t53 4q8 0 26 -1t26 -1q57 0 115 21t93 47q34 26 49 95.5t15 145.5q0 45 -16.5 83t-41.5 63t-59.5 45t-65 30.5t-63 18t-49.5 9.5t-29 3q-25 2 -73 2q-113 0 -113 -16q0 -12 3 -32.5 t3 -30.5q0 -19 -5 -57t-5 -56zM696 575q8 -8 19 -8q4 0 8 4h-4q-4 0 -11 2t-10 2h-2zM715 160q1 0 4 -3t6 -3q0 6 -7 6h-3zM745 487q3 0 9.5 -1t9.5 -1q1 0 3 1t3 1q-2 0 -7 1t-7 1q-9 0 -11 -2zM958 1348q12 -2 37.5 -11t40.5 -8q2 0 9.5 2t9.5 2q-35 15 -97 15zM1083 520 q14 4 21 8h-6q-7 0 -15 -8zM1186 1286q4 -2 11.5 -7.5t10.5 -6.5q-14 14 -22 14zM1221 82q5 -10 12 -10q4 0 6 2q-5 0 -11 4t-7 4zM1233 981q0 -10 4 -10q0 8 -4 10zM1251 1227q11 -23 31 -39q-2 11 -15.5 23.5t-15.5 15.5zM1337 76q6 0 18 -2t17 -2q6 0 10 2q-16 4 -30 4 q-11 0 -15 -2zM1403 160q2 0 5 -2t5 -2q2 2 2 4q-1 0 -3.5 1t-4.5 1z" />
<glyph unicode="S" horiz-adv-x="1441" d="M211 328q0 68 13.5 92t68.5 24q13 0 40 -3t40 -3q7 0 19.5 2t17.5 2q18 -3 31.5 -17.5t13.5 -31.5q0 -9 -6 -18q3 -34 23 -59.5t43 -38.5t52.5 -30t44.5 -32q46 -12 95 -12q97 0 179.5 48t82.5 103q0 44 -2 62q0 4 1 12.5t1 11.5q-11 31 -48 58t-100.5 58.5t-85.5 45.5 q-38 24 -190 98q-11 5 -38 15.5t-45.5 20t-31.5 22.5q-26 25 -54 48q-23 18 -31.5 32.5t-39.5 83.5q-10 23 -16 36q-27 61 -27 93q0 83 57 202q18 37 50 70t64.5 53.5t62.5 35t48 21.5l19 7q15 0 43 4q8 2 21.5 7.5t28 9t32.5 3.5q73 0 130 -17t82.5 -37t46 -39t26.5 -21 q0 1 1 4t1 4q0 8 -9.5 23t-9.5 24q0 15 16 24t42 9q8 0 31.5 -3t35.5 -3q9 0 24 1t21 1q27 0 44.5 -17.5t17.5 -38.5q0 -17 -6 -45t-6 -35q0 -20 7 -58t7 -66q0 -16 -6 -37t-6 -31q0 -7 1 -21.5t1 -21.5q0 -26 -13 -36.5t-39 -10.5q-14 0 -44 3t-42 3q-12 -6 -24 -6 q-29 0 -45 24t-24 62t-11 43q-13 38 -81 66t-130 28q-57 0 -124.5 -35t-67.5 -84q0 -15 11 -44t11 -46q0 -5 -1 -16.5t-1 -16.5q0 -17 16.5 -35.5t47.5 -36.5t60 -32.5t69 -33.5t61 -30q26 -14 77 -36.5t86 -41.5t78.5 -48.5t79.5 -74t64 -102.5q39 -84 39 -147 q0 -21 -5 -44t-13 -51.5t-11 -45.5q-7 -21 -15.5 -38.5t-23 -34t-23 -25t-30 -28t-29.5 -26.5q0 -2 1 -6t1 -6q0 -15 -17 -29.5t-42 -24t-49 -17t-43 -11.5l-19 -4q-54 -21 -100 -21q-59 0 -108 6q-11 2 -33.5 11.5t-38.5 9.5q-25 0 -47 5.5t-38 16t-26 18.5t-21 20t-14 14 q-8 8 -24.5 17.5t-22.5 14.5q-2 -4 -2 -16q0 -8 2 -27.5t2 -27.5q0 -35 -32 -35q-13 0 -25 6q-57 -10 -82 -10q-84 0 -84 59q0 9 5 30.5t5 31.5q0 7 -2 22t-2 23q0 16 3 46.5t3 43.5q0 18 -11 38t-11 44zM311 344q0 -8 4 -12q0 9 3.5 22t3.5 15q-4 0 -7.5 -8.5t-3.5 -16.5z M459 1090q4 -48 14 -60q0 18 -14 60zM469 1284q1 0 3 -1t3 -1q8 0 14.5 4t6.5 8q-2 -1 -13.5 -3t-13.5 -7zM512 829q1 -6 6 -11t8 -5q-2 8 -14 16zM512 1305l25 22q-24 -18 -25 -22zM645 840q11 -17 27 -17q1 0 3 1t3 1q-4 1 -15 7t-18 8zM647 74q14 -11 47 -11q11 0 23 3 q-24 8 -70 8zM655 721q3 -1 12.5 -5.5t12.5 -4.5q-20 10 -25 10zM762 1386q3 0 9.5 -2t8.5 -2q4 0 6 2q-3 0 -9 2.5t-9 2.5q-1 0 -3 -1.5t-3 -1.5zM819 1372q0 -3 24.5 -14.5t35.5 -14.5q-29 29 -60 29zM928 696q3 -1 16.5 -10.5t24.5 -9.5q-16 16 -41 20zM1042 246q7 0 7 4 l-2 4q-5 -5 -5 -8zM1096 1151q8 28 8 59q0 19 -4 39q0 -17 -2 -49t-2 -49zM1130 485q0 -15 11 -22q-2 9 -11 22z" />
<glyph unicode="T" horiz-adv-x="1529" d="M156 1188q1 5 4.5 24t3.5 31t-5.5 65t-2.5 86.5t20 41.5q16 8 80 -2q35 -5 78 0l84 4q23 3 51 3t50 -2t51.5 -3.5t52.5 -1.5q13 0 54.5 -1.5t65.5 -0.5q15 1 61.5 3.5t69 3t58 0.5t65.5 -3q43 -4 127 -4q21 0 58 4t64 6.5t56.5 0.5t48.5 -15.5t27 -38.5q3 -28 3.5 -37.5 t-2.5 -43t-3 -42.5q-2 -48 -10 -115q0 -7 1.5 -25.5t1 -31.5t-4.5 -21q-7 -18 -28.5 -22t-61.5 -4h-12q-57 0 -68 4q-10 3 -19.5 10.5t-16 17.5t-7.5 19q0 7 3 19t3 18q3 26 -8 57q-33 12 -117 12h-129q-5 -10 -7.5 -24t-3 -21t0 -27.5t0.5 -23.5v-211q0 -15 -3.5 -48.5 t-2.5 -51.5q1 -5 5 -14.5t5 -14.5q4 -22 5 -42.5t-0.5 -40t-3.5 -34.5t-5.5 -37.5t-5.5 -38.5q-1 -13 1 -29.5t6 -38t5 -32.5q2 -37 -6 -115q-5 -7 -1.5 -56t3.5 -56q10 -2 32 -10.5t38 -8.5q7 -1 22 2t23 2q15 -3 28.5 -14.5t18.5 -25.5q4 -9 0.5 -44.5t-2.5 -50.5 q0 -10 3 -33t2 -37t-9 -20q-4 -4 -10.5 -5.5t-11 -1.5t-15 0.5t-15.5 0.5t-17 -1t-19 -1q-14 0 -35.5 4t-28.5 4q-15 -1 -39.5 -6t-36.5 -6q-43 -7 -84 -4q-4 1 -18.5 5.5t-22.5 4.5q-4 1 -12 0t-12 0q-10 0 -28.5 2t-27.5 2q-2 0 -28.5 -3t-33 -3t-28.5 2q-13 3 -25.5 15 t-15.5 22q-1 6 0.5 20t1.5 19q3 30 0 57q-1 11 -6.5 32.5t-3.5 31.5q3 13 14 21t29.5 10t34.5 2t40 -1.5t36 -1.5q0 95 10 215q1 13 4.5 50t3.5 57q0 15 -2.5 51t-1.5 57q1 8 3.5 19.5t2.5 19.5t-3.5 23.5t-4.5 21.5q-3 28 2 129q4 28 4 37q0 14 -5.5 59t-2.5 72q0 5 2 14 t2 13q1 16 -2.5 43t-3.5 37q-1 6 -1 20t-1.5 22.5t-5.5 12.5q-6 4 -23 4t-38.5 -1.5t-30.5 -0.5q-10 1 -34.5 5t-39.5 3q-10 0 -37.5 -5t-46.5 -3q1 -15 -5.5 -40.5t-6.5 -37.5q-1 -9 3 -25t5 -24.5t-6 -21.5q-9 -11 -60 -11q-41 -6 -91 -0.5t-62 37.5q-9 22 -4 107z M279 1128q2 -1 3 -3.5t2.5 -4.5t4.5 -2l-4 21zM573 82q9 -3 13 4q-5 0 -13 4v-8zM592 1360q6 -1 23 -4t26 -4t22.5 0.5t22.5 7.5q-13 -1 -47.5 0.5t-46.5 -0.5zM623 156q2 -1 5.5 -5t7 -6t7.5 -2q-2 6 -8 10t-12 3zM725 1124l4 -14q3 8 -4 14zM727 358q3 3 4 8t1 10t-0.5 13 t-0.5 12q0 39 -2 45q0 -4 -3.5 -44.5t1.5 -43.5zM825 1266q1 -1 0 -4q1 -4 2 -5q0 2 2 4t2 5h-6zM1241 1128v-4.5t1.5 -3t4.5 -0.5q0 5 -6 8zM1245 1362q31 3 49 -6v12q-40 0 -49 -6z" />
<glyph unicode="U" horiz-adv-x="1912" d="M197 1255q0 12 3 35.5t3 30.5q0 8 -2 23.5t-2 23.5q0 66 32 66q7 0 24.5 -2t25.5 -2q15 0 47 3t51 3t66.5 -6.5t74.5 -6.5q26 0 80 5.5t80 5.5q43 0 64.5 -15t21.5 -57q0 -15 -6 -30t-6 -23q0 -6 5 -25.5t5 -36.5q0 -25 -11.5 -34t-37.5 -9q-10 0 -33 1t-33 1 q-27 0 -37 -4q0 -24 4.5 -79t4.5 -85q0 -18 -4.5 -51.5t-4.5 -54.5v-66q0 -45 -6 -139t-6 -139q0 -27 5 -49.5t14.5 -48t13.5 -39.5q10 -39 17 -60.5t23 -53t36 -49.5t54 -36.5t79 -28.5q7 -1 40.5 -12.5t53.5 -11.5q45 0 119.5 16.5t103.5 36.5q17 10 50 42t40 48 q5 10 13 39t14 43q26 61 29 125q0 13 -5.5 41.5t-5.5 44.5q0 57 8.5 168.5t8.5 171.5q0 25 -7.5 78t-7.5 84q0 4 0.5 16t0.5 19.5t-1.5 16.5t-5 14t-10.5 5q-15 0 -41.5 -6t-38.5 -6q-17 0 -37 12t-20 35q0 4 1 13.5t1 15.5q-1 12 -6.5 50t-5.5 56q0 62 43 62q6 0 26 -4 q13 4 31 5.5t42 1.5t34 1q7 0 23 -3t24 -3q6 0 20 2t21 2q25 0 75 -5t74 -5q10 0 29.5 1t28.5 1q26 -1 40.5 -2.5t33.5 -7t28.5 -17.5t9.5 -31q0 -10 -5 -35.5t-5 -44.5q0 -12 4 -32.5t4 -30.5q0 -27 -49 -27q-9 0 -29 1t-28 1q-20 -1 -27 -2t-15.5 -4.5t-15.5 -11.5 q4 -50 4 -70q0 -75 -10 -157q0 -19 8.5 -62t8.5 -61q0 -14 -2.5 -40t-2.5 -40q0 -5 2.5 -16t2.5 -17q0 -14 -6.5 -26t-6.5 -29q0 -32 3 -98.5t3 -96.5q0 -20 -4 -33.5t-12.5 -29.5t-11.5 -23q-4 -12 -8.5 -36t-8.5 -36q-24 -68 -116 -180q-44 -46 -118.5 -80.5t-124 -47 t-79.5 -15.5q-10 -1 -60 -10t-75 -9q-86 0 -158.5 17.5t-105 33.5t-71.5 41q-3 2 -4 3t-3 2l-4 2q-70 42 -115.5 102t-85.5 182q-2 6 -7 20t-7 21t-4.5 18t-3.5 21t0 21q0 8 2 24.5t2 24.5q0 10 -5.5 47t-5.5 61q0 10 3.5 29.5t3.5 28.5q0 20 -4.5 61.5t-4.5 63.5q0 27 1 84 t1 84q0 147 -16 229q-8 1 -24.5 1.5t-29.5 2t-20 6.5q-12 -4 -20 -4q-22 0 -37.5 15.5t-15.5 35.5zM291 1276q1 0 3 -1t3 -1v2q-2 0 -3 3t-3 3v-6zM393 1245q4 -4 8 -4q3 0 5 4h-3q-2 0 -4.5 1t-3.5 1zM446 911q0 -18 3 -30q0 8 1 27t1 28q0 21 -5 31v-56zM547 463 q0 -1 2 -22.5t4 -32.5q4 -20 19 -45t26 -33q-10 12 -18 30.5t-12 30t-11.5 38.5t-9.5 34zM563 176q12 -13 29.5 -25.5t31 -20t38 -19.5t32.5 -17l-15.5 15.5t-21.5 17.5q-6 2 -22 5.5t-23 8.5q-4 2 -20.5 17.5t-28.5 17.5zM637 1354h22q11 0 15 4q-17 0 -37 -4zM745 139 q9 -18 41 -18h9q-42 18 -50 18zM1219 1352q10 2 21 1t21.5 0.5t14.5 6.5h-8.5t-10.5 0.5t-11 0.5t-10.5 -0.5t-8.5 -1.5t-6 -3t-2 -4zM1319 209l2 -2q1 2 5 5t5 5q-3 0 -7.5 -2.5t-4.5 -5.5zM1419 408q2 4 8 11.5t9.5 15t3.5 14.5v4q-2 -8 -11.5 -22.5t-9.5 -22.5zM1446 496 q0 -11 2 -13v6q0 3 1 10.5t1 10.5q0 1 -1 4t-1 4q-2 -4 -2 -22zM1456 1188q0 -21 12 -33v25q0 17 -8 22q-4 -8 -4 -14zM1581 1346h2q1 0 3 -1.5t3 -1.5q2 1 2 3q-1 0 -4 1t-4 1q-2 0 -2 -2zM1608 1337q3 -1 8 -5t8 -5v12h-12q-4 0 -4 -2z" />
<glyph unicode="V" horiz-adv-x="1808" d="M92 1389q0 32 13 41.5t65 9.5q12 0 30.5 -3t32.5 -3q12 0 41 1t45 1q14 0 42 -1t40 -1q19 0 56 5t55 5q4 -1 11.5 -2.5t13.5 -2.5t10 -1q12 0 29.5 6t27.5 6q19 0 48.5 -19.5t29.5 -44.5q0 -7 -2 -20t-2 -20q0 -15 11 -34.5t11 -31.5q0 -72 -57 -72q-5 0 -20 1t-23 1 q-19 0 -27 -2q-2 -4 -2 -10q0 -17 17.5 -41t19.5 -29q59 -215 117 -315q4 -6 15.5 -20t15.5 -23q5 -9 11 -29t11 -28q8 -19 23.5 -49t26.5 -57t20 -62q5 -15 30 -50t27 -59q60 97 143 296.5t99 234.5q11 23 14.5 52t9.5 42q12 31 62 86q0 25 27 61q-36 -4 -54 -4 q-86 0 -86 68q0 5 1 14t1 14q0 8 -5 28.5t-5 33.5q0 78 53 78q6 0 19 -3t20 -3q10 0 31 2t33 2q20 0 59 -3t59 -3q26 0 75.5 6t72.5 6q18 0 48 -5t40 -5q8 0 22 3t19 3q19 -1 35 -17.5t16 -31.5q0 -8 -5 -35t-5 -43q0 -10 4 -27t4 -35q0 -28 -8 -38.5t-35 -10.5q-15 0 -48 4 t-48 4q-29 0 -46.5 -10.5t-23 -23t-13 -25.5t-17.5 -16q0 -20 -23.5 -66t-30.5 -74q-2 -7 -7 -30t-8.5 -35t-10 -28.5t-14.5 -24t-19 -7.5q-51 -138 -72 -186q-8 -22 -31.5 -61t-31.5 -58q-9 -19 -18 -56.5t-15 -53.5q-6 -14 -23 -39t-22 -39q-6 -17 -16 -51.5t-17 -51.5 q-8 -19 -41.5 -76.5t-52.5 -109.5q-1 -2 -6.5 -19t-6.5 -20t-7 -16.5t-9.5 -17t-11 -12t-14.5 -11t-18 -5.5t-23 -3q-30 0 -57 15t-46 36.5t-39.5 60t-34 70t-32.5 82.5q-9 23 -43 92t-45 106q-5 15 -12.5 47.5t-13 51t-20.5 49t-36 61.5q-3 6 -12.5 17.5t-12.5 17.5 q-6 13 -15 46t-16 50q-66 135 -86 187q-4 7 -10 25.5t-10 25.5q-3 7 -15.5 19t-15.5 18q-12 27 -19.5 68t-17 58t-34.5 17q-18 0 -53.5 -3t-51.5 -3q-57 0 -70.5 34t-13.5 157zM473 1266q5 -1 11 -7.5t8 -7.5l6 19q-5 -1 -9.5 -0.5t-9 0t-6.5 -3.5zM479 993q5 -24 23 -49 q-6 28 -23 49zM571 991q0 -20 11 -20q-3 2 -6.5 10t-4.5 10zM575 1352q4 0 10.5 -3t10.5 -3q0 10 -10 10q-11 0 -11 -4zM702 479q1 -18 19 -69q-5 37 -19 69zM727 659q0 -8 4 -8q0 4 -4 8zM969 195q9 32 24 57q-24 -28 -24 -57zM1024 455q15 15 27 47l-10 -17.5t-10.5 -18 t-6.5 -11.5zM1221 1356q8 -2 30 -2q33 0 54 6h-58q-25 0 -26 -4zM1251 831q3 9 11 30.5t10 29.5q-21 -38 -21 -60zM1321 1262q0 -6 6 -9q-4 8 -6 9zM1581 1350q4 -2 6 -2q4 0 6 2h-12zM1593 1346q6 -1 15 -7t10 -6q0 15 -19 15q-1 0 -3 -1t-3 -1z" />
<glyph unicode="W" horiz-adv-x="2371" d="M109 1325q0 9 3 25.5t3 25.5v21q0 14 8 22.5t26.5 12t32.5 4t41 0.5q35 0 94 -5.5t84 -5.5q30 0 92.5 4.5t96.5 4.5q65 0 88.5 -21.5t30.5 -93.5v-17.5v-18t-0.5 -16.5t-1.5 -16.5t-3 -13.5t-5 -12t-7.5 -8.5t-11 -6.5t-14.5 -2h-37q-19 0 -42 -5.5t-32 -6.5 q4 -24 17.5 -66.5t17.5 -58.5q5 -18 26.5 -82.5t28.5 -109.5q3 -13 11 -34t13 -38.5t5 -34.5q0 -35 33 -128t36 -103q1 -6 2 -17t3.5 -19.5t7.5 -15.5q9 4 20 27t18 43.5t7 22.5q21 83 43 118q26 43 51.5 147.5t30.5 119.5q4 10 15.5 31t16.5 32q6 14 14.5 44t14.5 44 q5 14 19.5 39t19.5 37q5 14 16.5 64t22 86.5t35.5 68t59 31.5q72 0 101.5 -15.5t29.5 -64.5q0 -25 21.5 -53.5t25.5 -40.5q5 -14 7.5 -40.5t3.5 -31.5q2 -7 10 -20.5t10 -20.5q17 -39 46 -131.5t54 -138.5q18 -35 36.5 -79t30 -76.5t30 -85.5t28.5 -79q23 -63 33 -75 q18 13 32 63t23.5 108t12.5 68q20 40 27.5 70.5t9.5 67.5t6 57q4 21 23 53.5t22 38.5q-6 9 -6 20q0 18 20 53t23 48q5 21 8 59q-14 4 -47 4h-35q-40 0 -57 16.5t-17 73.5q0 5 -0.5 22.5t0 27t1.5 26.5t3.5 26.5t7 20.5t12 16t17.5 5q18 0 65 -4.5t76 -4.5q49 0 127.5 7.5 t120.5 7.5q34 0 58 -2t53 -8.5t45 -22t16 -39.5q0 -16 -5 -46.5t-5 -43.5q0 -6 3 -22t3 -25q0 -21 -13.5 -28t-47.5 -7q-16 0 -37.5 3t-30.5 3q-11 0 -20 -4.5t-15.5 -12.5t-10 -14.5t-7.5 -15.5t-4 -10q-9 -34 -34.5 -93t-33.5 -85q-92 -290 -117 -383q-17 -63 -56 -192.5 t-58 -203.5q-7 -22 -16 -63.5t-15 -67t-21.5 -46.5t-39.5 -21h-17h-21t-21 0.5t-22 2t-20 3.5t-19 5.5t-14.5 8t-10.5 11.5t-3 16v14q0 10 -14.5 42t-35 76.5t-30.5 76.5q-13 43 -53 120t-51 111q-7 22 -14 54t-14.5 56.5t-22.5 47.5q-10 15 -17.5 33t-16 43.5t-13.5 38.5 q-3 9 -16 25t-17 24q-43 72 -45 108q-3 -10 -16.5 -27t-16.5 -26q-3 -6 -4 -20t-4 -21q-6 -17 -44.5 -91.5t-54.5 -121.5q-8 -22 -40.5 -130.5t-55.5 -152.5q-19 -38 -40 -91t-36 -83q-17 -26 -30 -61.5t-21 -48.5q0 -2 1 -6.5t1 -5.5q0 -31 -55 -31q-105 0 -123 39 q-3 9 -4.5 26.5t-3.5 24.5q-3 18 -9.5 39t-11.5 34t-16 38t-14 32q-6 14 -56 162q-4 12 -14 36t-14 36q-11 32 -29.5 114.5t-36.5 122.5q-11 21 -17.5 36.5t-13 38.5t-10.5 39t-14 60t-19 80q-15 41 -24 113q-5 21 -21 53t-20 45q-2 5 -6 20.5t-8 22.5q-15 3 -65 2.5 t-77.5 10t-27.5 43.5q0 3 1 9t1 9q0 8 -2.5 24.5t-3.5 22.5zM217 1358q6 -1 16.5 -2.5t19.5 -2.5t17 -1q7 0 27 4q-60 6 -78 6q-2 -2 -2 -4zM401 1188q15 -59 29 -90q-4 67 -29 90zM434 1061q0 -19 6 -25q-1 3 -1.5 8.5t-1.5 9.5t-3 7zM545 936q0 -7 2.5 -14t7.5 -16.5 t8 -16.5q0 13 -12 33q-1 2 -2 6t-2 7t-2 3v-2zM555 1280h2q64 0 64 14q-7 -6 -33 -7t-33 -7zM571 860q1 -3 3 -14.5t4.5 -16.5t7.5 -6q-5 5 -9 19t-6 18zM651 262q12 -30 15 -33v7q0 6 -6.5 14t-8.5 12zM791 188q3 6 12.5 23.5t14.5 30t7 24.5q-28 -34 -34 -78zM866 358 q1 3 8 17.5t7 21.5q-1 -2 -8 -13.5t-7 -18.5v-7zM963 782q3 15 16 44t14 46q-3 -11 -16.5 -40.5t-13.5 -49.5zM1096 944q2 0 15 42.5t15 43.5q0 1 -1 2t-1 2q-10 -18 -28 -88v-2zM1266 911q3 -26 16 -39q-2 4 -6.5 18.5t-9.5 20.5zM1287 854l5 -8q0 1 -5 8zM1290 1124 q0 -10 5 -17t10 -9q-3 5 -6.5 17.5t-6.5 17.5q0 -2 -1 -5t-1 -4zM1403 852q0 -11 3.5 -20.5t9 -19t7.5 -13.5q-13 39 -20 53zM1458 725q0 -17 10 -27q-2 12 -10 27zM1483 397q1 -1 4 -6.5t6 -7.5q-1 1 -1.5 4t-1.5 5t-2.5 3.5t-2.5 1.5h-2zM1501 592q0 -5 1 -9.5t2.5 -8.5 t4 -7.5t5 -6t4.5 -3.5q-4 6 -10 22t-7 19v-6zM1657 74q0 -4 2 -6q14 37 14 55v10l-6 -8v-6q0 -8 -5 -23t-5 -22zM1669 383q0 -4 2 -6q14 17 19 49l-9 -4q0 -1 1 -4t1 -4q0 -7 -7 -17.5t-7 -13.5zM1913 1219q6 -5 8.5 -16t3 -28.5t0.5 -21.5q6 12 6 35q0 28 -18 31z M2030 1362h22q31 0 43 4h-10q-31 0 -55 -4zM2167 1362q3 -1 8 -5t8 -5q0 1 -1 2t-1 2t1 3t1 3q-1 0 -5.5 1t-6.5 1t-4 -2z" />
<glyph unicode="X" horiz-adv-x="1744" d="M195 195q0 26 18 33.5t59 7.5q12 0 34 -2.5t32 -2.5q17 0 28.5 6t15.5 12.5t10.5 21.5t10.5 22q14 23 49 55.5t48 48.5q71 90 100 140q8 13 12 20t9.5 14t6.5 8t10 9t13 12q22 22 62 92q-14 25 -23 60q-35 21 -67.5 65.5t-63.5 99.5t-45 74q-98 125 -135 187 q-1 3 -2.5 9.5t-3.5 11.5t-6 9q-13 0 -38.5 -1t-37.5 -1q-44 0 -69 13t-25 49q0 7 1 23.5t1 23.5v41q0 19 0.5 30.5t3.5 25.5t9.5 21t16.5 7q3 0 13.5 -1t17.5 -1q8 0 34.5 7t45.5 7q44 0 143.5 -6t143.5 -6q15 0 34.5 3t26.5 3q27 0 44.5 -17.5t17.5 -42.5 q0 -12 -4.5 -37.5t-4.5 -39.5q0 -9 2 -27.5t2 -26.5q0 -15 -5 -23.5t-15.5 -12t-20.5 -4.5t-26.5 -2t-26.5 -3q20 -17 42 -47t42 -64t39.5 -68t42 -67t41.5 -53q22 3 36.5 11.5t20.5 16t16.5 25.5t16.5 27q11 16 38 59.5t42 65.5q4 5 15 15t14 16q2 4 11.5 26t21.5 29 q-5 2 -37.5 8.5t-47 17t-14.5 32.5q0 7 4 21t4 28q-16 64 -16 80q0 32 18.5 42.5t57.5 10.5q12 0 32 -1t27 -1q36 6 41 6q9 0 21 -4q23 10 47 10q17 0 50 -4t50 -4q14 0 48 5t57 5q72 0 99.5 -34.5t27.5 -129.5v-12q0 -66 -39 -66q-7 0 -24.5 1t-25.5 1q-16 0 -46.5 -11 t-49.5 -11q-2 0 -6 1t-6 1q-13 -36 -58 -88.5t-63 -87.5q-4 -6 -46 -68.5t-65 -91.5q-12 -15 -37.5 -44.5t-42 -51.5t-24.5 -39q8 -8 16.5 -28t10.5 -23q5 -11 24.5 -29.5t22.5 -21.5q28 -36 76.5 -116t80.5 -122q7 -10 21 -33t22 -31q6 -11 30.5 -35t31.5 -42q6 2 16 2 t33 -6.5t39 -6.5q12 0 30 3.5t25 3.5q56 0 56 -91q0 -23 -13 -81q0 -4 1 -13t1 -14q0 -15 -9 -22t-21 -8t-43 -1q-48 0 -104 6t-79 6q-18 0 -46 -9t-40 -9q-16 0 -51 3t-53 3h-33q-26 0 -41 6t-20 18.5t-6 26.5t-4 36.5t-9 41.5q-14 37 -14 45q0 29 20.5 41.5t36.5 12.5h39 q-1 9 -6 16t-13.5 13.5t-11.5 10.5q-10 20 -31 40t-32 55q-8 12 -34 32t-34 37q-9 28 -15.5 38.5t-17 18t-18.5 17.5q-14 -39 -43.5 -78t-56.5 -64t-50.5 -58.5t-27.5 -65.5q5 -3 20 -10.5t20.5 -12t12 -15.5t6.5 -26v-32q0 -2 3.5 -34t3.5 -48q0 -40 -33 -55t-97 -15 q-21 0 -62 5t-64 5q-20 0 -67 -10t-81 -10q-18 0 -41 6t-35 6h-22q-21 4 -35 22.5t-14 36.5q0 9 3 33t3 37q0 3 -4 26.5t-4 37.5zM283 1282q2 0 7.5 -1t8.5 -1q4 0 8 4q-13 3 -24 10v-12zM287 162q0 -6 2 -6q1 2 4.5 2t7 0.5t4.5 3.5h-18zM297 72q0 -6 27 -6t63 8h-41 q-6 -6 -18 -6q-7 0 -18.5 2t-12.5 2zM438 1241l2 -2.5t3 -4.5t3.5 -3.5t4.5 -1.5q0 2 2 2zM610 1366q9 -2 20.5 -5t18.5 -5t8 -2q2 2 2 4q0 10 -22 10q-7 0 -16.5 -1t-10.5 -1zM641 924q12 -14 24.5 -37t24.5 -41.5t27 -30.5q-4 18 -23 45.5t-36 45.5zM645 180q3 -1 7 -4 t5 -4v8h-2q-1 0 -4 1t-4 1zM672 467q0 -2 2 -2q1 5 7 11l7 7q-6 0 -11 -5t-5 -11zM860 702q1 -1 2 -3.5t2.5 -4.5t3.5 -2h2q-2 1 -5 5.5t-5 4.5zM1001 899q4 10 16.5 26.5t16.5 24.5q-11 -9 -20.5 -24t-12.5 -27zM1036 588q1 -3 6 -16t7 -17.5t7 -15t9 -15.5t10 -11t12 -9 q-23 49 -51 84zM1071 147q14 7 45 11h10q0 2 -2 2q-53 0 -53 -10v-3zM1130 158h17q0 2 -4 2zM1239 287q0 -4 2 -7.5t7 -7.5l5 -4zM1266 1202q20 46 28 55q-23 -10 -28 -55zM1405 86q0 -2 6 -2q53 0 53 2l-2 2q-10 -2 -26 -2h-31zM1436 1378q2 -2 2 -4v-2q6 0 13.5 -3t8.5 -3 q0 5 -1 7.5t-3.5 3.5t-4.5 1.5t-5 0t-4 -0.5h-6z" />
<glyph unicode="Y" horiz-adv-x="1601" d="M100 1397q0 23 8.5 33t30.5 10q15 0 42.5 -3t39.5 -3q24 0 70.5 3t68.5 3q13 0 41.5 -5t36.5 -5q13 0 54.5 4t66.5 4q49 0 73.5 -14t24.5 -54q0 -18 -7 -42.5t-7 -45.5q0 -8 2 -25t2 -22q0 -27 -49 -27q-12 0 -35 1t-33 1q2 -20 16 -39t32.5 -37t23.5 -26 q16 -27 44.5 -88t45.5 -88q4 -6 14.5 -16.5t14.5 -16.5q6 -10 19 -35.5t26 -43t35 -36.5q18 8 34 29t37 64t23 47q15 29 45.5 78t44.5 77q3 6 33.5 50t32.5 75q-10 6 -31 6h-21q-22 0 -41.5 13.5t-19.5 40.5q0 9 5 21t5 15q0 4 -5 17t-5 20q0 117 43 117q15 0 35 -10t41 -10 q11 0 35.5 1t37.5 1q12 0 34 -1t34 -1q28 0 81 5t75 5q15 0 35.5 -5t25.5 -5q7 0 17 4t16 4q19 -1 35 -16.5t16 -30.5q0 -5 -4 -20t-4 -25q0 -18 4 -51.5t4 -47.5q-10 -49 -31 -49q-7 0 -18.5 3.5t-17.5 4.5q-3 0 -17 -1t-22 -1h-27q-17 0 -37.5 -28t-37.5 -62.5t-21 -38.5 l-29 -43q-19 -24 -48.5 -89t-55.5 -91q-3 -4 -13 -10t-14 -10q-27 -27 -64.5 -95t-48.5 -84q-2 -3 -20.5 -26.5t-24 -35.5t-17 -41t-16 -68t-4.5 -91q0 -30 3.5 -89t3.5 -64q13 0 30 -7.5t25 -7.5q7 0 20 3t19 3q28 0 51 -20.5t23 -46.5q0 -11 -3.5 -30t-3.5 -25 q0 -8 1 -26.5t1 -27.5q0 -31 -9 -44t-42 -13q-7 0 -22 1t-21 1q-33 0 -107 -3t-110 -3q-28 0 -76.5 7t-60.5 7q-11 0 -31 -6t-31 -6q-34 0 -50.5 29.5t-16.5 74.5q0 10 1 30.5t1 29.5q0 7 -2 20.5t-2 20.5q0 22 41 30.5t82 6.5l41 -2q0 27 4 93.5t4 100.5q0 101 -51 189 q-5 9 -19.5 23.5t-19.5 23.5q-15 19 -37 67t-37 70q-6 10 -24.5 25.5t-24.5 25.5q-3 5 -20 29.5t-29 44.5t-23 43q-4 7 -19.5 27.5t-21.5 33.5q-4 8 -11.5 25.5t-12.5 25.5q-3 4 -24 25.5t-32 50.5q-2 6 -6 20.5t-7 18.5t-14 8.5t-30 3.5h-37q-10 0 -25 3.5t-32 18t-17 36.5 q0 8 2.5 26t2.5 23q-1 7 -5 35.5t-4 42.5zM272 1274q8 -4 22.5 -15.5t20.5 -13.5q-5 2 -19.5 15t-23.5 14zM438 1067q3 -7 45 -72q5 -8 12 -23.5t14 -27t15 -18.5q-10 16 -25.5 47t-30 54.5t-30.5 39.5zM440 1231q0 -28 13 -31q-5 5 -7 17.5t-1.5 27.5t-0.5 19 q-4 -16 -4 -33zM539 1282q2 0 6 -0.5t6 -0.5t4 1.5t2 5.5q-2 -1 -6 -1.5t-7 -1.5t-5 -3zM600 158q2 -2 12 -2q23 0 35 6h-26q-17 0 -21 -4zM641 885q0 -24 23 -39q-14 33 -23 39zM690 801q1 -7 7 -12t10 -5q-3 2 -5.5 4.5t-6 6.5t-5.5 6zM721 627q30 -38 43 -76v4 q0 11 -10.5 29t-21 30.5t-11.5 12.5zM831 240h5v6q-1 -2 -3 -3.5t-2 -2.5zM852 596q0 -10 2 -14q6 59 39 96q-15 -15 -23 -19q-2 -6 -7 -19t-8 -23.5t-3 -20.5zM932 727q4 9 14.5 25.5t14.5 25.5q-1 2 -3 2q-2 -7 -14 -22.5t-12 -26.5v-4zM981 76h10q8 0 8 8q-15 0 -18 -8z M1034 1284q0 -4 6 -4q2 0 2 2q-2 0 -3 1t-3 1h-2zM1075 1270q0 -2 8 -2h4q-4 2 -10 2h-2zM1290 1366q4 -2 15 -2q12 0 36 4q-7 0 -20.5 -1t-20.5 -1h-10zM1368 1366q7 -1 18.5 -5.5t20.5 -4.5q0 12 -23 12q-4 0 -10 -1z" />
<glyph unicode="Z" horiz-adv-x="1628" d="M199 63v16q0 66 13 100.5t73 94.5q34 49 57 62q111 162 254 305q32 32 80 106.5t78 104.5q11 11 45.5 42t65 62t53.5 60q9 11 21 34.5t19 34.5q61 86 84 107q-8 -2 -22 -2q-48 0 -157 12t-167 12q-19 0 -55 -6t-57 -6q-14 0 -43 1t-43 1h-31q0 -8 1 -27t1 -30 q0 -36 -4 -86q0 -5 1 -14t1 -13q0 -39 -64 -39q-9 0 -27.5 1t-27.5 1q-5 0 -17 -1t-16 -1q-15 1 -26 6.5t-17.5 18t-10.5 22t-5.5 30.5t-2 31.5t0 37t0.5 35.5q0 36 6 96t6 86q0 12 -5 32t-5 27q0 13 10 20t23 7q9 0 28.5 -4t28.5 -4q18 0 56 6t61 6q29 0 81.5 -4t73.5 -4 q10 0 32 1t34 1q126 -8 199 -8q61 0 181 5t173 5q87 0 131.5 -11.5t44.5 -46.5q0 -6 -4 -21t-4 -22q0 -10 1 -31.5t1 -31.5q0 -19 -15 -41t-43 -51.5t-38 -42.5q-5 -7 -14 -22t-16.5 -25t-16.5 -17q-30 -23 -58.5 -70t-44.5 -65q-11 -12 -46 -44.5t-52 -53.5 q-8 -10 -30.5 -41.5t-40.5 -50t-40 -31.5v-6q0 -16 -14 -32t-36.5 -32.5t-27.5 -21.5q-39 -39 -98.5 -127.5t-75.5 -108.5t-51.5 -48.5t-61 -56t-34.5 -59.5q5 0 14.5 1.5t14.5 1.5q18 0 56 -3.5t56 -3.5q38 0 120 7t118 6q18 -1 59 -7t64 -6q2 0 22.5 -1t32 0t28 4t25 11.5 t8.5 22.5q0 18 -2 57t-2 64q0 29 7 41t30 12q10 0 34 -2t32 -2q7 0 25 2t26 2q22 0 42.5 -12.5t20.5 -30.5v-18l4 -12t3 -15t-3.5 -19t-3.5 -14q0 -41 6.5 -125t6.5 -137q0 -24 -4.5 -33.5t-15 -14t-13.5 -7.5q-156 -4 -244 -4q-21 0 -61.5 3t-59.5 3t-58 -5t-58 -5 q-28 0 -82.5 2t-79.5 2q-23 0 -68 -4t-69 -4q-34 0 -90.5 10t-83.5 10q-20 0 -54 -11t-53 -11q-104 0 -104 75zM285 68q0 -5 2 -5q8 0 8 5q-1 0 -2 -1t-2 -1t-3 1t-3 1zM338 1126q0 -12 2 -14v35q0 12 -2 16v-37zM340 1180q0 -4 2 -6v2q0 2 1 5.5t1 4.5t-1 2t-1 2 q-2 -2 -2 -10zM471 72q16 -4 33 -4h6q-24 6 -27 6q-8 0 -12 -2zM502 399q2 2 12.5 10.5t16 16t8.5 16.5q-20 -13 -37 -43zM520 1278q9 0 36.5 0.5t44 2.5t28.5 7q-6 -1 -49 -2t-60 -8zM553 68q5 0 17.5 -1t17.5 -1q18 0 30 6q-8 4 -24 4q-13 0 -41 -8zM643 1364q16 -1 47 -1 t47 -1q-6 4 -32 4h-58q-4 0 -4 -2zM717 1286q6 -2 14 -2q39 0 49 2h-63zM791 72q10 0 26.5 -1t20.5 -1h8q-6 4 -29 4q-20 0 -26 -2zM926 848q2 2 5 5.5t5 6t2 4.5l-5 -5l-5 -5t-2 -4v-2zM1253 319q0 -20 4 -26v20q0 45 -4 45v-39z" />
<glyph unicode="[" horiz-adv-x="929" d="M264 8q0 57 10.5 161.5t10.5 145.5q0 24 -3 71.5t-3 74.5q0 15 3 48t3 48q-11 19 -11 45q0 25 3.5 76.5t3.5 73.5q0 11 -8.5 31.5t-8.5 39.5q0 46 16.5 131.5t16.5 130.5q-1 6 -7.5 35t-6.5 51q1 14 4.5 45t5.5 56t2 49q-12 49 -12 84q0 27 9.5 39t37.5 12q7 0 21.5 -1 t21.5 -1q13 0 36 3t35 3q80 0 95 -2h39q13 0 38.5 -3t36.5 -3q5 0 17.5 3t17.5 3q24 0 46 -20.5t22 -42.5q0 -12 -6.5 -28t-6.5 -26q0 -5 2.5 -17.5t2.5 -18.5q-3 -15 -13 -24t-30 -12.5t-33.5 -4t-39.5 -0.5h-4h-3q-23 0 -64 2t-63 2q-21 -24 -21 -109q0 -15 4 -43t4 -43 q0 -14 -1 -39t-1 -37q0 -17 2 -50t2 -50v-90q0 -39 7.5 -150t7.5 -163q0 -18 -5 -53t-5 -52q0 -4 5 -19t5 -26v-49q0 -8 -4 -24t-4 -25q0 -5 4 -17q0 -2 -1 -7t-1 -7q0 -14 4 -22q0 -20 -4 -56v-28q0 -8 -4.5 -21t-4.5 -22q0 -5 1 -15.5t1 -15.5q0 -31 -5 -90.5t-5 -94.5 q0 -18 7.5 -51.5t7.5 -60.5h10q35 0 85.5 -7t72.5 -7q15 6 26 6q30 0 47 -19.5t17 -46.5q0 -10 -3.5 -30.5t-3.5 -28.5q0 -5 3.5 -12t3.5 -13q0 -31 -41 -31h-21q-11 0 -34.5 -5t-37.5 -5q-19 0 -56 5t-54 5q-7 0 -20 -2t-19 -2q-14 0 -43 2t-45 2h-37q-65 0 -65 72 q0 33 6 77t6 62q0 53 -13.5 133t-13.5 115zM334 -330q2 -14 2 -47q6 6 6 45q-6 0 -8 2zM344 160l6 -4v166zM352 1096l15 -23h2l6 82zM367 1380q2 -14 2 -47q6 6 6 45q-6 0 -8 2zM395 -193l4 -4l9 4h-13zM416 932q2 -14 2 -47q6 6 6 45q-6 0 -8 2zM504 -326l78 -2l-4 6z M602 1380q-6 -9 10 -11q7 0 24 1h13l-2 12zM625 -401l63 -9v7z" />
<glyph unicode="\" horiz-adv-x="935" d="M127 1421q0 8 6 17q-4 8 -4 14q0 22 20 36.5t44 14.5q5 0 18.5 -2t19.5 -2q8 0 24.5 2t23.5 2q11 0 21.5 -7t17.5 -17.5t13.5 -23t10 -23t6.5 -18.5l2 -9q3 -11 10.5 -32t10 -29.5t6.5 -23.5t5 -29t1 -31q18 -36 18 -74q0 -6 -2 -18t-2 -19q0 -20 28 -91t28 -108 q0 -20 13 -65.5t13 -48.5q8 -17 10.5 -54t4.5 -43q15 -15 25.5 -47.5t14.5 -57.5l3 -26q0 -49 7 -80.5t14 -44.5t7 -16q0 -17 4.5 -37t11.5 -40t13 -34.5t13 -29.5l7 -15q11 -24 18.5 -48.5t10 -42t4 -34.5t0.5 -24.5t0 -11.5q9 -72 58 -217.5t49 -176.5q1 -6 3 -22t4.5 -29 t6.5 -22q2 -6 7.5 -19.5t8 -20.5t5 -18.5t2.5 -21.5q0 -26 -24 -40t-58 -14q-33 0 -50.5 1.5t-30 8.5t-16 13t-14 25t-20.5 34q-1 4 -3.5 33t-13.5 51q-16 35 -18 64v20q0 19 -5.5 38.5t-11.5 29.5l-6 10q-11 34 -20 79t-29 107q-6 30 -23.5 89t-23.5 88v24q0 44 -27 150 q-2 8 -10 23.5t-10 23.5q-4 11 -9.5 38.5t-13.5 43.5q-9 33 -16.5 65t-13 57.5t-10 49t-7.5 41.5t-5.5 34t-3.5 26.5t-2 19.5t-1 12.5v4.5v-1q-4 16 -10.5 35t-16 43t-14.5 37q-10 26 -21 62.5t-17 59.5l-5 23v18q0 51 -3 75t-7.5 29t-13 20t-15.5 42q-16 29 -30.5 68.5 t-14.5 56.5zM266 1356q2 -9 8 -25.5t9 -17.5q-9 36 -9 47q-2 -4 -8 -4zM315 1139l25 -80l2 2l10 22zM317 907q13 -39 17 -43q-3 12 -8 47zM451 596q2 -10 7.5 -26t8.5 -17q-8 32 -8 47q-2 -4 -8 -4zM520 319l41 -151l4 4q-37 164 -39 164l-2 -8q1 -2 0 -4l-2 -4zM582 -184 l8 -2l4 4zM664 -274l24 -80l2 2v26z" />
<glyph unicode="]" horiz-adv-x="929" d="M170 -303q3 15 30 27t60 12q15 0 33 -3t40.5 -7.5t37.5 -6.5q8 8 21.5 14t21 11.5t14 29.5t6.5 68q8 28 8 43v25q0 36 4.5 109t4.5 104q0 54 -7.5 126t-7.5 73q0 103 15 174q6 34 6 65q-4 23 -12.5 56t-13.5 59.5t-5 54.5q0 52 11.5 118t11.5 87q0 40 -10.5 96.5 t-10.5 73.5q0 12 6 38t6 40q0 26 -14 73q-70 11 -150 11q-5 0 -16.5 -1t-17.5 -1q-26 0 -49 14t-23 39q0 4 2 13t2 14q0 9 -1 27t-1 28q0 26 12 39.5t43 13.5q14 0 37 -14q7 0 30 4t38 4q13 0 35.5 -2t31.5 -2q14 0 45.5 -0.5t47.5 -0.5t37.5 1.5t35.5 5.5q16 4 25 4 q30 0 48.5 -19t18.5 -49q0 -29 -7 -76.5t-7 -68.5q0 -43 6 -108q0 -15 -4 -38t-4 -36q0 -15 1 -42.5t1 -39.5q0 -17 -5 -50t-5 -53q3 -9 9 -24.5t8.5 -23t4.5 -25t2 -41.5q-8 -36 -8 -66q0 -5 1 -17t1 -18q0 -19 -2 -56t-2 -52q0 -20 5 -55.5t5 -57.5q0 -61 -3 -184t-3 -186 q0 -5 4 -20t4 -25v-25q0 -6 4.5 -23t4.5 -28q0 -37 -8.5 -102.5t-8.5 -102.5q0 -19 5.5 -55.5t5.5 -57.5q0 -45 -12 -61t-56 -19q-43 0 -131.5 1t-132.5 1q-9 0 -25 -1t-24 -1h-2q-5 0 -18 -3t-19 -3q-22 0 -42 15.5t-20 38.5q0 7 1 20.5t1 20.5q0 8 -6 27t-6 32zM236 -414 v-6l63 8zM274 1360q4 0 13 -0.5t14.5 -0.5t13 0.5t8 3t-0.5 7.5l-46 2zM342 -338l78 2l-74 4zM500 920q0 -40 6 -46q0 34 2 48q-2 -2 -8 -2zM516 -203l8 -4l4 4h-12zM549 1145l6 -82h2l14 22zM549 1368q0 -39 6 -45q0 33 2 47q-2 -2 -8 -2zM573 145l7 5q-5 161 -7 161v-166z M582 -342q0 -39 6 -45q0 33 2 47q-2 -2 -8 -2z" />
<glyph unicode="^" horiz-adv-x="1193" d="M279 971q0 15 11 33.5t24.5 31t25.5 22.5t12 11q13 25 36 53t26 35q16 32 28.5 52.5t18 27t14.5 15t12 12.5q4 5 12.5 15.5t12 14t13 10t20 9t29 4.5t42.5 2q50 0 100 -73l9 -15q3 -5 16 -30.5t21 -33.5q7 -7 26 -19t27 -20q34 -47 59 -80t33 -42l8 -9q7 -11 7 -18 q0 -20 -19.5 -34.5t-40.5 -14.5q-8 0 -18 2t-17 2q-22 0 -32 -2q-42 0 -70 18t-39 40t-23.5 46.5t-23.5 32.5q-12 11 -39 49q-51 -69 -70 -88q-10 -29 -24 -49t-26.5 -29t-29.5 -13t-28.5 -3t-29 2.5t-25.5 1.5q-7 0 -18 2t-13 2h-21q-36 0 -36 27zM444 1108q14 0 37 27 t23 36v3q-8 0 -20.5 -14t-24.5 -31.5t-15 -20.5zM508 1194q4 -4 8 -4q2 0 8 3.5t6 6.5q0 2 -2 3t-4 1h-2zM555 1229q5 1 23 1t31.5 1t13.5 4q0 6 -35 6q-9 0 -15 -1t-9.5 -2.5t-5 -3t-2.5 -3.5zM705 1139l43 -58q0 7 -14.5 29t-28.5 29zM764 1040l14 -10q8 0 8 4q0 3 -6 6.5 t-8 3.5z" />
<glyph unicode="_" horiz-adv-x="1597" d="M258 29q0 8 3 21t3 20q0 5 -1 15.5t-1 14.5q3 28 19 35.5t51 7.5q26 0 62 -9t52 -9q51 0 133.5 11t120.5 11q45 0 133.5 -10t133.5 -10q25 0 66 6t63 6q6 0 19 -1t20 -1h39q21 0 59 -10q9 7 28 13.5t31 6.5q10 0 20.5 -6t15.5 -12l5 -6q-2 -2 -2 -8q0 -4 2 -12.5t2 -12.5 q0 -3 -1 -9t-1 -9q0 -13 2 -19q0 -2 -1 -6t-1 -6t1 -7t1 -7q0 -35 -69 -35q-40 4 -62 4q-36 0 -106 -5t-101 -5q-23 0 -69.5 2t-71.5 2q-10 0 -31.5 -1t-33.5 -1q-10 0 -30.5 1t-29.5 1q-10 0 -30.5 -1t-30.5 -1q-32 0 -94 3t-93 3q-6 0 -19 -3t-20 -3q-41 0 -65 8 q-17 0 -52.5 -5t-50.5 -5q-18 0 -18 43zM307 59q1 -3 1.5 -8t1.5 -9t3 -7q4 0 11 1t10 1q-10 5 -27 22zM643 78q21 1 56.5 3t62 3.5t29.5 1.5q-8 2 -48 8q-28 0 -61 -7.5t-39 -8.5zM1112 72q21 1 56.5 3t62 3.5t29.5 1.5q-8 2 -48 8q-28 0 -61 -7.5t-39 -8.5z" />
<glyph unicode="`" horiz-adv-x="1308" d="M428 1104q5 16 26.5 49t24.5 47v17q0 12 13 22t26 10v2q22 0 54 -11t55 -26q42 -42 116 -69l5 -1q5 -2 17.5 -6.5t28.5 -12t40 -21t49 -31.5q61 -20 61 -59q0 -15 -18 -53.5t-39 -38.5q-6 0 -18 4t-19 4h-14q-33 3 -89 20t-75 31q-86 28 -107 39q-25 13 -65 23t-56 21.5 t-16 39.5zM549 1137l31 -19l26 -13q5 -1 -12 15q-33 29 -45 17zM627 1087q2 -4 14 -4q3 0 5 2.5t2 4.5l1 2l-18 2zM674 1059q4 -6 26 -20t37 -15q-8 4 -29 16.5t-34 18.5zM735 1049q9 -9 29 -19q44 -18 55 -10q3 2 0 2q-1 1 -2 1t-3 0.5l-4 1t-4.5 1.5t-4.5 2q-58 25 -66 21 z" />
<glyph unicode="a" horiz-adv-x="1716" d="M92 203q0 13 8 20t18.5 8.5t28.5 1.5q10 0 32 -1t32 -1q23 0 37.5 8.5t19.5 18t11.5 28t11.5 27.5q4 7 21.5 32.5t23.5 41.5q4 9 10 29.5t10 29.5q7 14 51.5 140.5t86.5 181.5q58 75 84 180q10 44 49 112.5t51 108.5q14 47 47 115t49 107q2 6 5.5 17.5t6 16.5t6.5 11.5 t10.5 9t16.5 2.5q7 0 16 -2t13 -2q6 0 14.5 4t14.5 4q19 0 33.5 -13.5t20.5 -27t14 -41.5t11 -35q6 -16 45.5 -83.5t57.5 -135.5q1 -3 1.5 -14.5t2.5 -16.5q3 -18 38.5 -61t35.5 -70q0 -18 8 -34.5t22 -34t19 -27.5q11 -21 21.5 -73.5t29.5 -88.5q7 -14 33.5 -62t38.5 -77 q4 -12 17.5 -48t22 -57.5t21.5 -48.5t25 -43q10 -22 37 -61t34 -59q40 0 54 -7q18 7 30 7q32 0 52 -28t20 -65q0 -10 -6 -29t-6 -44q0 -6 1 -17t1 -16q0 -20 -8.5 -28.5t-36.5 -8.5q-9 0 -28 2t-28 2q-11 0 -33 -3t-34 -3q-22 0 -56.5 6t-48.5 6q-8 0 -31 -7t-38 -7 q-10 0 -25.5 8t-25.5 8q-11 0 -31 -7t-33 -7q-24 0 -41 7.5t-25.5 17.5t-12.5 30.5t-4.5 34t-0.5 40.5v9q0 34 5 54.5t17.5 29t23.5 10.5t33.5 3.5t37.5 5.5q-1 7 -8 18.5t-9 16.5q-5 13 -12 32.5t-9.5 27t-9 19t-12.5 14.5t-17 8t-25 6t-35 1q-16 0 -43 -1t-35 -1 q-10 0 -32 4t-32 4q-17 0 -51 -5t-51 -5q-20 0 -61.5 7t-65.5 7q-16 0 -47 -3t-47 -3q-6 -21 -32 -69.5t-30 -83.5q41 0 59 -2t35 -12.5t22 -32t5 -60.5q0 -27 -1.5 -43.5t-7.5 -34.5t-19 -26.5t-33 -8.5q-13 0 -39 1t-35 1q-29 0 -68 -9t-59 -9q-13 0 -36.5 7t-31.5 7 q-18 0 -71 -5t-68 -5q-73 0 -78 47q0 5 4 29.5t4 40.5q0 22 -7 44t-7 36zM186 158q0 -2 1 -5t1 -6q50 0 70 11h-72zM336 80q8 -2 24 -2q23 0 70 14q-14 0 -40 -6t-38 -6h-16zM469 352q26 51 27 66q-27 -41 -27 -66zM516 610q6 12 6 21q-1 -2 -3 -6.5t-3 -8t0 -6.5zM528 94 q2 -2 11 -2q10 0 10 4q-6 -2 -21 -2zM541 670q1 1 4.5 4t5 4.5t3 4.5t2.5 6.5t1 8.5q-1 -4 -8.5 -13t-7.5 -15zM635 532q24 -6 31 -6q6 0 8 2q-5 1 -15 5t-18 4q-5 -1 -6 -5zM666 602q30 -6 61 -6q15 0 47 2t49 2t48.5 -4t46.5 -4q18 0 55 1t55 1q-4 9 -7 19t-5 23t-4 21 q-9 41 -30 84t-42.5 77t-24.5 42q-5 12 -11 39t-11 39q-1 3 -11 22.5t-19 37.5t-9 22q-2 -2 -2 -4q-90 -160 -137 -316q-7 -22 -25.5 -54t-23.5 -44zM823 1122q1 2 6 6t8 8.5t3 8.5t-2 8q-1 -5 -8 -16t-7 -15zM897 1294q4 -5 14.5 -26.5t18.5 -26.5q-19 35 -33 53zM946 1206 q1 -2 2.5 -11t5 -16.5t9.5 -9.5q-15 36 -15 37h-2zM956 459q6 0 18.5 -1t18.5 -1q3 0 9 1t8 1q-15 6 -29 6q-13 0 -25 -6zM987 889q5 -27 12 -29q-4 21 -12 29zM1081 692q0 -8 2 -10q0 10 -2 10zM1108 846q0 -8 2 -14t5.5 -11.5t4.5 -9.5q-3 23 -12 35zM1161 160q33 0 43 8 q-10 -5 -18.5 -3.5t-15.5 1.5t-9 -6zM1178 647q0 -4 4.5 -14t9.5 -10q2 0 2 2q0 1 -4 7t-7.5 11.5t-4.5 5.5v-2zM1217 168h18q0 4 -4 4q-3 0 -7.5 -2t-6.5 -2zM1307 371q2 -16 14 -35.5t14 -24.5q16 -31 27 -37q-41 76 -55 97zM1366 82q9 0 28.5 -2t28.5 -2q7 0 19 4 q-36 6 -41 6q-20 0 -35 -6zM1518 158h14q-2 0 -4.5 1t-3.5 1q-4 0 -6 -2z" />
<glyph unicode="b" horiz-adv-x="1648" d="M231 1372q0 35 7.5 53.5t27.5 18.5q3 0 9.5 -1t9.5 -1q9 0 20.5 3t13.5 3q9 0 29 -4q8 0 25.5 1t25.5 1q11 -1 54.5 -4.5t68.5 -3.5q16 0 45 4t45 4q26 0 77 -4t77 -4q22 0 66 5t65 5q30 0 87.5 -15.5t88.5 -15.5q54 0 112.5 -31.5t100.5 -74.5t70 -83.5t30 -60.5 q3 -15 3 -32v-41q0 -9 1 -27t1 -27q0 -11 -2.5 -21.5t-6 -21.5t-4.5 -20v-14q0 -22 -10.5 -45t-25 -39.5t-30 -30.5t-25.5 -20.5t-12 -7.5q-3 -2 -22.5 -22.5t-35.5 -27.5q-7 -3 -29.5 -8t-32.5 -12q4 -10 29 -26.5t61 -36.5t51 -30q61 -11 98.5 -85.5t37.5 -151.5 q0 -14 -3.5 -29t-10 -34t-9.5 -29q-3 -12 -7 -38t-9 -40q-7 -15 -28.5 -33t-27.5 -27t-12.5 -27.5t-11.5 -25.5q-23 -33 -65 -50t-127 -33.5t-128 -28.5q-4 -2 -11 -7.5t-16 -8.5t-24 -3q-12 0 -40 2t-42 2h-31q-9 0 -24 2t-21 2q-17 0 -61 -9t-70 -9q-24 0 -53 8t-43 8 q-12 0 -47 -4t-57 -4q-54 0 -136 4h-20q-25 0 -43 14t-18 33q0 8 4 23.5t4 17.5q0 17 -4 54.5t-4 52.5q0 19 10 26t33 7q12 0 32.5 -2.5t30.5 -2.5t55 5v215q0 37 -3 106.5t-3 101.5q0 15 6.5 49.5t5.5 59.5q0 8 -1 26t-1 27v60q0 17 -3 48t-3 48q0 23 1 66.5t1 64.5 q0 6 0.5 24.5t0.5 26t-3 21.5t-9.5 20t-19.5 11.5t-32 5.5q-5 -1 -20 -5t-23 -4q-23 0 -38 17.5t-15 40.5q0 9 1 24t1 19q0 6 -4.5 27.5t-4.5 35.5zM330 1358q0 -4 2 -4t6 4h-2q-1 0 -3 1t-3 1v-2zM342 82l2 -2h8q0 2 -8 2h-2zM358 1358q14 0 42 -3t42 -3q26 0 39 10h-51 q-49 0 -72 -4zM408 84q21 -4 36 -4q19 0 27 2q-6 4 -27 4q-8 0 -20 -1t-16 -1zM485 1006q0 -3 0.5 -9.5t1 -11.5t0.5 -6q0 1 3.5 18t3.5 23q0 9 -9 18v-32zM553 418q0 -10 2 -12v36q-2 -4 -2 -24zM563 545q0 -23 2 -31q6 30 6 39q0 3 -1 8.5t-1 7.5q-6 -4 -6 -24zM586 821 q0 -11 8.5 -19.5t17.5 -8.5q-16 8 -26 28zM590 82q24 -8 35 -8q6 0 10 2q-4 1 -15 4.5t-18 3.5q-8 0 -12 -2zM598 1368h51q35 0 47 2q-8 0 -25 1t-26 1q-19 0 -47 -4zM637 307q0 -21 8 -36t19 -22t30 -11.5t33.5 -5t36.5 -1.5t33 -2h16q49 0 95 6.5t75 15t55.5 19.5 t36.5 16.5t17 10.5q12 8 23 24t19 33.5t12.5 34t4.5 27.5q0 31 -21 82t-43 71q-30 25 -70.5 36.5t-111 20.5t-102.5 15h-21q-15 0 -38.5 -3t-41.5 -3h-28q-17 0 -25 -2q6 -81 6 -92q0 -23 -9 -60.5t-9 -62.5q0 -8 1 -26t1 -27t-1 -29t-1 -29zM639 780q1 -3 14 -10l9 -4 q2 0 -23 14zM643 1022q0 -28 4 -86.5t4 -87.5q26 -23 90 -23q9 0 32 1t36 1q21 0 56.5 -2t49.5 -2q24 0 71 24.5t67 39.5q75 61 75 176q0 8 -1.5 18t-10 28.5t-22.5 34t-43.5 30.5t-69.5 22q-6 2 -15 4.5t-14 4t-12.5 2.5t-15.5 1h-27q-20 0 -54.5 3t-49.5 3q-16 0 -35 -0.5 t-33.5 -1.5t-35 -2t-34.5 -2q-2 -12 -2 -34v-52q0 -17 -5 -49.5t-5 -50.5zM664 76q3 2 13 2t13 2q-8 4 -16 4q-10 0 -10 -8zM883 156q6 0 14 4q-12 0 -14 -4zM1010 676q3 -1 8.5 -3t10 -3.5t7.5 -1.5q-12 8 -24 8h-2zM1061 655q6 -2 14 -5.5t15.5 -7.5t11.5 -5q-3 2 -8 5.5 t-8.5 6t-8.5 4.5t-10 2h-6zM1139 612q1 -1 4.5 -3.5t5.5 -2.5v2q0 4 -8 4h-2zM1145 137q7 0 16 6zM1159 840q12 5 27 16q-1 3 -12 14q-2 -12 -15 -30zM1192 158q6 6 21 15.5t24 19.5t10 24q-6 -8 -27 -28t-28 -31zM1245 1257q4 -8 4 -14q22 -13 33.5 -39.5t20.5 -32.5 q-6 20 -22 49t-36 37zM1280 264q0 -2 2 -2q0 2 3 4.5t3 5.5q-1 0 -1.5 2t-2.5 2q0 -2 -2 -6t-2 -6zM1309 326q12 19 14 39q-2 -12 -12 -31v4q-1 -2 -2 -5v-3v-4zM1309 330l2 4q-1 0 -2 -1v-3z" />
<glyph unicode="c" horiz-adv-x="1744" d="M205 711q0 117 69 311q46 129 93 194.5t161 143.5q20 14 46.5 24.5t62 21.5t51.5 17q113 45 201 45q23 0 119 -14q111 -17 174.5 -40t105.5 -73q5 -5 14 -13t14.5 -15t8.5 -15q-10 70 -10 101q0 9 1 16t2 11.5t5.5 7.5t6.5 5t10 2.5t11 0.5h15.5h17.5q15 -1 35.5 -2 t32 -2t26.5 -2t22.5 -2.5t17.5 -4t15 -6t10 -8.5t7.5 -11.5t3.5 -14.5q0 -11 -8 -43t-8 -54q0 -40 7 -94.5t7 -58.5q0 -26 -8 -62t-8 -59q1 -4 6.5 -19t5.5 -24q0 -27 -35 -27q-23 0 -36 10q-18 -6 -47 -6q-15 0 -31 4q-3 0 -12 -2t-15 -2q-13 0 -26 9t-22 20.5t-19.5 31.5 t-15.5 32t-13.5 33t-9.5 24q-8 4 -69 50t-107 58q-42 11 -189 11q-124 0 -262 -107q-74 -59 -121 -157t-47 -205q0 -56 16 -139.5t31 -108.5q2 -4 24.5 -27t22.5 -47q81 -78 193 -160q30 -23 85.5 -39t92.5 -16q23 0 64 4t61 4q6 0 18.5 -1t18.5 -1q9 0 25 4t24 4h14 q7 2 23.5 8.5t25.5 6.5q5 0 14.5 -2t14.5 -2q41 0 109 28q1 1 17 12t28 11q20 0 36 -13.5t24 -33t13 -39t6.5 -33t0.5 -13.5q2 -5 4.5 -11.5t4.5 -10.5t3.5 -10t1.5 -12q-2 -11 -9.5 -21t-17.5 -16.5t-21.5 -11.5t-22.5 -8t-20.5 -5.5t-14.5 -2.5l-5 -1q-26 -6 -78 -24.5 t-97 -29.5t-85 -11q-107 0 -217 10q-15 1 -41.5 2t-42.5 2t-36 4.5t-34 9.5q-3 1 -21 13t-32 16q-13 5 -41 14.5t-42.5 15.5t-41.5 20.5t-57 35.5q-6 4 -36 23.5t-46.5 32t-36.5 35t-26 44.5q-6 11 -21 27t-20 24q-4 6 -10.5 19.5t-10.5 19.5q-4 7 -16.5 20.5t-16.5 20.5 q-19 32 -37.5 88t-19.5 92q0 5 1 16.5t1 16.5q0 16 -5 50.5t-5 54.5zM293 696q1 -7 1 -36.5t3 -41.5q0 3 -1 9.5t-1 9.5q0 21 8 49q-2 1 -5 5t-5 5zM446 1057q2 0 3 -2t2 -2q1 3 5.5 8.5t4.5 7.5v2q-1 -3 -7 -7t-8 -7zM455 459q15 -41 47 -62q-10 9 -26.5 33t-20.5 29z M496 1104q1 2 5.5 6t4.5 6v2q-1 -3 -5.5 -7.5t-4.5 -6.5zM793 174l26 -14h8q13 0 37 -4t33 -4q-13 5 -44 9.5t-40 6.5q-18 6 -20 6zM850 1294q12 0 37.5 -1t38.5 -1q5 0 14.5 1t13.5 1q-8 1 -21.5 2.5t-24.5 2.5t-21 1q-22 0 -37 -6zM1135 1362q2 -1 6.5 -5t8 -6.5t7.5 -2.5 q1 0 2 1t2 1q-5 1 -11.5 6.5t-10.5 5.5h-4zM1274 111q45 0 61 16q-12 0 -22 -2.5t-21.5 -7t-17.5 -6.5zM1452 1264q0 -22 8 -35q0 13 -2 34.5t-2 32.5q-4 -24 -4 -32z" />
<glyph unicode="d" horiz-adv-x="1914" d="M236 59q0 14 8 48.5t8 56.5q0 2 -6 18t-6 25q0 12 9 19t23 7q10 0 30.5 -4t29.5 -4q35 0 69 17q4 33 7 72.5t4.5 67.5t2.5 78t1 70v79v71q0 20 0.5 70.5t0.5 78t-1.5 68t-5.5 72.5q-1 14 -4.5 37.5t-5 42.5t-1.5 36q0 14 4 47.5t3 51.5v16q-6 -2 -17 -2t-32.5 5t-34.5 5 h-19q-65 0 -65 111q0 92 12 108q15 13 121 13q51 0 131 -7.5t121 -7.5q21 0 63.5 4.5t63.5 4.5q18 0 55 -1t55 -1h113q75 0 135.5 -10.5t120 -36.5t105.5 -53.5t122 -78.5q32 -23 80 -88q9 -14 38.5 -43.5t39.5 -48.5q15 -28 31 -96q4 -19 22.5 -48t22.5 -42q18 -59 18 -123 q0 -26 -7 -76.5t-7 -73.5v-41q0 -24 -6.5 -51t-15 -46.5t-24 -46.5t-24.5 -39.5t-27.5 -37.5t-21.5 -30q-23 -38 -31.5 -51.5t-33 -49t-42 -54t-44.5 -39.5t-54 -32q-141 -56 -348 -80q-20 -2 -70 -8.5t-87 -10t-70 -3.5q-28 0 -86 3t-88 3q-41 0 -126.5 -6t-125.5 -6 q-49 0 -91 17.5t-42 53.5zM326 1350q5 1 15 4.5t19 5.5t19 2h31q0 2 -11 2h-31t-21.5 -1.5t-16 -4.5t-4.5 -8zM485 1010l4 -23v29q0 18 -4 24v-30zM494 358q0 -14 2 -22q4 8 4 14q0 4 -1 12t-1 11q0 7 4 16t4 10q0 6 -4 17t-4 12q0 -12 -2 -35t-2 -35zM498 532q0 -4 1 -11.5 t1 -10.5q6 12 6 27q0 11 -6 41q0 -7 -1 -23.5t-1 -22.5zM522 1362q12 -4 25 -4q12 0 18 2q-8 2 -33 2h-10zM618 1352q12 -2 37 -2q-6 2 -32 2h-5zM645 1030q0 -15 9.5 -45t9.5 -53q0 -33 -8.5 -99.5t-6.5 -101.5q0 -7 2 -20t2 -17q0 -7 -1 -22t-1 -23q0 -14 8.5 -46t8.5 -54 q0 -34 -10.5 -88t-10.5 -84q0 -156 33 -156q23 0 68.5 7.5t54.5 7.5q24 0 68 -3.5t65 -3.5q63 0 150 20t139 50q42 24 63.5 47.5t27.5 43t22.5 58t43.5 78.5q7 10 25 30t25 36t8 43v41q1 13 2.5 36t2.5 41t1 31q0 19 -6 35t-16.5 35.5t-16.5 34.5q-4 10 -14.5 32.5t-17 42 t-7.5 35.5q-11 11 -36 26.5t-40.5 32.5t-19.5 42q-30 12 -74.5 40t-60.5 34q-18 8 -60 12.5t-61 9.5q-86 21 -115 21q-38 0 -248 -15q-2 -12 -2 -35q0 -9 1 -28t1 -29q0 -5 -1 -17t-1 -18q-6 -42 -6 -45zM963 86q10 2 41.5 4t44.5 8q-58 0 -86 -12zM1004 1356h4q8 0 24.5 -2 t24.5 -2q10 0 14 2q-28 4 -53 4q-3 0 -7.5 -1t-6.5 -1zM1016 1268q0 -6 86 -13q-22 5 -76 13h-10zM1128 115q1 1 7 1.5t8 2.5q-13 0 -15 -4zM1333 1253q10 -14 47 -30q-6 3 -22 15.5t-25 14.5zM1393 1212q4 -2 10.5 -9.5t13.5 -8.5q-3 13 -24 18zM1468 381q33 47 33 78 q-14 -23 -33 -78zM1511 899q4 -16 12.5 -42.5t14 -49t8.5 -45.5q-2 29 -13.5 83t-19.5 54h-2zM1513 526l3 -2q6 10 6 35v2q-9 -25 -9 -35z" />
<glyph unicode="e" horiz-adv-x="1562" d="M225 1399q0 43 103 43q29 0 84 -7.5t82 -7.5q34 0 119.5 8.5t125.5 8.5q26 0 80 -7t82 -7q37 0 135 5t146 5q18 0 43 -4t35 -4h20q15 0 31 -13t20 -30q0 -4 -6 -27.5t-6 -44.5q0 -23 6 -66.5t6 -70.5q0 -7 -1 -22t-1 -23q0 -9 2 -27.5t2 -26.5q0 -7 -2 -13t-6.5 -10 t-9.5 -6.5t-13.5 -4.5t-15.5 -2.5t-19 -1t-21 0t-23.5 0.5h-24.5q-90 0 -90 54q0 6 8 26q-2 8 -2 25q0 8 1 25.5t1 25.5q-14 2 -41 2q-10 0 -31.5 -1t-31.5 -1q-15 0 -39 4t-37 4h-25q-5 1 -19.5 5.5t-21.5 5.5q-20 0 -63 -5.5t-70 -5.5h-45q-15 0 -25 -5.5t-16 -16.5 t-9.5 -23t-4 -30t-0.5 -32t1 -34.5t1 -32.5q0 -126 12 -225q11 0 35 -7t39 -7q12 0 39.5 1t42.5 1q11 0 33 -1t34 -1q14 0 33.5 4t26.5 4q34 0 56 -27.5t22 -60.5q0 -50 -5.5 -78t-21.5 -42t-34.5 -17t-55.5 -3q-20 0 -50.5 4.5t-41.5 4.5q-7 0 -20.5 -3t-20.5 -3 q-8 0 -25.5 1t-25.5 1q-35 0 -54 -11q0 -23 -3 -65t-3 -64q0 -10 3 -31.5t3 -31.5q0 -18 -10 -43.5t-10 -46.5q0 -13 2 -38.5t2 -37.5q15 0 41 9t37 11q36 5 94 5q36 0 103 -6.5t102 -6.5q43 0 64.5 11t25.5 29.5t2 38t-0.5 42.5t12.5 37q8 10 48 16t65 6q35 0 66.5 -19.5 t31.5 -47.5q0 -8 -3.5 -23.5t-4.5 -21.5q0 -8 4 -25t4 -24q-1 -8 -7 -20.5t-7 -16.5q0 -4 6 -20.5t6 -26.5q0 -14 -6 -39.5t-6 -36.5q6 -36 6 -37q0 -43 -47 -43q-20 0 -76 4t-76 4q-22 0 -63 -4t-62 -4q-35 0 -100.5 3t-101.5 3h-70q-16 0 -46 1t-44 1q-27 0 -80.5 -10 t-77.5 -10q-6 0 -17.5 1t-17.5 1q-87 -6 -92 -6q-125 0 -125 71q0 13 4.5 41.5t4.5 44.5q-1 8 -5 29.5t-4 30.5q0 12 7.5 21t19.5 9q5 0 15.5 -2t15.5 -2q7 0 22.5 5t24.5 6q7 0 20 -1t19 -1q12 0 18 2q6 261 6 546v84q0 24 4.5 66.5t4.5 56.5q0 8 -1.5 25t-1.5 24v41 q0 17 -6 50.5t-6 54.5q0 2 1 7.5t1 8.5q-12 2 -35 2q-7 0 -22.5 -1t-22.5 -1q-77 0 -77 60q0 10 3 30.5t3 32.5q0 7 -8.5 30.5t-8.5 41.5zM313 1360q2 0 2.5 -2t1.5 -2q0 1 5 6q-7 0 -9 -2zM330 139q4 1 19.5 1.5t23.5 2.5q-35 0 -43 -4zM469 1229q10 -15 14 -19q-4 8 -4 13 q0 1 1 3t1 3h-12zM483 799q15 6 15 37q0 20 -4 36q0 -31 -11 -73zM489 938q0 -11 3 -20q0 9 2 26.5t2 26.5q0 10 -4 30v-12q0 -9 -1.5 -26t-1.5 -25zM563 549q0 -23 6 -41q2 29 2 90q-8 -32 -8 -49zM563 1280q6 -2 19 -2t42 6.5t35 7.5h-28q-49 0 -68 -12zM807 84h22 q17 0 23 2q-5 0 -14 1t-13 1q-12 0 -18 -4zM901 160q10 -4 45 -4q-30 6 -35 6q-2 0 -5 -1t-5 -1zM909 80q2 -2 13 -2q6 0 8 2q-3 0 -9 1t-8 1t-4 -2zM987 152q10 -5 12 -5q5 0 11 3q6 0 6 2h-29zM1104 84q7 2 30 2t31 4q-6 -1 -19.5 -0.5t-24.5 -0.5t-17 -5zM1163 1364 q5 0 11 -6q20 5 26 8h-24q-9 0 -13 -2zM1217 1364q3 0 9 -2t9 -2h2q0 6 -10 6q-2 0 -5.5 -1t-4.5 -1zM1219 324q0 -1 12 -7q4 8 4 11q-3 0 -8 -2t-8 -2z" />
<glyph unicode="f" horiz-adv-x="1482" d="M227 1401q0 41 99 41q30 0 85.5 -6t82.5 -6q17 0 79 10q76 8 189 8q24 0 74 -8t75 -8q41 0 134 5t137 5q16 0 39 -4t34 -4h23q20 0 36 -13t19 -30q0 -7 -5 -37.5t-5 -48.5q0 -15 5.5 -55t4.5 -66q0 -7 -1 -21.5t-1 -21.5q0 -8 1 -24.5t1 -24.5q0 -31 -20.5 -37.5 t-80.5 -5.5h-32q-27 0 -44 2.5t-31.5 14.5t-14.5 34q0 6 8 26q-2 8 -2 25q0 8 1 26.5t1 26.5h-20q-15 0 -41 -1t-39 -1q-15 0 -40.5 5t-37.5 5q-4 0 -13.5 -1t-13.5 -1q-6 1 -23.5 6t-31.5 5q-64 -11 -119 -11q-8 0 -25 1t-24 1q-20 0 -32.5 -17.5t-15.5 -47.5t-3 -56t2 -59 t2 -41v-31.5v-33v-30.5t1.5 -30t4 -26t6 -23.5t9 -17t13 -12t17.5 -3.5q6 0 18.5 1t18.5 1q8 0 24 -2t25 -2q12 0 49 3t58 3q110 0 110 -53q0 -11 -5 -41t-5 -47q0 -9 4 -28.5t4 -28.5q0 -18 -16.5 -23.5t-54.5 -5.5q-40 0 -84.5 3t-65.5 3q-29 0 -64.5 -10t-50.5 -10 q-6 -50 -6 -90q0 -15 3 -43t3 -41t-10 -55.5t-10 -71.5q43 -21 106 -21q21 0 54 7.5t47 7.5q63 0 63 -109q0 -13 -6 -33t-6 -28q0 -6 4 -20t4 -21q0 -10 -9.5 -18.5t-21.5 -8.5q-9 0 -27 4t-26 4h-37q-9 0 -27.5 1t-27.5 1q-26 0 -75.5 -5t-73.5 -5q-3 0 -8.5 1t-8.5 1 q-16 0 -40 -6t-38 -6q-5 0 -16 1t-16 1q-12 -1 -33 -2.5t-38 -2.5t-32 -1q-117 0 -117 71q0 11 3.5 35.5t3.5 38.5q0 2 -4.5 27t-4.5 43q0 33 25 33q5 0 17.5 -2.5t17.5 -2.5q6 0 22 5t25 6q6 0 18.5 -1t18.5 -1q12 0 18 2q8 348 8 546q0 18 -1 56t-1 57t4.5 51t4.5 43 q0 8 -1 25t-1 24v41q0 17 -6.5 50.5t-6.5 54.5q0 2 1 7.5t1 8.5h-73q-40 0 -62 12.5t-22 51.5q0 10 2 31.5t2 33.5q0 7 -7.5 29t-7.5 37zM315 1362q2 0 2.5 -2t1.5 -2q0 1 5 6q-7 0 -9 -2zM332 141q4 1 19.5 1.5t23.5 2.5q-35 0 -43 -4zM471 1231q10 -15 14 -19q-4 8 -4 13 q0 1 1 3t1 3h-12zM485 801q15 6 15 39q0 18 -4 34q0 -31 -11 -73zM492 940q0 -14 2 -20q0 9 2 26.5t2 26.5q0 11 -4 31v-13q0 -9 -1 -26t-1 -25zM565 1282q4 -2 17 -2q15 0 43.5 6.5t33.5 7.5h-26q-49 0 -68 -12zM643 711h10q13 0 38 -4.5t38 -4.5t31 7q-7 0 -31 0.5 t-34 1.5t-25 5t-25 11q0 -3 -1 -8t-1 -8zM659 162q6 -6 19 -6q6 0 10 2q-6 0 -13 2t-9 2h-7zM819 154q2 0 4 -1t4 -1q0 4 -2 4q-6 0 -6 -2zM1165 1366q5 0 11 -6q17 3 26 8h-24q-9 0 -13 -2zM1219 1366q3 0 9 -2t9 -2h2q0 6 -10 6q-2 0 -5.5 -1t-4.5 -1z" />
<glyph unicode="g" horiz-adv-x="1818" d="M205 686q0 12 4 38t4 38v33q0 52 18 115t37.5 103.5t43 84t24.5 45.5q38 87 86 130.5t151 94.5q10 5 26 17t31 19.5t34 10.5q8 4 23.5 15t30.5 17.5t32 6.5h34q16 2 58.5 12.5t66.5 10.5q34 0 94.5 -12.5t71.5 -14.5q66 -9 124.5 -32.5t88.5 -53.5q8 -8 20 -29t19 -28 q-2 8 -2 24q0 6 1 20t1 21q0 20 -10 43.5t-10 34.5q0 27 39 27q27 0 49 -11q10 0 32.5 1t34.5 1q39 0 60.5 -9.5t21.5 -37.5q0 -8 -7 -19.5t-7 -27.5q0 -36 6 -90t6 -76q0 -27 -2 -87t-2 -89q0 -10 2 -31t2 -30q0 -10 -7.5 -17.5t-18.5 -7.5q-14 0 -31 8.5t-23 8.5 q-15 0 -43 -5.5t-41 -5.5q-23 0 -37.5 11.5t-20 24.5t-11.5 38q-9 33 -51 83.5t-58 59.5q-29 23 -103 42.5t-139 19.5q-66 0 -167 -34t-129 -62q-3 -3 -8.5 -9.5t-10.5 -10t-12 -3.5h-6q-11 -22 -29 -42t-23 -28q-4 -7 -10 -25.5t-10 -25.5q-1 -2 -15.5 -27.5t-17.5 -32 t-13 -29t-13.5 -36t-7 -34.5t-3.5 -41q0 -8 1 -26.5t1 -27.5q0 -13 -1 -34t-1 -29q0 -124 80 -242q4 -6 9 -12t11 -12t11.5 -10.5t13.5 -11t13 -10t14.5 -10.5t14 -9.5t15 -9.5l13.5 -9q8 -6 38.5 -28t51 -34t41.5 -18q14 -4 45 -8t45 -8q7 -2 51.5 -18.5t69.5 -16.5 q48 0 107.5 7.5t91.5 18.5q13 3 33 16.5t32 16.5q3 1 17.5 1t21 5t6.5 19v20l4.5 22.5t3.5 26.5q0 179 -14 179q-3 0 -18.5 -7.5t-28.5 -7.5q-15 0 -41 8.5t-45 8.5q-16 0 -50 -6.5t-50 -6.5q-71 0 -117.5 20t-46.5 64q0 8 2 23t2 20q0 10 -3 33t-3 33q0 18 4 23t20 6.5 t27 5.5q2 1 11.5 9.5t25.5 8.5q10 0 21 -2.5t23.5 -6.5t16.5 -5q32 -6 79 -7.5t125 0t101 1.5q12 0 39.5 1t42.5 1q125 0 125 -60q0 -14 -12 -52t-12 -58q0 -70 18 -264q0 -77 -10.5 -141t-36.5 -64q-5 0 -21 4q-23 -12 -54 -38.5t-64 -42.5t-84 -20l-156 -24 q-16 -2 -47.5 -12.5t-52.5 -10.5q-23 0 -65 7t-46 8q-10 1 -43 4t-43.5 4t-39 4t-39.5 5.5t-35 7t-35.5 9t-31 11.5t-32 14.5t-27 18t-26.5 22.5q-87 28 -144 107q-43 27 -67 61q-8 17 -35.5 40t-38.5 48q-5 9 -10 28t-6 23q-5 13 -25.5 60t-30 72t-19 70t-9.5 89zM305 705 q0 -23 2 -25q0 19 -2 25zM319 877q0 -7 3 -13q14 54 14 74q-1 -8 -9 -27.5t-8 -33.5zM393 739q0 -4 1 -12t1 -12q6 36 6 45q0 4 -1 10.5t-1 9.5q-6 -18 -6 -41zM399 651q0 -3 2 -18t3 -20t3.5 -15t7 -15t11.5 -8q-6 6 -27 76zM416 1102q3 0 9.5 13.5t6.5 19.5v4 q-3 -12 -16 -37zM438 309q9 -15 21 -27.5t31.5 -24.5t30.5 -18t36 -18q-10 8 -31.5 21.5t-31.5 21.5q-3 2 -23.5 20.5t-32.5 24.5zM735 1350q64 17 64 18v2q-6 -2 -31.5 -7t-32.5 -13zM942 59q3 0 39 -6q5 3 8 8h-26q-17 0 -21 -2zM1001 1370h5q2 0 6 -1t6 -1t4 2 q-3 0 -7.5 1t-6.5 1q-5 0 -7 -2zM1012 670q10 1 34.5 2t32.5 2q-8 1 -21.5 2.5t-24.5 2.5t-21 1v-10zM1036 1294q14 -4 113 -28q-7 2 -27 10.5t-35.5 13t-33.5 4.5h-17zM1321 664q7 0 24 -1t25 -1q15 0 21 2q-7 0 -24.5 1t-25.5 1q-14 0 -20 -2zM1391 1032q22 0 28 2 q0 1 -6.5 1.5t-13.5 1t-8 1.5v-6zM1442 1376l6 -6q0 6 -6 6zM1458 659q2 -3 10 -8t11 -8q0 4 2 8.5t2 7.5h-25zM1470 311q0 -4 3 -4q2 4 2 8q0 2 -5 7v-11z" />
<glyph unicode="h" horiz-adv-x="1998" d="M223 1391q0 33 15.5 46t54.5 13q10 0 31.5 -8t40.5 -8q14 0 45 5t47 5q27 0 89.5 -3t92.5 -3q15 0 43 1t41 1q58 0 72 -26.5t14 -129.5q0 -40 -8 -55t-41 -15q-6 0 -18 1.5t-17 1.5h-39q-25 0 -35 2q-4 -23 -4 -70q0 -23 2 -70.5t2 -72.5v-88q0 -89 4 -130q24 0 71.5 4.5 t68.5 4.5q1 0 106 -6q12 0 38 3t40 3q36 0 95.5 -7.5t82.5 -7.5q21 0 53 4.5t45 4.5h29q7 1 25 5.5t28 4.5h6q11 56 11 141v76q0 21 2 61t2 58v7q0 16 -1 24.5t-5 20t-15.5 16.5t-29.5 5h-33q-27 0 -55.5 17t-28.5 45q0 8 5 21t5 24q0 21 -7 52t-7 44q0 14 10.5 22.5 t26.5 8.5q14 0 38 -4t31 -4q10 0 26 2t23 2q18 0 31 -13q107 19 166 19q20 0 52 -5t46 -5q13 0 34 4t30 4q26 0 44.5 -15.5t18.5 -39.5q0 -16 -5 -48t-5 -45q6 -48 6 -49q0 -22 -14.5 -32.5t-48.5 -10.5q-9 0 -29 1t-29 1h-5q-21 0 -21 -10q0 -24 -9.5 -68t-9.5 -69 q0 -17 5.5 -48t5.5 -50q0 -15 -4.5 -47t-4.5 -48q0 -13 10.5 -28t10.5 -31q0 -23 -6.5 -58t-14.5 -49q1 -63 6 -214.5t5 -237.5q12 -15 41 -15q8 0 25.5 2.5t25.5 2.5q61 0 71 -43q0 -6 -3 -19.5t-3 -19.5q0 -13 3 -39.5t3 -40.5q0 -23 -4 -33q4 -16 4 -20q0 -15 -10.5 -24 t-27.5 -9q-15 0 -33.5 8t-26.5 8q-14 0 -44 -6t-48 -6q-94 0 -129 4q-8 1 -23 6t-22 6q-7 0 -22.5 -3.5t-22.5 -4.5h-21q-14 0 -38.5 -7t-40.5 -7q-37 0 -55.5 36.5t-18.5 139.5q0 69 37 69q8 0 25 -3t24 -3q9 0 27 2t28 2h16q1 13 8 80t7 107q0 102 -17 157q-25 5 -30 5 q-11 0 -34 -2.5t-34 -2.5q-39 0 -112 5.5t-111 5.5h-51.5h-62.5t-61.5 -0.5t-63.5 -1.5t-52.5 -3t-45.5 -5.5t-26 -8.5q-12 -79 -12 -211q0 -20 1 -61t1 -62q16 -1 44.5 -1t45 -1.5t35 -6.5t27 -18.5t8.5 -35.5q0 -35 -1.5 -58t-6 -52.5t-16.5 -44.5t-31 -15q-9 0 -30 5 t-34 5q-26 0 -88 -8t-98 -8q-20 0 -52 6t-44 6t-45 -5t-50 -5q-75 0 -75 84v43q0 6 -1.5 21t-1.5 28q0 40 13 52t53 12q45 0 86 -9q4 29 4 88v60q0 30 6 93t6 97v60q0 27 4.5 80.5t4.5 78.5q0 14 -6.5 44t-6.5 46v48q0 26 -4 91t-4 101q0 48 6 92q-8 2 -20 2h-19 q-5 1 -14 4.5t-12 4.5q-7 0 -20 -2.5t-19 -2.5q-23 0 -39 17t-16 49v39q0 16 -6.5 36t-6.5 38zM350 1360q6 0 6 -2q6 1 25 1t33 0.5t14 2.5t-20 2q-34 0 -58 -4zM395 80q33 -8 92 -8h23q-12 1 -40 5.5t-44 4.5q-21 0 -31 -2zM440 1364l45 -6q1 0 9 4t10 8q-54 -6 -58 -6h-6z M473 295q2 8 2 31q0 22 -2 28v-59zM496 784q1 -7 1.5 -35t6.5 -38q4 16 4 22q0 8 -2 16.5t-5.5 18.5t-4.5 16zM557 1268q2 -9 4 -27t2 -20q2 6 2 23t2 24h-10zM561 1100q0 -28 6 -49q0 42 -4 82q0 -6 -1 -17t-1 -16zM664 158q3 0 9 -2t9 -2q7 0 10 6h-16q-10 0 -12 -2z M700 1362q2 0 5 -3t6 -3v4q0 4 -6 4q-5 0 -5 -2zM936 707q40 -7 76 -7q46 0 84 9h-80q-55 0 -80 -2zM1311 1350q1 0 4.5 -1t5.5 -1t4 2h-2q-2 0 -5 1t-5 1zM1384 1346q35 10 114.5 15.5t100.5 8.5h-34q-116 0 -181 -24zM1430 176q5 5 16 8v6q0 3 -2 3q-1 -4 -7.5 -8.5 t-6.5 -8.5zM1450 371q0 -23 2 -31q0 6 2 19t2 20q0 12 -6 24v-32zM1499 788q0 -55 12 -77q-3 16 -6 50t-6 50v-23zM1509 563q0 -18 2 -24v-7q2 0 2 19q0 23 -2 31q-2 -6 -2 -19zM1659 147q6 -1 14 -7t10 -7q-1 2 -1 7t-1 8.5t-4 5.5q-2 -2 -9.5 -3.5t-8.5 -3.5z" />
<glyph unicode="i" horiz-adv-x="1042" d="M221 190q0 43 66 43q13 0 35.5 -4t31.5 -4q8 0 20 4t19 4h4q0 32 2 95.5t2 93.5q0 24 -6 65.5t-6 61.5q0 7 1 21.5t1 21.5v51q0 19 5 56.5t5 58.5t-8 64t-8 69q0 27 10.5 68.5t10.5 68.5q0 22 -6.5 64t-6.5 61q0 28 8 49q-9 0 -28.5 -1t-28.5 -1q-53 0 -80.5 18t-27.5 74 q0 8 1 27.5t1 28.5q0 7 -1 23t-1 24q0 26 18 38.5t45 12.5q11 0 35 -3t37 -3q19 0 59.5 3t61.5 3q32 0 97 -5t97 -5q6 0 25 2t28 2q22 0 41 -13.5t19 -35.5v-25q0 -5 2 -15t2 -16q0 -8 -3 -26.5t-3 -30.5v-35q0 -26 -11.5 -34.5t-37.5 -8.5q-5 0 -16.5 1t-16.5 1 q-21 0 -36 -8t-22 -8q-1 0 -4 1t-4 1q0 -12 -3 -34t-3 -32q0 -17 4 -56.5t4 -59.5q0 -25 -8 -64t-8 -55q0 -13 8 -36t8 -40q0 -29 -5 -78t-5 -71q0 -40 7 -117.5t7 -116.5t-3.5 -110t-4.5 -89q8 -4 29 -4q12 0 35 3t34 3q24 0 44 -15t20 -44q0 -14 -8 -45t-8 -51 q0 -8 3 -23.5t3 -23.5q0 -16 -44.5 -25t-114.5 -11t-104 -2t-64 1h-1q-16 0 -39.5 6t-32.5 6q-7 0 -20 -3t-17 -3q-29 0 -40.5 0.5t-32.5 4t-32 13t-15 25.5q-5 17 -6.5 53.5t-2.5 46.5q0 3 -6 20.5t-6 28.5zM317 80q0 -4 2 -6q3 1 10 2t9 2q-3 1 -11 1t-10 1zM322 1364 q12 -4 24 -4q18 0 27 6q-7 0 -20 1t-19 1h-10q-1 0 -1 -1.5t-1 -2.5zM471 1239q1 -4 5 -7.5t5 -6.5q1 1 6 3.5t7 4.5t2 6v4q-16 -4 -25 -4zM473 836q0 -11 8 -35q0 24 -8 35zM475 629q0 -11 2 -15q4 24 4 50q0 3 -1 8.5t-1 7.5q0 -8 -2 -25t-2 -26zM532 1016l7 -70 q1 -3 2 -10q1 -8 2 -8q-1 11 -2 30t-3 33.5t-6 24.5zM532 1063q0 -4 3 -4q0 2 2 6t2 6q0 1 -1 2t-1 2q0 -2 -2.5 -6.5t-2.5 -5.5zM543 1090q5 6 8 16.5t4 20t2 23.5t2 21l-4 -2q0 -13 -2.5 -27.5t-5.5 -28.5t-4 -23zM563 434q0 -15 6 -24v47q0 18 -2 26q0 -7 -2 -24t-2 -25z M612 172q0 -8 3 -10t12 -2l2 2q-4 1 -17 10zM668 1274q4 0 9.5 -0.5l11 -1t9.5 -0.5q2 0 7.5 1t7.5 1q0 10 -2 12q-5 -1 -15 -2.5t-17 -3.5t-11 -6z" />
<glyph unicode="j" horiz-adv-x="1306" d="M104 82q0 15 23 71.5t41 77.5q0 2 -1 5.5t-1 5.5q0 15 9.5 23.5t23.5 8.5q16 0 33 -12.5t20 -13.5q30 -12 57 -19.5t43 -9.5t48.5 -5t52.5 -5q7 0 21.5 -3t21.5 -3q62 0 116 61t62 105q2 12 2 39q0 14 -1 44t-1 44q0 23 3 47t7.5 48.5t5.5 35.5q0 5 -1 16t-1 16 q0 11 1 33t1 35q0 11 -1 33t-1 33q0 14 1 40t1 39q0 12 -1 37t-1 39q0 24 2 71t2 71q0 68 -10 114q-14 -2 -39 -2q-61 0 -89 26.5t-28 88.5q0 9 3 28t3 29q0 7 -3 18.5t-3 18.5q0 8 4.5 13.5t13.5 9t18 5.5t23 2.5t22 0.5h21.5h16.5q25 0 76 -5t76 -5q16 4 53 4 q14 0 42.5 -2t43.5 -2q14 0 44 4t46 4q28 0 49 -10.5t21 -34.5q0 -4 -2 -13t-2 -14q0 -8 1 -27t1 -28t-3.5 -21t-3.5 -18q0 -4 2.5 -18t2.5 -21q0 -33 -31 -33q-7 0 -19 4q-15 -6 -36 -6q-8 0 -24.5 1t-23.5 1h-10q-16 -49 -16 -119q0 -23 2 -73.5t2 -77.5q0 -18 -1 -56 t-1 -55q0 -23 5 -52t5 -50q0 -22 -5 -42t-5 -46q0 -20 1 -58.5t1 -62.5q0 -5 -1 -17.5t-1 -17.5q0 -14 4 -25.5t4 -27.5q0 -41 -6 -53q-21 -63 -36.5 -114.5t-22 -75.5t-13.5 -38q-5 -16 -13 -29t-22.5 -24t-24 -17t-29.5 -16t-27 -14q-63 -35 -117 -53.5t-121 -18.5 q-221 0 -330 70q-16 -4 -20 -4q-23 0 -39.5 14.5t-16.5 32.5zM248 164h24q11 0 15 2q-25 8 -37 10q0 -3 -1 -6.5t-1 -5.5zM616 1354q0 -2 2 -2l7 10q-1 0 -9 -4v-4zM752 1227q6 -6 10 -23.5t6 -21.5v6q0 31 -16 39zM758 446q0 -37 2 -53q4 28 4 47q0 28 -4 60q-2 -16 -2 -54 zM774 946q0 -66 2 -84q4 20 4 35q0 11 -3 35.5t-3 38.5v-25zM774 1102q0 -11 4 -19v27.5t-4 30.5q0 -3 1 -10t1 -11q0 -3 -1 -9t-1 -9zM844 510q0 -27 4 -37q0 3 2 14.5t2 16.5q0 6 -2 10q0 -4 -6 -4zM848 598q0 -6 4 -8v31q-4 -16 -4 -23zM850 657q0 -7 1 -19t1 -17v51 q-2 -6 -2 -15zM854 1239q1 -5 0.5 -9.5t0 -9t3.5 -6.5q0 4 2 12.5t2 12.5h-8z" />
<glyph unicode="k" horiz-adv-x="1726" d="M238 176q0 9 1 16t2.5 12.5t5 10t5.5 7t8 5t8.5 3.5t10 2.5t11 1.5t12.5 1t13 1q9 0 26.5 -1.5t25.5 -1.5h2q20 0 20 13q0 7 -1 27t-1 32q0 16 6.5 41.5t7.5 34.5q7 77 7 209q0 37 -9.5 93t-9.5 83q0 26 5 78t5 78q0 21 -1 60t-1 58q0 25 4.5 73t4.5 71q0 7 -1.5 12.5 t-6 8.5t-8 5.5t-11.5 3t-11.5 0.5h-13.5h-12q-11 0 -23.5 -2t-17.5 -2q-26 0 -44.5 23.5t-18.5 44.5q0 7 1 24t1 25v29q0 25 6 33q-4 16 -4 24q0 33 45 33q21 0 81 -7t103 -7q29 0 81 6t75 6q15 0 42 -1t38 -1h18q13 0 22 -6t14.5 -18.5t9 -24t4.5 -31t1.5 -30.5t0 -31 t-0.5 -25q0 -40 -16 -53.5t-58 -18.5h-34q-2 -12 -13.5 -40t-13.5 -42q-4 -23 -4 -125q0 -37 3 -77t8 -88.5t7 -73.5q17 11 34 28.5t37.5 42t29.5 33.5q17 19 103.5 106t129.5 144q4 6 13 17.5t19.5 24.5t20.5 25t16.5 19t6.5 6q0 10 -14 10q-6 0 -16.5 -4t-16.5 -4 q-28 0 -42.5 19.5t-14.5 46.5q0 11 2 33.5t2 35.5q0 5 -5.5 28.5t-5.5 39.5q0 14 8 23.5t21 9.5q4 0 13 -1t14 -1q4 0 18 2t23 2q8 0 23 -5t22 -5q6 0 25 4t32 4q19 0 65 -5t72 -5q33 0 91.5 5t82.5 5q47 0 63.5 -21t16.5 -63q0 -9 -1 -29.5t-1 -30.5t3 -27.5t3 -27.5 q0 -6 -2 -10.5t-5.5 -7.5t-7.5 -5.5t-10.5 -4t-11 -2t-13 -1t-12 -0.5h-12h-10.5q-13 0 -35.5 1t-33.5 1q-8 0 -23.5 -12t-37 -34.5t-37.5 -40t-39 -44t-27 -30.5q-14 -15 -37 -46t-37 -46q-53 -45 -95.5 -89t-62 -67.5t-71.5 -89.5q-2 -4 -11.5 -13.5t-9.5 -11.5 q0 1 12.5 -15.5t24.5 -32.5l12 -17q11 -19 54.5 -43.5t54.5 -36.5q7 -8 20 -31.5t27 -36.5q23 -14 32.5 -21.5t22.5 -23.5t19 -22q31 -34 95.5 -94t88.5 -87q18 2 53 2q60 0 92.5 -20.5t32.5 -75.5v-25v-23.5t-0.5 -20t-2 -19t-4.5 -15t-8 -13.5t-12 -9t-16.5 -6.5 t-21.5 -1.5q-17 0 -51 4t-48 4q-2 0 -11 -5t-17 -5t-33 10q-12 -3 -33.5 -10t-38 -10.5t-34.5 -3.5q-23 0 -69 10t-67 10q-12 0 -30.5 -4t-28.5 -4q-32 0 -46.5 22t-14.5 52q0 6 1 19.5t1 19.5q0 27 -16.5 47t-16.5 35q0 22 20.5 31t55.5 12.5t47 7.5q-4 11 -17.5 26t-26 25 t-28 22t-16.5 13q-17 14 -39 40.5t-54 52.5t-88 54q-41 27 -131 127q-10 -54 -10 -141q0 -57 10 -232q50 5 58 5q45 0 59 -26.5t14 -113.5q0 -20 -0.5 -32t-4.5 -23.5t-6.5 -17t-15 -11t-20 -7.5t-31 -3.5t-39.5 -1.5h-53h-10q-32 0 -101.5 3t-99.5 3q-15 0 -43 -3t-41 -3 q-53 0 -67 31t-14 145zM399 1360q2 -2 9 -2h10q0 4 -12 4zM436 78q5 0 18 -1t19 -1q8 0 12 2q-6 0 -18.5 1t-17.5 1q-11 0 -13 -2zM483 1020q0 -33 2 -47q1 10 1 33.5t1 41.5t5 31l-5 15q-4 -46 -4 -74zM553 522q2 -8 3.5 -24.5t2.5 -18.5v6v50zM563 76h45q-6 0 -15 1t-11 1 q-15 0 -19 -2zM569 780q1 -3 0.5 -7t0 -8t3.5 -5q0 20 -4 20zM627 76q46 0 69 4q-7 2 -25 2t-24 2q-8 -8 -20 -8zM670 1368q2 0 5.5 -2.5t6.5 -3.5q0 8 -8 8q-4 0 -4 -2zM737 616q3 -8 23 -28q-5 17 -23 28zM856 778q3 6 15 20t14 21q-23 -19 -29 -41zM1108 1278q4 -4 14 -4 q9 0 17 4h-31zM1192 311q12 -12 18 -12q-2 2 -5.5 5t-6 5t-4.5 2h-2zM1243 264q0 -2 1 -5t1 -5q7 -4 23.5 -21t27.5 -20q-9 7 -25.5 25.5t-27.5 25.5zM1307 195q1 -1 3.5 -6.5t5.5 -9t7 -3.5q2 0 4 2q-2 1 -9.5 9t-10.5 8zM1384 1358q9 -6 27 -6h41q0 8 -12 8q-56 0 -56 -2z M1434 78q9 2 13.5 1t7 -0.5t4.5 3.5t5 12q-8 -1 -16.5 -7.5t-13.5 -8.5zM1456 158q5 -9 8 -11q0 6 -1 8.5t-2 2.5h-3h-2z" />
<glyph unicode="l" horiz-adv-x="1486" d="M229 63q0 15 5.5 46.5t5.5 44.5q0 8 -5.5 25t-5.5 24q0 26 37 26h33q14 0 37.5 2t34.5 2h10q25 45 25 72t-6.5 80.5t-6.5 83.5q0 40 3 121.5t3 122.5q0 36 -4 106t-4 105q0 36 4 109.5t4 109.5v7q0 16 -1 24.5t-5 19t-14.5 15.5t-28.5 5q-9 0 -26.5 -3t-26.5 -3 q-32 0 -50 21.5t-18 58.5q0 12 5.5 34t5.5 30q0 7 -4.5 24t-4.5 25q0 22 26.5 33.5t64.5 11.5q18 0 35.5 -7t33.5 -7q39 0 128 9t126 9q120 0 176 -27t56 -98q0 -23 -9.5 -43.5t-9.5 -34.5q0 -2 1 -7t1 -7q0 -31 -63 -31h-135q-21 -26 -21 -125q0 -16 3 -63.5t3 -67.5 q0 -7 -1 -21.5t-1 -21.5q0 -14 9.5 -32.5t9.5 -41.5t-8.5 -49t-8.5 -43t1 -56t1 -56q0 -15 -1 -46t-1 -47q0 -14 5 -41t5 -51q0 -28 -9 -76t-9 -69q0 -59 66 -59q8 0 25.5 1t25.5 1q128 -9 190 -9q28 0 80.5 6.5t77.5 6.5q1 13 1.5 34t1 30t2.5 24t4.5 21t7.5 15.5t12 13 t17.5 8t24.5 6t33 1.5q31 0 60 -5.5t53.5 -24t24.5 -46.5q0 -12 -10.5 -31.5t-10.5 -33.5q0 -10 5 -42t5 -50q0 -16 -6 -54.5t-6 -56.5q0 -5 2 -15.5t2 -15.5q0 -24 -53 -24q-37 0 -55 6q-45 -18 -70 -18q-17 0 -58.5 8t-66.5 8q-15 0 -47 -1t-49 -1h-107q-23 0 -73.5 -3 t-81.5 -3q-19 0 -53.5 6t-49.5 6q-12 0 -38.5 -9t-47.5 -9q-20 0 -55 9t-72 9q-121 0 -121 59zM453 1262q2 0 4 -4.5t4 -4.5l2 2q-2 2 -1 4t-0.5 3.5t-6.5 1.5q-2 0 -2 -2zM483 676q0 -10 2 -14q0 4 1 12t1 12q0 12 -4 16v-26zM496 92h65q-12 4 -29 4q-20 0 -36 -4zM539 504 q0 -8 1 -25t1 -24q2 12 2 41v41q-4 -20 -4 -33zM547 424q0 -25 4 -35q-1 3 -1 16.5t-3 18.5zM551 1192q2 -4 5 -14.5t5 -14.5q0 5 1 13t1 12zM604 197q1 0 4 1t4 1h2v2q0 4 -6 4v-2q0 -2 -2 -3t-2 -3zM758 84q48 -6 51 -6q10 0 14 2q-36 6 -49 6q-3 0 -8.5 -1t-7.5 -1z M784 1354q0 -1 7 -8v4q0 3 -3 6q0 -2 -4 -2zM1034 70h2q2 0 6 2h-4q-4 0 -4 -2zM1069 160h10q4 0 12.5 1t12.5 1q8 0 12 -2q1 2 4.5 3t3.5 3q-35 0 -47 -4q-8 0 -8 -2zM1237 319q2 0 5 -2t5 -2q0 1 1 3.5t1 3.5h-8q-4 0 -4 -3z" />
<glyph unicode="m" horiz-adv-x="2277" d="M221 1391q0 20 11.5 30.5t41.5 10.5q19 0 58 -2.5t55 -2.5q17 0 55 3.5t56 3.5q23 0 40.5 -3t31.5 -12t22.5 -17t19 -28t16 -33t17.5 -43q4 -10 17.5 -27.5t17.5 -25.5q29 -63 47 -90q20 -30 45 -87.5t66 -113.5q7 -13 37.5 -52.5t39.5 -67.5q10 -44 33 -83t61 -104 t72 -153q6 -16 21.5 -45t27.5 -41q6 7 29 29t33 38q17 23 43.5 82t30.5 68q59 121 98 188q93 170 133 248q18 38 66 131.5t77 157.5q15 25 20.5 33t19 22.5t27 19.5t36.5 10.5t57 8.5q81 0 158.5 -15.5t77.5 -52.5q0 -3 -3 -11.5t-3 -16.5v-23q0 -9 -3.5 -29t-3.5 -28v-29 q0 -19 -9.5 -25t-31.5 -6q-21 0 -45 4q-7 0 -88 -6q-16 -104 -16 -123q0 -27 6 -83.5t6 -86.5v-71q0 -72 4 -105q1 -6 8 -40t7 -58l-9 -37q0 -21 8.5 -69t8.5 -78q0 -20 -5 -57.5t-5 -55.5q0 -28 0.5 -40t4 -35.5t13 -34.5t25.5 -11q10 0 31.5 3t31.5 3q28 0 53 -22.5 t25 -65.5v-18.5v-21t-0.5 -21.5t-1.5 -22.5t-2.5 -20t-5 -18.5t-7.5 -14t-10 -10t-14 -3q-9 0 -29.5 4t-29.5 4q-43 0 -148 -7t-149 -7q-10 0 -30.5 1t-29.5 1q-15 0 -39 -6.5t-37 -6.5q-24 0 -43.5 17.5t-19.5 48.5q0 16 6.5 47.5t7.5 36.5q0 1 1 31.5t4.5 49.5t11.5 25 q24 15 112 15q13 0 21 -2q4 230 4 358q0 124 -10 207q-34 -48 -69 -118.5t-51 -109t-50 -126.5q-25 -58 -47 -86q-17 -21 -23 -34t-14 -38t-19 -51q-7 -16 -25.5 -44.5t-23.5 -43.5q-5 -11 -13.5 -36.5t-13.5 -39t-17.5 -33t-27 -29.5t-39.5 -18t-57 -8q-20 0 -37 7.5 t-29 20t-22 27.5t-16 30.5t-10 27.5t-6 21l-3 9q-3 9 -16 21t-16 18q-8 18 -18.5 57t-18.5 58q-5 12 -20.5 31t-20.5 28q-33 60 -71.5 148t-47.5 104q-8 15 -30 63t-44 88t-45 64q-2 -52 -11 -191t-9 -216q0 -175 24 -175q9 0 27.5 1.5t26.5 1.5q34 0 65 -20.5t31 -53.5v-25 q0 -1 5 -16t5 -25q0 -23 -1 -36.5t-5 -28.5t-14 -22t-25 -7h-21q-27 -2 -77 -2q-34 0 -103 5t-102 5q-13 0 -36 -5t-34 -5q-6 0 -20 1t-21 1q-40 -4 -57 -4q-70 0 -70 80q0 18 6.5 44t6.5 34q0 7 -4.5 24t-4.5 25q0 31 68 31q18 0 44 -4.5t34 -4.5q9 0 14.5 6.5t11.5 8.5 q0 6 -1 19.5t-1 19.5q0 44 7.5 134.5t7.5 135.5q0 23 -1 68t-1 67q0 237 14 352q2 20 2 64v51q0 33 2 49q-24 4 -33 4q-17 0 -46 -4t-42 -4q-30 0 -55 15t-25 47q0 8 4.5 25t4.5 26q-1 6 -9 35t-8 45zM311 76h23q14 0 20 2q-7 0 -14 2t-14.5 5.5t-12.5 4.5q0 -3 -1 -7t-1 -7 zM375 1278h39q16 0 22 2q-5 0 -17 1t-18 1q-20 0 -26 -4zM541 520q0 -37 2 -51q0 75 6 131q-8 -31 -8 -80zM586 934h4q2 0 6 -1t6 -1t4 2q-4 6 -20 14v-14zM700 1030q2 -14 10.5 -27t18.5 -14q-4 4 -13 19.5t-16 21.5zM707 160q8 -4 10 -4v2q0 2 -6 2h-4zM868 735 q13 -40 31 -47q-8 7 -17 24t-14 23zM934 414q28 -62 43 -76q-28 59 -43 76zM963 578l6 -11q-2 7 -6 11zM1022 240q1 -3 4.5 -15.5t6 -19t7 -14t9.5 -9.5q-7 42 -27 58zM1051 393q0 -4 8 -8v2q0 4 -6 10q-2 -2 -2 -4zM1243 393q2 0 4 -2t4 -2q0 1 4.5 10t4.5 13v2 q-2 -4 -8.5 -10.5t-8.5 -10.5zM1577 59q8 -2 33 -2t35 2h-5q-8 0 -23 3.5t-22 3.5t-18 -7zM1655 1055q22 0 22 41v4q-3 -8 -11 -22.5t-11 -22.5zM1698 729q2 -21 3 -65t3 -64q4 14 4 43q0 44 -10 86zM1700 307q0 -31 2 -43q1 1 2.5 5t3.5 5q-6 10 -6.5 42t-1.5 38v-47z M1735 934q0 -15 4 -35v16q0 19 5 52t5 49q-14 -40 -14 -82zM1749 866q5 -67 10 -80q0 65 -10 80zM1839 1282q15 2 51 2t49 2q-28 4 -51 4q-33 0 -49 -8z" />
<glyph unicode="n" horiz-adv-x="1990" d="M233 1372q0 35 13 48.5t51 13.5q25 0 76.5 -2t72.5 -2q8 0 31 3t35 3q23 0 42 -17t38 -45t33 -39q8 -13 42 -46.5t52 -57.5q4 -6 9 -17t12 -17t26 -17q20 -15 30.5 -34t12.5 -22q21 -35 47.5 -64t49 -48t24.5 -21q12 -15 42.5 -54.5t54 -67.5t50.5 -56q5 -6 12 -14.5 t10.5 -12.5t10 -9.5t14.5 -10.5q42 -52 83 -105.5t59 -78t38 -48t33 -34t29 -19.5q12 35 12 107q0 18 -1 53t-1 53q0 22 2 66t2 65q0 57 -7 171t-7 175v31q-15 10 -41 10q-8 0 -24.5 -1t-24.5 -1q-35 0 -54.5 22.5t-19.5 59.5q0 24 10 51q-10 20 -10 46q0 19 13 37t40 18 q9 0 25 -3.5t20 -4.5q43 0 145 6t122 6q80 0 121 -14q6 2 20 2q78 0 78 -158q0 -41 -8.5 -58.5t-32.5 -17.5q-10 0 -32.5 4t-31.5 4q-25 0 -57 -8v-14q0 -24 -4.5 -69t-5.5 -64v-47q0 -12 -1 -37t-1 -39q0 -20 9 -43.5t9 -40.5t-4 -45v-49q0 -19 -6 -52.5t-6 -54.5 q0 -33 2 -101t2 -102q0 -14 -4 -38t-4 -37q0 -10 6 -36.5t6 -45.5t-2 -59t-2 -60q0 -15 7 -42t7 -56q0 -74 -35 -74q-5 0 -14.5 2t-13.5 2q-14 0 -36 -5t-34 -5q-23 0 -38.5 3.5t-26.5 13t-17 17t-16.5 25t-18.5 27.5q-16 16 -46 40.5t-38 33.5q-14 15 -35.5 50t-33.5 50 q-7 9 -29 32.5t-31 39.5q-3 3 -6.5 14.5t-7.5 15.5q-5 8 -32 26t-36 30q-13 15 -37 50t-36 48q-5 5 -24.5 22.5t-32 30t-24.5 30.5t-13 32q-7 6 -21 17t-20 16.5t-14.5 18t-14.5 29.5q-10 15 -37 42t-37 40q-11 14 -27 36t-26 34.5t-29.5 34.5t-44.5 47q-8 -31 -8 -72 q0 -24 4 -72t4 -71q0 -32 -6 -59q8 -24 8 -70q0 -17 -6 -43t-6 -47q0 -22 3 -74t3 -80q0 -37 -2 -53q6 -21 6 -47v-19q24 -8 41 -8q10 0 25 5t22 5q27 0 48.5 -14t21.5 -35q0 -6 -3 -26t-3 -29q0 -7 4 -22t4 -25q0 -78 -53 -78q-20 0 -58 6t-57 6q-9 0 -37.5 -8t-52.5 -8 q-19 0 -62.5 5t-64.5 5q-12 0 -32 -5t-32 -5q-62 0 -92 16.5t-30 63.5q0 12 1.5 25.5t3.5 27.5t3 19q-10 17 -10 43q0 40 36 40q9 0 30.5 -2t31.5 -2q35 0 63 21q0 26 1 80t1 80q0 16 -1 48t-1 48q0 29 4.5 80t4.5 78q0 28 -1.5 84t-1.5 83t1.5 83t1.5 83q0 30 -4.5 88 t-4.5 86q0 23 2 35q-60 0 -73 11q-15 -11 -27 -11q-26 0 -44.5 23t-18.5 51q0 13 8 37q-11 26 -11 55zM324 74q22 0 26 4q-6 0 -26 10v-14zM328 1356q4 0 34 -10l9 12h-23q-16 0 -20 -2zM487 645q0 -19 2 -27q3 15 3 35q0 28 -5 43v-51zM492 1356q3 0 8.5 -3t7.5 -3h2 q-2 1 -4 4l-2 4q-8 0 -12 -2zM537 1321q4 -4 10 -14t11.5 -17t12.5 -8q-3 4 -9.5 14t-12.5 16.5t-12 8.5zM541 375q0 -21 10 -23q-2 9 -4 32.5t-4 29.5q0 -5 -1 -19t-1 -20zM553 1155q0 -2 2 -2q0 1 2 2.5t2 3.5v2q-1 0 -2 -1t-2 -1q0 2 -2 2v-6zM606 88h15q14 0 102 -10v18 q-13 -8 -37 -8q-9 0 -28.5 2t-28.5 2q-11 0 -23 -4zM694 993q4 -4 4 -12q8 -4 19.5 -21.5t19.5 -19.5l-17 25.5t-26 27.5zM788 1020q0 -4 3.5 -8t9.5 -9t8 -6q36 -36 45 -41h2q0 8 -24 34.5t-37 35.5q-7 -4 -7 -6zM987 809q10 -22 37 -49q43 -37 45 -39q-16 14 -42.5 45 t-39.5 43zM1305 1360q2 -2 2 -14q24 4 32 10zM1319 242q1 -2 5.5 -9.5t6.5 -9.5q0 11 -12 19zM1419 1249q4 -1 9 -6t8 -6q0 4 4 12h-21zM1452 1057q2 -14 2 -49v-64q0 -33 2 -47q6 37 6 80q0 49 -10 80zM1460 719q1 -4 1 -17.5t1 -15.5v19q0 12 -2 14zM1528 311q0 -14 8 -22 v37q0 18 -4 24q0 -7 -2 -20t-2 -19zM1528 1190h2q4 -16 4 -25q0 -7 -2 -22t-2 -21q0 -8 2 -10q0 26 8 76q-2 0 -3 3t-3 3q-6 0 -6 -4zM1530 170q0 -11 4 -23q0 13 1 39t1 39q0 -5 -3 -25.5t-3 -29.5zM1534 260q0 -10 2 -16q0 3 -1 8t-1 8zM1688 1282q2 0 4.5 -1t3.5 -1 q6 0 6 12q0 4 -2 6q-1 -2 -6.5 -7t-5.5 -9z" />
<glyph unicode="o" d="M184 739q0 90 17 153t49.5 126.5t42.5 91.5q6 17 15.5 33.5t24.5 34t24 27t29 29t24 23.5q38 58 71 74q6 6 13.5 9t20 5.5t17.5 4.5q24 6 56 34q28 24 92 43.5t117 22.5q5 0 14 -1t14 -1q25 0 83 15.5t96 15.5q37 0 55 -2q7 0 40 -9.5t82.5 -21.5t92.5 -16 q38 -4 76.5 -27t84.5 -61.5t62 -49.5q3 -3 55 -43.5t68 -64.5q4 -4 17.5 -25.5t29.5 -59t16 -65.5l1 -18q2 -19 4 -35t10 -43t20 -51q6 -27 16.5 -63t15.5 -57.5t5 -39.5q0 -45 -16 -117q0 -3 -6.5 -11.5t-12.5 -30t-6 -54.5q0 -4 3 -19.5t3 -25.5q0 -21 -14 -50t-24.5 -45 t-39.5 -57l-8 -16q-7 -16 -20 -37t-33 -46.5t-53.5 -54t-73.5 -50.5q-20 -15 -54.5 -35t-94.5 -49t-140 -48.5t-159 -19.5q-21 0 -39.5 1.5t-39.5 6t-28.5 6t-32.5 8.5l-24 7q-44 0 -83 10t-82.5 27t-68.5 24q-35 18 -84.5 59t-64.5 52l-13 11q-14 11 -36.5 30.5t-46 42.5 t-45.5 51.5t-33 54.5q-3 7 -8.5 32t-12.5 36q-74 89 -74 205q0 10 2.5 29.5t2.5 29.5q0 9 -5.5 25.5t-5.5 29.5zM250 895q10 9 10.5 22t5.5 23q-8 0 -14 -20t-2 -25zM387 1069q27 27 43 59q-3 -3 -13.5 -11t-19 -14t-8.5 -7zM428 264q1 -18 36.5 -40t61.5 -25q-74 32 -98 65 zM473 668q0 -25 10 -53t31.5 -69.5t28.5 -56.5q4 -55 45 -102q15 -16 28.5 -28.5t29 -24t24 -18.5t26.5 -16.5t23.5 -13t27.5 -12.5t25.5 -10.5t31.5 -11.5t32 -12q11 -2 58 -13.5t84 -17.5t75 -6q14 0 28 2.5t22.5 5t21 7t16.5 5.5q69 35 114 65t78 70q11 16 35.5 50.5 t32.5 48t24 45.5t21.5 59.5t10.5 72.5t5 101q0 11 -4 45.5t-4 53.5q-15 47 -29 80.5t-26.5 59.5t-18.5 40q-2 3 -16.5 25t-23 31t-29.5 28.5t-53.5 38.5t-77.5 41q-20 9 -52 31t-60 34t-62 12q-33 0 -63.5 -8t-78.5 -24t-92 -27q-118 -24 -174 -111q-5 -23 -20 -45 q-10 -9 -19 -22.5t-14.5 -24t-13.5 -26.5t-13 -25q-33 -57 -33 -123q0 -7 1 -20.5t1 -20.5q0 -18 -7 -54t-7 -56zM737 80l45 -10q66 -17 70 -17l22 10l-40 3zM1167 1262q10 -1 27 -6.5t23 -6.5q-31 31 -37 31q-1 0 -3.5 -4t-5.5 -8.5t-4 -5.5zM1317 102q25 3 61 25.5 t37 40.5q-31 -27 -98 -66zM1485 1106q-1 1 12.5 -30t30 -70t20.5 -52q0 24 -1.5 36.5t-16 44t-45.5 71.5zM1645 446q5 14 12.5 70.5t9.5 87.5q-2 -20 -12 -70.5t-10 -82.5v-5zM1671 776q0 -3 2 -20t2 -19v-4l6 -47q7 10 7 16q0 24 -5.5 47t-11.5 29v-2z" />
<glyph unicode="p" horiz-adv-x="1581" d="M225 59q0 19 4 56.5t4 58.5q0 36 8 46.5t38 10.5q9 0 22.5 -3t17.5 -3q20 2 33.5 11t20 19t10 28.5t3.5 29t-0.5 33t-0.5 29.5q0 35 6 105t6 106q0 38 -6 112.5t-6 112.5q0 48 9 129.5t9 116.5q0 18 -3 55t-3 57q0 25 -17.5 34.5t-42 9t-49 0.5t-42 15.5t-17.5 47.5 q0 13 7.5 31.5t7.5 29.5q0 10 -5.5 31.5t-5.5 30.5q0 15 9 24.5t26.5 13t29.5 4.5t32 1q38 0 112 -3t111 -3q27 0 77.5 2t74.5 2q17 0 50 -4t50 -4q15 0 47 3t51 3q50 0 98 -10t81.5 -23t70.5 -35.5t55 -36.5t45 -37.5t33 -27.5q4 -4 13 -14t14 -15.5t11 -14t9 -14.5 q4 -9 7 -23.5t6 -19.5q5 -14 16.5 -33t16.5 -39t5 -59q2 -22 12.5 -71.5t10.5 -75.5q0 -143 -104.5 -274.5t-243.5 -168.5q-30 -8 -141 -16q-13 -1 -40.5 -6.5t-43.5 -5.5q-8 0 -25 1t-25 1q-81 -6 -84 -6q-25 0 -49 6q2 -8 2 -25q0 -18 -6 -51t-6 -49q0 -27 11.5 -47.5 t23.5 -20.5q8 0 22.5 5.5t22.5 5.5q42 0 69.5 -2t47.5 -10t30.5 -16.5t16.5 -28.5t7 -39t1 -54q0 -22 -2 -34.5t-11 -27.5t-31 -21.5t-58 -6.5q-46 0 -97.5 6t-77.5 6q-38 -3 -125.5 -3.5t-121.5 -4.5q-6 -1 -31 -5.5t-39 -4.5q-30 0 -52 17.5t-22 49.5zM315 94q1 0 3.5 -1 t3.5 -1q5 0 8 6q-1 0 -5 4t-8 4q0 -10 -2 -12zM322 1364q0 -2 1 -5.5t1 -4.5l18 12q-18 0 -20 -2zM471 766l2 -18q2 0 2 24q-2 4 -2 14q0 2 2 17t2 31q0 8 -2 8q-4 -32 -4 -66v-10zM545 1102q0 -26 8 -39q4 46 4 72q0 5 -1 16t-1 16q-10 -30 -10 -65zM561 868q0 -20 4 -26 q0 20 -4 26zM635 965q0 -39 8 -102t8 -107q0 -8 -1 -25.5t-1 -25.5q0 -25 13.5 -45.5t42.5 -20.5q21 0 58 8t58 8q8 0 24 -1t23 -1q53 0 88.5 14.5t87.5 49.5q16 10 29.5 25t29 39.5t24.5 62.5t10 84q-6 71 -13 92q-5 14 -21 36.5t-20 30.5q-22 37 -56 64t-73 41t-74.5 20.5 t-70.5 6.5q-115 0 -168 -15q0 -39 -3 -119t-3 -120zM649 1362q3 -6 13 -6q4 0 10 1.5t13 3.5t9 3q-33 0 -45 -2zM670 489q3 0 8.5 -1t7.5 -1q4 0 6 2q-3 0 -9.5 2.5t-8.5 2.5q-4 0 -4 -5zM784 573q38 2 111 3t90 2q-9 6 -22 6q-8 0 -27 -2t-29 -2q-14 2 -45 2q-51 0 -78 -9z M795 135q3 -14 14 -14q-2 4 -2 18q-8 -4 -12 -4zM834 494q27 5 28 6h-6h-7.5t-6 -0.5t-5.5 -2t-3 -3.5zM928 1294l16 -6q1 1 10 6h-26zM1133 1243q2 -2 5.5 -5t5.5 -5t6 -4t9 -2q-3 1 -8 5.5t-9.5 7.5t-8.5 3zM1159 688q0 -2 2 -2q0 2 2 5.5t3 4.5t-1 2q-6 -6 -6 -10z M1227 1001q1 -8 1 -28t1 -25q0 49 -2 53zM1286 1122q7 -13 14 -39v21q-2 3 -5 8.5t-5 8t-4 1.5zM1290 780q13 0 22 46t9 67q0 40 -8 86q0 -131 -23 -199z" />
<glyph unicode="q" d="M203 702q0 99 19.5 195t56.5 158q137 224 309 311q67 31 120 45t105 21.5t82 15.5q9 1 37.5 9.5t54.5 8.5q24 0 52 -9t42 -9q3 0 8.5 1t8.5 1q156 -30 227 -64q226 -108 287 -225q5 -7 21.5 -25.5t28.5 -40.5t24 -63q6 -32 17 -47.5t13 -23.5q3 -9 4.5 -27t3.5 -25 q3 -11 8 -25t8 -25t3 -25q0 -13 -4 -34t-4 -30t1 -28t1 -29q0 -174 -95 -385q-11 -24 -32.5 -51.5t-38 -44.5t-46 -45t-36.5 -35q-150 -150 -315 -150q5 -27 83.5 -49.5t124.5 -22.5h29q13 0 40 -4t40 -4q27 0 72 13.5t67 13.5q23 0 51.5 -30t28.5 -64v-17q0 -13 7 -28.5 t7 -24.5q0 -26 -21 -43.5t-52 -24t-50.5 -8.5t-33.5 -2q-16 0 -50.5 2t-52.5 2q-14 0 -38.5 -5t-41.5 -5q-27 0 -50.5 5.5t-50 15.5t-40.5 14q-161 42 -219 82q-8 5 -20.5 20.5t-20.5 20.5q-19 15 -74 39q-14 7 -34.5 25.5t-26.5 23.5q-6 4 -20.5 11.5t-23.5 15t-13 18.5 q-139 45 -181 67q-75 37 -139.5 92.5t-103 106.5t-68 105t-40.5 83.5t-15 45.5q-4 20 -21.5 54.5t-17.5 59.5v41q0 9 -1 28t-1 27zM287 680q0 -25 4 -37v12q0 17 2 47.5t2 45.5v16q0 -5 -4 -36t-4 -48zM403 606q0 -17 7 -31q-1 15 -0.5 28.5t0 27.5t-3.5 20q0 -5 -1.5 -21 t-1.5 -24zM426 907q1 5 4.5 13.5t5.5 16t2 13.5v6q-1 -5 -4.5 -15t-5.5 -18.5t-2 -15.5zM479 694q0 -10 7.5 -38t7.5 -44v-37q0 -31 34 -84t41 -73q4 -3 26.5 -16.5t31.5 -22.5q6 -6 18.5 -22t20.5 -23q96 -71 112 -80q10 -7 78 -27q12 -4 30.5 -13.5t35 -15t34.5 -5.5 q35 0 73.5 9.5t59.5 17.5t69 30.5t61 28.5q1 0 15.5 4t23 7t22.5 9t25.5 15t19.5 20q24 16 40 61.5t26 57.5q1 2 12.5 16t15.5 23q10 22 24 81t19 74q3 10 10.5 27.5t11 33t3.5 35.5q0 18 -9.5 42.5t-11.5 37.5q-3 11 -6.5 40t-8.5 44.5t-27 50.5t-60 78q-148 166 -264 189 q-23 4 -78.5 7t-85.5 11q-2 0 -2 -2q-15 -7 -33.5 -12.5t-43 -10.5t-36.5 -8q-6 -2 -19 -4t-18 -4t-12 -9t-12 -9q-4 -2 -14.5 -4t-14.5 -4q-22 -12 -56 -42.5t-54 -41.5q-5 -20 -44.5 -55.5t-39.5 -61.5q0 -30 -27 -99t-27 -116q0 -12 -2 -34t-2 -32zM600 1272q29 12 55 31 q-11 -4 -29 -15.5t-26 -15.5zM901 -14q4 -3 11 -10t14 -12t14 -5q4 0 8 2q-42 24 -47 25zM928 1315q0 -1 17 -3.5t38.5 -4.5t32.5 -2q14 0 22 2q-24 4 -82 10q-28 0 -28 -2zM1094 -37l9 -4.5t11 -3.5h2q0 1 -4.5 5t-5.5 9zM1186 -86q6 -3 16.5 -12t20.5 -14t20 -5q1 0 3 1 t3 1q-10 2 -32 15.5t-29 13.5h-2zM1260 1329q28 -18 57 -24q-8 3 -27.5 13t-29.5 11zM1270 139q3 1 15 7t17.5 8.5t14.5 8t15 10.5t9 11q-47 -21 -71 -45zM1335 -135l12 -4q12 -4 19 -4q6 0 10 2q-7 0 -21 3t-20 3zM1372 1272q51 -45 111 -88q-7 6 -32.5 28t-43 36t-35.5 24 zM1413 1081q3 -1 7 -6t7 -6q-6 12 -10 12h-4zM1534 561q1 2 5 10.5t5.5 13t3.5 12t2 13.5v13q-2 -7 -5 -19t-5.5 -23.5t-5.5 -19.5zM1595 948q13 -17 21.5 -42.5t16.5 -55.5t16 -47q-5 38 -9.5 59t-16 47.5t-28.5 38.5z" />
<glyph unicode="r" horiz-adv-x="1720" d="M238 1391q0 41 51 41q11 0 34 -2.5t35 -2.5q23 0 70.5 4.5t73.5 4.5q16 0 44 -4.5t42 -4.5q29 0 89.5 4.5t92.5 4.5q245 0 395.5 -67.5t200.5 -166.5q26 -54 46 -139t20 -158q0 -183 -113 -299q-7 -7 -25.5 -28t-29 -31t-28 -24.5t-36 -23.5t-39.5 -14q4 -4 10.5 -16 t10.5 -16q5 -7 20 -16.5t21 -16.5q20 -20 42.5 -52.5t28.5 -52.5q5 -5 15.5 -12t15.5 -12t12.5 -13t11 -11.5t9.5 -9t11.5 -8t14 -7t20 -8.5t26.5 -9h28q33 0 58.5 -16t25.5 -45q0 -1 -6 -31v-22q0 -32 -2 -51t-10 -34.5t-18 -22.5t-34 -12t-49 -6t-71 -1q-158 1 -279 180 l-35 63q-8 13 -37.5 45.5t-39.5 59.5l-4.5 13.5t-4 10.5l-4 8t-6.5 9t-11 9.5t-18 12.5q-8 5 -16 12.5t-14 10t-19 2.5q-15 0 -43.5 -2t-40.5 -2q-30 0 -45 10q-24 -12 -73 -12q-11 -22 -11 -66q0 -10 1 -30.5t1 -30.5q0 -39 -8 -58q42 -10 80 -10q18 0 41 7t33 7 q20 -2 35.5 -16t15.5 -33q0 -4 -3 -23.5t-3 -33.5q0 -22 5 -59t5 -45q0 -27 -35 -27q-26 0 -69.5 5t-61.5 5q-31 0 -89.5 -3t-94.5 -3q-12 0 -34 2t-32 2q-14 0 -40 -6t-40 -6q-49 0 -81.5 19t-32.5 63q0 13 1 33t1 26q0 7 -1 21.5t-1 21.5q0 29 10 41t41 12q13 0 37.5 -2 t32.5 -2q7 0 18 2.5t14 3.5q-4 126 -4 209q0 41 7.5 112.5t7.5 106.5q0 20 -6.5 58t-6.5 55q0 19 6 37q-4 36 -4 55q0 30 3 97.5t3 101.5q0 19 -6 55t-6 56q0 16 2 26q-14 3 -58 4.5t-67 11.5t-26 37q0 6 4 29t4 39q-1 10 -6.5 34.5t-5.5 35.5zM326 1358q0 -4 14 -4h8 q-16 4 -22 4zM332 68q14 0 18 2l-18 6v-8zM408 1352q42 0 53 6q-6 -1 -17.5 -1t-20.5 -1t-15 -4zM475 1143q0 -4 2 -6q0 3 1 7.5t1 6.5q0 4 -2 6q0 -2 -1 -7t-1 -7zM477 336q0 -41 4 -57q4 24 4 36q0 16 -3.5 46t-4.5 42v-67zM481 829q0 -12 2 -18q11 39 11 55q0 20 -9 35 v-12q0 -10 -2 -30.5t-2 -29.5zM541 76l98 4q-36 4 -55 4q-27 0 -43 -8zM565 1085q0 -14 4 -26q2 10 2 35v14q-6 -9 -6 -23zM567 1245q0 -3 6 -33q0 8 2.5 26.5t2.5 25.5v6q-11 -11 -11 -25zM598 618q2 -9 7 -17.5t9 -8.5q2 0 2 2q-4 3 -7 7t-6 9t-5 8zM645 725 q0 -23 5.5 -40t17.5 -27t22.5 -16.5t31 -8.5t31 -2.5t34.5 0t30 0.5q39 0 76 6q20 2 52.5 14.5t39.5 14.5q3 1 20.5 4.5t26.5 8t26 15.5t35.5 33t39.5 55q36 53 36 150q0 99 -60.5 169.5t-127.5 88.5q-74 20 -215 20q-68 0 -107 -8v-6q0 -8 -3 -26.5t-3 -26.5q0 -12 1 -37 t1 -39q0 -15 -3 -45t-3 -45q0 -13 2 -44t2 -48q0 -18 -4 -69t-4 -91zM655 78h37l23 2q-5 0 -17 1t-18 1q-19 0 -25 -4zM795 557q24 -6 59 -6q34 0 53 8q-12 -2 -39 -2h-73zM1108 246q6 -6 12.5 -20.5t9.5 -18.5q0 7 -5.5 17.5t-10.5 17t-4 6.5q-2 0 -2 -2zM1157 387 q2 -2 6 -7t7 -8t6 -3q-2 2 -5.5 7t-6.5 8t-7 3zM1182 1286q4 -4 9 -7.5t12.5 -7t10.5 -5.5q17 -11 40 -39t34 -37q-45 74 -106 96zM1192 1108q30 -47 37 -80q0 2 1 7t1 7q0 46 -39 66zM1223 717q18 27 18 45q-18 -18 -18 -41v-4zM1257 825q0 -7 3 -10q2 4 2 12q0 6 -5 21 v-23zM1440 68h2q4 0 4 8v2q-1 -1 -6 -10z" />
<glyph unicode="s" horiz-adv-x="1441" d="M211 328q0 68 13.5 92t68.5 24q13 0 40 -3t40 -3q7 0 19.5 2t17.5 2q18 -3 31.5 -17.5t13.5 -31.5q0 -9 -6 -18q3 -34 23 -59.5t43 -38.5t52.5 -30t44.5 -32q46 -12 95 -12q97 0 179.5 48t82.5 103q0 44 -2 62q0 4 1 12.5t1 11.5q-11 31 -48 58t-100.5 58.5t-85.5 45.5 q-38 24 -190 98q-11 5 -38 15.5t-45.5 20t-31.5 22.5q-26 25 -54 48q-23 18 -31.5 32.5t-39.5 83.5q-10 23 -16 36q-27 61 -27 93q0 83 57 202q18 37 50 70t64.5 53.5t62.5 35t48 21.5l19 7q15 0 43 4q8 2 21.5 7.5t28 9t32.5 3.5q73 0 130 -17t82.5 -37t46 -39t26.5 -21 q0 1 1 4t1 4q0 8 -9.5 23t-9.5 24q0 15 16 24t42 9q8 0 31.5 -3t35.5 -3q9 0 24 1t21 1q27 0 44.5 -17.5t17.5 -38.5q0 -17 -6 -45t-6 -35q0 -20 7 -58t7 -66q0 -16 -6 -37t-6 -31q0 -7 1 -21.5t1 -21.5q0 -26 -13 -36.5t-39 -10.5q-14 0 -44 3t-42 3q-12 -6 -24 -6 q-29 0 -45 24t-24 62t-11 43q-13 38 -81 66t-130 28q-57 0 -124.5 -35t-67.5 -84q0 -15 11 -44t11 -46q0 -5 -1 -16.5t-1 -16.5q0 -17 16.5 -35.5t47.5 -36.5t60 -32.5t69 -33.5t61 -30q26 -14 77 -36.5t86 -41.5t78.5 -48.5t79.5 -74t64 -102.5q39 -84 39 -147 q0 -21 -5 -44t-13 -51.5t-11 -45.5q-7 -21 -15.5 -38.5t-23 -34t-23 -25t-30 -28t-29.5 -26.5q0 -2 1 -6t1 -6q0 -15 -17 -29.5t-42 -24t-49 -17t-43 -11.5l-19 -4q-54 -21 -100 -21q-59 0 -108 6q-11 2 -33.5 11.5t-38.5 9.5q-25 0 -47 5.5t-38 16t-26 18.5t-21 20t-14 14 q-8 8 -24.5 17.5t-22.5 14.5q-2 -4 -2 -16q0 -8 2 -27.5t2 -27.5q0 -35 -32 -35q-13 0 -25 6q-57 -10 -82 -10q-84 0 -84 59q0 9 5 30.5t5 31.5q0 7 -2 22t-2 23q0 16 3 46.5t3 43.5q0 18 -11 38t-11 44zM311 344q0 -8 4 -12q0 9 3.5 22t3.5 15q-4 0 -7.5 -8.5t-3.5 -16.5z M459 1090q4 -48 14 -60q0 18 -14 60zM469 1284q1 0 3 -1t3 -1q8 0 14.5 4t6.5 8q-2 -1 -13.5 -3t-13.5 -7zM512 829q1 -6 6 -11t8 -5q-2 8 -14 16zM512 1305l25 22q-24 -18 -25 -22zM645 840q11 -17 27 -17q1 0 3 1t3 1q-4 1 -15 7t-18 8zM647 74q14 -11 47 -11q11 0 23 3 q-24 8 -70 8zM655 721q3 -1 12.5 -5.5t12.5 -4.5q-20 10 -25 10zM762 1386q3 0 9.5 -2t8.5 -2q4 0 6 2q-3 0 -9 2.5t-9 2.5q-1 0 -3 -1.5t-3 -1.5zM819 1372q0 -3 24.5 -14.5t35.5 -14.5q-29 29 -60 29zM928 696q3 -1 16.5 -10.5t24.5 -9.5q-16 16 -41 20zM1042 246q7 0 7 4 l-2 4q-5 -5 -5 -8zM1096 1151q8 28 8 59q0 19 -4 39q0 -17 -2 -49t-2 -49zM1130 485q0 -15 11 -22q-2 9 -11 22z" />
<glyph unicode="t" horiz-adv-x="1529" d="M156 1188q1 5 4.5 24t3.5 31t-5.5 65t-2.5 86.5t20 41.5q16 8 80 -2q35 -5 78 0l84 4q23 3 51 3t50 -2t51.5 -3.5t52.5 -1.5q13 0 54.5 -1.5t65.5 -0.5q15 1 61.5 3.5t69 3t58 0.5t65.5 -3q43 -4 127 -4q21 0 58 4t64 6.5t56.5 0.5t48.5 -15.5t27 -38.5q3 -28 3.5 -37.5 t-2.5 -43t-3 -42.5q-2 -48 -10 -115q0 -7 1.5 -25.5t1 -31.5t-4.5 -21q-7 -18 -28.5 -22t-61.5 -4h-12q-57 0 -68 4q-10 3 -19.5 10.5t-16 17.5t-7.5 19q0 7 3 19t3 18q3 26 -8 57q-33 12 -117 12h-129q-5 -10 -7.5 -24t-3 -21t0 -27.5t0.5 -23.5v-211q0 -15 -3.5 -48.5 t-2.5 -51.5q1 -5 5 -14.5t5 -14.5q4 -22 5 -42.5t-0.5 -40t-3.5 -34.5t-5.5 -37.5t-5.5 -38.5q-1 -13 1 -29.5t6 -38t5 -32.5q2 -37 -6 -115q-5 -7 -1.5 -56t3.5 -56q10 -2 32 -10.5t38 -8.5q7 -1 22 2t23 2q15 -3 28.5 -14.5t18.5 -25.5q4 -9 0.5 -44.5t-2.5 -50.5 q0 -10 3 -33t2 -37t-9 -20q-4 -4 -10.5 -5.5t-11 -1.5t-15 0.5t-15.5 0.5t-17 -1t-19 -1q-14 0 -35.5 4t-28.5 4q-15 -1 -39.5 -6t-36.5 -6q-43 -7 -84 -4q-4 1 -18.5 5.5t-22.5 4.5q-4 1 -12 0t-12 0q-10 0 -28.5 2t-27.5 2q-2 0 -28.5 -3t-33 -3t-28.5 2q-13 3 -25.5 15 t-15.5 22q-1 6 0.5 20t1.5 19q3 30 0 57q-1 11 -6.5 32.5t-3.5 31.5q3 13 14 21t29.5 10t34.5 2t40 -1.5t36 -1.5q0 95 10 215q1 13 4.5 50t3.5 57q0 15 -2.5 51t-1.5 57q1 8 3.5 19.5t2.5 19.5t-3.5 23.5t-4.5 21.5q-3 28 2 129q4 28 4 37q0 14 -5.5 59t-2.5 72q0 5 2 14 t2 13q1 16 -2.5 43t-3.5 37q-1 6 -1 20t-1.5 22.5t-5.5 12.5q-6 4 -23 4t-38.5 -1.5t-30.5 -0.5q-10 1 -34.5 5t-39.5 3q-10 0 -37.5 -5t-46.5 -3q1 -15 -5.5 -40.5t-6.5 -37.5q-1 -9 3 -25t5 -24.5t-6 -21.5q-9 -11 -60 -11q-41 -6 -91 -0.5t-62 37.5q-9 22 -4 107z M279 1128q2 -1 3 -3.5t2.5 -4.5t4.5 -2l-4 21zM573 82q9 -3 13 4q-5 0 -13 4v-8zM592 1360q6 -1 23 -4t26 -4t22.5 0.5t22.5 7.5q-13 -1 -47.5 0.5t-46.5 -0.5zM623 156q2 -1 5.5 -5t7 -6t7.5 -2q-2 6 -8 10t-12 3zM725 1124l4 -14q3 8 -4 14zM727 358q3 3 4 8t1 10t-0.5 13 t-0.5 12q0 39 -2 45q0 -4 -3.5 -44.5t1.5 -43.5zM825 1266q1 -1 0 -4q1 -4 2 -5q0 2 2 4t2 5h-6zM1241 1128v-4.5t1.5 -3t4.5 -0.5q0 5 -6 8zM1245 1362q31 3 49 -6v12q-40 0 -49 -6z" />
<glyph unicode="u" horiz-adv-x="1912" d="M197 1255q0 12 3 35.5t3 30.5q0 8 -2 23.5t-2 23.5q0 66 32 66q7 0 24.5 -2t25.5 -2q15 0 47 3t51 3t66.5 -6.5t74.5 -6.5q26 0 80 5.5t80 5.5q43 0 64.5 -15t21.5 -57q0 -15 -6 -30t-6 -23q0 -6 5 -25.5t5 -36.5q0 -25 -11.5 -34t-37.5 -9q-10 0 -33 1t-33 1 q-27 0 -37 -4q0 -24 4.5 -79t4.5 -85q0 -18 -4.5 -51.5t-4.5 -54.5v-66q0 -45 -6 -139t-6 -139q0 -27 5 -49.5t14.5 -48t13.5 -39.5q10 -39 17 -60.5t23 -53t36 -49.5t54 -36.5t79 -28.5q7 -1 40.5 -12.5t53.5 -11.5q45 0 119.5 16.5t103.5 36.5q17 10 50 42t40 48 q5 10 13 39t14 43q26 61 29 125q0 13 -5.5 41.5t-5.5 44.5q0 57 8.5 168.5t8.5 171.5q0 25 -7.5 78t-7.5 84q0 4 0.5 16t0.5 19.5t-1.5 16.5t-5 14t-10.5 5q-15 0 -41.5 -6t-38.5 -6q-17 0 -37 12t-20 35q0 4 1 13.5t1 15.5q-1 12 -6.5 50t-5.5 56q0 62 43 62q6 0 26 -4 q13 4 31 5.5t42 1.5t34 1q7 0 23 -3t24 -3q6 0 20 2t21 2q25 0 75 -5t74 -5q10 0 29.5 1t28.5 1q26 -1 40.5 -2.5t33.5 -7t28.5 -17.5t9.5 -31q0 -10 -5 -35.5t-5 -44.5q0 -12 4 -32.5t4 -30.5q0 -27 -49 -27q-9 0 -29 1t-28 1q-20 -1 -27 -2t-15.5 -4.5t-15.5 -11.5 q4 -50 4 -70q0 -75 -10 -157q0 -19 8.5 -62t8.5 -61q0 -14 -2.5 -40t-2.5 -40q0 -5 2.5 -16t2.5 -17q0 -14 -6.5 -26t-6.5 -29q0 -32 3 -98.5t3 -96.5q0 -20 -4 -33.5t-12.5 -29.5t-11.5 -23q-4 -12 -8.5 -36t-8.5 -36q-24 -68 -116 -180q-44 -46 -118.5 -80.5t-124 -47 t-79.5 -15.5q-10 -1 -60 -10t-75 -9q-86 0 -158.5 17.5t-105 33.5t-71.5 41q-3 2 -4 3t-3 2l-4 2q-70 42 -115.5 102t-85.5 182q-2 6 -7 20t-7 21t-4.5 18t-3.5 21t0 21q0 8 2 24.5t2 24.5q0 10 -5.5 47t-5.5 61q0 10 3.5 29.5t3.5 28.5q0 20 -4.5 61.5t-4.5 63.5q0 27 1 84 t1 84q0 147 -16 229q-8 1 -24.5 1.5t-29.5 2t-20 6.5q-12 -4 -20 -4q-22 0 -37.5 15.5t-15.5 35.5zM291 1276q1 0 3 -1t3 -1v2q-2 0 -3 3t-3 3v-6zM393 1245q4 -4 8 -4q3 0 5 4h-3q-2 0 -4.5 1t-3.5 1zM446 911q0 -18 3 -30q0 8 1 27t1 28q0 21 -5 31v-56zM547 463 q0 -1 2 -22.5t4 -32.5q4 -20 19 -45t26 -33q-10 12 -18 30.5t-12 30t-11.5 38.5t-9.5 34zM563 176q12 -13 29.5 -25.5t31 -20t38 -19.5t32.5 -17l-15.5 15.5t-21.5 17.5q-6 2 -22 5.5t-23 8.5q-4 2 -20.5 17.5t-28.5 17.5zM637 1354h22q11 0 15 4q-17 0 -37 -4zM745 139 q9 -18 41 -18h9q-42 18 -50 18zM1219 1352q10 2 21 1t21.5 0.5t14.5 6.5h-8.5t-10.5 0.5t-11 0.5t-10.5 -0.5t-8.5 -1.5t-6 -3t-2 -4zM1319 209l2 -2q1 2 5 5t5 5q-3 0 -7.5 -2.5t-4.5 -5.5zM1419 408q2 4 8 11.5t9.5 15t3.5 14.5v4q-2 -8 -11.5 -22.5t-9.5 -22.5zM1446 496 q0 -11 2 -13v6q0 3 1 10.5t1 10.5q0 1 -1 4t-1 4q-2 -4 -2 -22zM1456 1188q0 -21 12 -33v25q0 17 -8 22q-4 -8 -4 -14zM1581 1346h2q1 0 3 -1.5t3 -1.5q2 1 2 3q-1 0 -4 1t-4 1q-2 0 -2 -2zM1608 1337q3 -1 8 -5t8 -5v12h-12q-4 0 -4 -2z" />
<glyph unicode="v" horiz-adv-x="1808" d="M92 1389q0 32 13 41.5t65 9.5q12 0 30.5 -3t32.5 -3q12 0 41 1t45 1q14 0 42 -1t40 -1q19 0 56 5t55 5q4 -1 11.5 -2.5t13.5 -2.5t10 -1q12 0 29.5 6t27.5 6q19 0 48.5 -19.5t29.5 -44.5q0 -7 -2 -20t-2 -20q0 -15 11 -34.5t11 -31.5q0 -72 -57 -72q-5 0 -20 1t-23 1 q-19 0 -27 -2q-2 -4 -2 -10q0 -17 17.5 -41t19.5 -29q59 -215 117 -315q4 -6 15.5 -20t15.5 -23q5 -9 11 -29t11 -28q8 -19 23.5 -49t26.5 -57t20 -62q5 -15 30 -50t27 -59q60 97 143 296.5t99 234.5q11 23 14.5 52t9.5 42q12 31 62 86q0 25 27 61q-36 -4 -54 -4 q-86 0 -86 68q0 5 1 14t1 14q0 8 -5 28.5t-5 33.5q0 78 53 78q6 0 19 -3t20 -3q10 0 31 2t33 2q20 0 59 -3t59 -3q26 0 75.5 6t72.5 6q18 0 48 -5t40 -5q8 0 22 3t19 3q19 -1 35 -17.5t16 -31.5q0 -8 -5 -35t-5 -43q0 -10 4 -27t4 -35q0 -28 -8 -38.5t-35 -10.5q-15 0 -48 4 t-48 4q-29 0 -46.5 -10.5t-23 -23t-13 -25.5t-17.5 -16q0 -20 -23.5 -66t-30.5 -74q-2 -7 -7 -30t-8.5 -35t-10 -28.5t-14.5 -24t-19 -7.5q-51 -138 -72 -186q-8 -22 -31.5 -61t-31.5 -58q-9 -19 -18 -56.5t-15 -53.5q-6 -14 -23 -39t-22 -39q-6 -17 -16 -51.5t-17 -51.5 q-8 -19 -41.5 -76.5t-52.5 -109.5q-1 -2 -6.5 -19t-6.5 -20t-7 -16.5t-9.5 -17t-11 -12t-14.5 -11t-18 -5.5t-23 -3q-30 0 -57 15t-46 36.5t-39.5 60t-34 70t-32.5 82.5q-9 23 -43 92t-45 106q-5 15 -12.5 47.5t-13 51t-20.5 49t-36 61.5q-3 6 -12.5 17.5t-12.5 17.5 q-6 13 -15 46t-16 50q-66 135 -86 187q-4 7 -10 25.5t-10 25.5q-3 7 -15.5 19t-15.5 18q-12 27 -19.5 68t-17 58t-34.5 17q-18 0 -53.5 -3t-51.5 -3q-57 0 -70.5 34t-13.5 157zM473 1266q5 -1 11 -7.5t8 -7.5l6 19q-5 -1 -9.5 -0.5t-9 0t-6.5 -3.5zM479 993q5 -24 23 -49 q-6 28 -23 49zM571 991q0 -20 11 -20q-3 2 -6.5 10t-4.5 10zM575 1352q4 0 10.5 -3t10.5 -3q0 10 -10 10q-11 0 -11 -4zM702 479q1 -18 19 -69q-5 37 -19 69zM727 659q0 -8 4 -8q0 4 -4 8zM969 195q9 32 24 57q-24 -28 -24 -57zM1024 455q15 15 27 47l-10 -17.5t-10.5 -18 t-6.5 -11.5zM1221 1356q8 -2 30 -2q33 0 54 6h-58q-25 0 -26 -4zM1251 831q3 9 11 30.5t10 29.5q-21 -38 -21 -60zM1321 1262q0 -6 6 -9q-4 8 -6 9zM1581 1350q4 -2 6 -2q4 0 6 2h-12zM1593 1346q6 -1 15 -7t10 -6q0 15 -19 15q-1 0 -3 -1t-3 -1z" />
<glyph unicode="w" horiz-adv-x="2371" d="M109 1325q0 9 3 25.5t3 25.5v21q0 14 8 22.5t26.5 12t32.5 4t41 0.5q35 0 94 -5.5t84 -5.5q30 0 92.5 4.5t96.5 4.5q65 0 88.5 -21.5t30.5 -93.5v-17.5v-18t-0.5 -16.5t-1.5 -16.5t-3 -13.5t-5 -12t-7.5 -8.5t-11 -6.5t-14.5 -2h-37q-19 0 -42 -5.5t-32 -6.5 q4 -24 17.5 -66.5t17.5 -58.5q5 -18 26.5 -82.5t28.5 -109.5q3 -13 11 -34t13 -38.5t5 -34.5q0 -35 33 -128t36 -103q1 -6 2 -17t3.5 -19.5t7.5 -15.5q9 4 20 27t18 43.5t7 22.5q21 83 43 118q26 43 51.5 147.5t30.5 119.5q4 10 15.5 31t16.5 32q6 14 14.5 44t14.5 44 q5 14 19.5 39t19.5 37q5 14 16.5 64t22 86.5t35.5 68t59 31.5q72 0 101.5 -15.5t29.5 -64.5q0 -25 21.5 -53.5t25.5 -40.5q5 -14 7.5 -40.5t3.5 -31.5q2 -7 10 -20.5t10 -20.5q17 -39 46 -131.5t54 -138.5q18 -35 36.5 -79t30 -76.5t30 -85.5t28.5 -79q23 -63 33 -75 q18 13 32 63t23.5 108t12.5 68q20 40 27.5 70.5t9.5 67.5t6 57q4 21 23 53.5t22 38.5q-6 9 -6 20q0 18 20 53t23 48q5 21 8 59q-14 4 -47 4h-35q-40 0 -57 16.5t-17 73.5q0 5 -0.5 22.5t0 27t1.5 26.5t3.5 26.5t7 20.5t12 16t17.5 5q18 0 65 -4.5t76 -4.5q49 0 127.5 7.5 t120.5 7.5q34 0 58 -2t53 -8.5t45 -22t16 -39.5q0 -16 -5 -46.5t-5 -43.5q0 -6 3 -22t3 -25q0 -21 -13.5 -28t-47.5 -7q-16 0 -37.5 3t-30.5 3q-11 0 -20 -4.5t-15.5 -12.5t-10 -14.5t-7.5 -15.5t-4 -10q-9 -34 -34.5 -93t-33.5 -85q-92 -290 -117 -383q-17 -63 -56 -192.5 t-58 -203.5q-7 -22 -16 -63.5t-15 -67t-21.5 -46.5t-39.5 -21h-17h-21t-21 0.5t-22 2t-20 3.5t-19 5.5t-14.5 8t-10.5 11.5t-3 16v14q0 10 -14.5 42t-35 76.5t-30.5 76.5q-13 43 -53 120t-51 111q-7 22 -14 54t-14.5 56.5t-22.5 47.5q-10 15 -17.5 33t-16 43.5t-13.5 38.5 q-3 9 -16 25t-17 24q-43 72 -45 108q-3 -10 -16.5 -27t-16.5 -26q-3 -6 -4 -20t-4 -21q-6 -17 -44.5 -91.5t-54.5 -121.5q-8 -22 -40.5 -130.5t-55.5 -152.5q-19 -38 -40 -91t-36 -83q-17 -26 -30 -61.5t-21 -48.5q0 -2 1 -6.5t1 -5.5q0 -31 -55 -31q-105 0 -123 39 q-3 9 -4.5 26.5t-3.5 24.5q-3 18 -9.5 39t-11.5 34t-16 38t-14 32q-6 14 -56 162q-4 12 -14 36t-14 36q-11 32 -29.5 114.5t-36.5 122.5q-11 21 -17.5 36.5t-13 38.5t-10.5 39t-14 60t-19 80q-15 41 -24 113q-5 21 -21 53t-20 45q-2 5 -6 20.5t-8 22.5q-15 3 -65 2.5 t-77.5 10t-27.5 43.5q0 3 1 9t1 9q0 8 -2.5 24.5t-3.5 22.5zM217 1358q6 -1 16.5 -2.5t19.5 -2.5t17 -1q7 0 27 4q-60 6 -78 6q-2 -2 -2 -4zM401 1188q15 -59 29 -90q-4 67 -29 90zM434 1061q0 -19 6 -25q-1 3 -1.5 8.5t-1.5 9.5t-3 7zM545 936q0 -7 2.5 -14t7.5 -16.5 t8 -16.5q0 13 -12 33q-1 2 -2 6t-2 7t-2 3v-2zM555 1280h2q64 0 64 14q-7 -6 -33 -7t-33 -7zM571 860q1 -3 3 -14.5t4.5 -16.5t7.5 -6q-5 5 -9 19t-6 18zM651 262q12 -30 15 -33v7q0 6 -6.5 14t-8.5 12zM791 188q3 6 12.5 23.5t14.5 30t7 24.5q-28 -34 -34 -78zM866 358 q1 3 8 17.5t7 21.5q-1 -2 -8 -13.5t-7 -18.5v-7zM963 782q3 15 16 44t14 46q-3 -11 -16.5 -40.5t-13.5 -49.5zM1096 944q2 0 15 42.5t15 43.5q0 1 -1 2t-1 2q-10 -18 -28 -88v-2zM1266 911q3 -26 16 -39q-2 4 -6.5 18.5t-9.5 20.5zM1287 854l5 -8q0 1 -5 8zM1290 1124 q0 -10 5 -17t10 -9q-3 5 -6.5 17.5t-6.5 17.5q0 -2 -1 -5t-1 -4zM1403 852q0 -11 3.5 -20.5t9 -19t7.5 -13.5q-13 39 -20 53zM1458 725q0 -17 10 -27q-2 12 -10 27zM1483 397q1 -1 4 -6.5t6 -7.5q-1 1 -1.5 4t-1.5 5t-2.5 3.5t-2.5 1.5h-2zM1501 592q0 -5 1 -9.5t2.5 -8.5 t4 -7.5t5 -6t4.5 -3.5q-4 6 -10 22t-7 19v-6zM1657 74q0 -4 2 -6q14 37 14 55v10l-6 -8v-6q0 -8 -5 -23t-5 -22zM1669 383q0 -4 2 -6q14 17 19 49l-9 -4q0 -1 1 -4t1 -4q0 -7 -7 -17.5t-7 -13.5zM1913 1219q6 -5 8.5 -16t3 -28.5t0.5 -21.5q6 12 6 35q0 28 -18 31z M2030 1362h22q31 0 43 4h-10q-31 0 -55 -4zM2167 1362q3 -1 8 -5t8 -5q0 1 -1 2t-1 2t1 3t1 3q-1 0 -5.5 1t-6.5 1t-4 -2z" />
<glyph unicode="x" horiz-adv-x="1744" d="M195 195q0 26 18 33.5t59 7.5q12 0 34 -2.5t32 -2.5q17 0 28.5 6t15.5 12.5t10.5 21.5t10.5 22q14 23 49 55.5t48 48.5q71 90 100 140q8 13 12 20t9.5 14t6.5 8t10 9t13 12q22 22 62 92q-14 25 -23 60q-35 21 -67.5 65.5t-63.5 99.5t-45 74q-98 125 -135 187 q-1 3 -2.5 9.5t-3.5 11.5t-6 9q-13 0 -38.5 -1t-37.5 -1q-44 0 -69 13t-25 49q0 7 1 23.5t1 23.5v41q0 19 0.5 30.5t3.5 25.5t9.5 21t16.5 7q3 0 13.5 -1t17.5 -1q8 0 34.5 7t45.5 7q44 0 143.5 -6t143.5 -6q15 0 34.5 3t26.5 3q27 0 44.5 -17.5t17.5 -42.5 q0 -12 -4.5 -37.5t-4.5 -39.5q0 -9 2 -27.5t2 -26.5q0 -15 -5 -23.5t-15.5 -12t-20.5 -4.5t-26.5 -2t-26.5 -3q20 -17 42 -47t42 -64t39.5 -68t42 -67t41.5 -53q22 3 36.5 11.5t20.5 16t16.5 25.5t16.5 27q11 16 38 59.5t42 65.5q4 5 15 15t14 16q2 4 11.5 26t21.5 29 q-5 2 -37.5 8.5t-47 17t-14.5 32.5q0 7 4 21t4 28q-16 64 -16 80q0 32 18.5 42.5t57.5 10.5q12 0 32 -1t27 -1q36 6 41 6q9 0 21 -4q23 10 47 10q17 0 50 -4t50 -4q14 0 48 5t57 5q72 0 99.5 -34.5t27.5 -129.5v-12q0 -66 -39 -66q-7 0 -24.5 1t-25.5 1q-16 0 -46.5 -11 t-49.5 -11q-2 0 -6 1t-6 1q-13 -36 -58 -88.5t-63 -87.5q-4 -6 -46 -68.5t-65 -91.5q-12 -15 -37.5 -44.5t-42 -51.5t-24.5 -39q8 -8 16.5 -28t10.5 -23q5 -11 24.5 -29.5t22.5 -21.5q28 -36 76.5 -116t80.5 -122q7 -10 21 -33t22 -31q6 -11 30.5 -35t31.5 -42q6 2 16 2 t33 -6.5t39 -6.5q12 0 30 3.5t25 3.5q56 0 56 -91q0 -23 -13 -81q0 -4 1 -13t1 -14q0 -15 -9 -22t-21 -8t-43 -1q-48 0 -104 6t-79 6q-18 0 -46 -9t-40 -9q-16 0 -51 3t-53 3h-33q-26 0 -41 6t-20 18.5t-6 26.5t-4 36.5t-9 41.5q-14 37 -14 45q0 29 20.5 41.5t36.5 12.5h39 q-1 9 -6 16t-13.5 13.5t-11.5 10.5q-10 20 -31 40t-32 55q-8 12 -34 32t-34 37q-9 28 -15.5 38.5t-17 18t-18.5 17.5q-14 -39 -43.5 -78t-56.5 -64t-50.5 -58.5t-27.5 -65.5q5 -3 20 -10.5t20.5 -12t12 -15.5t6.5 -26v-32q0 -2 3.5 -34t3.5 -48q0 -40 -33 -55t-97 -15 q-21 0 -62 5t-64 5q-20 0 -67 -10t-81 -10q-18 0 -41 6t-35 6h-22q-21 4 -35 22.5t-14 36.5q0 9 3 33t3 37q0 3 -4 26.5t-4 37.5zM283 1282q2 0 7.5 -1t8.5 -1q4 0 8 4q-13 3 -24 10v-12zM287 162q0 -6 2 -6q1 2 4.5 2t7 0.5t4.5 3.5h-18zM297 72q0 -6 27 -6t63 8h-41 q-6 -6 -18 -6q-7 0 -18.5 2t-12.5 2zM438 1241l2 -2.5t3 -4.5t3.5 -3.5t4.5 -1.5q0 2 2 2zM610 1366q9 -2 20.5 -5t18.5 -5t8 -2q2 2 2 4q0 10 -22 10q-7 0 -16.5 -1t-10.5 -1zM641 924q12 -14 24.5 -37t24.5 -41.5t27 -30.5q-4 18 -23 45.5t-36 45.5zM645 180q3 -1 7 -4 t5 -4v8h-2q-1 0 -4 1t-4 1zM672 467q0 -2 2 -2q1 5 7 11l7 7q-6 0 -11 -5t-5 -11zM860 702q1 -1 2 -3.5t2.5 -4.5t3.5 -2h2q-2 1 -5 5.5t-5 4.5zM1001 899q4 10 16.5 26.5t16.5 24.5q-11 -9 -20.5 -24t-12.5 -27zM1036 588q1 -3 6 -16t7 -17.5t7 -15t9 -15.5t10 -11t12 -9 q-23 49 -51 84zM1071 147q14 7 45 11h10q0 2 -2 2q-53 0 -53 -10v-3zM1130 158h17q0 2 -4 2zM1239 287q0 -4 2 -7.5t7 -7.5l5 -4zM1266 1202q20 46 28 55q-23 -10 -28 -55zM1405 86q0 -2 6 -2q53 0 53 2l-2 2q-10 -2 -26 -2h-31zM1436 1378q2 -2 2 -4v-2q6 0 13.5 -3t8.5 -3 q0 5 -1 7.5t-3.5 3.5t-4.5 1.5t-5 0t-4 -0.5h-6z" />
<glyph unicode="y" horiz-adv-x="1601" d="M100 1397q0 23 8.5 33t30.5 10q15 0 42.5 -3t39.5 -3q24 0 70.5 3t68.5 3q13 0 41.5 -5t36.5 -5q13 0 54.5 4t66.5 4q49 0 73.5 -14t24.5 -54q0 -18 -7 -42.5t-7 -45.5q0 -8 2 -25t2 -22q0 -27 -49 -27q-12 0 -35 1t-33 1q2 -20 16 -39t32.5 -37t23.5 -26 q16 -27 44.5 -88t45.5 -88q4 -6 14.5 -16.5t14.5 -16.5q6 -10 19 -35.5t26 -43t35 -36.5q18 8 34 29t37 64t23 47q15 29 45.5 78t44.5 77q3 6 33.5 50t32.5 75q-10 6 -31 6h-21q-22 0 -41.5 13.5t-19.5 40.5q0 9 5 21t5 15q0 4 -5 17t-5 20q0 117 43 117q15 0 35 -10t41 -10 q11 0 35.5 1t37.5 1q12 0 34 -1t34 -1q28 0 81 5t75 5q15 0 35.5 -5t25.5 -5q7 0 17 4t16 4q19 -1 35 -16.5t16 -30.5q0 -5 -4 -20t-4 -25q0 -18 4 -51.5t4 -47.5q-10 -49 -31 -49q-7 0 -18.5 3.5t-17.5 4.5q-3 0 -17 -1t-22 -1h-27q-17 0 -37.5 -28t-37.5 -62.5t-21 -38.5 l-29 -43q-19 -24 -48.5 -89t-55.5 -91q-3 -4 -13 -10t-14 -10q-27 -27 -64.5 -95t-48.5 -84q-2 -3 -20.5 -26.5t-24 -35.5t-17 -41t-16 -68t-4.5 -91q0 -30 3.5 -89t3.5 -64q13 0 30 -7.5t25 -7.5q7 0 20 3t19 3q28 0 51 -20.5t23 -46.5q0 -11 -3.5 -30t-3.5 -25 q0 -8 1 -26.5t1 -27.5q0 -31 -9 -44t-42 -13q-7 0 -22 1t-21 1q-33 0 -107 -3t-110 -3q-28 0 -76.5 7t-60.5 7q-11 0 -31 -6t-31 -6q-34 0 -50.5 29.5t-16.5 74.5q0 10 1 30.5t1 29.5q0 7 -2 20.5t-2 20.5q0 22 41 30.5t82 6.5l41 -2q0 27 4 93.5t4 100.5q0 101 -51 189 q-5 9 -19.5 23.5t-19.5 23.5q-15 19 -37 67t-37 70q-6 10 -24.5 25.5t-24.5 25.5q-3 5 -20 29.5t-29 44.5t-23 43q-4 7 -19.5 27.5t-21.5 33.5q-4 8 -11.5 25.5t-12.5 25.5q-3 4 -24 25.5t-32 50.5q-2 6 -6 20.5t-7 18.5t-14 8.5t-30 3.5h-37q-10 0 -25 3.5t-32 18t-17 36.5 q0 8 2.5 26t2.5 23q-1 7 -5 35.5t-4 42.5zM272 1274q8 -4 22.5 -15.5t20.5 -13.5q-5 2 -19.5 15t-23.5 14zM438 1067q3 -7 45 -72q5 -8 12 -23.5t14 -27t15 -18.5q-10 16 -25.5 47t-30 54.5t-30.5 39.5zM440 1231q0 -28 13 -31q-5 5 -7 17.5t-1.5 27.5t-0.5 19 q-4 -16 -4 -33zM539 1282q2 0 6 -0.5t6 -0.5t4 1.5t2 5.5q-2 -1 -6 -1.5t-7 -1.5t-5 -3zM600 158q2 -2 12 -2q23 0 35 6h-26q-17 0 -21 -4zM641 885q0 -24 23 -39q-14 33 -23 39zM690 801q1 -7 7 -12t10 -5q-3 2 -5.5 4.5t-6 6.5t-5.5 6zM721 627q30 -38 43 -76v4 q0 11 -10.5 29t-21 30.5t-11.5 12.5zM831 240h5v6q-1 -2 -3 -3.5t-2 -2.5zM852 596q0 -10 2 -14q6 59 39 96q-15 -15 -23 -19q-2 -6 -7 -19t-8 -23.5t-3 -20.5zM932 727q4 9 14.5 25.5t14.5 25.5q-1 2 -3 2q-2 -7 -14 -22.5t-12 -26.5v-4zM981 76h10q8 0 8 8q-15 0 -18 -8z M1034 1284q0 -4 6 -4q2 0 2 2q-2 0 -3 1t-3 1h-2zM1075 1270q0 -2 8 -2h4q-4 2 -10 2h-2zM1290 1366q4 -2 15 -2q12 0 36 4q-7 0 -20.5 -1t-20.5 -1h-10zM1368 1366q7 -1 18.5 -5.5t20.5 -4.5q0 12 -23 12q-4 0 -10 -1z" />
<glyph unicode="z" horiz-adv-x="1628" d="M199 63v16q0 66 13 100.5t73 94.5q34 49 57 62q111 162 254 305q32 32 80 106.5t78 104.5q11 11 45.5 42t65 62t53.5 60q9 11 21 34.5t19 34.5q61 86 84 107q-8 -2 -22 -2q-48 0 -157 12t-167 12q-19 0 -55 -6t-57 -6q-14 0 -43 1t-43 1h-31q0 -8 1 -27t1 -30 q0 -36 -4 -86q0 -5 1 -14t1 -13q0 -39 -64 -39q-9 0 -27.5 1t-27.5 1q-5 0 -17 -1t-16 -1q-15 1 -26 6.5t-17.5 18t-10.5 22t-5.5 30.5t-2 31.5t0 37t0.5 35.5q0 36 6 96t6 86q0 12 -5 32t-5 27q0 13 10 20t23 7q9 0 28.5 -4t28.5 -4q18 0 56 6t61 6q29 0 81.5 -4t73.5 -4 q10 0 32 1t34 1q126 -8 199 -8q61 0 181 5t173 5q87 0 131.5 -11.5t44.5 -46.5q0 -6 -4 -21t-4 -22q0 -10 1 -31.5t1 -31.5q0 -19 -15 -41t-43 -51.5t-38 -42.5q-5 -7 -14 -22t-16.5 -25t-16.5 -17q-30 -23 -58.5 -70t-44.5 -65q-11 -12 -46 -44.5t-52 -53.5 q-8 -10 -30.5 -41.5t-40.5 -50t-40 -31.5v-6q0 -16 -14 -32t-36.5 -32.5t-27.5 -21.5q-39 -39 -98.5 -127.5t-75.5 -108.5t-51.5 -48.5t-61 -56t-34.5 -59.5q5 0 14.5 1.5t14.5 1.5q18 0 56 -3.5t56 -3.5q38 0 120 7t118 6q18 -1 59 -7t64 -6q2 0 22.5 -1t32 0t28 4t25 11.5 t8.5 22.5q0 18 -2 57t-2 64q0 29 7 41t30 12q10 0 34 -2t32 -2q7 0 25 2t26 2q22 0 42.5 -12.5t20.5 -30.5v-18l4 -12t3 -15t-3.5 -19t-3.5 -14q0 -41 6.5 -125t6.5 -137q0 -24 -4.5 -33.5t-15 -14t-13.5 -7.5q-156 -4 -244 -4q-21 0 -61.5 3t-59.5 3t-58 -5t-58 -5 q-28 0 -82.5 2t-79.5 2q-23 0 -68 -4t-69 -4q-34 0 -90.5 10t-83.5 10q-20 0 -54 -11t-53 -11q-104 0 -104 75zM285 68q0 -5 2 -5q8 0 8 5q-1 0 -2 -1t-2 -1t-3 1t-3 1zM338 1126q0 -12 2 -14v35q0 12 -2 16v-37zM340 1180q0 -4 2 -6v2q0 2 1 5.5t1 4.5t-1 2t-1 2 q-2 -2 -2 -10zM471 72q16 -4 33 -4h6q-24 6 -27 6q-8 0 -12 -2zM502 399q2 2 12.5 10.5t16 16t8.5 16.5q-20 -13 -37 -43zM520 1278q9 0 36.5 0.5t44 2.5t28.5 7q-6 -1 -49 -2t-60 -8zM553 68q5 0 17.5 -1t17.5 -1q18 0 30 6q-8 4 -24 4q-13 0 -41 -8zM643 1364q16 -1 47 -1 t47 -1q-6 4 -32 4h-58q-4 0 -4 -2zM717 1286q6 -2 14 -2q39 0 49 2h-63zM791 72q10 0 26.5 -1t20.5 -1h8q-6 4 -29 4q-20 0 -26 -2zM926 848q2 2 5 5.5t5 6t2 4.5l-5 -5l-5 -5t-2 -4v-2zM1253 319q0 -20 4 -26v20q0 45 -4 45v-39z" />
<glyph unicode="{" horiz-adv-x="935" d="M162 553q0 23 25.5 31.5t56.5 7.5t60 6t34 27q0 10 5 39t5 47q0 44 -4 118.5t-4 106.5q14 69 14 158q0 12 -1 33.5t-1 31.5q0 31 18.5 71t18.5 64q3 20 13 37t25.5 30.5t28 21.5t30.5 18t22 12q12 12 42.5 29t53.5 20q8 0 24.5 -2t24.5 -2q9 0 22 5t19 5q21 0 40.5 -15 t19.5 -36q0 -15 -9.5 -42t-9.5 -38q0 -5 2 -14.5t2 -13.5q0 -13 -14.5 -28t-36.5 -15q-8 0 -15.5 -1.5t-14.5 -4t-13 -5.5t-11.5 -7t-10 -7.5t-8 -7l-6 -6t-3.5 -4.5l-2 -2q-21 -21 -29.5 -31t-20 -41.5t-11.5 -73.5q0 -12 7 -39t7 -41q0 -19 0.5 -67t0.5 -75t-1.5 -66 t-5.5 -70q-6 -54 -6 -55v-44q0 -33 -39.5 -70t-71.5 -48q16 -17 34 -29.5t27 -19.5t23 -31.5t31 -69.5q16 -62 16 -127q0 -43 -7 -129t-7 -135q0 -65 23 -125.5t53 -79.5q5 -4 18 -8t19 -8q3 0 8 1t8 1q31 0 48 -18t17 -48q0 -20 -4 -30q0 -15 2 -23q0 -3 -1 -8.5t-1 -7.5 q0 -7 3.5 -20.5t3.5 -20.5q-7 -23 -29 -23q-5 0 -14 3t-13 3t-12 -1t-12 -1q-46 0 -89 13t-57 36q-37 7 -66 27t-44.5 39t-28 54t-16 50.5t-8.5 53.5l-5 37q0 28 -4 82.5t-4 74.5q0 16 1 48t1 49q0 16 -6 46.5t-6 43.5q0 32 5 70.5t5 52.5q0 27 -27 61.5t-53 34.5h-24 q-32 0 -55 14t-23 37q0 9 4 18t4 13q0 9 -5 26.5t-5 26.5zM258 498q2 14 2 18q0 8 -2 8v-26zM412 307q0 -4 1 -11.5t1 -10.5v-11q0 -14 4 -42.5t4 -45.5q2 173 2 183q-7 -23 -10 -47q0 -3 -1 -8t-1 -7zM430 756q0 -4 1 -12t1 -11v-10q0 -14 4 -42.5t4 -45.5q2 172 2 182 q-7 -23 -10 -47q0 -3 -1 -7.5t-1 -6.5zM442 1040q9 -52 11 -75q0 1 1 9t1 15q0 30 -4 58zM461 -141l6 -4v165zM621 -381h2q3 0 9.5 -3t10.5 -3q3 0 9.5 1t9.5 1q-7 2 -18.5 8t-18.5 8zM631 1384q7 -2 18.5 -8t18.5 -8l4 12h-2q-3 0 -10 3t-11 3q-3 0 -9 -1t-9 -1z" />
<glyph unicode="|" horiz-adv-x="763" d="M272 -61q0 27 9.5 63t9.5 43q0 37 -8.5 121.5t-8.5 140.5q0 17 3.5 48t3.5 48q0 27 -3.5 69t-3.5 50q0 66 11 94q0 4 -1 13t-1 14q0 11 4 30t4 27q0 38 -6 100t-6 97q0 16 4 43.5t4 36.5q0 44 -7.5 105t-7.5 85q0 23 4.5 59.5t4.5 57.5q0 17 -1 48t-1 44q0 60 19 80.5 t85 20.5q10 10 25 10q13 0 23 -3t17.5 -10t12.5 -13t9.5 -17t6.5 -16t4.5 -17t3.5 -14q0 -22 -2.5 -47.5t-5 -43t-2.5 -18.5q0 -4 1 -11.5t1 -10.5q0 -25 -4 -61t-4 -58q0 -9 5 -29t5 -33q0 -15 -4 -39.5t-4 -37.5q0 -9 5 -25.5t5 -24.5q0 -92 -8 -110q0 -16 4 -46t4 -46 q0 -17 -3 -81.5t-3 -127.5l6 -27q0 -20 -4 -61.5t-4 -63.5q0 -5 1 -16.5t1 -16.5q0 -3 -1 -6.5t-1 -5.5q0 -6 2 -19t2 -20q0 -19 -6 -60.5t-6 -68.5q12 -27 12 -55q0 -13 -5 -35t-5 -35q0 -9 9 -37t9 -51q0 -13 -2 -39t-2 -39q0 -7 1 -19t1 -15q0 -25 -2 -74.5t-2 -71.5 q4 -16 4 -22q0 -5 -2 -9.5t-4 -6.5t-2 -3q0 -2 3 -9.5t3 -14.5q0 -10 -1 -29t-1 -25q0 -21 -54 -32t-75 -11q-18 0 -31.5 8.5t-21.5 26.5t-13 34.5t-6.5 44.5t-2 43t0 44t0.5 35q0 25 -2 75.5t-2 78.5zM324 649q2 15 2 19q0 8 -2 8v-27zM346 -352h2q3 0 10 -3t11 -3q3 0 9 1 t9 1q-7 2 -18.5 8t-18.5 8zM348 307q0 -4 1 -11.5t1 -10.5v-11q0 -14 4 -42.5t4 -45.5q2 173 2 183q-7 -23 -10 -47q0 -3 -1 -8t-1 -7zM367 756q0 -4 1 -12t1 -11v-10q0 -14 4 -42.5t4 -45.5q2 172 2 182q-7 -23 -10 -47q0 -3 -1 -7.5t-1 -6.5zM379 1040q7 -40 10 -75 q0 1 1 9t1 15q0 30 -4 58zM397 -141l6 -4v165zM408 1327l4 -22h2l6 81z" />
<glyph unicode="}" horiz-adv-x="935" d="M174 1417q0 21 19 36t40 15q7 0 19 -5t22 -5q8 0 25 2t25 2q23 -3 53.5 -20t42.5 -29q4 -2 22 -12t30.5 -18t28 -21.5t25.5 -30.5t13 -37q0 -24 18 -64t18 -71q0 -10 -1 -31.5t-1 -33.5q0 -84 15 -158q0 -32 -4 -106.5t-4 -118.5q0 -18 5 -47t5 -39q5 -20 34 -27t60 -6 t56.5 -7.5t25.5 -31.5q0 -9 -5 -26.5t-5 -26.5q0 -4 4 -13t4 -18q0 -23 -23 -37t-55 -14h-24q-26 0 -53 -34.5t-27 -61.5q0 -14 5 -52.5t5 -70.5q0 -13 -6 -43.5t-6 -46.5q0 -17 1 -49t1 -48q0 -20 -4.5 -74.5t-4.5 -82.5q-1 -6 -4 -32t-6.5 -42.5t-10.5 -44.5t-18.5 -47 t-28 -40t-42 -35t-57.5 -20q-14 -23 -57 -36t-89 -13q-4 0 -12 1t-12 1t-13 -3t-14 -3q-22 0 -29 23q0 7 3 20.5t3 20.5q0 2 -1 7.5t-1 8.5q2 8 2 23q-4 10 -4 30q0 30 17 48t49 18q3 0 8 -1t8 -1q6 4 19 8t18 8q30 19 53 79.5t23 125.5q0 49 -7.5 135t-7.5 129q0 61 17 127 q17 45 31 69.5t23 31.5t27 19.5t34 29.5q-32 11 -71.5 48t-39.5 70v44q0 1 -6 55q-4 31 -5.5 70t-1.5 66t0.5 75t0.5 67q0 14 7 41t7 39q0 42 -11.5 73.5t-20 41.5t-29.5 31l-2 2q-1 2 -3.5 4.5l-6 6t-8 7t-10 7.5t-11.5 7t-13 5.5t-14.5 4t-15.5 1.5q-22 0 -37 15t-15 28 q0 4 2.5 13.5t2.5 14.5q0 11 -9.5 38t-9.5 42zM256 1380l4 -12q7 2 18.5 8t18.5 8q-3 0 -9 1t-9 1q-4 0 -11 -3t-10 -3h-2zM266 -385q3 0 9.5 -1t9.5 -1q4 0 10.5 3t9.5 3h2l-4 12q-7 -2 -18.5 -8t-18.5 -8zM461 20v-165l6 4q-4 161 -6 161zM473 989q0 -20 2 -24q3 35 10 75 l-8 7q-4 -28 -4 -58zM485 817l2 -182q0 17 4.5 45.5t4.5 42.5v10q0 3 1 11t1 12q0 2 -1 6.5t-1 7.5q-2 17 -11 47zM504 369l2 -183q0 17 4 45.5t4 42.5v11q0 3 1 10.5t1 11.5q0 2 -1 7t-1 8q-3 24 -10 47zM668 516l2 -18v26q-2 0 -2 -8z" />
<glyph unicode="~" horiz-adv-x="1413" d="M266 702q0 34 65 72l11 6q27 20 42 29.5t44.5 25t61.5 22.5t67 7q17 0 36 -3.5t38 -10t35.5 -13t33.5 -15.5t27.5 -14.5t22.5 -12.5l12 -7q20 -22 98 -22q16 0 33 4t28.5 9.5t21.5 11.5t14 9l4 3q11 4 16 12t5.5 15t6.5 12.5t21 5.5q10 0 21 -4t22 -11.5t18 -13t17 -13.5 l10 -9q15 0 32 -17t17 -37q0 -11 -6.5 -24t-14 -21t-16.5 -17t-10 -11q-4 -4 -20.5 -21t-20 -20t-17 -15t-19.5 -14.5t-20 -10.5t-25 -9.5t-28.5 -5t-36.5 -4.5t-43 -1q-64 0 -134 29t-93 61q-3 2 -8.5 6.5t-9.5 7t-12.5 5t-20.5 2.5q-96 0 -158 -62q0 -34 -31 -34 q-22 0 -37.5 13.5t-28 31t-24.5 22.5q-2 1 -9.5 5t-11 6t-9.5 6.5t-9 9t-5.5 11t-2.5 13.5zM383 678q1 -3 1.5 -8.5t1.5 -9.5t3 -7q4 0 11 1t10 1q-8 4 -27 23zM485 760q17 1 42.5 2t47 2.5t38.5 2.5t20 1q-9 3 -47 8q-28 0 -61.5 -7.5t-39.5 -8.5zM1044 754q17 -11 23 -11 l10 19q-5 -2 -33 -8z" />
<glyph unicode="&#xa1;" horiz-adv-x="806" d="M252 1325q0 5 1 15.5t1 15.5t-1 15t-1 15q0 28 11.5 47.5t27 32.5t18.5 19q21 25 46 33t73 8q17 0 24.5 -3.5t15.5 -11.5t17 -14q3 -1 8 -2.5t18 -9t22.5 -18t17.5 -29.5t8 -43v-23q0 -6 1 -17.5t1 -17.5q-2 -17 -16.5 -33t-14.5 -24q-7 -25 -35.5 -44t-56.5 -22 q-3 0 -8 1.5t-8 1.5q-8 0 -21 -4.5t-24 -4.5q-16 0 -26 5.5t-22 15t-22 14.5q-12 10 -31 39q-24 17 -24 43zM256 51q0 8 6 30t12 34q-10 17 -10 100q0 20 8.5 42t8.5 34v149q0 21 10 82t10 74q0 10 -1 27t-1 24t1 21t1 24v29q21 151 21 219v31q0 7 1 22.5t1 22.5 q-5 15 -5 18q3 21 21.5 35t40.5 14h20q7 0 21.5 2t21.5 2q41 0 41 -32q0 -4 -1 -13.5t-1 -13.5q0 -32 8.5 -115t8.5 -139q0 -45 9 -94t9 -78q0 -31 -14 -59q26 -93 26 -221v-21q0 -15 6.5 -41.5t6.5 -38.5q0 -19 -9.5 -45t-9.5 -37q0 -33 6.5 -63t6.5 -43q0 -31 -19 -48.5 t-51 -17.5q-4 0 -14.5 1t-14.5 1q-10 0 -54 -3t-77 -3q-51 0 -51 88zM319 1423q10 15 19 19q-12 -2 -16 -6zM330 408q0 -2 1 -7t1 -8q3 -24 10 -47l-2 182q0 -17 -4 -45.5t-4 -42.5v-10q0 -3 -1 -10.5t-1 -11.5zM377 838q2 0 2 8l-2 18v-26zM379 1368q0 -4 1.5 -5t12.5 -1 q21 0 21 6q0 4 -4 5l-4 1q-9 -2 -20 -2q-7 0 -7 -4zM420 758q0 -2 1 -7t1 -8q3 -24 10 -47l-2 183q0 -17 -4 -45.5t-4 -42.5v-11q0 -3 -1 -10.5t-1 -11.5zM432 473l8 -6q4 28 4 57q0 6 -1 14t-1 9q-4 -42 -10 -74zM461 186l12 -59l-6 82h-2zM465 1296q2 -1 8 2.5t9.5 8.5 t0.5 8q-8 -13 -18 -19z" />
<glyph unicode="&#xa2;" horiz-adv-x="1435" d="M170 760q9 88 40 157t56 101q35 44 108.5 107t104.5 94q35 24 81 42.5t134 36.5q3 0 19 3.5t24 3.5h8q-1 9 -6.5 47.5t-5.5 58.5q0 27 12 57q0 4 -1 11.5t-1 11.5q0 19 12.5 25t37.5 6h36q7 0 21 1t20 1q23 0 38 -6.5t22.5 -17t11 -28.5t4.5 -35.5t3.5 -44.5t6.5 -49 q1 -6 1 -18t1 -18q54 -3 114 -21t97 -41q1 0 10 -5t16 -9.5t15.5 -11.5t13.5 -16t5 -19q0 -12 -14.5 -31t-16.5 -31l-14 -57v-12q0 -8 -4 -14.5t-12 -10.5t-19 -4q-18 0 -42.5 13.5t-25.5 13.5q-12 2 -37.5 11t-42.5 9q-44 3 -109.5 14t-103.5 11q-79 0 -163 -56 q-66 -26 -97 -54t-55 -75q-9 -9 -16 -24.5t-11.5 -31t-7.5 -40t-4.5 -41t-2.5 -45t-1 -41v-39.5v-31q7 -28 26.5 -64t34 -56t17.5 -23q8 -10 13.5 -16.5t13 -13.5t12 -10.5t14 -9t16.5 -8.5t22 -9.5t27 -10.5t35.5 -13t43.5 -17q67 -27 135 -27q2 0 6.5 1t7.5 1q2 0 15.5 -2 t21.5 -2q41 0 88 12.5t73 25.5l27 13q7 3 32 18t38 15q24 0 42 -15t21 -36q0 -2 -1 -7.5t-1 -7.5q0 -3 14.5 -34t14.5 -50q0 -20 -8 -28q0 -2 1 -5.5t1 -5.5q0 -20 -33 -37.5t-47 -17.5q-7 -7 -51.5 -20t-59.5 -15q-7 -3 -20.5 -9.5t-21.5 -9.5t-21 -6t-25 -3q-10 0 -26 4 q-17 -17 -17 -96q0 -19 6.5 -51.5t6.5 -43.5q0 -35 -156 -43q-30 2 -45.5 20t-15.5 46q0 14 4 35t4 28q0 16 -5 48t-5 47v12q-74 16 -140 51t-112.5 70.5t-53.5 38.5q-6 5 -19 11.5t-18 10.5q-18 14 -39 40t-35 47.5t-30.5 49.5t-19.5 33q-12 18 -21 39t-15.5 47.5t-10.5 45 t-10 52.5t-9 48q0 8 -1 27.5t-1 27.5zM279 809l2 2q61 123 61 143l-12 -16q-10 -14 -20.5 -40t-19.5 -54.5t-11 -32.5v-2zM342 621q0 -4 1 -11.5t1 -11.5q0 -8 3.5 -17.5t10 -20.5t11.5 -18.5t13.5 -19.5t10.5 -14q-32 57 -49 113h-2zM387 385l10 -14q7 -16 21.5 -27.5 t34 -21.5t24.5 -13q-20 17 -28 35q-10 1 -21.5 8t-19 14t-14 13t-7.5 6zM512 1092q35 14 88 41q6 3 14.5 5.5t15 4t15 4.5t14.5 6q-8 0 -20 -3.5t-16 -4.5q-18 -7 -38 -15t-31.5 -12t-22 -8.5t-15 -8.5t-4.5 -9zM598 229q41 -18 92 -28q-7 5 -25.5 11.5t-38 11.5t-28.5 5z M602 328q0 -1 0.5 -2.5t1.5 -3.5t2 -4.5t2 -4.5q12 -1 24.5 -3.5t21 -5.5t20.5 -6.5t22 -4.5q-16 5 -47 17t-47 18zM768 -115zM807 -23h12q0 7 -10 17q-2 -4 -2 -17zM854 1356q0 -8 2 -21.5t5 -26t7 -12.5q0 12 -4 47t-4 54q-4 -6 -4 -21q0 -3 -1 -10t-1 -10zM856 1419 q0 -4 2 -6v17q-2 -4 -2 -11zM979 1227q3 -1 5.5 -2t4.5 -2l4 -2l4 -2q15 -7 29.5 -9.5t21 -1.5t11.5 0q10 -1 29 -10.5t28 -9.5q2 0 2 2q0 6 -58 21.5t-81 15.5zM1061 242q38 10 65 22l-6 8q-30 -20 -47 -20q-1 0 -2 1t-2 1q-8 -4 -8 -10v-2z" />
<glyph unicode="&#xa3;" horiz-adv-x="1411" d="M219 633q0 21 10.5 28t32.5 7h25q13 0 41 1t43 1q0 2 -1 7t-1 7q0 18 8 43t8 37q0 16 -1 48t-1 48q0 12 3 31t3 29q0 15 -5 50t-5 54q0 24 14.5 63t14.5 60v10q2 17 8.5 34t15 31.5t18 27t19.5 22.5t17.5 16.5t13.5 11.5l6 5q133 133 342 133q30 0 75.5 -8.5t71.5 -8.5 q78 -4 150 -41.5t72 -70.5q0 -10 -12.5 -36.5t-25 -49t-12.5 -23.5q-3 -6 -10 -31t-16.5 -35t-28.5 -10q-14 0 -29.5 5.5t-25.5 11.5t-22.5 14.5t-14.5 9.5q-45 31 -125 31q-108 0 -141 -33q-12 -16 -36.5 -30t-40.5 -36.5t-24 -72.5q0 -4 1 -19.5t1 -25.5q0 -29 -12 -95.5 t-12 -105.5q0 -34 8 -108q48 10 96 10q16 0 44 -7t48 -7h33q27 0 46.5 -16.5t19.5 -45.5q0 -20 -10.5 -64t-10.5 -51q4 -20 4 -32q-7 -35 -67 -35q-17 0 -57.5 6t-65.5 6q-30 0 -70 -8v-16q0 -24 -9 -59.5t-9 -51.5q0 -15 5.5 -41.5t12.5 -26.5q8 0 30.5 3.5t35.5 3.5 q57 0 163.5 -3.5t163.5 -3.5q25 0 40 -0.5t37.5 -4.5t35 -11t22 -21.5t9.5 -35.5q0 -4 -3 -16t-3 -19q0 -2 1 -7t1 -7q0 -10 -3 -31t-3 -31q0 -5 2 -14t2 -15q-7 -30 -58 -30q-6 0 -18 1t-17 1q-15 0 -36.5 -4t-34.5 -4q-55 0 -128 4t-126 4q-52 0 -170 -8q-48 0 -123.5 4 t-110.5 4q-6 0 -17 -2t-17 -2q-43 0 -70 16t-27 47q0 6 2 18t2 19q0 13 -3 41t-3 51q0 21 7 29t19 8t42 4t61 14q3 1 8 2t7 2t4 4t2 9q1 0 4 -2t4 -2q-2 6 -2 22q0 7 1 21.5t1 21.5q0 58 -16 129q-8 -2 -23 -2h-22q-7 0 -20.5 -2t-20.5 -2q-22 0 -41 16.5t-19 41.5 q0 14 5 37t5 36q0 15 -6 34t-6 34zM317 133q7 2 35.5 6.5t36.5 12.5q-4 -1 -25.5 -3.5t-34 -6t-12.5 -9.5zM326 565q0 -2 1 -6t1 -6q10 2 32 2q-25 10 -30 10h-4zM453 174l6 6t10 6q-1 3 -1 13t-1 14q0 -2 -2 -2q0 -25 -12 -37zM483 653l6 21q-6 -4 -6 -21zM492 983 q0 -4 1 -10.5t1 -9.5l8 32q0 28 -8 41q0 -8 -1 -26.5t-1 -26.5zM500 705q0 2 3 9.5t3 12.5q-6 -9 -6 -18v-4zM500 1102q2 1 2 2zM516 61h16q75 0 140 9q-13 0 -29 4q-8 -4 -14 -4q-12 -1 -49.5 -2.5t-63.5 -6.5zM553 1192l10 10q-4 0 -4 2zM645 545h66q12 0 36 2t37 2 q25 0 35 -2q-6 6 -18 6q-2 0 -6.5 -1t-6.5 -1q-4 0 -12 1t-12 1q-2 0 -6 -1t-6 -1q-6 0 -14.5 1t-10.5 1q-15 -6 -33 -6q-5 0 -15 1t-15 1q-11 0 -19 -4zM696 1255q0 -1 2 -3t2 -3q18 15 70 19q-16 4 -27 4h-8q-12 -3 -19 -6t-12 -6.5t-8 -4.5zM731 70h2q4 0 4 2q-1 0 -3 -1 t-3 -1zM805 1270l31 4q-4 2 -13 2h-14q-4 -4 -4 -6zM981 1255q8 -3 18 -6.5t20.5 -7.5t18.5 -6q0 8 -12.5 13t-23.5 6t-21 1zM1018 1339q36 -6 39 -6q-10 6 -39 6zM1051 113q5 0 15 1t15 1h9q0 10 2 16q-5 -4 -12 -6.5t-16 -6t-13 -5.5zM1085 1319l13 -6q0 1 1 2t1 2 q-2 0 -7.5 1t-7.5 1z" />
<glyph unicode="&#xa5;" horiz-adv-x="1679" d="M145 1296q0 13 -1.5 36t-1.5 33t4 25t14.5 21.5t29.5 14t50 10t75 2.5q28 0 84 -3t82 -3q18 0 58 3t61 3q44 0 68 -13t24 -47q0 -9 -1 -27.5t-1 -27.5q0 -5 2 -18t2 -21q0 -48 -8.5 -62t-34.5 -14q-7 0 -22.5 1t-22.5 1h-3q-19 0 -19 -12q0 -10 18 -28t21 -33 q2 -3 3.5 -14.5t4.5 -16.5q2 -7 18.5 -25.5t20.5 -25.5q11 -17 29.5 -58t31.5 -61q3 -4 32.5 -42.5t41.5 -66.5q2 -4 3 -12.5t3 -11.5q2 -4 9 -13.5t9 -15.5q7 3 14.5 11.5t15.5 20.5t11 15q5 7 20.5 22.5t20.5 24.5t12.5 30t12.5 30q6 10 19.5 28.5t19.5 28.5q7 12 40.5 85 t65.5 99q0 5 6 29h-20q-37 0 -52 9.5t-28 45.5q-1 7 -5.5 17.5t-4.5 19.5q0 6 1 18t1 17q-1 6 -3.5 19.5t-2.5 19.5q0 18 14 49t31 31q12 0 31.5 -4t29.5 -4q13 0 38 2t38 2q19 0 52 -4t46 -4q24 0 68.5 7t71.5 7q147 0 147 -68q0 -8 -5 -28.5t-5 -32.5q0 -3 1 -8.5t1 -8.5 q-4 -16 -4 -22q0 -7 4 -24t4 -25q0 -29 -35 -29q-11 0 -33.5 5t-35.5 5q-24 0 -45 -23.5t-41 -61t-29 -48.5q-24 -28 -80 -104q-6 -9 -21 -25t-20 -24q-20 -28 -39.5 -76t-19.5 -74q5 0 15 -1t15 -1t15.5 1t15.5 1q47 0 72.5 -11t25.5 -46q0 -6 -2 -18.5t-2 -18.5 q0 -7 2 -21.5t2 -21.5q0 -18 -13 -31.5t-44 -13.5q-15 0 -41 4t-29 4q-95 0 -149 -14q-11 -3 -19 -10.5t-16.5 -20.5t-13.5 -18q6 -12 6 -23q0 -23 -19 -51q9 0 26 3t26 3q21 0 75.5 -5t85.5 -5q9 0 29 2t29 2q27 0 49 -14t22 -41q0 -12 -4 -26.5t-4 -21.5q0 -8 1 -21t1 -17 q0 -20 -23.5 -29.5t-82.5 -9.5q-18 0 -54 6t-55 6q-21 0 -54 -9.5t-48 -9.5q-5 -24 -8 -32q31 -10 37 -15q24 4 38 4q34 0 56 -14.5t22 -44.5q0 -6 -1 -17.5t-1 -17.5q0 -7 3 -20t3 -21q0 -11 -8 -35q4 -10 4 -26q0 -39 -63 -39q-8 0 -26 1t-27 1q-12 0 -33 -1t-29 -1 q-12 0 -30 3t-29 3q-14 0 -47.5 -8t-55.5 -8q-12 0 -32.5 4t-30.5 4q-9 0 -31 -1t-31 -1q-43 5 -74.5 24.5t-31.5 51.5q0 14 8 26q-8 20 -8 41v11q0 23 1 34.5t7 26.5t21.5 21t40.5 6q11 0 34 -2.5t35 -2.5q15 0 21.5 7t7 13t0.5 25q-5 1 -39 10t-53 9t-78 -5t-82 -5 q-49 0 -70.5 26t-21.5 99q0 24 9 35.5t32 11.5q9 0 29 -2t28 -2q142 10 158 10q7 0 26 -3t29 -3q17 0 26 18t9 41q0 24 -35 74q-3 0 -8.5 -1t-7.5 -1q-16 0 -45 4t-45 4q-12 0 -37 -2t-37 -2q-28 0 -47 8q-8 -4 -25 -4q-26 0 -42.5 17t-16.5 42q0 14 6 29q-10 17 -10 43 q0 12 6 20.5t20 14t27 8.5t36 4t37 1.5t40 0.5h12q-9 24 -37.5 63t-38.5 62q-6 12 -11.5 28t-10.5 26.5t-23.5 37.5t-52.5 70q-9 11 -14.5 22.5t-12 29.5t-10.5 28q-14 33 -40 48t-51 16t-49 4.5t-38.5 23t-14.5 61.5zM260 1321l12 -6q9 3 34.5 5.5t35.5 6.5h-10 q-12 0 -35 -3t-37 -3zM399 1186q2 -5 11 -21t12 -26q1 -3 2.5 -12.5t3 -14.5t5 -11t9.5 -9q-20 69 -43 94zM547 1075q5 -21 24 -45q-3 5 -6.5 15.5t-7.5 18t-10 11.5zM596 1358q3 -1 5.5 -6t4.5 -6q0 14 -6 14q-4 0 -4 -2zM651 117q0 -2 2 -2q1 2 6 5l5 3q-2 0 -5 1t-6 1v-2 q0 -1 -1 -3t-1 -3zM678 848q5 -19 12 -19q1 0 2 1t2 1q-3 2 -8.5 8.5t-7.5 8.5zM733 641q1 -3 8 -10q0 1 1 3t1 3q0 4 -10 4zM829 516q0 -3 1 -7.5t1 -6.5q0 3 3.5 16.5t3.5 20.5v6q-9 -9 -9 -29zM848 135q40 -4 61 -4h15q-28 8 -54 8q-16 0 -22 -4zM911 717q6 0 15.5 17.5 t11.5 27.5q-3 -5 -14 -20t-13 -25zM995 829q3 6 33.5 52t30.5 67q-6 -13 -32.5 -52.5t-31.5 -66.5zM1100 1030q25 37 33 62q-22 -25 -33 -62zM1315 1260q1 -1 1 -4t1 -3q0 2 2 3.5t2 3.5h-6z" />
</font>
</defs>
</svg>
