<?xml version="1.0" encoding="utf-8"?>
<!-- Generator: Adobe Illustrator 18.0.0, SVG Export Plug-In . SVG Version: 6.00 Build 0)  -->
<!DOCTYPE svg PUBLIC "-//W3C//DTD SVG 1.1//EN" "http://www.w3.org/Graphics/SVG/1.1/DTD/svg11.dtd">
<svg version="1.1" id="Layer_1" xmlns="http://www.w3.org/2000/svg" xmlns:xlink="http://www.w3.org/1999/xlink" x="0px" y="0px"
	 viewBox="0 0 152 90.9" style="enable-background:new 0 0 152 90.9;" xml:space="preserve">
<style type="text/css">
	.st0{fill:#150D1A;stroke:#FFFFFF;stroke-width:3;stroke-miterlimit:10;}
	.st1{display:none;}
	.st2{fill:#0173A4;}
	.st3{opacity:0.6;}
	.st4{clip-path:url(#SVGID_2_);fill-rule:evenodd;clip-rule:evenodd;fill:#FFFFFF;}
	.st5{fill:#FFFFFF;}
	.st6{fill:none;}
	.st7{fill:#E6985A;}
	.st8{fill:#8D2828;}
	.st9{fill:#FFFFFF;stroke:#FFFFFF;stroke-width:3;stroke-miterlimit:10;}
	.st10{fill:none;stroke:#FFFFFF;stroke-miterlimit:10;}
	.st11{fill:#0173A4;stroke:#0173A4;stroke-width:3;stroke-miterlimit:10;}
	.st12{opacity:0.7;}
	.st13{display:none;fill:#150D1A;stroke:#FFFFFF;stroke-width:3;stroke-miterlimit:10;}
	.st14{fill:#0074A3;}
</style>
<g>
	<polyline class="st5" points="59,58 63.3,58 63.8,58 90.4,58 90.7,58 95.7,58 	"/>
	<g>
		<g>
			<g>
				<g>
					<path class="st14" d="M59.1,57.5c-0.1,0.1,0.1,0.3-0.1,0.1C59,57.5,59.1,57.4,59.1,57.5z"/>
					<path class="st14" d="M95.2,57.7c-0.4,0.8-1,0-1.5,0.5c-0.1,0,0-0.4-0.1-0.3c-0.5,0.6-1.2,0.2-1.7-0.2l0-0.1
						c-0.1-0.1-0.2,0.3-0.3,0.3c0-0.1,0-0.1,0-0.2c0,0.2-0.2,0.1-0.3,0.3c0-0.1,0-0.3-0.1-0.4l-0.1,0.3c-0.2,0.6-0.4,0-0.7,0.3
						c0-0.1,0-0.1,0-0.2c-0.4,0.4-0.9,0.3-1.3,0.5c0-0.1,0-0.3,0-0.4c0,0.3-0.2,0.4-0.3,0.4c-0.1-0.3-0.2,0.3-0.3,0.1l0-0.1
						c-0.1,0.3-0.2-0.2-0.2,0.2l-0.1-0.2c0,0.4-0.1-0.2-0.2,0l0,0.1c-0.1,0.1-0.1-0.1-0.2,0l0,0c-0.2,0.1-0.3-0.1-0.3,0.2
						c-0.1-0.3,0.2-0.1,0.1-0.5c-0.6,0.3-1.2,0.3-1.7,0.3c-0.1-0.1-0.1-0.2-0.1-0.3c-0.1,0.1-0.2,0.1-0.3,0.2c0,0,0-0.2-0.1-0.2
						c-0.1-0.1-0.1,0.4-0.2,0.2c0-0.1,0.1-0.2,0-0.3c-0.1,0.2-0.2,0.2-0.3,0.3c0-0.1,0-0.1,0-0.2c-0.1,0.3-0.2-0.1-0.3,0.1l0-0.2
						c-0.2-0.2-0.1,0.4-0.2,0.3c0-0.1,0-0.1,0-0.2c-0.1,0.3-0.4,0.2-0.5,0.3c0,0,0-0.1,0-0.1c-0.2,0-0.3-0.1-0.5,0.1
						c-0.1-0.1,0-0.5-0.1-0.4c0,0.4-0.3,0.2-0.2,0.6c-0.1-0.1-0.4-0.2-0.5-0.1c0.1-0.1-0.1-0.5,0-0.5l-0.1-0.2
						c0-0.2,0.1,0.1,0.1-0.1c-0.1,0-0.2,0.2-0.3,0.1c-0.1,0.2-0.2,0.7-0.4,0.7c0.1-0.1,0-0.4,0-0.5l-0.2,0.7c-0.1,0,0-0.3-0.1-0.2
						c0,0.1,0,0.2-0.1,0.2c0,0-0.2,0.1-0.3-0.3c0-0.1,0.1-0.1,0-0.2c-0.1,0-0.1,0.1-0.2,0.1l0,0c-0.1-0.1-0.2,0.2-0.1,0.4
						c0,0,0-0.2,0.1-0.1c-0.1,0.2-0.2,0.3-0.3,0.3c0-0.1,0-0.2,0-0.3c-0.1,0.3-0.3,0.4-0.5,0.5c0,0.2,0.1-0.3,0.1-0.2
						c-0.2-0.2-0.4,0.3-0.6,0c0,0,0,0.2,0,0.2c-0.1,0-0.1-0.3-0.2-0.2c0-0.1-0.1,0-0.1,0.1c0,0.1,0-0.1,0-0.1
						C79.6,59,79.2,59.2,79,59c0,0.1-0.1,0.4-0.2,0.3l0-0.2c0-0.1-0.2,0-0.2-0.2c-0.1,0.3,0.4-0.2,0.3,0c0-0.2-0.2,0.4-0.2,0.1
						c-0.1,0-0.2,0.3-0.3,0.1c0,0,0.1-0.3,0-0.3c-0.1,0,0,0.1-0.2,0.2L78.2,59c0,0.2-0.1,0-0.1,0.2c0-0.2-0.2,0.1-0.2-0.3l0-0.3
						c-0.1,0-0.1,0.3-0.1,0.4c0,0,0-0.1,0-0.1c0,0.4-0.1,0-0.2,0.3c-0.1-0.2-0.3,0-0.4-0.3c-0.1,0.1-0.2,0.3-0.3,0.2
						c0,0,0.1-0.1,0.1-0.2c-0.1-0.1-0.1,0-0.2,0.1c0-0.1-0.1-0.3-0.2-0.4c-0.1,0.1-0.1,0.4-0.1,0.5c-0.1-0.4-0.3,0.3-0.4-0.1
						c0-0.1,0.1-0.2,0.1-0.3c-0.1-0.4-0.2,0.3-0.3,0.1l0,0.4c-0.1-0.2-0.2,0.2-0.2-0.2c0,0.1-0.2-0.1-0.2,0.2
						c-0.2-0.3-0.6,0.2-0.7-0.5c0,0.1-0.1,0-0.1,0.2c0.1,0.2,0.1-0.1,0.1,0c0,0,0,0.1,0,0.2c-0.1-0.1-0.1-0.1-0.1-0.4
						c-0.2-0.2-0.2,0.6-0.4,0.5c0-0.1,0-0.2-0.1-0.2l-0.1,0.3C74,59.3,74,59,74,58.7c-0.1,0-0.2,0-0.2,0.2l-0.1-0.3
						c0.1,0.2-0.1,0.2-0.1,0.2l0-0.1c0-0.1-0.1,0-0.1,0c0,0.2,0.1,0.2,0.1,0.3c0,0.1-0.1,0.1-0.1,0.2c0-0.2-0.1-0.2-0.2-0.2
						c-0.1-0.1-0.1,0.2-0.1,0.2c0-0.1-0.1,0-0.1-0.2c0,0,0.1,0.1,0.1,0c0-0.1,0-0.3-0.1-0.2c-0.1,0.1,0,0.5-0.1,0.3
						c0-0.1,0-0.2,0.1-0.2L73,58.9l0,0.2c0-0.1,0-0.1,0-0.1c0,0.2-0.2,0.1-0.2,0.3c-0.1,0-0.1-0.2-0.2-0.2l0,0
						c-0.1-0.1-0.2,0-0.2,0.1l0,0c0,0-0.1,0-0.2,0.1c-0.1-0.2,0-0.8-0.1-0.6c-0.1,0-0.2,0.4-0.1,0.6c-0.2-0.2-0.4,0.2-0.6-0.1
						c0,0.1,0,0.1-0.1,0.2c-0.3-0.1-0.6,0.3-0.8-0.2c0.1-0.1,0-0.2,0-0.3c-0.1,0.2-0.1-0.2-0.1,0.1c0,0.2,0,0.3,0.1,0.4
						c-0.2,0.1-0.4,0.1-0.5-0.1c0,0.1,0,0.2,0,0.2c0-0.3-0.1-0.4-0.2-0.3l0,0.2l-0.1-0.2c0,0.1,0,0.4-0.1,0.2c0-0.1,0-0.2,0-0.2
						c-0.1,0.2-0.2,0.4-0.3,0.3l-0.1-0.3c0,0-0.1,0.2,0,0.3c-0.2-0.2-0.3-0.2-0.3-0.4c-0.3,0.6-0.7,0.6-1,0.6l0-0.1
						c-0.1-0.1,0,0.3-0.1,0.2c0-0.1-0.1-0.3,0-0.5c-0.1-0.2-0.2,0.3-0.3,0.3c0,0.2,0.1-0.1,0.1,0.1c0,0.1-0.2-0.1-0.2,0.1
						c0-0.1,0-0.3,0-0.4l-0.1,0.1c-0.1-0.3,0.2-0.6,0.1-1l-0.1,0c-0.1-0.3,0.2-0.3,0-0.4c-0.1,0.1-0.1,0.6-0.1,0.7
						c-0.2,0.1-0.1,0.7-0.3,0.7c0-0.2,0.1,0,0.1-0.3c-0.1-0.2-0.2,0.1-0.2,0c0.1,0.1,0,0.4,0,0.5c-0.1-0.1,0.1-0.3-0.1-0.3
						c0,0.2-0.1,0.3,0,0.4c0,0.4-0.1-0.1-0.2,0.2c0-0.3,0.1-0.6,0-0.8c0,0.3-0.2,0.4-0.1,0.7c-0.1-0.1-0.1-0.3,0-0.4
						c-0.1-0.2-0.2,0.5-0.2,0l0,0.3c0-0.1-0.1-0.2-0.1-0.3c-0.1,0-0.2,0.4-0.2,0c0,0-0.2,0-0.1,0.3c0.1,0.2,0.1-0.2,0.2,0.2
						c-0.1-0.3-0.1,0-0.2,0.1l0-0.2c0,0.1-0.1,0-0.1,0.2c0-0.1,0-0.2,0-0.2l0,0.2c-0.1,0.1,0-0.4-0.2-0.3l0.1-0.2
						c0,0-0.1-0.2-0.1-0.1c0,0.2-0.1,0.5-0.1,0.6c-0.1,0.1,0-0.2-0.1,0l0.1-0.3c0-0.1-0.1-0.4-0.2-0.3c-0.1,0.1-0.2,0.4-0.1,0.5
						c-0.1,0-0.1-0.1-0.1-0.3c-0.1,0.1,0,0.2-0.1,0.4c0-0.1-0.2-0.3-0.2-0.6l0.1-0.4l-0.1,0c0.1-0.3,0-0.2,0-0.5
						c0,0-0.1,0.1-0.1,0.1c0.1,0.5-0.2,0.7-0.1,1.1c-0.2,0.1-0.1-1.1-0.3-0.4c0,0.1-0.1,0.5,0.1,0.3c-0.1,0-0.1,0.4-0.2,0.3
						c0.1-0.2-0.1-0.4,0-0.7c0,0.1,0.1,0.1,0.1,0.1c0-0.2,0-0.4-0.1-0.4c-0.1,0-0.2,0.1-0.2,0.3c0,0.3,0.1,0,0.1,0.2
						c-0.1,0.1-0.2-0.3-0.2,0.2c0.1,0,0.1,0.2,0.1,0.4l-0.1,0.1l0-0.2c-0.2-0.1-0.1,0.3-0.2,0.3l-0.1-0.3c0-0.3,0.2,0.1,0.2-0.3
						c-0.1,0-0.1,0.2-0.2,0.1c0,0,0.1-0.1,0.1-0.1c0,0-0.1-0.6-0.2-0.3c-0.1,0.1,0,0.2,0,0.3c-0.2,0.1-0.2,0.2-0.3,0.3
						c0-0.3-0.2,0-0.1-0.4c0.1,0.2,0.3,0.2,0.4-0.1c-0.1-0.4,0.1,0.1,0.2-0.4c-0.1,0-0.1-0.4-0.2-0.7c0,0-0.1,0.1-0.1,0.1
						c0,0.2,0,0.2,0,0.5c-0.2-0.1-0.3,0.1-0.4,0.3c-0.1-0.1,0-0.4,0-0.4c-0.2,0.1-0.4,0-0.6,0c0.1,0.4-0.2,0.1-0.1,0.4
						c0.1,0.1,0.2,0.4,0.1,0.6c-0.1,0,0-0.2,0-0.3c-0.1,0.2-0.1-0.3-0.2,0c0.2-0.1,0-0.5,0.1-0.8c-0.1,0.2,0-0.2-0.1-0.2
						c-0.1,0.2-0.3,0.3-0.4,0.4c-0.2-0.3-0.4,0-0.6,0c-0.1-0.2,0-0.5-0.1-0.6c-0.1,0,0.1,0.4-0.1,0.2l0-0.1c0,0.1-0.3-0.2-0.3,0.3
						l0-0.4c0,0-0.1,0.1-0.1,0.1c0-0.1,0-0.2,0-0.3c-0.1-0.3-0.2,0-0.3,0.1l0.1,0.2c-0.2,0.2-0.3,0-0.5,0l0-0.2l-0.1,0.1
						c0-0.2-0.1-0.4-0.1-0.2l0.3-0.5c0.1,0.1-0.1,0.3,0,0.5c0,0.2,0.2,0.1,0.2-0.1c-0.1,0-0.1,0-0.1,0.1c0-0.3,0.1-0.3,0.1-0.5
						c0,0-0.1-0.1-0.1,0c0.1-0.2,0.1-0.2,0.2-0.2c-0.1,0.1,0,0.2,0,0.3c0-0.3,0.1-0.4,0.2-0.3c0.1,0.3,0.2-0.2,0.4-0.1
						c-0.1,0.3-0.1,0.5-0.2,0.6c0.1,0.1,0.1,0,0.2,0.1c0-0.2,0.1-0.5,0.2-0.6l0,0.2c0.1-0.1,0.1-0.4,0.2-0.3
						c0.2,0.1,0.5,0.1,0.7,0.1l0,0.2c0.1-0.4,0.3-0.2,0.5-0.4c0.2,0.2,0.5-0.2,0.6,0.2c0.4-0.2,0.7-0.3,1.2-0.2l-0.1,0.3
						c0.1-0.2,0,0.2,0.1,0.1c-0.1-0.2,0.1-0.3,0.2-0.5c0.2,0.2,0.4,0,0.6-0.2l0,0.2c0.2-0.4,0.4,0,0.6,0c0,0.1,0.1,0.3,0.1,0.3
						c0.1-0.3,0.2-0.3,0.3-0.5c0.1,0,0.3,0.1,0.4,0.2c0.4-0.5,0.9-0.2,1.4-0.4l0,0.2c0.5-0.5,1,0,1.4-0.3l0,0.4
						c0.1,0.1,0.3-0.1,0.2-0.4c0.1,0.1,0.3-0.2,0.4,0.1c0.1,0.1,0.2-0.2,0.3-0.2c0.2,0.2,0.3,0.1,0.6,0l-0.1,0c0,0.1,0,0.3,0,0.3
						c0.1-0.1,0.3,0.1,0.2-0.4c0.3,0.3,0.6-0.2,0.8,0.2c0-0.1,0-0.2,0.1-0.2c0.2,0,0.5,0.3,0.6,0c0,0.1-0.1,0.2,0,0.2
						c0.1-0.1,0-0.2,0.1-0.2c0.4-0.2,0.7,0.3,1,0.2c0.6-0.3,1.2-0.1,1.7-0.2l0,0.1c0.2-0.4,0.4,0.4,0.6-0.2c0,0.1,0.2,0,0.1,0.2
						c0.1-0.3,0.4,0.2,0.6-0.1c0,0,0,0-0.1,0.1c0.2,0.2,0.4-0.1,0.6,0.1c0,0-0.1,0.1-0.1,0.2c0.1,0.2,0.2-0.4,0.3,0.1
						c0.1,0,0-0.2,0-0.2c0.5,0.2,1-0.1,1.5-0.2c0.4,0.3,0,0.8,0.3,0.4c0,0.1,0-0.2,0-0.1c0.1-0.1,0.2,0.5,0.3,0.3
						c0-0.3,0.1-0.2,0.1-0.3c0.2,0.2,0.3,0.4,0.5,0.2l0,0.2c0.2-0.4,0.5-0.2,0.6-0.7c1.2-0.1,2.3-0.4,3.4-0.4
						c1.1,0.1,2.2-0.1,3.3,0.1c0.3,0.4,0.3,0.4,0.6,0.2c0,0.1,0,0.1,0,0.1c0-0.3,0.2,0,0.2-0.3c0.4,0.1,0.8,0,1.2,0
						c-0.1,0-0.1,0.3,0,0.3l0.1-0.2l0,0.1c0.1,0,0.1-0.2,0.1-0.3c1.1-0.3,2.1,0.4,3.2,0.3c0.3,0.1,0.6,0,0.9-0.1
						c0.8,0.4,1.5,0.8,2.4,0.5C95.7,56.6,95.6,57.5,95.2,57.7z"/>
					<path class="st14" d="M59.3,57.5c0,0.2,0.1,0.3,0,0.5C59.3,57.8,59.3,57.6,59.3,57.5z"/>
					<path class="st14" d="M61.8,59.1C61.8,59.1,61.8,59.2,61.8,59.1c0,0.1,0,0.2,0,0.2C61.8,59.3,61.8,59.2,61.8,59.1z"/>
					<path class="st14" d="M62.4,59.2c0,0.1-0.1,0.3-0.2,0.3L62.4,59.2z"/>
					<path class="st14" d="M63,59.8c0.1,0.1,0,0.2,0,0.2C63,60,63,59.9,63,59.8z"/>
					<path class="st14" d="M63.1,59.5c0,0,0.1,0.1,0.1,0.2C63.2,59.6,63.1,59.8,63.1,59.5z"/>
					<path class="st14" d="M64.4,59.9c0,0,0.1-0.1,0.1,0C64.5,59.8,64.3,60.1,64.4,59.9z"/>
					<path class="st14" d="M65,59.7C65,59.7,65,59.7,65,59.7c0.1,0.1,0,0.2,0,0.2L65,59.7z"/>
					<polygon class="st14" points="76,59.1 75.9,59.2 75.9,59.1 					"/>
					<path class="st14" d="M80.8,59.1c0.1-0.1,0,0.1,0.1,0.2C80.8,59.3,80.9,59.1,80.8,59.1z"/>
					<polygon class="st14" points="83.4,58.4 83.4,58.4 83.4,58.1 					"/>
				</g>
			</g>
		</g>
	</g>
</g>
<g>
	<polyline class="st5" points="150.4,58 126.8,58 126.2,58 123.8,58 122.9,58 	"/>
	<g>
		<g>
			<g>
				<g>
					<path class="st14" d="M150.3,58.6c0.1-0.1-0.1-0.3,0.1-0.1C150.4,58.6,150.4,58.7,150.3,58.6z"/>
					<path class="st14" d="M123.2,58.4c0.3-0.8,0.8,0,1.1-0.5c0,0,0,0.4,0.1,0.3c0.3-0.6,0.9-0.2,1.3,0.2l0,0.1
						c0.1,0.1,0.2-0.3,0.3-0.3c0,0.1,0,0.1,0,0.2c0-0.2,0.2-0.1,0.2-0.3c0,0.1,0,0.3,0.1,0.4l0-0.3c0.1-0.6,0.3,0,0.5-0.3
						c0,0.1,0,0.1,0,0.2c0.3-0.4,0.7-0.3,1-0.5c0,0.1,0,0.3,0,0.4c0-0.3,0.1-0.4,0.2-0.4c0,0.3,0.2-0.3,0.3-0.1l0,0.1
						c0.1-0.3,0.1,0.2,0.2-0.2l0,0.2c0-0.4,0.1,0.2,0.2,0l0-0.1c0.1-0.1,0.1,0.1,0.1,0l0,0c0.1-0.1,0.2,0.1,0.2-0.2
						c0,0.3-0.1,0.1-0.1,0.5c0.4-0.3,0.9-0.3,1.3-0.3c0,0.1,0.1,0.2,0.1,0.3c0-0.1,0.2-0.1,0.2-0.2c0,0,0,0.2,0.1,0.2
						c0.1,0.1,0.1-0.4,0.2-0.2c0,0.1,0,0.2,0,0.3c0.1-0.2,0.2-0.2,0.3-0.3c0,0.1,0,0.1,0,0.2c0.1-0.3,0.2,0.1,0.3-0.1l0,0.2
						c0.1,0.2,0-0.4,0.2-0.3c0,0.1,0,0.1,0,0.2c0.1-0.3,0.3-0.2,0.4-0.3c0,0,0,0.1,0,0.1c0.1,0,0.2,0.1,0.4-0.1c0,0.1,0,0.5,0.1,0.4
						c0-0.4,0.2-0.2,0.1-0.6c0.1,0.1,0.3,0.2,0.3,0.1c0,0.1,0.1,0.5,0,0.5l0.1,0.2c0,0.2-0.1-0.1,0,0.1c0,0,0.2-0.2,0.2-0.1
						c0.1-0.2,0.2-0.7,0.3-0.7c-0.1,0.1,0,0.4,0,0.5l0.2-0.7c0,0,0,0.3,0.1,0.2c0-0.1,0-0.2,0-0.2c0,0,0.2-0.1,0.2,0.3
						c0,0.1-0.1,0.1,0,0.2c0.1,0,0.1-0.1,0.2-0.1l0,0c0.1,0.1,0.2-0.2,0.1-0.4c0,0,0,0.2,0,0.1c0-0.2,0.1-0.3,0.2-0.3
						c0,0.1,0,0.2,0,0.3c0.1-0.3,0.2-0.4,0.3-0.5c0-0.2,0,0.3-0.1,0.2c0.2,0.2,0.3-0.3,0.5,0c0,0,0-0.2,0-0.2c0.1,0,0.1,0.3,0.1,0.2
						c0,0.1,0.1,0,0.1-0.1c0-0.1,0,0.1,0,0.1c0.1-0.1,0.4-0.4,0.5-0.1c0-0.1,0.1-0.4,0.1-0.3l0,0.2c0,0.1,0.1,0,0.1,0.2
						c0.1-0.3-0.3,0.2-0.2,0c0,0.2,0.2-0.4,0.1-0.1c0.1,0,0.1-0.3,0.2-0.1c0,0-0.1,0.3,0,0.3c0.1,0,0-0.1,0.1-0.2l0.1-0.1
						c0-0.2,0.1,0,0.1-0.2c0,0.2,0.2-0.1,0.1,0.3l0,0.3c0,0,0.1-0.3,0.1-0.4c0,0,0,0.1,0,0.1c0-0.4,0.1,0,0.2-0.3
						c0.1,0.2,0.2,0,0.3,0.3c0.1-0.1,0.1-0.3,0.2-0.2c0,0,0,0.1,0,0.2c0.1,0.1,0.1,0,0.1-0.1c0,0.1,0.1,0.3,0.2,0.4
						c0.1-0.1,0-0.4,0.1-0.5c0.1,0.4,0.2-0.3,0.3,0.1c0,0.1-0.1,0.2,0,0.3c0.1,0.4,0.1-0.3,0.2-0.1l0-0.4c0,0.2,0.2-0.2,0.1,0.2
						c0-0.1,0.1,0.1,0.1-0.2c0.2,0.3,0.4-0.2,0.5,0.5c0-0.1,0.1,0,0.1-0.2c0-0.2-0.1,0.1-0.1,0c0,0,0-0.1,0-0.2
						c0.1,0.1,0.1,0.1,0,0.4c0.1,0.2,0.1-0.6,0.3-0.5c0,0.1,0,0.2,0.1,0.2l0.1-0.3c0.1,0.1,0.1,0.3,0.1,0.6c0.1,0,0.1,0,0.1-0.2
						l0.1,0.3c0-0.2,0-0.2,0.1-0.2l0,0.1c0,0.1,0.1,0,0.1,0c0-0.2-0.1-0.2-0.1-0.3c0-0.1,0.1-0.1,0.1-0.2c0,0.2,0.1,0.2,0.1,0.2
						c0,0.1,0.1-0.2,0.1-0.2c0,0.1,0.1,0,0,0.2c0,0,0-0.1-0.1,0c0,0.1,0,0.3,0.1,0.2c0.1-0.1,0-0.5,0.1-0.3c0,0.1,0,0.2-0.1,0.2
						l0.1,0.1l0-0.2c0,0.1,0,0.1,0,0.1c0-0.2,0.1-0.1,0.2-0.3c0,0,0.1,0.2,0.1,0.2l0,0c0.1,0.1,0.1,0,0.2-0.1l0,0c0,0,0.1,0,0.1-0.1
						c0.1,0.2,0,0.8,0.1,0.6c0.1,0,0.1-0.4,0.1-0.6c0.1,0.2,0.3-0.2,0.4,0.1c0-0.1,0-0.1,0-0.2c0.2,0.1,0.4-0.3,0.6,0.2
						c-0.1,0.1,0,0.2,0,0.3c0-0.2,0.1,0.2,0.1-0.1c0-0.2,0-0.3-0.1-0.4c0.1-0.1,0.3-0.1,0.4,0.1c0-0.1,0-0.2,0-0.2
						c0,0.3,0.1,0.4,0.1,0.3l0-0.2l0,0.2c0-0.1,0-0.4,0.1-0.2c0,0.1,0,0.2,0,0.2c0.1-0.2,0.2-0.4,0.2-0.3l0.1,0.3c0,0,0.1-0.2,0-0.3
						c0.1,0.2,0.2,0.2,0.2,0.4c0.2-0.6,0.5-0.6,0.8-0.6l0,0.1c0.1,0.1,0-0.3,0.1-0.2c0,0.1,0.1,0.3,0,0.5c0.1,0.2,0.1-0.3,0.2-0.3
						c0-0.2-0.1,0.1,0-0.1c0-0.1,0.1,0.1,0.1-0.1c0,0.1,0,0.3,0,0.4l0.1-0.1c0.1,0.3-0.2,0.6-0.1,1l0.1,0c0.1,0.3-0.1,0.3,0,0.4
						c0.1-0.1,0.1-0.6,0.1-0.7c0.1-0.1,0.1-0.7,0.2-0.7c0,0.2-0.1,0-0.1,0.3c0.1,0.2,0.1-0.1,0.2,0c-0.1-0.1,0-0.4,0-0.5
						c0.1,0.1,0,0.3,0.1,0.3c0-0.2,0.1-0.3,0-0.4c0-0.4,0.1,0.1,0.2-0.2c0,0.3-0.1,0.6,0,0.8c0-0.3,0.1-0.4,0.1-0.7
						c0,0.1,0,0.3,0,0.4c0.1,0.2,0.1-0.5,0.2,0l0-0.3c0,0.1,0,0.2,0.1,0.3c0.1,0,0.2-0.4,0.2,0c0,0,0.1,0,0.1-0.3
						c-0.1-0.2-0.1,0.2-0.1-0.2c0.1,0.3,0.1,0,0.1-0.1l0,0.2c0-0.1,0.1,0,0.1-0.2c0,0.1,0,0.2,0,0.2l0-0.2c0.1-0.1,0,0.4,0.1,0.3
						l-0.1,0.2c0,0,0.1,0.2,0.1,0.1c0-0.2,0.1-0.5,0.1-0.6c0.1-0.1,0,0.2,0.1,0l-0.1,0.3c0,0.1,0,0.4,0.1,0.3c0-0.1,0.1-0.4,0-0.5
						c0,0,0.1,0.1,0.1,0.3c0.1-0.1,0-0.2,0.1-0.4c0,0.1,0.1,0.3,0.2,0.6l-0.1,0.4l0.1,0c-0.1,0.3,0,0.2,0,0.5c0,0,0.1-0.1,0.1-0.1
						c-0.1-0.5,0.1-0.7,0.1-1.1c0.1-0.1,0.1,1.1,0.2,0.4c0-0.1,0-0.5,0-0.3c0.1,0,0.1-0.4,0.2-0.3c-0.1,0.2,0.1,0.4,0,0.7
						c0-0.1-0.1-0.1-0.1-0.1c0,0.2,0,0.4,0.1,0.4c0.1,0,0.1-0.1,0.1-0.3c0-0.3-0.1,0,0-0.2c0.1-0.1,0.1,0.3,0.2-0.2
						c-0.1,0-0.1-0.2-0.1-0.4L147,56l0,0.2c0.1,0.1,0-0.3,0.2-0.3l0.1,0.3c0,0.3-0.2-0.1-0.2,0.3c0.1,0,0.1-0.2,0.2-0.1
						c0,0,0,0.1-0.1,0.1c0,0,0.1,0.6,0.2,0.3c0.1-0.1,0-0.2,0-0.3c0.1-0.1,0.2-0.2,0.3-0.3c0,0.3,0.1,0,0.1,0.4
						c0-0.2-0.2-0.2-0.3,0.1c0,0.4-0.1-0.1-0.1,0.4c0.1,0,0.1,0.4,0.1,0.7c0,0,0.1-0.1,0.1-0.1c0-0.2,0-0.2,0-0.5
						c0.1,0.1,0.2-0.1,0.3-0.3c0,0.1,0,0.4,0,0.4c0.1-0.1,0.3,0,0.4,0c-0.1-0.4,0.1-0.1,0.1-0.4c-0.1-0.1-0.1-0.4-0.1-0.6
						c0,0,0,0.2,0,0.3c0.1-0.2,0.1,0.3,0.1,0c-0.1,0.1,0,0.5,0,0.8c0.1-0.2,0,0.2,0.1,0.2c0.1-0.2,0.2-0.3,0.3-0.4
						c0.1,0.3,0.3,0,0.4,0c0.1,0.2,0,0.5,0.1,0.6c0.1,0-0.1-0.4,0.1-0.2l0,0.1c0-0.1,0.2,0.2,0.2-0.3l0,0.4c0,0,0-0.1,0.1-0.1
						c0,0.1,0,0.2,0,0.3c0.1,0.3,0.1,0,0.2-0.1l0-0.2c0.1-0.2,0.2,0,0.3,0l0,0.2l0.1-0.1c0,0.2,0,0.4,0.1,0.2l-0.2,0.5
						c-0.1-0.1,0.1-0.3,0-0.5c0-0.2-0.1-0.1-0.2,0.1c0,0,0,0,0.1-0.1c0,0.3-0.1,0.3-0.1,0.5c0,0,0.1,0.1,0.1,0
						c0,0.2-0.1,0.2-0.2,0.2c0.1-0.1,0-0.2,0-0.3c0,0.3-0.1,0.4-0.2,0.3c-0.1-0.3-0.2,0.2-0.3,0.1c0-0.3,0.1-0.5,0.2-0.6
						c-0.1-0.1-0.1,0-0.1-0.1c0,0.2-0.1,0.5-0.1,0.6l0-0.2c-0.1,0.1-0.1,0.4-0.2,0.3c-0.2-0.1-0.4-0.1-0.5-0.1l0-0.2
						c-0.1,0.4-0.2,0.2-0.3,0.4c-0.2-0.2-0.4,0.2-0.5-0.2c-0.3,0.2-0.6,0.3-0.9,0.2l0.1-0.3c-0.1,0.2,0-0.2-0.1-0.1
						c0.1,0.2-0.1,0.3-0.1,0.5c-0.1-0.2-0.3,0-0.4,0.2l0-0.2c-0.1,0.4-0.3,0-0.4,0c0-0.1,0-0.3-0.1-0.3c-0.1,0.3-0.1,0.3-0.3,0.5
						c-0.1,0-0.2-0.1-0.3-0.2c-0.3,0.5-0.7,0.2-1,0.4l0-0.2c-0.3,0.5-0.8,0-1.1,0.3l0-0.4c-0.1-0.1-0.2,0.1-0.2,0.4
						c-0.1-0.1-0.2,0.2-0.3-0.1c-0.1-0.1-0.1,0.2-0.2,0.2c-0.2-0.2-0.3-0.1-0.4,0l0,0c0-0.1,0-0.3,0-0.3c-0.1,0.1-0.2-0.1-0.2,0.4
						c-0.2-0.3-0.4,0.2-0.6-0.2c0,0.1,0,0.2-0.1,0.2c-0.2,0-0.3-0.3-0.5,0c0-0.1,0-0.2,0-0.2c0,0.1,0,0.2,0,0.2
						c-0.3,0.2-0.5-0.3-0.8-0.2c-0.4,0.3-0.9,0.1-1.3,0.2l0-0.1c-0.1,0.4-0.3-0.4-0.4,0.2c0-0.1-0.1,0-0.1-0.2
						c-0.1,0.3-0.3-0.2-0.5,0.1c0,0,0,0,0-0.1c-0.2-0.2-0.3,0.1-0.5-0.1c0,0,0-0.1,0.1-0.2c-0.1-0.2-0.2,0.4-0.2-0.1
						c0,0,0,0.2,0,0.2c-0.4-0.2-0.8,0.1-1.2,0.2c-0.3-0.3,0-0.8-0.2-0.4c0-0.1,0,0.2,0,0.1c-0.1,0.1-0.1-0.5-0.2-0.3
						c0,0.3,0,0.2,0,0.3c-0.2-0.2-0.2-0.4-0.3-0.2l0-0.2c-0.2,0.4-0.3,0.2-0.5,0.7c-0.9,0.1-1.7,0.4-2.5,0.4
						c-0.8-0.1-1.7,0.1-2.5-0.1c-0.2-0.4-0.2-0.4-0.4-0.2c0-0.1,0-0.1,0-0.1c0,0.3-0.2,0-0.2,0.3c-0.3-0.1-0.6,0-0.9,0
						c0.1,0,0.1-0.3,0-0.3l-0.1,0.2l0-0.1c0,0-0.1,0.2,0,0.3c-0.8,0.3-1.6-0.4-2.4-0.3c-0.2-0.1-0.5,0-0.7,0.1
						c-0.6-0.4-1.2-0.8-1.8-0.5C122.9,59.4,122.9,58.6,123.2,58.4z"/>
					<path class="st14" d="M150.2,58.6c0-0.2-0.1-0.3,0-0.5C150.2,58.3,150.2,58.5,150.2,58.6z"/>
					<path class="st14" d="M148.3,56.9C148.3,57,148.3,56.8,148.3,56.9c0-0.1,0-0.2,0-0.2C148.3,56.8,148.3,56.8,148.3,56.9z"/>
					<path class="st14" d="M147.8,56.8c0-0.1,0.1-0.3,0.2-0.3L147.8,56.8z"/>
					<path class="st14" d="M147.4,56.2c0-0.1,0-0.2,0-0.2C147.4,56.1,147.4,56.1,147.4,56.2z"/>
					<path class="st14" d="M147.3,56.5c0,0-0.1-0.1-0.1-0.2C147.3,56.5,147.4,56.3,147.3,56.5z"/>
					<path class="st14" d="M146.4,56.1C146.3,56.1,146.3,56.3,146.4,56.1C146.3,56.2,146.4,55.9,146.4,56.1z"/>
					<path class="st14" d="M145.9,56.3C145.9,56.3,145.9,56.3,145.9,56.3c-0.1-0.1,0-0.2,0-0.2L145.9,56.3z"/>
					<polygon class="st14" points="137.7,56.9 137.7,56.9 137.7,57 					"/>
					<path class="st14" d="M134,56.9c0,0.1,0-0.1,0-0.2C134,56.8,134,57,134,56.9z"/>
					<polygon class="st14" points="132.1,57.7 132.1,57.7 132.1,58 					"/>
				</g>
			</g>
		</g>
	</g>
</g>
<g>
	<polyline class="st5" points="1.5,58 27.1,58 27.6,58 30.6,58 31.3,58 	"/>
	<g>
		<g>
			<g>
				<g>
					<path class="st14" d="M1.6,57.5c-0.1,0.1,0.1,0.3-0.1,0.1C1.5,57.5,1.5,57.4,1.6,57.5z"/>
					<path class="st14" d="M31,57.7c-0.4,0.8-0.8,0-1.2,0.5c0,0,0-0.4-0.1-0.3c-0.4,0.6-1,0.2-1.4-0.2l0-0.1
						c-0.1-0.1-0.2,0.3-0.3,0.3c0-0.1,0-0.1,0-0.2c0,0.2-0.2,0.1-0.2,0.3c0-0.1,0-0.3-0.1-0.4l-0.1,0.3c-0.1,0.6-0.4,0-0.6,0.3
						c0-0.1,0-0.1,0-0.2c-0.3,0.4-0.7,0.3-1.1,0.5c0-0.1,0-0.3,0-0.4c0,0.3-0.1,0.4-0.2,0.4c0-0.3-0.2,0.3-0.3,0.1l0-0.1
						c-0.1,0.3-0.1-0.2-0.2,0.2l-0.1-0.2c0,0.4-0.1-0.2-0.2,0l0,0.1c-0.1,0.1-0.1-0.1-0.2,0l0,0c-0.1,0.1-0.2-0.1-0.2,0.2
						c0-0.3,0.1-0.1,0.1-0.5c-0.5,0.3-0.9,0.3-1.4,0.3c-0.1-0.1-0.1-0.2-0.1-0.3c0,0.1-0.2,0.1-0.2,0.2c0,0,0-0.2-0.1-0.2
						c-0.1-0.1-0.1,0.4-0.2,0.2c0-0.1,0-0.2,0-0.3c-0.1,0.2-0.2,0.2-0.3,0.3c0-0.1,0-0.1,0-0.2c-0.1,0.3-0.2-0.1-0.3,0.1l0-0.2
						c-0.1-0.2,0,0.4-0.2,0.3c0-0.1,0-0.1,0-0.2c-0.1,0.3-0.3,0.2-0.4,0.3c0,0,0-0.1,0-0.1c-0.1,0-0.3-0.1-0.4,0.1
						c-0.1-0.1,0-0.5-0.1-0.4c0,0.4-0.2,0.2-0.1,0.6c-0.1-0.1-0.3-0.2-0.4-0.1c0.1-0.1-0.1-0.5,0-0.5l-0.1-0.2
						c0-0.2,0.1,0.1,0.1-0.1c0,0-0.2,0.2-0.2,0.1c-0.1,0.2-0.2,0.7-0.3,0.7c0.1-0.1,0-0.4,0-0.5l-0.2,0.7c0,0,0-0.3-0.1-0.2
						c0,0.1,0,0.2,0,0.2c0,0-0.2,0.1-0.2-0.3c0-0.1,0.1-0.1,0-0.2c-0.1,0-0.1,0.1-0.2,0.1l0,0c-0.1-0.1-0.2,0.2-0.1,0.4
						c0,0,0-0.2,0-0.1c0,0.2-0.1,0.3-0.2,0.3c0-0.1,0-0.2,0-0.3c-0.1,0.3-0.2,0.4-0.4,0.5c0,0.2,0-0.3,0.1-0.2
						c-0.2-0.2-0.4,0.3-0.5,0c0,0,0,0.2,0,0.2c-0.1,0-0.1-0.3-0.1-0.2c0-0.1-0.1,0-0.1,0.1c0,0.1,0-0.1,0-0.1
						c-0.1,0.1-0.4,0.4-0.6,0.1c0,0.1-0.1,0.4-0.1,0.3l0-0.2c0-0.1-0.1,0-0.1-0.2c-0.1,0.3,0.3-0.2,0.2,0c0-0.2-0.2,0.4-0.1,0.1
						c-0.1,0-0.2,0.3-0.2,0.1c0,0,0.1-0.3,0-0.3c-0.1,0,0,0.1-0.1,0.2L17.1,59c0,0.2-0.1,0-0.1,0.2c0-0.2-0.2,0.1-0.2-0.3l0-0.3
						c-0.1,0-0.1,0.3-0.1,0.4c0,0,0-0.1,0-0.1c0,0.4-0.1,0-0.2,0.3c-0.1-0.2-0.3,0-0.3-0.3c-0.1,0.1-0.2,0.3-0.2,0.2
						c0,0,0-0.1,0-0.2C16,58.9,16,59,16,59.1c0-0.1-0.1-0.3-0.2-0.4c-0.1,0.1-0.1,0.4-0.1,0.5c-0.1-0.4-0.2,0.3-0.3-0.1
						c0-0.1,0.1-0.2,0.1-0.3c-0.1-0.4-0.1,0.3-0.3,0.1l0,0.4C15.1,59,15,59.4,15,59.1c0,0.1-0.1-0.1-0.1,0.2
						c-0.2-0.3-0.5,0.2-0.6-0.5c0,0.1-0.1,0-0.1,0.2c0,0.2,0.1-0.1,0.1,0c0,0,0,0.1,0,0.2c-0.1-0.1-0.1-0.1-0.1-0.4
						c-0.1-0.2-0.1,0.6-0.3,0.5c0-0.1,0-0.2-0.1-0.2l-0.1,0.3c-0.1-0.1-0.1-0.3-0.1-0.6c-0.1,0-0.1,0-0.2,0.2l-0.1-0.3
						c0.1,0.2,0,0.2-0.1,0.2l0-0.1c0-0.1-0.1,0-0.1,0c0,0.2,0.1,0.2,0.1,0.3c0,0.1-0.1,0.1-0.1,0.2c0-0.2-0.1-0.2-0.1-0.2
						c-0.1-0.1-0.1,0.2-0.1,0.2c0-0.1-0.1,0,0-0.2c0,0,0,0.1,0.1,0c0-0.1,0-0.3-0.1-0.2c-0.1,0.1,0,0.5-0.1,0.3c0-0.1,0-0.2,0.1-0.2
						l-0.1-0.1l0,0.2c0-0.1,0-0.1,0-0.1c0,0.2-0.2,0.1-0.2,0.3c0,0-0.1-0.2-0.2-0.2l0,0c-0.1-0.1-0.1,0-0.2,0.1l0,0
						c0,0-0.1,0-0.1,0.1c-0.1-0.2,0-0.8-0.1-0.6c-0.1,0-0.1,0.4-0.1,0.6c-0.1-0.2-0.3,0.2-0.4-0.1c0,0.1,0,0.1-0.1,0.2
						c-0.2-0.1-0.5,0.3-0.6-0.2c0.1-0.1,0-0.2,0-0.3c-0.1,0.2-0.1-0.2-0.1,0.1c0,0.2,0,0.3,0.1,0.4c-0.1,0.1-0.3,0.1-0.4-0.1
						c0,0.1,0,0.2,0,0.2c0-0.3-0.1-0.4-0.2-0.3l0,0.2l0-0.2c0,0.1,0,0.4-0.1,0.2c0-0.1,0-0.2,0-0.2c-0.1,0.2-0.2,0.4-0.3,0.3
						l-0.1-0.3c0,0-0.1,0.2,0,0.3c-0.1-0.2-0.2-0.2-0.3-0.4c-0.2,0.6-0.6,0.6-0.9,0.6l0-0.1c-0.1-0.1,0,0.3-0.1,0.2
						c0-0.1-0.1-0.3,0-0.5c-0.1-0.2-0.1,0.3-0.2,0.3c0,0.2,0.1-0.1,0,0.1c0,0.1-0.1-0.1-0.2,0.1c0-0.1,0-0.3,0-0.4l-0.1,0.1
						c-0.1-0.3,0.2-0.6,0.1-1l-0.1,0c-0.1-0.3,0.2-0.3,0-0.4c-0.1,0.1-0.1,0.6-0.1,0.7c-0.1,0.1-0.1,0.7-0.2,0.7
						c0-0.2,0.1,0,0.1-0.3c-0.1-0.2-0.1,0.1-0.2,0c0.1,0.1,0,0.4,0,0.5c-0.1-0.1,0-0.3-0.1-0.3c0,0.2-0.1,0.3,0,0.4
						c0,0.4-0.1-0.1-0.2,0.2c0-0.3,0.1-0.6,0-0.8c0,0.3-0.1,0.4-0.1,0.7c0-0.1,0-0.3,0-0.4c-0.1-0.2-0.2,0.5-0.2,0l0,0.3
						c0-0.1,0-0.2-0.1-0.3c-0.1,0-0.2,0.4-0.2,0c0,0-0.1,0-0.1,0.3C7,59.8,7,59.5,7,59.9c-0.1-0.3-0.1,0-0.2,0.1l0-0.2
						c0,0.1-0.1,0-0.1,0.2c0-0.1,0-0.2,0-0.2l0,0.2c-0.1,0.1,0-0.4-0.1-0.3l0.1-0.2c0,0-0.1-0.2-0.1-0.1c0,0.2-0.1,0.5-0.1,0.6
						c-0.1,0.1,0-0.2-0.1,0l0.1-0.3c0-0.1-0.1-0.4-0.1-0.3c-0.1,0.1-0.1,0.4-0.1,0.5c0,0-0.1-0.1-0.1-0.3c-0.1,0.1,0,0.2-0.1,0.4
						c0-0.1-0.1-0.3-0.2-0.6L6,59.1l-0.1,0c0.1-0.3,0-0.2,0-0.5c0,0-0.1,0.1-0.1,0.1c0.1,0.5-0.1,0.7-0.1,1.1
						c-0.2,0.1-0.1-1.1-0.3-0.4c0,0.1,0,0.5,0,0.3c-0.1,0-0.1,0.4-0.2,0.3c0.1-0.2-0.1-0.4,0-0.7c0,0.1,0.1,0.1,0.1,0.1
						c0-0.2,0-0.4-0.1-0.4c-0.1,0-0.1,0.1-0.1,0.3c0,0.3,0.1,0,0.1,0.2c-0.1,0.1-0.1-0.3-0.2,0.2c0.1,0,0.1,0.2,0.1,0.4l-0.1,0.1
						l0-0.2c-0.1-0.1,0,0.3-0.2,0.3l-0.1-0.3c0-0.3,0.2,0.1,0.2-0.3c-0.1,0-0.1,0.2-0.2,0.1c0,0,0-0.1,0.1-0.1c0,0-0.1-0.6-0.2-0.3
						c-0.1,0.1,0,0.2,0,0.3c-0.1,0.1-0.2,0.2-0.3,0.3c0-0.3-0.2,0-0.1-0.4c0,0.2,0.3,0.2,0.3-0.1c-0.1-0.4,0.1,0.1,0.1-0.4
						c-0.1,0-0.1-0.4-0.1-0.7c0,0-0.1,0.1-0.1,0.1c0,0.2,0,0.2,0,0.5c-0.1-0.1-0.2,0.1-0.3,0.3c0-0.1,0-0.4,0-0.4
						c-0.2,0.1-0.3,0-0.5,0c0.1,0.4-0.2,0.1-0.1,0.4c0.1,0.1,0.1,0.4,0.1,0.6c0,0,0-0.2,0-0.3c-0.1,0.2-0.1-0.3-0.2,0
						c0.1-0.1,0-0.5,0.1-0.8c-0.1,0.2,0-0.2-0.1-0.2c-0.1,0.2-0.2,0.3-0.3,0.4c-0.1-0.3-0.3,0-0.5,0c-0.1-0.2,0-0.5-0.1-0.6
						c-0.1,0,0.1,0.4-0.1,0.2l0-0.1c0,0.1-0.2-0.2-0.3,0.3l0-0.4c0,0,0,0.1-0.1,0.1c0-0.1,0-0.2,0-0.3c-0.1-0.3-0.2,0-0.2,0.1
						l0.1,0.2c-0.1,0.2-0.2,0-0.4,0l0-0.2l-0.1,0.1c0-0.2-0.1-0.4-0.1-0.2L2,57.6c0.1,0.1-0.1,0.3,0,0.5c0,0.2,0.2,0.1,0.2-0.1
						c0,0-0.1,0-0.1,0.1c0-0.3,0.1-0.3,0.1-0.5c0,0-0.1-0.1-0.1,0c0-0.2,0.1-0.2,0.2-0.2c-0.1,0.1,0,0.2,0,0.3
						c0-0.3,0.1-0.4,0.2-0.3c0.1,0.3,0.2-0.2,0.3-0.1c0,0.3-0.1,0.5-0.2,0.6c0.1,0.1,0.1,0,0.2,0.1c0-0.2,0.1-0.5,0.2-0.6l0,0.2
						C3,57.5,3,57.2,3.1,57.3c0.2,0.1,0.4,0.1,0.5,0.1l0,0.2c0.1-0.4,0.3-0.2,0.4-0.4c0.2,0.2,0.4-0.2,0.5,0.2
						c0.3-0.2,0.6-0.3,0.9-0.2l-0.1,0.3c0.1-0.2,0,0.2,0.1,0.1c-0.1-0.2,0.1-0.3,0.1-0.5c0.2,0.2,0.3,0,0.5-0.2l0,0.2
						c0.1-0.4,0.3,0,0.5,0c0,0.1,0,0.3,0.1,0.3c0.1-0.3,0.1-0.3,0.3-0.5c0.1,0,0.3,0.1,0.4,0.2c0.4-0.5,0.7-0.2,1.1-0.4l0,0.2
						c0.4-0.5,0.8,0,1.1-0.3l0,0.4c0.1,0.1,0.2-0.1,0.2-0.4c0.1,0.1,0.2-0.2,0.3,0.1c0.1,0.1,0.1-0.2,0.2-0.2c0.2,0.2,0.3,0.1,0.5,0
						l0,0c0,0.1,0,0.3,0,0.3c0.1-0.1,0.3,0.1,0.2-0.4c0.2,0.3,0.5-0.2,0.7,0.2c0-0.1,0-0.2,0.1-0.2c0.2,0,0.4,0.3,0.5,0
						c0,0.1,0,0.2,0,0.2c0-0.1,0-0.2,0.1-0.2c0.3-0.2,0.6,0.3,0.9,0.2c0.5-0.3,1-0.1,1.4-0.2l0,0.1c0.2-0.4,0.4,0.4,0.5-0.2
						c0,0.1,0.1,0,0.1,0.2c0.1-0.3,0.3,0.2,0.5-0.1c0,0,0,0,0,0.1c0.2,0.2,0.3-0.1,0.5,0.1c0,0-0.1,0.1-0.1,0.2
						c0.1,0.2,0.2-0.4,0.2,0.1c0,0,0-0.2,0-0.2c0.4,0.2,0.8-0.1,1.3-0.2c0.3,0.3,0,0.8,0.3,0.4c0,0.1,0-0.2,0-0.1
						c0.1-0.1,0.1,0.5,0.2,0.3c0-0.3,0-0.2,0-0.3c0.2,0.2,0.2,0.4,0.4,0.2l0,0.2c0.2-0.4,0.4-0.2,0.5-0.7c0.9-0.1,1.8-0.4,2.8-0.4
						c0.9,0.1,1.8-0.1,2.7,0.1c0.2,0.4,0.2,0.4,0.5,0.2c0,0.1,0,0.1,0,0.1c0-0.3,0.2,0,0.2-0.3c0.3,0.1,0.7,0,1,0
						c-0.1,0-0.1,0.3,0,0.3l0.1-0.2l0,0.1c0,0,0.1-0.2,0-0.3c0.9-0.3,1.7,0.4,2.6,0.3c0.2,0.1,0.5,0,0.7-0.1
						c0.7,0.4,1.3,0.8,1.9,0.5C31.3,56.6,31.3,57.5,31,57.7z"/>
					<path class="st14" d="M1.7,57.5c0,0.2,0.1,0.3,0,0.5C1.7,57.8,1.7,57.6,1.7,57.5z"/>
					<path class="st14" d="M3.7,59.1C3.7,59.1,3.8,59.2,3.7,59.1c0,0.1,0,0.2,0,0.2C3.7,59.3,3.7,59.2,3.7,59.1z"/>
					<path class="st14" d="M4.3,59.2c0,0.1-0.1,0.3-0.2,0.3L4.3,59.2z"/>
					<path class="st14" d="M4.7,59.8c0,0.1,0,0.2,0,0.2C4.7,60,4.7,59.9,4.7,59.8z"/>
					<path class="st14" d="M4.8,59.5c0,0,0.1,0.1,0.1,0.2C4.9,59.6,4.8,59.8,4.8,59.5z"/>
					<path class="st14" d="M5.8,59.9c0,0,0.1-0.1,0.1,0C5.9,59.8,5.8,60.1,5.8,59.9z"/>
					<path class="st14" d="M6.3,59.7C6.3,59.7,6.4,59.7,6.3,59.7c0.1,0.1,0,0.2,0,0.2L6.3,59.7z"/>
					<polygon class="st14" points="15.3,59.1 15.2,59.2 15.2,59.1 					"/>
					<path class="st14" d="M19.2,59.1c0.1-0.1,0,0.1,0,0.2C19.2,59.3,19.3,59.1,19.2,59.1z"/>
					<polygon class="st14" points="21.3,58.4 21.3,58.4 21.3,58.1 					"/>
				</g>
			</g>
		</g>
	</g>
</g>
<g>
	<path class="st6" d="M55.8,76.2L30.5,58c-1-0.7-2.4-0.6-3.1,0.3l-0.3,0.4c-0.7,0.9-0.4,2.3,0.7,3.1l25.4,18.2
		c1,0.7,2.4,0.6,3.1-0.3l0.3-0.4C57.2,78.3,56.9,76.9,55.8,76.2z"/>
	<path class="st6" d="M51.3,82.6L25.9,64.4c-1-0.7-2.4-0.6-3.1,0.3l-0.3,0.4c-0.7,0.9-0.4,2.3,0.7,3.1l9.8,7.1
		c-0.7,1.5-0.2,3.3,1.2,4.3c1.4,1,3.3,0.9,4.5-0.2l9.8,7.1c1,0.7,2.4,0.6,3.1-0.3l0.3-0.4C52.6,84.7,52.3,83.4,51.3,82.6z"/>
	<path class="st6" d="M122.5,52.4l-0.2-0.4c-0.7-1-2-1.1-3.1-0.4l-3.3,2.3L94.3,22.6c0.3-1.5,0.4-3.1,0.3-4.8
		c-0.8-9.7-9.3-16.9-19-16.1c-9.7,0.8-16.9,9.3-16.1,19c0.1,0.9,0.2,1.8,0.4,2.7L38.2,53.8L35,51.5c-1-0.7-2.4-0.6-3.1,0.3l-0.3,0.4
		c-0.7,0.9-0.4,2.3,0.7,3.1l4.5,3.2c0.2,0.1,0.4,0.2,0.6,0.4l20.3,14.6c1,0.7,2.4,0.6,3.1-0.3l0.3-0.4c0.7-0.9,0.4-2.3-0.7-3.1
		l-3.3-2.4L77.3,39l19.3,28l-3.2,2.2c-1.1,0.7-1.4,2.1-0.7,3l0.2,0.4c0.7,1,2,1.1,3.1,0.4l25.8-17.6
		C122.8,54.7,123.2,53.4,122.5,52.4z"/>
	<path class="st6" d="M127,58.9l-0.2-0.4c-0.7-1-2-1.1-3.1-0.4L97.8,75.7c-1.1,0.7-1.4,2.1-0.7,3l0.2,0.4c0.7,1,2,1.1,3.1,0.4
		l25.8-17.6C127.3,61.2,127.7,59.8,127,58.9z"/>
	<path class="st6" d="M131.5,65.4l-0.2-0.4c-0.7-1-2-1.1-3.1-0.4l-25.8,17.6c-1.1,0.7-1.4,2.1-0.7,3l0.2,0.4c0.7,1,2,1.1,3.1,0.4
		l10-6.8c1.2,1.1,3.1,1.3,4.5,0.4c1.4-1,1.9-2.8,1.3-4.3l10-6.8C131.8,67.7,132.1,66.3,131.5,65.4z"/>
</g>
<g>
	<g>
		<g>
			<polygon class="st14" points="60.5,21.7 36.6,55.3 39.9,57.7 63.3,24.8 			"/>
			<polygon class="st14" points="76.6,33.3 52.7,66.9 55.5,68.9 79.5,35.4 			"/>
			<path class="st14" d="M39.9,57.7"/>
		</g>
		<path class="st14" d="M60.7,72.6c-0.7,0.9-2.1,1.1-3.1,0.3L32.3,54.7c-1-0.7-1.3-2.1-0.7-3.1l0.3-0.4c0.7-0.9,2.1-1.1,3.1-0.3
			l25.4,18.2c1,0.7,1.3,2.1,0.7,3.1L60.7,72.6z"/>
		<path class="st14" d="M56.2,79c-0.7,0.9-2.1,1.1-3.1,0.3L27.7,61.1c-1-0.7-1.3-2.1-0.7-3.1l0.3-0.4c0.7-0.9,2.1-1.1,3.1-0.3
			l25.4,18.2c1,0.7,1.3,2.1,0.7,3.1L56.2,79z"/>
		<path class="st14" d="M51.6,85.4c-0.7,0.9-2.1,1.1-3.1,0.3L23.2,67.6c-1-0.7-1.3-2.1-0.7-3.1l0.3-0.4c0.7-0.9,2.1-1.1,3.1-0.3
			L51.2,82c1,0.7,1.3,2.1,0.7,3.1L51.6,85.4z"/>
		<path class="st14" d="M39.2,78.1c-1.2,1.6-3.4,2-5,0.8l0,0c-1.6-1.2-2-3.4-0.8-5L39.2,78.1z"/>
		<g>
			<path class="st14" d="M75.5,1.1c-9.7,0.8-16.9,9.3-16.1,19c0.8,9.7,9.3,16.9,19,16.1c9.7-0.8,16.9-9.3,16.1-19
				C93.7,7.5,85.2,0.3,75.5,1.1z M78.1,32.9c-7.9,0.6-14.9-5.3-15.5-13.2C62,11.8,67.9,4.9,75.8,4.3c7.9-0.6,14.9,5.3,15.5,13.2
				C91.9,25.4,86,32.3,78.1,32.9z"/>
			<circle class="st14" cx="76.9" cy="18.6" r="6.6"/>
		</g>
	</g>
	<g>
		<g>
			<polygon class="st14" points="74.6,34.6 98,68.6 101.4,66.3 79,33.9 			"/>
			<polygon class="st14" points="91,23.5 114.4,57.4 117.3,55.5 93.9,21.5 			"/>
			<path class="st14" d="M101.4,66.3"/>
		</g>
		<path class="st14" d="M122.5,51.8c0.7,1,0.3,2.3-0.7,3L95.9,72.5c-1.1,0.7-2.4,0.5-3.1-0.4l-0.2-0.4c-0.7-1-0.3-2.3,0.7-3
			L119.1,51c1.1-0.7,2.4-0.5,3.1,0.4L122.5,51.8z"/>
		<path class="st14" d="M126.9,58.3c0.7,1,0.3,2.3-0.7,3l-25.8,17.6c-1.1,0.7-2.4,0.5-3.1-0.4L97,78.2c-0.7-1-0.3-2.3,0.7-3
			l25.8-17.6c1.1-0.7,2.4-0.5,3.1,0.4L126.9,58.3z"/>
		<path class="st14" d="M131.4,64.8c0.7,1,0.3,2.3-0.7,3l-25.8,17.6c-1.1,0.7-2.4,0.5-3.1-0.4l-0.2-0.4c-0.7-1-0.3-2.3,0.7-3
			L128.1,64c1.1-0.7,2.4-0.5,3.1,0.4L131.4,64.8z"/>
		<path class="st14" d="M120.3,74c1.1,1.6,0.7,3.9-0.9,5l0,0c-1.6,1.1-3.9,0.7-5-0.9L120.3,74z"/>
	</g>
</g>
</svg>
