<?xml version="1.0" encoding="utf-8"?>
<!-- Generator: Adobe Illustrator 18.0.0, SVG Export Plug-In . SVG Version: 6.00 Build 0)  -->
<!DOCTYPE svg PUBLIC "-//W3C//DTD SVG 1.1//EN" "http://www.w3.org/Graphics/SVG/1.1/DTD/svg11.dtd">
<svg version="1.1" id="Layer_1" xmlns="http://www.w3.org/2000/svg" xmlns:xlink="http://www.w3.org/1999/xlink" x="0px" y="0px"
	 viewBox="0 0 300 215.6" style="enable-background:new 0 0 300 215.6;" xml:space="preserve">
<style type="text/css">
	.st0{fill:#150D1A;stroke:#FFFFFF;stroke-width:3;stroke-miterlimit:10;}
	.st1{display:none;}
	.st2{fill:#0173A4;}
	.st3{opacity:0.6;}
	.st4{clip-path:url(#SVGID_2_);fill-rule:evenodd;clip-rule:evenodd;fill:#FFFFFF;}
	.st5{fill:#FFFFFF;}
	.st6{fill:none;}
	.st7{fill:#E6985A;}
	.st8{fill:#8D2828;}
	.st9{fill:#FFFFFF;stroke:#FFFFFF;stroke-width:3;stroke-miterlimit:10;}
	.st10{fill:none;stroke:#FFFFFF;stroke-miterlimit:10;}
	.st11{fill:#0173A4;stroke:#0173A4;stroke-width:3;stroke-miterlimit:10;}
	.st12{opacity:0.7;}
	.st13{display:none;fill:#150D1A;stroke:#FFFFFF;stroke-width:3;stroke-miterlimit:10;}
	.st14{fill:#0074A3;}
</style>
<rect x="33.1" y="60.9" class="st13" width="233.8" height="168.3"/>
<g>
	<polyline class="st5" points="132.9,59 137.2,59 137.6,59 164.2,59 164.6,59 169.5,59 	"/>
	<g>
		<g>
			<g>
				<g>
					<path class="st14" d="M133,58.5c-0.1,0.1,0.1,0.3-0.1,0.1C132.9,58.5,132.9,58.4,133,58.5z"/>
					<path class="st14" d="M169.1,58.7c-0.4,0.8-1,0-1.5,0.5c-0.1,0,0-0.4-0.1-0.3c-0.5,0.6-1.2,0.2-1.7-0.2l0-0.1
						c-0.1-0.1-0.2,0.3-0.3,0.3c0-0.1,0-0.1,0-0.2c0,0.2-0.2,0.1-0.3,0.3c0-0.1,0-0.3-0.1-0.4l-0.1,0.3c-0.2,0.6-0.4,0-0.7,0.3
						c0-0.1,0-0.1,0-0.2c-0.4,0.4-0.9,0.3-1.3,0.5c0-0.1,0-0.3,0-0.4c0,0.3-0.2,0.4-0.3,0.4c-0.1-0.3-0.2,0.3-0.3,0.1l0-0.1
						c-0.1,0.3-0.2-0.2-0.2,0.2l-0.1-0.2c0,0.4-0.1-0.2-0.2,0l0,0.1c-0.1,0.1-0.1-0.1-0.2,0l0,0c-0.2,0.1-0.3-0.1-0.3,0.2
						c-0.1-0.3,0.2-0.1,0.1-0.5c-0.6,0.3-1.2,0.3-1.7,0.3c-0.1-0.1-0.1-0.2-0.1-0.3c-0.1,0.1-0.2,0.1-0.3,0.2c0,0,0-0.2-0.1-0.2
						c-0.1-0.1-0.1,0.4-0.2,0.2c0-0.1,0.1-0.2,0-0.3c-0.1,0.2-0.2,0.2-0.3,0.3c0-0.1,0-0.1,0-0.2c-0.1,0.3-0.2-0.1-0.3,0.1l0-0.2
						c-0.2-0.2-0.1,0.4-0.2,0.3c0-0.1,0-0.1,0-0.2c-0.1,0.3-0.4,0.2-0.5,0.3c0,0,0-0.1,0-0.1c-0.2,0-0.3-0.1-0.5,0.1
						c-0.1-0.1,0-0.5-0.1-0.4c0,0.4-0.3,0.2-0.2,0.6c-0.1-0.1-0.4-0.2-0.5-0.1c0.1-0.1-0.1-0.5,0-0.5l-0.1-0.2
						c0-0.2,0.1,0.1,0.1-0.1c-0.1,0-0.2,0.2-0.3,0.1c-0.1,0.2-0.2,0.7-0.4,0.7c0.1-0.1,0-0.4,0-0.5l-0.2,0.7c-0.1,0,0-0.3-0.1-0.2
						c0,0.1,0,0.2-0.1,0.2c0,0-0.2,0.1-0.3-0.3c0-0.1,0.1-0.1,0-0.2c-0.1,0-0.1,0.1-0.2,0.1l0,0c-0.1-0.1-0.2,0.2-0.1,0.4
						c0,0,0-0.2,0.1-0.1c-0.1,0.2-0.2,0.3-0.3,0.3c0-0.1,0-0.2,0-0.3c-0.1,0.3-0.3,0.4-0.5,0.5c0,0.2,0.1-0.3,0.1-0.2
						c-0.2-0.2-0.4,0.3-0.6,0c0,0,0,0.2,0,0.2c-0.1,0-0.1-0.3-0.2-0.2c0-0.1-0.1,0-0.1,0.1c0,0.1,0-0.1,0-0.1
						c-0.1,0.1-0.5,0.4-0.7,0.1c0,0.1-0.1,0.4-0.2,0.3l0-0.2c0-0.1-0.2,0-0.2-0.2c-0.1,0.3,0.4-0.2,0.3,0c0-0.2-0.2,0.4-0.2,0.1
						c-0.1,0-0.2,0.3-0.3,0.1c0,0,0.1-0.3,0-0.3c-0.1,0,0,0.1-0.2,0.2l-0.1,0.1c0,0.2-0.1,0-0.1,0.2c0-0.2-0.2,0.1-0.2-0.3l0-0.3
						c-0.1,0-0.1,0.3-0.1,0.4c0,0,0-0.1,0-0.1c0,0.4-0.1,0-0.2,0.3c-0.1-0.2-0.3,0-0.4-0.3c-0.1,0.1-0.2,0.3-0.3,0.2
						c0,0,0.1-0.1,0.1-0.2c-0.1-0.1-0.1,0-0.2,0.1c0-0.1-0.1-0.3-0.2-0.4c-0.1,0.1-0.1,0.4-0.1,0.5c-0.1-0.4-0.3,0.3-0.4-0.1
						c0-0.1,0.1-0.2,0.1-0.3c-0.1-0.4-0.2,0.3-0.3,0.1l0,0.4c-0.1-0.2-0.2,0.2-0.2-0.2c0,0.1-0.2-0.1-0.2,0.2
						c-0.2-0.3-0.6,0.2-0.7-0.5c0,0.1-0.1,0-0.1,0.2c0.1,0.2,0.1-0.1,0.1,0c0,0,0,0.1,0,0.2c-0.1-0.1-0.1-0.1-0.1-0.4
						c-0.2-0.2-0.2,0.6-0.4,0.5c0-0.1,0-0.2-0.1-0.2l-0.1,0.3c-0.1-0.1-0.1-0.3-0.1-0.6c-0.1,0-0.2,0-0.2,0.2l-0.1-0.3
						c0.1,0.2-0.1,0.2-0.1,0.2l0-0.1c0-0.1-0.1,0-0.1,0c0,0.2,0.1,0.2,0.1,0.3c0,0.1-0.1,0.1-0.1,0.2c0-0.2-0.1-0.2-0.2-0.2
						c-0.1-0.1-0.1,0.2-0.1,0.2c0-0.1-0.1,0-0.1-0.2c0,0,0.1,0.1,0.1,0c0-0.1,0-0.3-0.1-0.2c-0.1,0.1,0,0.5-0.1,0.3
						c0-0.1,0-0.2,0.1-0.2l-0.1-0.1l0,0.2c0-0.1,0-0.1,0-0.1c0,0.2-0.2,0.1-0.2,0.3c-0.1,0-0.1-0.2-0.2-0.2l0,0
						c-0.1-0.1-0.2,0-0.2,0.1l0,0c0,0-0.1,0-0.2,0.1c-0.1-0.2,0-0.8-0.1-0.6c-0.1,0-0.2,0.4-0.1,0.6c-0.2-0.2-0.4,0.2-0.6-0.1
						c0,0.1,0,0.1-0.1,0.2c-0.3-0.1-0.6,0.3-0.8-0.2c0.1-0.1,0-0.2,0-0.3c-0.1,0.2-0.1-0.2-0.1,0.1c0,0.2,0,0.3,0.1,0.4
						c-0.2,0.1-0.4,0.1-0.5-0.1c0,0.1,0,0.2,0,0.2c0-0.3-0.1-0.4-0.2-0.3l0,0.2l-0.1-0.2c0,0.1,0,0.4-0.1,0.2c0-0.1,0-0.2,0-0.2
						c-0.1,0.2-0.2,0.4-0.3,0.3l-0.1-0.3c0,0-0.1,0.2,0,0.3c-0.2-0.2-0.3-0.2-0.3-0.4c-0.3,0.6-0.7,0.6-1,0.6l0-0.1
						c-0.1-0.1,0,0.3-0.1,0.2c0-0.1-0.1-0.3,0-0.5c-0.1-0.2-0.2,0.3-0.3,0.3c0,0.2,0.1-0.1,0.1,0.1c0,0.1-0.2-0.1-0.2,0.1
						c0-0.1,0-0.3,0-0.4l-0.1,0.1c-0.1-0.3,0.2-0.6,0.1-1l-0.1,0c-0.1-0.3,0.2-0.3,0-0.4c-0.1,0.1-0.1,0.6-0.1,0.7
						c-0.2,0.1-0.1,0.7-0.3,0.7c0-0.2,0.1,0,0.1-0.3c-0.1-0.2-0.2,0.1-0.2,0c0.1,0.1,0,0.4,0,0.5c-0.1-0.1,0.1-0.3-0.1-0.3
						c0,0.2-0.1,0.3,0,0.4c0,0.4-0.1-0.1-0.2,0.2c0-0.3,0.1-0.6,0-0.8c0,0.3-0.2,0.4-0.1,0.7c-0.1-0.1-0.1-0.3,0-0.4
						c-0.1-0.2-0.2,0.5-0.2,0l0,0.3c0-0.1-0.1-0.2-0.1-0.3c-0.1,0-0.2,0.4-0.2,0c0,0-0.2,0-0.1,0.3c0.1,0.2,0.1-0.2,0.2,0.2
						c-0.1-0.3-0.1,0-0.2,0.1l0-0.2c0,0.1-0.1,0-0.1,0.2c0-0.1,0-0.2,0-0.2l0,0.2c-0.1,0.1,0-0.4-0.2-0.3l0.1-0.2
						c0,0-0.1-0.2-0.1-0.1c0,0.2-0.1,0.5-0.1,0.6c-0.1,0.1,0-0.2-0.1,0l0.1-0.3c0-0.1-0.1-0.4-0.2-0.3c-0.1,0.1-0.2,0.4-0.1,0.5
						c-0.1,0-0.1-0.1-0.1-0.3c-0.1,0.1,0,0.2-0.1,0.4c0-0.1-0.2-0.3-0.2-0.6l0.1-0.4l-0.1,0c0.1-0.3,0-0.2,0-0.5
						c0,0-0.1,0.1-0.1,0.1c0.1,0.5-0.2,0.7-0.1,1.1c-0.2,0.1-0.1-1.1-0.3-0.4c0,0.1-0.1,0.5,0.1,0.3c-0.1,0-0.1,0.4-0.2,0.3
						c0.1-0.2-0.1-0.4,0-0.7c0,0.1,0.1,0.1,0.1,0.1c0-0.2,0-0.4-0.1-0.4c-0.1,0-0.2,0.1-0.2,0.3c0,0.3,0.1,0,0.1,0.2
						c-0.1,0.1-0.2-0.3-0.2,0.2c0.1,0,0.1,0.2,0.1,0.4l-0.1,0.1l0-0.2c-0.2-0.1-0.1,0.3-0.2,0.3l-0.1-0.3c0-0.3,0.2,0.1,0.2-0.3
						c-0.1,0-0.1,0.2-0.2,0.1c0,0,0.1-0.1,0.1-0.1c0,0-0.1-0.6-0.2-0.3c-0.1,0.1,0,0.2,0,0.3c-0.2,0.1-0.2,0.2-0.3,0.3
						c0-0.3-0.2,0-0.1-0.4c0.1,0.2,0.3,0.2,0.4-0.1c-0.1-0.4,0.1,0.1,0.2-0.4c-0.1,0-0.1-0.4-0.2-0.7c0,0-0.1,0.1-0.1,0.1
						c0,0.2,0,0.2,0,0.5c-0.2-0.1-0.3,0.1-0.4,0.3c-0.1-0.1,0-0.4,0-0.4c-0.2,0.1-0.4,0-0.6,0c0.1,0.4-0.2,0.1-0.1,0.4
						c0.1,0.1,0.2,0.4,0.1,0.6c-0.1,0,0-0.2,0-0.3c-0.1,0.2-0.1-0.3-0.2,0c0.2-0.1,0-0.5,0.1-0.8c-0.1,0.2,0-0.2-0.1-0.2
						c-0.1,0.2-0.3,0.3-0.4,0.4c-0.2-0.3-0.4,0-0.6,0c-0.1-0.2,0-0.5-0.1-0.6c-0.1,0,0.1,0.4-0.1,0.2l0-0.1c0,0.1-0.3-0.2-0.3,0.3
						l0-0.4c0,0-0.1,0.1-0.1,0.1c0-0.1,0-0.2,0-0.3c-0.1-0.3-0.2,0-0.3,0.1l0.1,0.2c-0.2,0.2-0.3,0-0.5,0l0-0.2l-0.1,0.1
						c0-0.2-0.1-0.4-0.1-0.2l0.3-0.5c0.1,0.1-0.1,0.3,0,0.5c0,0.2,0.2,0.1,0.2-0.1c-0.1,0-0.1,0-0.1,0.1c0-0.3,0.1-0.3,0.1-0.5
						c0,0-0.1-0.1-0.1,0c0.1-0.2,0.1-0.2,0.2-0.2c-0.1,0.1,0,0.2,0,0.3c0-0.3,0.1-0.4,0.2-0.3c0.1,0.3,0.2-0.2,0.4-0.1
						c-0.1,0.3-0.1,0.5-0.2,0.6c0.1,0.1,0.1,0,0.2,0.1c0-0.2,0.1-0.5,0.2-0.6l0,0.2c0.1-0.1,0.1-0.4,0.2-0.3
						c0.2,0.1,0.5,0.1,0.7,0.1l0,0.2c0.1-0.4,0.3-0.2,0.5-0.4c0.2,0.2,0.5-0.2,0.6,0.2c0.4-0.2,0.7-0.3,1.2-0.2l-0.1,0.3
						c0.1-0.2,0,0.2,0.1,0.1c-0.1-0.2,0.1-0.3,0.2-0.5c0.2,0.2,0.4,0,0.6-0.2l0,0.2c0.2-0.4,0.4,0,0.6,0c0,0.1,0.1,0.3,0.1,0.3
						c0.1-0.3,0.2-0.3,0.3-0.5c0.1,0,0.3,0.1,0.4,0.2c0.4-0.5,0.9-0.2,1.4-0.4l0,0.2c0.5-0.5,1,0,1.4-0.3l0,0.4
						c0.1,0.1,0.3-0.1,0.2-0.4c0.1,0.1,0.3-0.2,0.4,0.1c0.1,0.1,0.2-0.2,0.3-0.2c0.2,0.2,0.3,0.1,0.6,0l-0.1,0c0,0.1,0,0.3,0,0.3
						c0.1-0.1,0.3,0.1,0.2-0.4c0.3,0.3,0.6-0.2,0.8,0.2c0-0.1,0-0.2,0.1-0.2c0.2,0,0.5,0.3,0.6,0c0,0.1-0.1,0.2,0,0.2
						c0.1-0.1,0-0.2,0.1-0.2c0.4-0.2,0.7,0.3,1,0.2c0.6-0.3,1.2-0.1,1.7-0.2l0,0.1c0.2-0.4,0.4,0.4,0.6-0.2c0,0.1,0.2,0,0.1,0.2
						c0.1-0.3,0.4,0.2,0.6-0.1c0,0,0,0-0.1,0.1c0.2,0.2,0.4-0.1,0.6,0.1c0,0-0.1,0.1-0.1,0.2c0.1,0.2,0.2-0.4,0.3,0.1
						c0.1,0,0-0.2,0-0.2c0.5,0.2,1-0.1,1.5-0.2c0.4,0.3,0,0.8,0.3,0.4c0,0.1,0-0.2,0-0.1c0.1-0.1,0.2,0.5,0.3,0.3
						c0-0.3,0.1-0.2,0.1-0.3c0.2,0.2,0.3,0.4,0.5,0.2l0,0.2c0.2-0.4,0.5-0.2,0.6-0.7c1.2-0.1,2.3-0.4,3.4-0.4
						c1.1,0.1,2.2-0.1,3.3,0.1c0.3,0.4,0.3,0.4,0.6,0.2c0,0.1,0,0.1,0,0.1c0-0.3,0.2,0,0.2-0.3c0.4,0.1,0.8,0,1.2,0
						c-0.1,0-0.1,0.3,0,0.3l0.1-0.2l0,0.1c0.1,0,0.1-0.2,0.1-0.3c1.1-0.3,2.1,0.4,3.2,0.3c0.3,0.1,0.6,0,0.9-0.1
						c0.8,0.4,1.5,0.8,2.4,0.5C169.5,57.6,169.4,58.5,169.1,58.7z"/>
					<path class="st14" d="M133.1,58.5c0,0.2,0.1,0.3,0,0.5C133.2,58.8,133.1,58.6,133.1,58.5z"/>
					<path class="st14" d="M135.6,60.1C135.7,60.1,135.7,60.2,135.6,60.1c0,0.1,0,0.2,0,0.2C135.6,60.3,135.6,60.2,135.6,60.1z"/>
					<path class="st14" d="M136.3,60.2c0,0.1-0.1,0.3-0.2,0.3L136.3,60.2z"/>
					<path class="st14" d="M136.9,60.8c0.1,0.1,0,0.2,0,0.2C136.9,61,136.9,60.9,136.9,60.8z"/>
					<path class="st14" d="M136.9,60.5c0,0,0.1,0.1,0.1,0.2C137,60.6,136.9,60.8,136.9,60.5z"/>
					<path class="st14" d="M138.2,60.9c0,0,0.1-0.1,0.1,0C138.3,60.8,138.2,61.1,138.2,60.9z"/>
					<path class="st14" d="M138.8,60.7C138.9,60.7,138.9,60.7,138.8,60.7c0.1,0.1,0,0.2,0,0.2L138.8,60.7z"/>
					<polygon class="st14" points="149.8,60.1 149.8,60.2 149.8,60.1 					"/>
					<path class="st14" d="M154.6,60.1c0.1-0.1,0,0.1,0.1,0.2C154.6,60.3,154.7,60.1,154.6,60.1z"/>
					<polygon class="st14" points="157.2,59.4 157.2,59.4 157.2,59.1 					"/>
				</g>
			</g>
		</g>
	</g>
</g>
<g>
	<polyline class="st5" points="224.2,59 200.6,59 200.1,59 197.6,59 196.7,59 	"/>
	<g>
		<g>
			<g>
				<g>
					<path class="st14" d="M224.2,59.6c0.1-0.1-0.1-0.3,0.1-0.1C224.2,59.6,224.2,59.7,224.2,59.6z"/>
					<path class="st14" d="M197.1,59.4c0.3-0.8,0.8,0,1.1-0.5c0,0,0,0.4,0.1,0.3c0.3-0.6,0.9-0.2,1.3,0.2l0,0.1
						c0.1,0.1,0.2-0.3,0.3-0.3c0,0.1,0,0.1,0,0.2c0-0.2,0.2-0.1,0.2-0.3c0,0.1,0,0.3,0.1,0.4l0-0.3c0.1-0.6,0.3,0,0.5-0.3
						c0,0.1,0,0.1,0,0.2c0.3-0.4,0.7-0.3,1-0.5c0,0.1,0,0.3,0,0.4c0-0.3,0.1-0.4,0.2-0.4c0,0.3,0.2-0.3,0.3-0.1l0,0.1
						c0.1-0.3,0.1,0.2,0.2-0.2l0,0.2c0-0.4,0.1,0.2,0.2,0l0-0.1c0.1-0.1,0.1,0.1,0.1,0l0,0c0.1-0.1,0.2,0.1,0.2-0.2
						c0,0.3-0.1,0.1-0.1,0.5c0.4-0.3,0.9-0.3,1.3-0.3c0,0.1,0.1,0.2,0.1,0.3c0-0.1,0.2-0.1,0.2-0.2c0,0,0,0.2,0.1,0.2
						c0.1,0.1,0.1-0.4,0.2-0.2c0,0.1,0,0.2,0,0.3c0.1-0.2,0.2-0.2,0.3-0.3c0,0.1,0,0.1,0,0.2c0.1-0.3,0.2,0.1,0.3-0.1l0,0.2
						c0.1,0.2,0-0.4,0.2-0.3c0,0.1,0,0.1,0,0.2c0.1-0.3,0.3-0.2,0.4-0.3c0,0,0,0.1,0,0.1c0.1,0,0.2,0.1,0.4-0.1c0,0.1,0,0.5,0.1,0.4
						c0-0.4,0.2-0.2,0.1-0.6c0.1,0.1,0.3,0.2,0.3,0.1c0,0.1,0.1,0.5,0,0.5l0.1,0.2c0,0.2-0.1-0.1,0,0.1c0,0,0.2-0.2,0.2-0.1
						c0.1-0.2,0.2-0.7,0.3-0.7c-0.1,0.1,0,0.4,0,0.5l0.2-0.7c0,0,0,0.3,0.1,0.2c0-0.1,0-0.2,0-0.2c0,0,0.2-0.1,0.2,0.3
						c0,0.1-0.1,0.1,0,0.2c0.1,0,0.1-0.1,0.2-0.1l0,0c0.1,0.1,0.2-0.2,0.1-0.4c0,0,0,0.2,0,0.1c0-0.2,0.1-0.3,0.2-0.3
						c0,0.1,0,0.2,0,0.3c0.1-0.3,0.2-0.4,0.3-0.5c0-0.2,0,0.3-0.1,0.2c0.2,0.2,0.3-0.3,0.5,0c0,0,0-0.2,0-0.2c0.1,0,0.1,0.3,0.1,0.2
						c0,0.1,0.1,0,0.1-0.1c0-0.1,0,0.1,0,0.1c0.1-0.1,0.4-0.4,0.5-0.1c0-0.1,0.1-0.4,0.1-0.3l0,0.2c0,0.1,0.1,0,0.1,0.2
						c0.1-0.3-0.3,0.2-0.2,0c0,0.2,0.2-0.4,0.1-0.1c0.1,0,0.1-0.3,0.2-0.1c0,0-0.1,0.3,0,0.3c0.1,0,0-0.1,0.1-0.2l0.1-0.1
						c0-0.2,0.1,0,0.1-0.2c0,0.2,0.2-0.1,0.1,0.3l0,0.3c0,0,0.1-0.3,0.1-0.4c0,0,0,0.1,0,0.1c0-0.4,0.1,0,0.2-0.3
						c0.1,0.2,0.2,0,0.3,0.3c0.1-0.1,0.1-0.3,0.2-0.2c0,0,0,0.1,0,0.2c0.1,0.1,0.1,0,0.1-0.1c0,0.1,0.1,0.3,0.2,0.4
						c0.1-0.1,0-0.4,0.1-0.5c0.1,0.4,0.2-0.3,0.3,0.1c0,0.1-0.1,0.2,0,0.3c0.1,0.4,0.1-0.3,0.2-0.1l0-0.4c0,0.2,0.2-0.2,0.1,0.2
						c0-0.1,0.1,0.1,0.1-0.2c0.2,0.3,0.4-0.2,0.5,0.5c0-0.1,0.1,0,0.1-0.2c0-0.2-0.1,0.1-0.1,0c0,0,0-0.1,0-0.2
						c0.1,0.1,0.1,0.1,0,0.4c0.1,0.2,0.1-0.6,0.3-0.5c0,0.1,0,0.2,0.1,0.2l0.1-0.3c0.1,0.1,0.1,0.3,0.1,0.6c0.1,0,0.1,0,0.1-0.2
						l0.1,0.3c0-0.2,0-0.2,0.1-0.2l0,0.1c0,0.1,0.1,0,0.1,0c0-0.2-0.1-0.2-0.1-0.3c0-0.1,0.1-0.1,0.1-0.2c0,0.2,0.1,0.2,0.1,0.2
						c0,0.1,0.1-0.2,0.1-0.2c0,0.1,0.1,0,0,0.2c0,0,0-0.1-0.1,0c0,0.1,0,0.3,0.1,0.2c0.1-0.1,0-0.5,0.1-0.3c0,0.1,0,0.2-0.1,0.2
						l0.1,0.1l0-0.2c0,0.1,0,0.1,0,0.1c0-0.2,0.1-0.1,0.2-0.3c0,0,0.1,0.2,0.1,0.2l0,0c0.1,0.1,0.1,0,0.2-0.1l0,0c0,0,0.1,0,0.1-0.1
						c0.1,0.2,0,0.8,0.1,0.6c0.1,0,0.1-0.4,0.1-0.6c0.1,0.2,0.3-0.2,0.4,0.1c0-0.1,0-0.1,0-0.2c0.2,0.1,0.4-0.3,0.6,0.2
						c-0.1,0.1,0,0.2,0,0.3c0-0.2,0.1,0.2,0.1-0.1c0-0.2,0-0.3-0.1-0.4c0.1-0.1,0.3-0.1,0.4,0.1c0-0.1,0-0.2,0-0.2
						c0,0.3,0.1,0.4,0.1,0.3l0-0.2l0,0.2c0-0.1,0-0.4,0.1-0.2c0,0.1,0,0.2,0,0.2c0.1-0.2,0.2-0.4,0.2-0.3l0.1,0.3c0,0,0.1-0.2,0-0.3
						c0.1,0.2,0.2,0.2,0.2,0.4c0.2-0.6,0.5-0.6,0.8-0.6l0,0.1c0.1,0.1,0-0.3,0.1-0.2c0,0.1,0.1,0.3,0,0.5c0.1,0.2,0.1-0.3,0.2-0.3
						c0-0.2-0.1,0.1,0-0.1c0-0.1,0.1,0.1,0.1-0.1c0,0.1,0,0.3,0,0.4l0.1-0.1c0.1,0.3-0.2,0.6-0.1,1l0.1,0c0.1,0.3-0.1,0.3,0,0.4
						c0.1-0.1,0.1-0.6,0.1-0.7c0.1-0.1,0.1-0.7,0.2-0.7c0,0.2-0.1,0-0.1,0.3c0.1,0.2,0.1-0.1,0.2,0c-0.1-0.1,0-0.4,0-0.5
						c0.1,0.1,0,0.3,0.1,0.3c0-0.2,0.1-0.3,0-0.4c0-0.4,0.1,0.1,0.2-0.2c0,0.3-0.1,0.6,0,0.8c0-0.3,0.1-0.4,0.1-0.7
						c0,0.1,0,0.3,0,0.4c0.1,0.2,0.1-0.5,0.2,0l0-0.3c0,0.1,0,0.2,0.1,0.3c0.1,0,0.2-0.4,0.2,0c0,0,0.1,0,0.1-0.3
						c-0.1-0.2-0.1,0.2-0.1-0.2c0.1,0.3,0.1,0,0.1-0.1l0,0.2c0-0.1,0.1,0,0.1-0.2c0,0.1,0,0.2,0,0.2l0-0.2c0.1-0.1,0,0.4,0.1,0.3
						l-0.1,0.2c0,0,0.1,0.2,0.1,0.1c0-0.2,0.1-0.5,0.1-0.6c0.1-0.1,0,0.2,0.1,0l-0.1,0.3c0,0.1,0,0.4,0.1,0.3c0-0.1,0.1-0.4,0-0.5
						c0,0,0.1,0.1,0.1,0.3c0.1-0.1,0-0.2,0.1-0.4c0,0.1,0.1,0.3,0.2,0.6l-0.1,0.4l0.1,0c-0.1,0.3,0,0.2,0,0.5c0,0,0.1-0.1,0.1-0.1
						c-0.1-0.5,0.1-0.7,0.1-1.1c0.1-0.1,0.1,1.1,0.2,0.4c0-0.1,0-0.5,0-0.3c0.1,0,0.1-0.4,0.2-0.3c-0.1,0.2,0.1,0.4,0,0.7
						c0-0.1-0.1-0.1-0.1-0.1c0,0.2,0,0.4,0.1,0.4c0.1,0,0.1-0.1,0.1-0.3c0-0.3-0.1,0,0-0.2c0.1-0.1,0.1,0.3,0.2-0.2
						c-0.1,0-0.1-0.2-0.1-0.4l0.1-0.1l0,0.2c0.1,0.1,0-0.3,0.2-0.3l0.1,0.3c0,0.3-0.2-0.1-0.2,0.3c0.1,0,0.1-0.2,0.2-0.1
						c0,0,0,0.1-0.1,0.1c0,0,0.1,0.6,0.2,0.3c0.1-0.1,0-0.2,0-0.3c0.1-0.1,0.2-0.2,0.3-0.3c0,0.3,0.1,0,0.1,0.4
						c0-0.2-0.2-0.2-0.3,0.1c0,0.4-0.1-0.1-0.1,0.4c0.1,0,0.1,0.4,0.1,0.7c0,0,0.1-0.1,0.1-0.1c0-0.2,0-0.2,0-0.5
						c0.1,0.1,0.2-0.1,0.3-0.3c0,0.1,0,0.4,0,0.4c0.1-0.1,0.3,0,0.4,0c-0.1-0.4,0.1-0.1,0.1-0.4c-0.1-0.1-0.1-0.4-0.1-0.6
						c0,0,0,0.2,0,0.3c0.1-0.2,0.1,0.3,0.1,0c-0.1,0.1,0,0.5,0,0.8c0.1-0.2,0,0.2,0.1,0.2c0.1-0.2,0.2-0.3,0.3-0.4
						c0.1,0.3,0.3,0,0.4,0c0.1,0.2,0,0.5,0.1,0.6c0.1,0-0.1-0.4,0.1-0.2l0,0.1c0-0.1,0.2,0.2,0.2-0.3l0,0.4c0,0,0-0.1,0.1-0.1
						c0,0.1,0,0.2,0,0.3c0.1,0.3,0.1,0,0.2-0.1l0-0.2c0.1-0.2,0.2,0,0.3,0l0,0.2l0.1-0.1c0,0.2,0,0.4,0.1,0.2l-0.2,0.5
						c-0.1-0.1,0.1-0.3,0-0.5c0-0.2-0.1-0.1-0.2,0.1c0,0,0,0,0.1-0.1c0,0.3-0.1,0.3-0.1,0.5c0,0,0.1,0.1,0.1,0
						c0,0.2-0.1,0.2-0.2,0.2c0.1-0.1,0-0.2,0-0.3c0,0.3-0.1,0.4-0.2,0.3c-0.1-0.3-0.2,0.2-0.3,0.1c0-0.3,0.1-0.5,0.2-0.6
						c-0.1-0.1-0.1,0-0.1-0.1c0,0.2-0.1,0.5-0.1,0.6l0-0.2c-0.1,0.1-0.1,0.4-0.2,0.3c-0.2-0.1-0.4-0.1-0.5-0.1l0-0.2
						c-0.1,0.4-0.2,0.2-0.3,0.4c-0.2-0.2-0.4,0.2-0.5-0.2c-0.3,0.2-0.6,0.3-0.9,0.2l0.1-0.3c-0.1,0.2,0-0.2-0.1-0.1
						c0.1,0.2-0.1,0.3-0.1,0.5c-0.1-0.2-0.3,0-0.4,0.2l0-0.2c-0.1,0.4-0.3,0-0.4,0c0-0.1,0-0.3-0.1-0.3c-0.1,0.3-0.1,0.3-0.3,0.5
						c-0.1,0-0.2-0.1-0.3-0.2c-0.3,0.5-0.7,0.2-1,0.4l0-0.2c-0.3,0.5-0.8,0-1.1,0.3l0-0.4c-0.1-0.1-0.2,0.1-0.2,0.4
						c-0.1-0.1-0.2,0.2-0.3-0.1c-0.1-0.1-0.1,0.2-0.2,0.2c-0.2-0.2-0.3-0.1-0.4,0l0,0c0-0.1,0-0.3,0-0.3c-0.1,0.1-0.2-0.1-0.2,0.4
						c-0.2-0.3-0.4,0.2-0.6-0.2c0,0.1,0,0.2-0.1,0.2c-0.2,0-0.3-0.3-0.5,0c0-0.1,0-0.2,0-0.2c0,0.1,0,0.2,0,0.2
						c-0.3,0.2-0.5-0.3-0.8-0.2c-0.4,0.3-0.9,0.1-1.3,0.2l0-0.1c-0.1,0.4-0.3-0.4-0.4,0.2c0-0.1-0.1,0-0.1-0.2
						c-0.1,0.3-0.3-0.2-0.5,0.1c0,0,0,0,0-0.1c-0.2-0.2-0.3,0.1-0.5-0.1c0,0,0-0.1,0.1-0.2c-0.1-0.2-0.2,0.4-0.2-0.1
						c0,0,0,0.2,0,0.2c-0.4-0.2-0.8,0.1-1.2,0.2c-0.3-0.3,0-0.8-0.2-0.4c0-0.1,0,0.2,0,0.1c-0.1,0.1-0.1-0.5-0.2-0.3
						c0,0.3,0,0.2,0,0.3c-0.2-0.2-0.2-0.4-0.3-0.2l0-0.2c-0.2,0.4-0.3,0.2-0.5,0.7c-0.9,0.1-1.7,0.4-2.5,0.4
						c-0.8-0.1-1.7,0.1-2.5-0.1c-0.2-0.4-0.2-0.4-0.4-0.2c0-0.1,0-0.1,0-0.1c0,0.3-0.2,0-0.2,0.3c-0.3-0.1-0.6,0-0.9,0
						c0.1,0,0.1-0.3,0-0.3l-0.1,0.2l0-0.1c0,0-0.1,0.2,0,0.3c-0.8,0.3-1.6-0.4-2.4-0.3c-0.2-0.1-0.5,0-0.7,0.1
						c-0.6-0.4-1.2-0.8-1.8-0.5C196.7,60.4,196.8,59.6,197.1,59.4z"/>
					<path class="st14" d="M224.1,59.6c0-0.2-0.1-0.3,0-0.5C224,59.3,224.1,59.5,224.1,59.6z"/>
					<path class="st14" d="M222.2,57.9C222.2,58,222.1,57.8,222.2,57.9c0-0.1,0-0.2,0-0.2C222.2,57.8,222.2,57.8,222.2,57.9z"/>
					<path class="st14" d="M221.7,57.8c0-0.1,0.1-0.3,0.2-0.3L221.7,57.8z"/>
					<path class="st14" d="M221.2,57.2c0-0.1,0-0.2,0-0.2C221.3,57.1,221.2,57.1,221.2,57.2z"/>
					<path class="st14" d="M221.2,57.5c0,0-0.1-0.1-0.1-0.2C221.1,57.5,221.2,57.3,221.2,57.5z"/>
					<path class="st14" d="M220.2,57.1C220.2,57.1,220.2,57.3,220.2,57.1C220.2,57.2,220.2,56.9,220.2,57.1z"/>
					<path class="st14" d="M219.8,57.3C219.8,57.3,219.8,57.3,219.8,57.3c-0.1-0.1,0-0.2,0-0.2L219.8,57.3z"/>
					<polygon class="st14" points="211.5,57.9 211.6,57.9 211.6,58 					"/>
					<path class="st14" d="M207.9,57.9c0,0.1,0-0.1,0-0.2C207.9,57.8,207.8,58,207.9,57.9z"/>
					<polygon class="st14" points="205.9,58.7 206,58.7 206,59 					"/>
				</g>
			</g>
		</g>
	</g>
</g>
<g>
	<polyline class="st5" points="75.3,59 100.9,59 101.5,59 104.4,59 105.2,59 	"/>
	<g>
		<g>
			<g>
				<g>
					<path class="st14" d="M75.4,58.5c-0.1,0.1,0.1,0.3-0.1,0.1C75.4,58.5,75.4,58.4,75.4,58.5z"/>
					<path class="st14" d="M104.8,58.7c-0.4,0.8-0.8,0-1.2,0.5c0,0,0-0.4-0.1-0.3c-0.4,0.6-1,0.2-1.4-0.2l0-0.1
						c-0.1-0.1-0.2,0.3-0.3,0.3c0-0.1,0-0.1,0-0.2c0,0.2-0.2,0.1-0.2,0.3c0-0.1,0-0.3-0.1-0.4l-0.1,0.3c-0.1,0.6-0.4,0-0.6,0.3
						c0-0.1,0-0.1,0-0.2c-0.3,0.4-0.7,0.3-1.1,0.5c0-0.1,0-0.3,0-0.4c0,0.3-0.1,0.4-0.2,0.4c0-0.3-0.2,0.3-0.3,0.1l0-0.1
						c-0.1,0.3-0.1-0.2-0.2,0.2l-0.1-0.2c0,0.4-0.1-0.2-0.2,0l0,0.1c-0.1,0.1-0.1-0.1-0.2,0l0,0c-0.1,0.1-0.2-0.1-0.2,0.2
						c0-0.3,0.1-0.1,0.1-0.5c-0.5,0.3-0.9,0.3-1.4,0.3c-0.1-0.1-0.1-0.2-0.1-0.3c0,0.1-0.2,0.1-0.2,0.2c0,0,0-0.2-0.1-0.2
						c-0.1-0.1-0.1,0.4-0.2,0.2c0-0.1,0-0.2,0-0.3c-0.1,0.2-0.2,0.2-0.3,0.3c0-0.1,0-0.1,0-0.2c-0.1,0.3-0.2-0.1-0.3,0.1l0-0.2
						c-0.1-0.2,0,0.4-0.2,0.3c0-0.1,0-0.1,0-0.2c-0.1,0.3-0.3,0.2-0.4,0.3c0,0,0-0.1,0-0.1c-0.1,0-0.3-0.1-0.4,0.1
						c-0.1-0.1,0-0.5-0.1-0.4c0,0.4-0.2,0.2-0.1,0.6c-0.1-0.1-0.3-0.2-0.4-0.1c0.1-0.1-0.1-0.5,0-0.5l-0.1-0.2
						c0-0.2,0.1,0.1,0.1-0.1c0,0-0.2,0.2-0.2,0.1c-0.1,0.2-0.2,0.7-0.3,0.7c0.1-0.1,0-0.4,0-0.5l-0.2,0.7c0,0,0-0.3-0.1-0.2
						c0,0.1,0,0.2,0,0.2c0,0-0.2,0.1-0.2-0.3c0-0.1,0.1-0.1,0-0.2c-0.1,0-0.1,0.1-0.2,0.1l0,0c-0.1-0.1-0.2,0.2-0.1,0.4
						c0,0,0-0.2,0-0.1c0,0.2-0.1,0.3-0.2,0.3c0-0.1,0-0.2,0-0.3c-0.1,0.3-0.2,0.4-0.4,0.5c0,0.2,0-0.3,0.1-0.2
						c-0.2-0.2-0.4,0.3-0.5,0c0,0,0,0.2,0,0.2c-0.1,0-0.1-0.3-0.1-0.2c0-0.1-0.1,0-0.1,0.1c0,0.1,0-0.1,0-0.1
						c-0.1,0.1-0.4,0.4-0.6,0.1c0,0.1-0.1,0.4-0.1,0.3l0-0.2c0-0.1-0.1,0-0.1-0.2c-0.1,0.3,0.3-0.2,0.2,0c0-0.2-0.2,0.4-0.1,0.1
						c-0.1,0-0.2,0.3-0.2,0.1c0,0,0.1-0.3,0-0.3c-0.1,0,0,0.1-0.1,0.2L91,60c0,0.2-0.1,0-0.1,0.2c0-0.2-0.2,0.1-0.2-0.3l0-0.3
						c-0.1,0-0.1,0.3-0.1,0.4c0,0,0-0.1,0-0.1c0,0.4-0.1,0-0.2,0.3c-0.1-0.2-0.3,0-0.3-0.3c-0.1,0.1-0.2,0.3-0.2,0.2
						c0,0,0-0.1,0-0.2c-0.1-0.1-0.1,0-0.1,0.1c0-0.1-0.1-0.3-0.2-0.4c-0.1,0.1-0.1,0.4-0.1,0.5c-0.1-0.4-0.2,0.3-0.3-0.1
						c0-0.1,0.1-0.2,0.1-0.3c-0.1-0.4-0.1,0.3-0.3,0.1l0,0.4c-0.1-0.2-0.2,0.2-0.2-0.2c0,0.1-0.1-0.1-0.1,0.2
						c-0.2-0.3-0.5,0.2-0.6-0.5c0,0.1-0.1,0-0.1,0.2c0,0.2,0.1-0.1,0.1,0c0,0,0,0.1,0,0.2c-0.1-0.1-0.1-0.1-0.1-0.4
						c-0.1-0.2-0.1,0.6-0.3,0.5c0-0.1,0-0.2-0.1-0.2l-0.1,0.3c-0.1-0.1-0.1-0.3-0.1-0.6c-0.1,0-0.1,0-0.2,0.2l-0.1-0.3
						c0.1,0.2,0,0.2-0.1,0.2l0-0.1c0-0.1-0.1,0-0.1,0c0,0.2,0.1,0.2,0.1,0.3c0,0.1-0.1,0.1-0.1,0.2c0-0.2-0.1-0.2-0.1-0.2
						C87,60,87,60.3,87,60.3c0-0.1-0.1,0,0-0.2c0,0,0,0.1,0.1,0c0-0.1,0-0.3-0.1-0.2c-0.1,0.1,0,0.5-0.1,0.3c0-0.1,0-0.2,0.1-0.2
						l-0.1-0.1l0,0.2c0-0.1,0-0.1,0-0.1c0,0.2-0.2,0.1-0.2,0.3c0,0-0.1-0.2-0.2-0.2l0,0c-0.1-0.1-0.1,0-0.2,0.1l0,0
						c0,0-0.1,0-0.1,0.1c-0.1-0.2,0-0.8-0.1-0.6c-0.1,0-0.1,0.4-0.1,0.6c-0.1-0.2-0.3,0.2-0.4-0.1c0,0.1,0,0.1-0.1,0.2
						c-0.2-0.1-0.5,0.3-0.6-0.2c0.1-0.1,0-0.2,0-0.3c-0.1,0.2-0.1-0.2-0.1,0.1c0,0.2,0,0.3,0.1,0.4c-0.1,0.1-0.3,0.1-0.4-0.1
						c0,0.1,0,0.2,0,0.2c0-0.3-0.1-0.4-0.2-0.3l0,0.2l0-0.2c0,0.1,0,0.4-0.1,0.2c0-0.1,0-0.2,0-0.2c-0.1,0.2-0.2,0.4-0.3,0.3
						l-0.1-0.3c0,0-0.1,0.2,0,0.3c-0.1-0.2-0.2-0.2-0.3-0.4c-0.2,0.6-0.6,0.6-0.9,0.6l0-0.1c-0.1-0.1,0,0.3-0.1,0.2
						c0-0.1-0.1-0.3,0-0.5c-0.1-0.2-0.1,0.3-0.2,0.3c0,0.2,0.1-0.1,0,0.1c0,0.1-0.1-0.1-0.2,0.1c0-0.1,0-0.3,0-0.4L82,60.5
						c-0.1-0.3,0.2-0.6,0.1-1l-0.1,0c-0.1-0.3,0.2-0.3,0-0.4C82,59.2,82,59.6,82,59.8c-0.1,0.1-0.1,0.7-0.2,0.7c0-0.2,0.1,0,0.1-0.3
						c-0.1-0.2-0.1,0.1-0.2,0c0.1,0.1,0,0.4,0,0.5c-0.1-0.1,0-0.3-0.1-0.3c0,0.2-0.1,0.3,0,0.4c0,0.4-0.1-0.1-0.2,0.2
						c0-0.3,0.1-0.6,0-0.8c0,0.3-0.1,0.4-0.1,0.7c0-0.1,0-0.3,0-0.4c-0.1-0.2-0.2,0.5-0.2,0l0,0.3c0-0.1,0-0.2-0.1-0.3
						c-0.1,0-0.2,0.4-0.2,0c0,0-0.1,0-0.1,0.3c0.1,0.2,0.1-0.2,0.1,0.2c-0.1-0.3-0.1,0-0.2,0.1l0-0.2c0,0.1-0.1,0-0.1,0.2
						c0-0.1,0-0.2,0-0.2l0,0.2c-0.1,0.1,0-0.4-0.1-0.3l0.1-0.2c0,0-0.1-0.2-0.1-0.1c0,0.2-0.1,0.5-0.1,0.6c-0.1,0.1,0-0.2-0.1,0
						l0.1-0.3c0-0.1-0.1-0.4-0.1-0.3c-0.1,0.1-0.1,0.4-0.1,0.5c0,0-0.1-0.1-0.1-0.3c-0.1,0.1,0,0.2-0.1,0.4c0-0.1-0.1-0.3-0.2-0.6
						l0.1-0.4l-0.1,0c0.1-0.3,0-0.2,0-0.5c0,0-0.1,0.1-0.1,0.1c0.1,0.5-0.1,0.7-0.1,1.1c-0.2,0.1-0.1-1.1-0.3-0.4c0,0.1,0,0.5,0,0.3
						c-0.1,0-0.1,0.4-0.2,0.3c0.1-0.2-0.1-0.4,0-0.7c0,0.1,0.1,0.1,0.1,0.1c0-0.2,0-0.4-0.1-0.4c-0.1,0-0.1,0.1-0.1,0.3
						c0,0.3,0.1,0,0.1,0.2c-0.1,0.1-0.1-0.3-0.2,0.2c0.1,0,0.1,0.2,0.1,0.4L79,61.1l0-0.2c-0.1-0.1,0,0.3-0.2,0.3l-0.1-0.3
						c0-0.3,0.2,0.1,0.2-0.3c-0.1,0-0.1,0.2-0.2,0.1c0,0,0-0.1,0.1-0.1c0,0-0.1-0.6-0.2-0.3c-0.1,0.1,0,0.2,0,0.3
						c-0.1,0.1-0.2,0.2-0.3,0.3c0-0.3-0.2,0-0.1-0.4c0,0.2,0.3,0.2,0.3-0.1c-0.1-0.4,0.1,0.1,0.1-0.4c-0.1,0-0.1-0.4-0.1-0.7
						c0,0-0.1,0.1-0.1,0.1c0,0.2,0,0.2,0,0.5c-0.1-0.1-0.2,0.1-0.3,0.3c0-0.1,0-0.4,0-0.4c-0.2,0.1-0.3,0-0.5,0
						c0.1,0.4-0.2,0.1-0.1,0.4c0.1,0.1,0.1,0.4,0.1,0.6c0,0,0-0.2,0-0.3c-0.1,0.2-0.1-0.3-0.2,0c0.1-0.1,0-0.5,0.1-0.8
						c-0.1,0.2,0-0.2-0.1-0.2c-0.1,0.2-0.2,0.3-0.3,0.4c-0.1-0.3-0.3,0-0.5,0c-0.1-0.2,0-0.5-0.1-0.6c-0.1,0,0.1,0.4-0.1,0.2l0-0.1
						c0,0.1-0.2-0.2-0.3,0.3l0-0.4c0,0,0,0.1-0.1,0.1c0-0.1,0-0.2,0-0.3c-0.1-0.3-0.2,0-0.2,0.1l0.1,0.2c-0.1,0.2-0.2,0-0.4,0l0-0.2
						l-0.1,0.1c0-0.2-0.1-0.4-0.1-0.2l0.2-0.5c0.1,0.1-0.1,0.3,0,0.5c0,0.2,0.2,0.1,0.2-0.1c0,0-0.1,0-0.1,0.1
						c0-0.3,0.1-0.3,0.1-0.5c0,0-0.1-0.1-0.1,0c0-0.2,0.1-0.2,0.2-0.2c-0.1,0.1,0,0.2,0,0.3c0-0.3,0.1-0.4,0.2-0.3
						c0.1,0.3,0.2-0.2,0.3-0.1c0,0.3-0.1,0.5-0.2,0.6c0.1,0.1,0.1,0,0.2,0.1c0-0.2,0.1-0.5,0.2-0.6l0,0.2c0.1-0.1,0.1-0.4,0.2-0.3
						c0.2,0.1,0.4,0.1,0.5,0.1l0,0.2c0.1-0.4,0.3-0.2,0.4-0.4c0.2,0.2,0.4-0.2,0.5,0.2c0.3-0.2,0.6-0.3,0.9-0.2l-0.1,0.3
						c0.1-0.2,0,0.2,0.1,0.1c-0.1-0.2,0.1-0.3,0.1-0.5c0.2,0.2,0.3,0,0.5-0.2l0,0.2c0.1-0.4,0.3,0,0.5,0c0,0.1,0,0.3,0.1,0.3
						c0.1-0.3,0.1-0.3,0.3-0.5c0.1,0,0.3,0.1,0.4,0.2c0.4-0.5,0.7-0.2,1.1-0.4l0,0.2c0.4-0.5,0.8,0,1.1-0.3l0,0.4
						c0.1,0.1,0.2-0.1,0.2-0.4c0.1,0.1,0.2-0.2,0.3,0.1c0.1,0.1,0.1-0.2,0.2-0.2c0.2,0.2,0.3,0.1,0.5,0l0,0c0,0.1,0,0.3,0,0.3
						c0.1-0.1,0.3,0.1,0.2-0.4c0.2,0.3,0.5-0.2,0.7,0.2c0-0.1,0-0.2,0.1-0.2c0.2,0,0.4,0.3,0.5,0c0,0.1,0,0.2,0,0.2
						c0-0.1,0-0.2,0.1-0.2c0.3-0.2,0.6,0.3,0.9,0.2c0.5-0.3,1-0.1,1.4-0.2l0,0.1c0.2-0.4,0.4,0.4,0.5-0.2c0,0.1,0.1,0,0.1,0.2
						c0.1-0.3,0.3,0.2,0.5-0.1c0,0,0,0,0,0.1c0.2,0.2,0.3-0.1,0.5,0.1c0,0-0.1,0.1-0.1,0.2c0.1,0.2,0.2-0.4,0.2,0.1c0,0,0-0.2,0-0.2
						c0.4,0.2,0.8-0.1,1.3-0.2c0.3,0.3,0,0.8,0.3,0.4c0,0.1,0-0.2,0-0.1c0.1-0.1,0.1,0.5,0.2,0.3c0-0.3,0-0.2,0-0.3
						c0.2,0.2,0.2,0.4,0.4,0.2l0,0.2c0.2-0.4,0.4-0.2,0.5-0.7c0.9-0.1,1.8-0.4,2.8-0.4c0.9,0.1,1.8-0.1,2.7,0.1
						c0.2,0.4,0.2,0.4,0.5,0.2c0,0.1,0,0.1,0,0.1c0-0.3,0.2,0,0.2-0.3c0.3,0.1,0.7,0,1,0c-0.1,0-0.1,0.3,0,0.3l0.1-0.2l0,0.1
						c0,0,0.1-0.2,0-0.3c0.9-0.3,1.7,0.4,2.6,0.3c0.2,0.1,0.5,0,0.7-0.1c0.7,0.4,1.3,0.8,1.9,0.5C105.2,57.6,105.1,58.5,104.8,58.7z
						"/>
					<path class="st14" d="M75.5,58.5c0,0.2,0.1,0.3,0,0.5C75.6,58.8,75.5,58.6,75.5,58.5z"/>
					<path class="st14" d="M77.6,60.1C77.6,60.1,77.6,60.2,77.6,60.1c0,0.1,0,0.2,0,0.2C77.6,60.3,77.6,60.2,77.6,60.1z"/>
					<path class="st14" d="M78.1,60.2c0,0.1-0.1,0.3-0.2,0.3L78.1,60.2z"/>
					<path class="st14" d="M78.6,60.8c0,0.1,0,0.2,0,0.2C78.6,61,78.6,60.9,78.6,60.8z"/>
					<path class="st14" d="M78.6,60.5c0,0,0.1,0.1,0.1,0.2C78.7,60.6,78.6,60.8,78.6,60.5z"/>
					<path class="st14" d="M79.7,60.9c0,0,0.1-0.1,0.1,0C79.8,60.8,79.7,61.1,79.7,60.9z"/>
					<path class="st14" d="M80.2,60.7C80.2,60.7,80.2,60.7,80.2,60.7c0.1,0.1,0,0.2,0,0.2L80.2,60.7z"/>
					<polygon class="st14" points="89.1,60.1 89.1,60.2 89.1,60.1 					"/>
					<path class="st14" d="M93.1,60.1c0.1-0.1,0,0.1,0,0.2C93.1,60.3,93.1,60.1,93.1,60.1z"/>
					<polygon class="st14" points="95.2,59.4 95.2,59.4 95.2,59.1 					"/>
				</g>
			</g>
		</g>
	</g>
</g>
<g>
	<path class="st6" d="M129.7,77.2L104.3,59c-1-0.7-2.4-0.6-3.1,0.3l-0.3,0.4c-0.7,0.9-0.4,2.3,0.7,3.1L127,80.9
		c1,0.7,2.4,0.6,3.1-0.3l0.3-0.4C131,79.3,130.7,77.9,129.7,77.2z"/>
	<path class="st6" d="M125.1,83.6L99.8,65.4c-1-0.7-2.4-0.6-3.1,0.3l-0.3,0.4c-0.7,0.9-0.4,2.3,0.7,3.1l9.8,7.1
		c-0.7,1.5-0.2,3.3,1.2,4.3c1.4,1,3.3,0.9,4.5-0.2l9.8,7.1c1,0.7,2.4,0.6,3.1-0.3l0.3-0.4C126.5,85.7,126.2,84.4,125.1,83.6z"/>
	<path class="st6" d="M196.4,53.4l-0.2-0.4c-0.7-1-2-1.1-3.1-0.4l-3.3,2.3l-21.6-31.3c0.3-1.5,0.4-3.1,0.3-4.8
		c-0.8-9.7-9.3-16.9-19-16.1c-9.7,0.8-16.9,9.3-16.1,19c0.1,0.9,0.2,1.8,0.4,2.7L112,54.8l-3.2-2.3c-1-0.7-2.4-0.6-3.1,0.3l-0.3,0.4
		c-0.7,0.9-0.4,2.3,0.7,3.1l4.5,3.2c0.2,0.1,0.4,0.2,0.6,0.4l20.3,14.6c1,0.7,2.4,0.6,3.1-0.3l0.3-0.4c0.7-0.9,0.4-2.3-0.7-3.1
		l-3.3-2.4L151.2,40l19.3,28l-3.2,2.2c-1.1,0.7-1.4,2.1-0.7,3l0.2,0.4c0.7,1,2,1.1,3.1,0.4l25.8-17.6
		C196.7,55.7,197,54.4,196.4,53.4z"/>
	<path class="st6" d="M200.9,59.9l-0.2-0.4c-0.7-1-2-1.1-3.1-0.4l-25.8,17.6c-1.1,0.7-1.4,2.1-0.7,3l0.2,0.4c0.7,1,2,1.1,3.1,0.4
		l25.8-17.6C201.2,62.2,201.5,60.8,200.9,59.9z"/>
	<path class="st6" d="M205.4,66.4l-0.2-0.4c-0.7-1-2-1.1-3.1-0.4l-25.8,17.6c-1.1,0.7-1.4,2.1-0.7,3l0.2,0.4c0.7,1,2,1.1,3.1,0.4
		l10-6.8c1.2,1.1,3.1,1.3,4.5,0.4c1.4-1,1.9-2.8,1.3-4.3l10-6.8C205.7,68.7,206,67.3,205.4,66.4z"/>
</g>
<g>
	<g>
		<g>
			<polygon class="st14" points="134.4,22.7 110.5,56.3 113.8,58.7 137.2,25.8 			"/>
			<polygon class="st14" points="150.5,34.3 126.6,67.9 129.4,69.9 153.3,36.4 			"/>
			<path class="st14" d="M113.8,58.7"/>
		</g>
		<path class="st14" d="M134.6,73.6c-0.7,0.9-2.1,1.1-3.1,0.3l-25.4-18.2c-1-0.7-1.3-2.1-0.7-3.1l0.3-0.4c0.7-0.9,2.1-1.1,3.1-0.3
			l25.4,18.2c1,0.7,1.3,2.1,0.7,3.1L134.6,73.6z"/>
		<path class="st14" d="M130,80c-0.7,0.9-2.1,1.1-3.1,0.3l-25.4-18.2c-1-0.7-1.3-2.1-0.7-3.1l0.3-0.4c0.7-0.9,2.1-1.1,3.1-0.3
			l25.4,18.2c1,0.7,1.3,2.1,0.7,3.1L130,80z"/>
		<path class="st14" d="M125.5,86.4c-0.7,0.9-2.1,1.1-3.1,0.3L97,68.6c-1-0.7-1.3-2.1-0.7-3.1l0.3-0.4c0.7-0.9,2.1-1.1,3.1-0.3
			L125.1,83c1,0.7,1.3,2.1,0.7,3.1L125.5,86.4z"/>
		<path class="st14" d="M113.1,79.1c-1.2,1.6-3.4,2-5,0.8l0,0c-1.6-1.2-2-3.4-0.8-5L113.1,79.1z"/>
		<g>
			<path class="st14" d="M149.4,2.1c-9.7,0.8-16.9,9.3-16.1,19c0.8,9.7,9.3,16.9,19,16.1c9.7-0.8,16.9-9.3,16.1-19
				C167.6,8.5,159.1,1.3,149.4,2.1z M152,33.9c-7.9,0.6-14.9-5.3-15.5-13.2c-0.6-7.9,5.3-14.9,13.2-15.5c7.9-0.6,14.9,5.3,15.5,13.2
				C165.8,26.4,159.9,33.3,152,33.9z"/>
			<circle class="st14" cx="150.8" cy="19.6" r="6.6"/>
		</g>
	</g>
	<g>
		<g>
			<polygon class="st14" points="148.5,35.6 171.9,69.6 175.2,67.3 152.9,34.9 			"/>
			<polygon class="st14" points="164.9,24.5 188.2,58.4 191.1,56.5 167.7,22.5 			"/>
			<path class="st14" d="M175.2,67.3"/>
		</g>
		<path class="st14" d="M196.3,52.8c0.7,1,0.3,2.3-0.7,3l-25.8,17.6c-1.1,0.7-2.4,0.5-3.1-0.4l-0.2-0.4c-0.7-1-0.3-2.3,0.7-3L193,52
			c1.1-0.7,2.4-0.5,3.1,0.4L196.3,52.8z"/>
		<path class="st14" d="M200.8,59.3c0.7,1,0.3,2.3-0.7,3l-25.8,17.6c-1.1,0.7-2.4,0.5-3.1-0.4l-0.2-0.4c-0.7-1-0.3-2.3,0.7-3
			l25.8-17.6c1.1-0.7,2.4-0.5,3.1,0.4L200.8,59.3z"/>
		<path class="st14" d="M205.3,65.8c0.7,1,0.3,2.3-0.7,3l-25.8,17.6c-1.1,0.7-2.4,0.5-3.1-0.4l-0.2-0.4c-0.7-1-0.3-2.3,0.7-3
			L201.9,65c1.1-0.7,2.4-0.5,3.1,0.4L205.3,65.8z"/>
		<path class="st14" d="M194.2,75c1.1,1.6,0.7,3.9-0.9,5l0,0c-1.6,1.1-3.9,0.7-5-0.9L194.2,75z"/>
	</g>
</g>
<g>
	<path class="st14" d="M54.7,141.6c-1.2,0-2.4,0.1-3.5,0.1c-3.4,0-5.5-0.6-10.2-0.6c-1.3,0-4,0.5-5.9,0.5c-0.2,0-0.3-0.1-0.4-0.1
		c-1,1.4-1.6,3.8-2.2,5.4c-0.2,0.5-1.9,5.2-3.5,5.2c-3.1,0-4.5,0.5-6.9,0.5c-1,0-2.1-1-2.1-1.9c0-0.2,0.6-1.8,1.2-2.4
		c0.9-0.5,1.1-1.6,1.6-3c0.2-0.7,2.1-2.8,3.2-7.1c0.2-1,1.6-5.2,3.2-8.4c0.8-2.6,2.8-4.9,3.5-6.7c2-3,3-6,4.1-8.5
		c0.5-1.9,1.7-2.5,3-5c0.6-1.6,1.9-2.3,2.6-5.4c0.2-1,1.2-2.5,1.2-3.3c0.2-0.4,1.1-3.3,2.9-3.3c2.2,0,1.8,1.9,3.3,5
		c-0.1,0.1,3.3,6.3,5,9.8c0.9,2.1,1.1,3.3,2.8,6.5c1.6,2.3,2.2,6.1,4.3,9.2c1.6,2.5,3.3,6.4,4.7,10.5c0.2,1.2,1.3,2.4,1.7,4.3
		c0,0.2,1,3.1,1.6,3.6c0.3,0.7,2.6,2.7,2.6,3.9v0.2c0,0.2,0.2,0.5,0.2,0.9c0,1.1-1.1,0.9-2.2,1.1c-3.7,0-4.7-0.2-6.4-0.2
		c-1.9,0-3-2.7-3.4-4.5c-0.5-2.4-1.6-2.9-2.7-6.1C57.1,141.4,55.3,141.6,54.7,141.6z M26.7,147.4c-0.1,0,0.5-1.5,0.2-1.4
		c0,0.1-0.4,1.3-0.4,1.3C26.6,147.3,26.6,147.4,26.7,147.4z M31.4,134.7c0-0.2,0.2-0.3,0.2-0.5C31.4,134.4,31.4,134.4,31.4,134.7z
		 M31.8,133c0.6-0.9,1.8-2.6,1.8-3c-0.4,0.3-0.5,0.7-0.9,1.1C32.5,131.4,31.8,132.1,31.8,133z M37.5,139.4v0.2
		c0.2,0.1,0.3,0.1,0.5,0.1c1,0,1.8-0.4,2.8-0.4c-0.2-0.1-0.3-0.1-0.5-0.1c-0.2,0-0.5,0.1-0.8,0.1C38.8,139.4,38.1,139.3,37.5,139.4z
		 M52.2,127.5c-1.6-1.6-2.6-5-3.4-7.1c-0.3-0.9-1.6-4.7-2.4-5.5l-0.4,1c-0.9,4.2-3.1,6.4-4.1,9.3c-0.9,2.6-2.5,5.3-3.3,8.4
		c1-0.3,2.6-0.2,3.6-0.2c0.5,0,0.9,0.2,1.6,0.2c0.3,0,0.6-0.1,0.9-0.1c1.3,0.1,2.7,0.1,4,0.1h2.6c0.9,0,2.6,0,3.3,0.2
		c-0.5-0.9-1-1.9-1.3-3C53.1,129.6,52.5,128.3,52.2,127.5z M40.4,114.1c1.8-1.8,2.8-4.7,2.9-5.6c-0.6,0.8-1.1,1.7-1.6,2.6
		C41.2,112.1,40.6,113.2,40.4,114.1z M45.8,100.8c-0.5,0-0.7,0.9-0.7,1.3C45.4,101.3,45.8,100.8,45.8,100.8z M47.6,100.8
		c-0.1,0.1-0.2,0-0.2,0.1c0.1,0,0.2,0.1,0.2,0.1V100.8z M49.4,103.6c-0.2-0.2-0.2-0.7-0.5-0.9c0,0.2,0.1,0.5,0.1,0.7
		C49.1,103.3,49.3,103.6,49.4,103.6z M50,138.7c0.5,0,1.3-0.2,2.2-0.2c0.4,0,0.9,0.1,1.3,0.1c0.5,0,1-0.1,1.5-0.2h-0.5
		c-1.9,0-3.6-0.1-5.3-0.2l-0.1,0.1c0,0.1,0.1,0.2,0.1,0.2C49.4,138.6,49.7,138.7,50,138.7z M50.9,107.8c-0.4-0.8-0.5-1.8-0.9-2.6
		c-0.1,0.3-0.3,0.6-0.3,0.9c0,0.1,0,0.2,0.1,0.2C50.3,106.7,50.5,107.5,50.9,107.8z M56.8,126.7c0.2,1.1,0.8,1.7,1.2,2.6
		C58,127.5,57.4,127.5,56.8,126.7z M63.9,137.5L63.9,137.5c-1-2.3-1.3-3.3-2.3-6.4c0,0.7,0.1,1.3,0.2,1.9
		C62,134.7,64,137.5,63.9,137.5z M67.8,147.1c0.1,0,0.8,2,1.1,2.3c0.1,0.2,0.4,0,0.4,0C69.8,149.3,68,147.4,67.8,147.1L67.8,147.1z"
		/>
	<path class="st14" d="M93.7,121.6c0.9,0,1.9-0.1,2.9-0.1c1.2,0,2.3,0.2,3.5,0.2c0.8,0,1.7-0.2,2.6-0.2c1.8,0,3.7,0.2,5.5,0.2
		c1.2,0,3.2-0.4,4.9-0.4c2.5,0,2.1,1.6,2.1,3.9c0,1.4-0.4,2.3-0.4,3.7c0,0.2,0.1,0.5,0.1,0.8c0,0.9-0.2,0.9-1.2,0.9
		c-2,0-3.5-0.2-6-0.2c-3,0-5.5,0.5-8.4,0.5c-2.4,0-4.7-0.1-7.1-0.2v0.2c0,0.6-0.4,1.6-0.5,2.5c0,1,0.3,1.9,0.3,2.8
		c0,1.7-0.5,3.3-0.5,5c0,2,1.4,2.6,3.2,2.6c2.3,0,3.6-0.2,5.4-0.5c1.9,0,5.6,0.7,7.5,0.7c1.7,0,2.9-0.6,5.1-0.6c3.9,0,5,0.3,5,2.7
		c0,5.2,0.6,6.1-1.2,6.1c-0.2-0.1-0.4-0.2-0.5-0.2c-1.8,0-2.7-0.1-4.1-0.1c-0.6,0-1.2-0.2-1.9-0.2c-1.1,0-2.7,0.3-4,0.3
		c-4.3,0-9.4-0.4-13.6-0.4c-0.5,0-3.2,0.4-5.5,0.4c-2.5,0-4.9,0.6-4.9-1.7c0-0.6,0.3-1.2,0.3-1.9c-0.1-0.2-0.2-0.5-0.2-0.7
		c0,0.1-0.2-2.7-0.2-5.9c0-3.2,0.3-6.7,0.3-9.6c0-1.3-0.3-2.4-0.3-3.7c0-2.6,0.3-4.9,0.3-7.4c0-2.6-0.5-4.8-0.5-6.1
		c0-2.2,0.5-4,0.5-6.4c0-0.9-0.2-1.7-0.2-2.6c0-0.5,0.1-1.2,0.1-1.8c0-0.9-0.2-2.3-0.2-3.7c0-1.6,0.2-3.2,1.6-3.3
		c0.3,0,0.5,0.1,0.9,0.2c0.6-0.3,1.5-0.4,2.2-0.4c6.1,0,11.7,0.9,17.5,0.9c2.2,0,4.4-0.5,6.7-0.5c5.4,0,6.7-0.4,6.7,2.8
		c0,0.2,0.2,1.2,0,1.6c0,0-0.1,0.5-0.1,2.3c0.2,0.5,0,0.9,0,1.5c0,1.2,0.2,1.4-1,1.4c-1.2,0-2.2,0.1-3.3,0.1h-0.4
		c-1.9,0-4-0.3-5.6-0.3c-0.2,0-0.5,0.2-0.6,0.2c-0.8,0-1.7-0.4-2.6-0.4c-2.3,0-2.2,0.5-4.2,0.5c-1.6,0-3.3-0.2-4.7-0.3
		c-0.5-0.2-1.2-0.5-1.9-0.5c-0.1,0-1.2,0.1-1.2,3.1c0,1,0,2.1,0.2,2.9c0.1,0.5,0.5,1.3,0.5,3.8c0,0.7-0.3,1.4-0.3,2.3
		c0,0.5,0.1,0.9,0.2,1.4c0,0.6,0,1.2-0.2,1.9C92.7,121.6,93.1,121.6,93.7,121.6z M84,146.2l0.2,0.2v-6.3
		C84.1,140.1,84,146.2,84,146.2z M84.3,110.8l0.5,0.9h0.1l0.2-3.1L84.3,110.8z M85.2,100.1c-0.2,0-0.2,0-0.3-0.1
		c0.1,0.5,0.1,1.2,0.1,1.8C85.1,101.6,85.2,100.6,85.2,100.1z M85.8,132.8c0,0.1,0.4,0.7,0.5,0.7s1.2-1,1.4-1.2
		C87.1,132.4,86.5,132.7,85.8,132.8z M89,117.1c-0.2,0-0.2,0-0.3-0.1c0.1,0.5,0.1,1.2,0.1,1.8C89,118.6,89,117.5,89,117.1z
		 M94.6,145.6v-0.5l-2.4,0.2L94.6,145.6z M96.2,127.3c-0.2-0.1-0.5-0.3-1-0.3c-0.8,0-1.7,0.3-2.2,0.4l0.2,0.3
		C94.1,127.5,95.3,127.4,96.2,127.3z M99.4,127.4c0,0-0.5-0.1-0.7-0.1c-0.1,0-0.4,0.1-0.4,0.2h0.9C99.3,127.5,99.4,127.4,99.4,127.4
		z M101.3,148l-0.2-0.2l-2.8,0.2L101.3,148z M101.6,103.2c-0.1,0.1-0.2,0.1-0.2,0.1S101.5,103.3,101.6,103.2z M102.1,103l-0.5,0.2
		c0.1,0,0.2-0.1,0.4-0.1C102,103.1,102.1,103,102.1,103z M106.8,126.1c0-0.2,0.1-0.2,0.2-0.3c-0.2-0.3-1-1.2-1.2-1.2L106.8,126.1z
		 M107.9,100.6l-0.1-0.5l-1.7,0.1C105.7,100.9,107.2,100.6,107.9,100.6z M111.7,123.3h1.6l-0.1-0.2l-1.7,0.1L111.7,123.3z
		 M115.1,100.4v-0.2l-2.4-0.1L115.1,100.4z M114.2,150.6l0.2,0.2l0.3-0.2H114.2z"/>
	<path class="st14" d="M148.5,119.6c2.8,1.7,3.8,1.9,4.7,2.3c4.5,2.4,5.4,3.5,6.4,4.3c3.6,2.9,5.4,4.7,6,8.3c0.5,1.2-0.2,2-0.2,4
		c0,3.7-1.6,5.4-2.2,7.1c-0.4,1-2.1,3.1-3.3,3.6c-2.1,0.9-4.3,2.4-4,2.2c-1.3,0.8-2.4,0.7-3.7,1.1c-1.4,0.4-2.6,0.9-4,0.9
		c-1.7,0-3.9-0.7-5.1-0.7c-4.7,0-8.5-1.8-9.5-2.1c-2.1-0.7-5.7-0.9-5.7-2.8c0-2.6,1.8-4.2,1.8-4.6c0.2-0.6,0-1.9,1-2.6
		c0-0.8,0.4-1.2,1.2-1.2c1.1,0,2.6,1.6,3.1,1.9c0.5,0.3,0.9,0.7,1.3,1c4.5,1.4,8.2,2.4,11.2,2.4c3.6,0,5.8-2.1,6.2-2.2
		c1.1-0.8,2.2-2.6,2.2-3.3c0-4.9-1-4.4-2.1-5.5c-1.7-0.9-2.4-2-4.2-2.7c-1.9-0.7-3.2-1.8-4.7-2.2c-4.8-1.1-8.8-2.9-11.1-6.2
		c-2.8-3.4-3.9-3.7-4.5-9.7c-0.2-0.7-0.2-1.7-0.2-2.5c0.5-2.6,1.6-3.3,3.2-6.4c1.6-3.2,5.7-4.9,6.3-5.3c1.9-1.1,4.3-2.1,6.8-2.1
		c1.9,0,3.2-0.2,4.7,0.1c4.3,1,4.7,1,5.1,1.1c1.9,0.4,3.4,0.6,5.3,1.6c1.3,0.5,2.6,0.9,2.6,2.6c0,1.1-1.4,2.9-1.6,3.3
		c0,1.5-0.4,3.7-2.1,3.7c-1.9,0-2.2-1.6-3.8-1.6c-3-0.2-4.8-1.6-8.3-1.6c-5.3,0-5.6,2-5.9,2.6c-0.4,0.9-1.5,1.7-1.5,3.1
		c0,2.5,1,4.7,0.9,4.3c0,0,0.9,0.7,1.1,1.3C144,118.1,146.7,118.5,148.5,119.6z M132.1,147.3c0-0.1,0.1-0.2,0.1-0.2l-0.9-0.5
		c0,0.2-0.2,0.3-0.2,0.5C131.5,147.2,131.7,147.3,132.1,147.3z M133.2,110.6v0.3c0-0.4,0.1-0.8,0.1-1.1c-0.1,0.2-0.2,0.2-0.2,0.3
		C133.2,110.3,133.2,110.5,133.2,110.6z M136,115.6c-0.7-0.5-1.2-1.2-1.6-2.1c-0.3-0.5-0.9-0.8-1.1-1.3v0.6
		C133.9,113.8,135.3,115.6,136,115.6z M142.1,122.8c0.2,0.3,0.9,0.5,1.2,0.5L142.1,122.8z M144,149.5c-0.2,0-0.5,0-0.7,0.1
		c0.6,0.5,2.5,0.5,2.7,0.5c0.9,0,2.1,0,2.7-0.4c-0.4,0.1-0.8,0.1-1.2,0.1h-1.2C145.5,149.7,144.8,149.5,144,149.5z M143.7,123.5
		c0.2,0.1,0.5,0.4,0.7,0.5c1.3,0.1,2.6,0.7,3.8,0.9c-0.9-0.3-1.7-0.6-2.4-1.1c-0.2,0.1-0.4,0.1-0.5,0.1
		C144.6,123.9,144.1,123.6,143.7,123.5z M149,100.5c0.5,0,0.7-0.4,1.4-0.4c0.5,0,0.9,0.1,1.4,0.1h1.2c0.5,0,0.9,0.2,1.5,0.2
		c-0.3-0.6-3.6-0.5-3.8-0.5c-1,0-2.9,0.2-5.1,0.8c0.9-0.1,1.8-0.2,2.8-0.2C148.5,100.4,148.7,100.5,149,100.5z M153.7,104.1
		c-0.5-0.2-1-0.4-1.4-0.4C152.8,103.9,153.2,104,153.7,104.1z M153.3,149c0.7,0,1.2-0.2,1.3-0.9c-0.5,0.4-1.3,0.6-1.9,0.9H153.3z
		 M158,105.2c-0.9,0-1.3-0.5-2.1-0.5c0.7,0.2,1.3,0.5,1.9,0.9L158,105.2z M157.6,134.7c-0.1-0.3-1.1-2-1.3-2
		c0.3,0.5,0.7,1.1,0.9,1.8L157.6,134.7z M157.5,129.1c-0.2,0-0.3-0.2-0.4-0.2c0.1,0,0.1,0.2,0.2,0.2
		C157.3,129.1,157.4,129.2,157.5,129.1z M157.7,146.2v-0.3c-0.1,0.2-0.2,0.5-0.2,0.7v0.2C157.6,146.6,157.7,146.4,157.7,146.2z
		 M158.2,144.8c0.2-0.2,0.5-0.4,0.6-0.5v-1c0.1-0.4,0.2-0.5,0.4-0.8l-0.3-1.2v1.2C158.9,143.1,158.5,144.2,158.2,144.8z
		 M161.4,133.3l-0.2-0.5C161.1,133,161.2,133.1,161.4,133.3z M162,135.5c0,0.4,0.3,0.7,0.4,1c-0.1-0.9-0.2-2-0.6-2.5
		c0.2,0.3,0.2,0.6,0.3,1C162.1,135.1,162,135.3,162,135.5z M162.7,139.6c-0.1,0.1-0.2,0.2-0.2,0.2c0,0.1,0.1,0.2,0.2,0.2V139.6z"/>
	<path class="st14" d="M186.6,101.2c0.9-0.2,1.5-0.8,2.1-1.3c1.5-1.2,5.4-2.3,7.9-2.5c0.4,0,0.7,0.1,1.1,0.1c2.1,0,4-1.2,6.7-1.2
		c0.7,0,1.4,0,2.1,0.1c0.8,0,4.4,1.4,8.1,1.8c3.2,0.4,6.1,3.6,8.5,5.2c0.9,0.9,3.6,2.6,4.7,4.1c0.1,0.1,2.4,3.3,2.4,5.7
		c0.1,0.5,0,2.9,1.3,5.6c0.7,2.9,1.4,4.5,1.4,6.1c0,1.7-0.4,3.4-0.6,4.4c0,0.5-0.9,0.8-0.9,3.6c0,0.4,0.2,1,0.2,1.7
		c0,1.7-1.5,3.6-2.9,5.7c-0.2,0.3-1.7,4.7-7.1,7.8c-1.2,0.9-8.4,5.7-17,5.7c-2.8,0-4.6-0.6-6.2-1.1c-3.7,0-6-1.6-8.8-2.3
		c-2.3-1.2-3.6-2.8-5.7-4.2c0.1-0.1-5.1-3.7-6.6-7.2c-0.3-0.6-0.3-1.8-0.8-2.6c-1.5-1.8-2.8-4.2-2.8-7.8c0-0.8,0.2-1.5,0.2-2.2
		s-0.4-1.2-0.4-2.1c0-7.6,2.6-9.9,4.1-14c0.8-2.2,2.9-4.1,4.4-5.6c-0.2,0.2,1.5-2.2,2.7-2.8C185.2,101.3,185.8,101.4,186.6,101.2z
		 M176.5,116.7c-0.5,0-0.8,1.5-0.6,1.7C176.6,117.8,176.1,117.5,176.5,116.7z M182.7,109.5c-0.3,0.3-1.6,1.2-1.6,1.2
		c0,0.1-0.1,1-0.1,1C181.8,111.1,182.5,110,182.7,109.5z M186.4,144.8c-1.6-0.7-2.9-1.3-3.7-2.5
		C182.7,143.2,185.2,144.6,186.4,144.8z M188.3,112.9c-1.1,1-1.6,2.5-2.3,3.7c-0.7,1.2-1.2,3.2-1.2,4.7c0,0.5,0.1,1,0.1,1.6
		c0,1.4-0.5,2.7-0.5,4.2c0,2.1,1.6,4.4,2.6,6.7c-0.2-0.3,0.2,2.1,1.7,3.9c3.5,3.6,5.4,4.1,9.4,5.6c2.2,0.5,5,1.4,8.2,1.4
		c1.5,0,2.6-0.5,3.3-0.8c3.1-1.6,5.5-2.9,7.3-5.1c2.9-4.3,4.9-5.6,4.9-14.3c0-0.9-0.3-2.4-0.3-3.7c-1.3-4-2.1-5.1-2.8-6.8
		c-1.2-1.6-1.6-3.3-7.6-6.2c-2.3-1.1-3.7-2.9-6.6-2.9c-2.8,0-4.4,1.2-8.8,2.3c-0.8,0.2-4.5,0.9-6.6,4.2
		C189,111.9,188.6,112.4,188.3,112.9z M196.1,149.6c1.2,0.3,2.6,0.6,2.6,0.6c0.2,0,0.9-0.4,0.9-0.4l-1.6-0.1l-3.6-0.5L196.1,149.6z
		 M211.1,103.8c-0.1,0-0.4,0.6-0.5,0.7c0.7,0.1,1.3,0.4,1.9,0.5C212.4,104.8,211.4,103.8,211.1,103.8z M216.3,148.4
		c1.2-0.2,3.6-1.6,3.7-2.5C219,146.8,217.8,147.6,216.3,148.4z M225.1,116.1c0-1.2,0.1-2.5-2.4-5.7
		C222.6,110.3,224.7,115,225.1,116.1z M229.6,129.4c-0.2,1.9-0.9,3.6-0.9,5.8v0.2C229.1,134.6,229.5,130.7,229.6,129.4z
		 M229.7,122.9c0,0.2,0.2,1.3,0.2,1.5v0.2c0,0.5,0.2,1.8,0.2,1.8s0.2-0.4,0.2-0.6C230.4,124.4,230.1,123.1,229.7,122.9L229.7,122.9z
		"/>
	<path class="st14" d="M251.8,137.1c0,1.1,0.1,2.1,0.1,3.1c0,1-0.1,1.9-0.1,2.9v1.8c0,0.5-0.1,1.2-0.1,1.7c0,1.6,0.2,3,0.2,4.4
		c0,1.1-0.3,1.7-1.6,1.7c-0.4,0-0.8-0.1-1.2-0.1c-1.7,0-3.2,0.3-4.6,0.3c-3.3,0-2.9-5.4-2.9-11.9c0.2-1.5,0.6-3,0.6-4.3
		c0-2.9-0.8-5.4-0.8-6.6c0-1.6,0.6-3,0.6-4.1c0-1.6-0.5-3.6-0.5-5.3c0-5.2,0.5-6.1,0.5-8.8c0-1.8-0.2-3.6-0.2-5.4c0-2.1,0.4-3,0.4-4
		c0-1.1-0.1-2-0.2-3c0-1.1-0.2-2.3,3.7-2.3c1.9,0,4.2,0.2,6.4,0.2c2.6,0,5.4-0.1,7.9-0.1c4.1,0.6,4.7,0.8,7.8,1.3
		c6.4,1.1,10,7.3,10.3,7.8c2.6,3.4,3.2,5.7,3.2,7.7c0,1.2-0.2,2.4-0.2,3.4c0,0.5,0.3,0.9,0.3,1.5c0,1-0.7,3.5-0.6,3.3
		c-0.3,2.2-2.1,3.7-2.5,5.9c-1.1,2.9-1.9,2.9-5.5,5.2c-2.4,1.6-6.4,3.1-9.1,3.1c-0.9,0-1.7-0.2-2.6-0.2h-2.6c-0.8,0-1.6-0.2-2.3-0.2
		c-0.5,0-0.9,0.1-1.4,0.2c-0.9,0-1.9-0.2-2.8-0.2C252,136.2,251.8,136.9,251.8,137.1z M244,146.2l0.2,0.2v-6.3
		C244.2,140.1,244,146.2,244,146.2z M244.3,110.8l0.5,0.9h0.1l0.2-3.1L244.3,110.8z M245.2,100.1c-0.2,0-0.2,0-0.3-0.1
		c0.1,0.5,0.1,1.2,0.1,1.8C245.1,101.6,245.2,100.6,245.2,100.1z M249.1,117.1c-0.2,0-0.2,0-0.3-0.1c0.1,0.5,0.1,1.2,0.1,1.8
		C249,118.6,249.1,117.5,249.1,117.1z M264.8,126.1c1.6-0.5,4.7-0.2,4.7-4.6c0.3-1.6,0.5-3.9,0.5-6c0-2.6,0-2.5-5.4-7.9
		c-0.6-0.6-1.2-0.6-3.7-0.6c-2.6,0-3,0.2-3.6,0.2c-1.9,0-3.2-0.2-5.1-0.2c0.1,0.1-0.2,0.1-0.2,0.2c0,3.5,0.5,7.1,0.5,9.6
		c0,4.4-0.4,10-0.5,10.5c1,0.4,2.1,0.4,3.4,0.4C258.9,127.6,263.2,126.5,264.8,126.1z M254.8,100.6l-0.1-0.5l-1.7,0.1
		C252.6,100.9,254.1,100.6,254.8,100.6z M255.6,134.5V134l-2.4,0.2L255.6,134.5z M260.8,129.7c-0.2,0-0.5-0.1-0.9-0.1
		c-0.8,0-1.7,0.1-2.2,0.2l0.2,0.3C258.8,129.9,260,129.8,260.8,129.7z M264,103.3c-0.1,0-0.5,0.6-0.5,0.7c0.7,0.1,1.3,0.4,1.9,0.5
		C265.3,104.4,264.1,103.3,264,103.3z M275.3,107.8c-0.5-1.2-1.8-2.2-2.6-3.1c-0.9-0.5-1.9-1.2-2-1.2c0.2,0.2,0.2,0.5,0.4,0.6
		C272.9,105.4,273.6,106.1,275.3,107.8z M270.6,132c0.2,0,1.1-0.6,2-1.2c0.9-0.9,2.1-1.9,2.6-3.1c-1.7,1.7-2.4,2.4-4.3,3.6
		C270.9,131.5,270.8,131.8,270.6,132z M276.4,108.6c0,0.1,0.1,0.1,0.2,0.1C276.4,108.7,276.4,108.6,276.4,108.6z M276.5,108.7
		c0.2,0.1,0.2,0.2,0.5,0.2c0-0.1-0.1-0.2-0.1-0.2C276.7,108.8,276.6,108.8,276.5,108.7z"/>
</g>
<g>
	<g>
		<g>
			<g>
				<g>
					<path class="st14" d="M5.1,164.3c-1.1,0,0.6,0.1-0.7,0.1C4.5,164.3,4.7,164.3,5.1,164.3z"/>
					<path class="st14" d="M293.8,164.4c-3.5,0.4-8,0-11.8,0.2c-0.4,0,0.1-0.2-0.9-0.2c-3.7,0.3-9.5,0.1-13.9-0.1l0.3-0.1
						c-0.9,0-1.9,0.2-2.8,0.1c0,0,0.3-0.1,0.1-0.1c-0.2,0.1-1.6,0.1-2,0.1c-0.4,0-0.3-0.1-0.8-0.2l-0.5,0.1c-1.4,0.3-3.5,0-5.5,0.1
						c0.1,0,0.3-0.1,0.1-0.1c-3.1,0.2-7.1,0.2-10.6,0.2c0.1,0,0.3-0.1,0.1-0.2c-0.2,0.1-1.3,0.2-2.2,0.2c-0.4-0.1-1.6,0.1-2.7,0.1
						l0.1,0c-0.8,0.2-1.2-0.1-1.9,0.1l-0.5-0.1c-0.4,0.2-1.2-0.1-1.9,0l0,0c-0.6,0.1-1-0.1-1.6,0l-0.1,0c-1.4,0.1-2.2-0.1-2.2,0.1
						c-0.5-0.1,1.3-0.1,0.6-0.2c-4.6,0.2-9.3,0.1-13.8,0.1c-0.5-0.1-0.9-0.1-1-0.1c-0.5,0-1.7,0-2.1,0.1c0.2,0-0.3-0.1-0.5-0.1
						c-0.8-0.1-0.9,0.2-1.8,0.1c0.4,0,0.5-0.1,0.4-0.2c-0.8,0.1-1.8,0.1-2.8,0.1c0.1,0,0.4,0,0.3-0.1c-1,0.1-1.8,0-2.7,0.1l0.3-0.1
						c-1.4-0.1-0.4,0.2-1.7,0.1c0.3,0,0.2-0.1,0.2-0.1c-1.1,0.2-3,0.1-4.2,0.2c0.1,0,0.1,0,0.1,0c-1.3,0-2.6,0-3.9,0
						c-0.5,0,0.2-0.2-1.2-0.2c0,0.2-2.2,0.1-1.5,0.3c-1.1,0-2.9-0.1-3.7,0c0.5-0.1-0.6-0.2,0.4-0.2l-0.7-0.1c0.1-0.1,0.7,0,0.5-0.1
						c-0.5,0-1.8,0.1-2.3,0.1c-0.9,0.1-1.7,0.3-3.1,0.3c0.7-0.1-0.4-0.2,0.1-0.2l-2,0.4c-0.5,0-0.1-0.1-0.8-0.1c0,0-0.3,0.1-0.5,0.1
						c-0.2,0-2,0-2.2-0.1c-0.2-0.1,0.8,0,0.2-0.1c-0.9,0-0.9,0.1-1.8,0.1l0,0c-0.6,0-1.7,0.1-1.1,0.2c0.4,0-0.2-0.1,0.4-0.1
						c-0.4,0.1-1.4,0.1-2.3,0.1c0.3,0,0.3-0.1,0.4-0.1c-1.2,0.1-2.4,0.2-3.7,0.2c0,0.1,0.5-0.2,0.7-0.1c-1.7-0.1-3.4,0.2-4.8,0
						c0.2,0,0.1,0.1,0.1,0.1c-0.8,0-0.8-0.1-1.3-0.1c-0.1-0.1-0.7,0-1.2,0c-0.3,0.1-0.1,0,0.3,0c-0.8,0.1-3.8,0.2-5.5,0.1
						c0,0-1.1,0.2-1.5,0.2l0.2-0.1c-0.4-0.1-1.3,0-1.4-0.1c-0.9,0.1,3.3-0.1,2.1,0c-0.3-0.1-1.6,0.2-1.4,0c-0.8,0-1.6,0.1-2.3,0
						c0.2,0,0.7-0.2,0-0.2c-1.1,0-0.3,0.1-1.2,0.1l-0.6,0c0,0.1-1,0-0.6,0.1c-0.1-0.1-1.7,0.1-1.5-0.1l0.2-0.1
						c-0.5,0-0.8,0.2-1.2,0.2c-0.1,0-0.2,0-0.2-0.1c-0.1,0.2-1.2,0-1.8,0.2c-1-0.1-2.6,0-3.1-0.1c-0.8,0.1-1.5,0.1-2.4,0.1
						c0.2,0,0.4,0,0.5-0.1c-0.6-0.1-0.7,0-1.2,0c0.1,0-1.1-0.1-1.8-0.2c-0.8,0.1-0.5,0.2-0.6,0.3c-0.7-0.2-2.2,0.1-3.1-0.1
						c0.3,0,1.2-0.1,0.5-0.2c-0.7-0.2-1.5,0.2-2.6,0.1l0.3,0.2c-0.5-0.1-1.7,0.1-1.6-0.1c-0.4,0.1-1.4-0.1-1.2,0.1
						c-1.9-0.2-4.6,0.1-5.8-0.2c-0.3,0-1,0-0.8,0.1c0.5,0.1,0.6-0.1,0.8,0c-0.2,0-0.3,0.1-0.3,0.1c-0.6,0-1.1-0.1-0.5-0.2
						c-1.3-0.1-1.4,0.3-3,0.2c0.1-0.1-0.1-0.1-0.5-0.1l-0.9,0.1c-1.1,0-0.6-0.2-0.6-0.3c-0.6,0-1.3,0-1.6,0.1l-0.7-0.2
						c0.5,0.1-0.5,0.1-0.8,0.1l0.3,0c-0.1-0.1-0.8,0-1.1,0c0.1,0.1,0.8,0.1,1.1,0.1c-0.3,0.1-0.8,0-1.2,0.1c0.1-0.1-0.9-0.1-1.4-0.1
						c-0.5,0-0.6,0.1-0.8,0.1c0-0.1-0.9,0-0.5-0.1c0.2,0,0.4,0.1,0.7,0c-0.3,0-0.3-0.2-1-0.1c-0.5,0.1,0.1,0.2-0.9,0.2
						c0.3,0,0.3-0.1,0.5-0.1l-1-0.1l0,0.1c-0.1,0,0,0-0.1-0.1c-0.3,0.1-1.5,0-1.7,0.2c-0.5,0-1-0.1-1.5-0.1l0.1,0
						c-0.6-0.1-1.3,0-1.8,0.1l0,0c-0.3,0-1,0-1.4,0.1c-0.8-0.1-0.3-0.4-1.1-0.3c-0.8,0-1.3,0.2-0.9,0.3c-1.4-0.1-3.1,0.1-4.4-0.1
						c-0.2,0-0.1,0.1-0.5,0.1c-2.1,0-4.5,0.1-6.1-0.1c0.6,0,0-0.1,0-0.2c-0.5,0.1-0.6-0.1-0.8,0.1c0.1,0.1,0,0.1,0.6,0.2
						c-1.3,0.1-3.2,0.1-3.9,0c0.3,0,0.1,0.1-0.2,0.1c0.1-0.2-0.8-0.2-1.5-0.1l-0.1,0.1l-0.5-0.1c-0.3,0-0.3,0.2-1,0.1
						c0,0-0.1-0.1-0.2-0.1c-0.7,0.1-1.8,0.2-2.5,0.1l-0.6-0.1c-0.3,0-0.9,0.1-0.3,0.1c-1.3-0.1-2.2-0.1-2.6-0.2
						c-2.3,0.3-5.7,0.3-8.4,0.3l0.1-0.1c-0.7-0.1-0.4,0.1-0.9,0.1c0.2-0.1-0.6-0.2,0-0.2c-1-0.1-1.3,0.1-2,0.2
						c-0.1,0.1,0.5-0.1,0.4,0.1c-0.1,0-1.4-0.1-1.6,0.1c-0.3-0.1-0.1-0.2,0.1-0.2l-0.6,0.1c-0.8-0.2,1.8-0.3,1-0.5l-0.6,0
						c-0.6-0.2,1.5-0.2,0.1-0.2c-0.6,0.1-1.2,0.3-0.6,0.3c-1.3,0-0.6,0.3-2,0.3c-0.4-0.1,1.1,0,0.9-0.1c-0.7-0.1-1.3,0.1-1.9,0
						c0.7,0.1,0.1,0.2-0.3,0.2c-0.7-0.1,0.5-0.1-0.6-0.2c-0.2,0.1-1.1,0.1-0.3,0.2c-0.4,0.2-1.1-0.1-1.6,0.1
						c-0.3-0.1,1.1-0.3-0.1-0.4c0.2,0.1-1.4,0.2-0.8,0.4c-0.4,0-0.5-0.1-0.2-0.2c-0.6-0.1-1.5,0.2-1.7,0l-0.2,0.1
						c-0.2,0-0.5-0.1-0.8-0.1c-0.6,0-1.8,0.2-1.7,0c-0.2,0-1.4,0-1,0.1c0.8,0.1,0.9-0.1,1.3,0.1c-0.6-0.2-1.1,0-1.6,0.1l-0.1-0.1
						c-0.3,0-0.9,0-1.1,0.1c0.2,0,0.1-0.1-0.1-0.1l-0.3,0.1c-1.1,0.1-0.3-0.2-1.3-0.2l0.8-0.1c-0.2,0-0.5-0.1-1.1-0.1
						c-0.2,0.1-0.6,0.2-0.7,0.3c-0.6,0-0.3-0.1-0.9,0l0.8-0.1c0.1,0-0.5-0.2-1.3-0.2c-0.5,0-1.3,0.2-0.5,0.2c-0.4,0-1-0.1-0.7-0.1
						c-0.9,0,0.1,0.1-0.7,0.2c-0.3-0.1-1.3-0.2-1.9-0.3l0.8-0.2l-0.5,0c0.7-0.1-0.4-0.1,0-0.3c-0.4,0-0.8,0-1.2,0.1
						c1.1,0.2-1.2,0.3-0.9,0.6c-1.5,0.1-0.9-0.5-2.5-0.2c0.3,0.1-0.5,0.2,0.5,0.2c-0.9,0-0.6,0.2-1.7,0.1c0.8-0.1-0.9-0.2,0.3-0.4
						c-0.1,0.1,0.7,0.1,0.8,0c-0.4-0.1,0.1-0.2-0.9-0.2c-0.6,0-1.4,0-1.3,0.1c0,0.1,0.9,0,0.5,0.1c-1.2,0-1.4-0.1-1.8,0.1
						c0.7,0,0.9,0.1,0.9,0.2l-0.9,0.1l0.2-0.1c-1.4-0.1-0.4,0.2-1.7,0.1l-0.6-0.2c0.3-0.1,1.9,0.1,1.7-0.2c-0.9,0-1.1,0.1-2,0
						c0.2,0,0.4,0,0.6,0c-0.3,0-0.6-0.3-1.8-0.1c-0.6,0.1-0.2,0.1-0.2,0.2c-1.4,0-1.8,0.1-2.7,0.1c0.2-0.2-1.6,0-0.6-0.2
						c0.5,0.1,2.5,0.1,2.9-0.1c-0.5-0.2,1.1,0,1.4-0.2c-1.1,0-1.1-0.2-1.2-0.3c-0.3,0-0.6,0-0.8,0.1c-0.1,0.1,0.3,0.1,0.3,0.2
						c-1.2,0-2.4,0-3.1,0.2c-0.4-0.1-0.3-0.2,0.2-0.2c-1.5,0-3.1,0-4.5,0c0.9,0.2-1.6,0-0.9,0.2c0.8,0,1.4,0.2,1,0.3
						c-0.5,0,0-0.1-0.2-0.1c-0.6,0.1-0.9-0.2-1.5,0c1.3-0.1,0.3-0.2,0.5-0.4c-1,0.1,0-0.1-0.9-0.1c-1,0.1-2.2,0.2-3.2,0.2
						c-1.4-0.1-3.4,0-4.6,0c-0.6-0.1-0.2-0.3-0.9-0.3c-0.8,0,0.6,0.2-0.6,0.1l0.1,0c-0.4,0-2.2-0.1-2.5,0.1l0.4-0.2
						c-0.2,0-0.4,0-0.6,0c0-0.1-0.3-0.1,0.1-0.2c-0.7-0.1-1.5,0-2.3,0l0.5,0.1c-1.4,0.1-2.3,0-3.6,0l0-0.1l-0.8,0.1
						c0.2-0.1-0.5-0.2-0.9-0.1l2-0.3c0.6,0.1-0.6,0.1-0.3,0.2c0.3,0.1,1.5,0.1,1.7,0c-0.5,0-0.5,0-0.9,0.1c-0.2-0.2,0.6-0.1,0.9-0.3
						c-0.2,0-0.6,0-0.6,0c0.5-0.1,1-0.1,1.8-0.1c-0.5,0.1,0.3,0.1,0.1,0.1c0.1-0.1,0.8-0.2,1.8-0.1c0.7,0.2,1.9-0.1,3-0.1
						c-0.5,0.1-1.1,0.2-1.8,0.3c0.7,0.1,0.8,0,1.5,0.1c0.3-0.1,0.6-0.3,1.5-0.3l0.1,0.1c0.9-0.1,0.9-0.2,1.9-0.2
						c1.9,0,3.8,0,5.2,0.1l0.1,0.1c0.8-0.2,2.6-0.1,3.7-0.2c1.8,0.1,3.9-0.1,4.9,0.1c3.2-0.1,6-0.2,9.3-0.1l-0.6,0.1
						c0.6-0.1,0.4,0.1,1,0.1c-0.7-0.1,0.8-0.2,1.2-0.2c1.5,0.1,3.4,0,4.7-0.1l0.1,0.1c1.3-0.2,2.9,0,4.5,0c0.2,0,0.5,0.1,1,0.1
						c0.9-0.2,1.4-0.2,2.7-0.3c1,0,2.5,0,3.5,0.1c3.6-0.2,7.3-0.1,11-0.2l0.3,0.1c3.6-0.3,8.1,0,11.2-0.2l-0.3,0.2
						c1,0.1,2.2-0.1,2-0.2c1,0.1,2.4-0.1,3,0.1c1,0,1.2-0.1,2-0.1c2,0.1,2.7,0.1,4.6,0l-0.5,0c-0.2,0-0.2,0.1,0.2,0.1
						c0.7-0.1,2.6,0.1,1.9-0.2c2,0.1,4.7-0.1,6.6,0.1c-0.2-0.1,0.3-0.1,0.5-0.1c1.8,0,3.6,0.1,5,0c0.3,0-0.4,0.1,0.3,0.1
						c0.4,0,0-0.1,0.5-0.1c2.8-0.1,5.8,0.1,8.4,0.1c4.6-0.1,9.4-0.1,13.8-0.1l-0.1,0c1.5-0.2,3.5,0.2,4.6-0.1c0.3,0,1.3,0,1.1,0.1
						c1.2-0.1,3.3,0.1,5,0c-0.2,0-0.2,0-0.4,0c1.7,0.1,3.2,0,5,0.1c-0.2,0-0.5,0-0.6,0.1c0.7,0.1,1.7-0.2,2,0c0.4,0,0.3-0.1,0-0.1
						c4,0.1,8.2-0.1,12.3-0.1c3,0.1,0.2,0.4,2.5,0.2c0.2,0,0.1-0.1,0.2,0c0.9-0.1,1.4,0.3,2,0.1c-0.3-0.1,0.4-0.1,0.4-0.2
						c1.8,0.1,2.2,0.2,3.6,0.1l-0.1,0.1c1.7-0.2,3.6-0.1,5-0.3c9.2,0,18.1-0.2,27.1-0.2c8.9,0,17.6-0.1,26.7,0.1
						c2.1,0.2,2.3,0.2,4.6,0.1c-0.1,0-0.2,0-0.1,0.1c0.1-0.2,1.6,0,1.9-0.2c3.3,0,6.4,0,9.9,0c-0.5,0-0.8,0.2-0.2,0.1l0.7-0.1l0.1,0
						c0.4,0,0.9-0.1,0.5-0.2c8.6-0.1,17.1,0.2,25.6,0.1c2,0.1,4.9,0,7.1,0c6.5,0.2,12.3,0.4,18.9,0.2
						C297.4,163.9,296.5,164.3,293.8,164.4z"/>
					<path class="st14" d="M6.4,164.3c0.2,0.1,1,0.1,0.4,0.2C6.7,164.5,6.3,164.4,6.4,164.3z"/>
					<path class="st14" d="M26.5,165.1c0,0,0.3,0,0.3,0c-0.2,0-0.5,0.1-0.7,0C26.4,165.2,26.4,165.2,26.5,165.1z"/>
					<path class="st14" d="M31.6,165.2c-0.1,0.1-1.2,0.1-1.8,0.1L31.6,165.2z"/>
					<path class="st14" d="M36.4,165.5c0.4,0.1,0.3,0.1-0.3,0.1C36.1,165.5,36.3,165.5,36.4,165.5z"/>
					<path class="st14" d="M36.7,165.3c0.4,0,0.6,0,0.8,0.1C37.5,165.3,36.6,165.4,36.7,165.3z"/>
					<path class="st14" d="M47.1,165.5c0.3,0,0.8-0.1,1,0C47.9,165.5,46.9,165.6,47.1,165.5z"/>
					<path class="st14" d="M51.9,165.4c0.2,0,0.2,0,0.4,0c0.3,0,0,0.1-0.3,0.1L51.9,165.4z"/>
					<polygon class="st14" points="139.8,165.1 139.3,165.2 139.4,165.1 					"/>
					<path class="st14" d="M178.3,165.1c0.5,0,0.4,0.1,0.4,0.1C178.3,165.2,179,165.1,178.3,165.1z"/>
					<polygon class="st14" points="199.1,164.8 199,164.8 199,164.6 					"/>
				</g>
			</g>
		</g>
	</g>
</g>
<g>
	<g>
		<g>
			<g>
				<g>
					<path class="st14" d="M3.5,212.6c-1.1,0,0.6,0.1-0.7,0.1C3,212.6,3.2,212.6,3.5,212.6z"/>
					<path class="st14" d="M292.3,212.7c-3.5,0.4-8,0-11.8,0.2c-0.4,0,0.1-0.2-0.9-0.2c-3.7,0.3-9.5,0.1-13.9-0.1l0.3-0.1
						c-0.9,0-1.9,0.2-2.8,0.1c0,0,0.3-0.1,0.1-0.1c-0.2,0.1-1.6,0.1-2,0.1c-0.4,0-0.3-0.1-0.8-0.2l-0.5,0.1c-1.4,0.3-3.5,0-5.5,0.1
						c0.1,0,0.3-0.1,0.1-0.1c-3.1,0.2-7.1,0.2-10.6,0.2c0.1,0,0.3-0.1,0.1-0.2c-0.2,0.1-1.3,0.2-2.2,0.2c-0.4-0.1-1.6,0.1-2.7,0.1
						l0.1,0c-0.8,0.2-1.2-0.1-1.9,0.1l-0.5-0.1c-0.4,0.2-1.2-0.1-1.9,0l0,0c-0.6,0.1-1-0.1-1.6,0l-0.1,0c-1.4,0.1-2.2-0.1-2.2,0.1
						c-0.5-0.1,1.3-0.1,0.6-0.2c-4.6,0.2-9.3,0.1-13.8,0.1c-0.5-0.1-0.9-0.1-1-0.1c-0.5,0-1.7,0-2.1,0.1c0.2,0-0.3-0.1-0.5-0.1
						c-0.8-0.1-0.9,0.2-1.8,0.1c0.4,0,0.5-0.1,0.4-0.2c-0.8,0.1-1.8,0.1-2.8,0.1c0.1,0,0.4,0,0.3-0.1c-1,0.1-1.8,0-2.7,0.1l0.3-0.1
						c-1.4-0.1-0.4,0.2-1.7,0.1c0.3,0,0.2-0.1,0.2-0.1c-1.1,0.2-3,0.1-4.2,0.2c0.1,0,0.1,0,0.1,0c-1.3,0-2.6,0-3.9,0
						c-0.5,0,0.2-0.2-1.2-0.2c0,0.2-2.2,0.1-1.5,0.3c-1.1,0-2.9-0.1-3.7,0c0.5-0.1-0.6-0.2,0.4-0.2l-0.7-0.1c0.1-0.1,0.7,0,0.5-0.1
						c-0.5,0-1.8,0.1-2.3,0.1c-0.9,0.1-1.7,0.3-3.1,0.3c0.7-0.1-0.4-0.2,0.1-0.2l-2,0.4c-0.5,0-0.1-0.1-0.8-0.1c0,0-0.3,0.1-0.5,0.1
						c-0.2,0-2,0-2.2-0.1c-0.2-0.1,0.8,0,0.2-0.1c-0.9,0-0.9,0.1-1.8,0.1l0,0c-0.6,0-1.7,0.1-1.1,0.2c0.4,0-0.2-0.1,0.4-0.1
						c-0.4,0.1-1.4,0.1-2.3,0.1c0.3,0,0.3-0.1,0.4-0.1c-1.2,0.1-2.4,0.2-3.7,0.2c0,0.1,0.5-0.2,0.7-0.1c-1.7-0.1-3.4,0.2-4.8,0
						c0.2,0,0.1,0.1,0.1,0.1c-0.8,0-0.8-0.1-1.3-0.1c-0.1-0.1-0.7,0-1.2,0c-0.3,0.1-0.1,0,0.3,0c-0.8,0.1-3.8,0.2-5.5,0.1
						c0,0-1.1,0.2-1.5,0.2l0.2-0.1c-0.4-0.1-1.3,0-1.4-0.1c-0.9,0.1,3.3-0.1,2.1,0c-0.3-0.1-1.6,0.2-1.4,0c-0.8,0-1.6,0.1-2.3,0
						c0.2,0,0.7-0.2,0-0.2c-1.1,0-0.3,0.1-1.2,0.1l-0.6,0c0,0.1-1,0-0.6,0.1c-0.1-0.1-1.7,0.1-1.5-0.1l0.2-0.1
						c-0.5,0-0.8,0.2-1.2,0.2c-0.1,0-0.2,0-0.2-0.1c-0.1,0.2-1.2,0-1.8,0.2c-1-0.1-2.6,0-3.1-0.1c-0.8,0.1-1.5,0.1-2.4,0.1
						c0.2,0,0.4,0,0.5-0.1c-0.6-0.1-0.7,0-1.2,0c0.1,0-1.1-0.1-1.8-0.2c-0.8,0.1-0.5,0.2-0.6,0.3c-0.7-0.2-2.2,0.1-3.1-0.1
						c0.3,0,1.2-0.1,0.5-0.2c-0.7-0.2-1.5,0.2-2.6,0.1l0.3,0.2c-0.5-0.1-1.7,0.1-1.6-0.1c-0.4,0.1-1.4-0.1-1.2,0.1
						c-1.9-0.2-4.6,0.1-5.8-0.2c-0.3,0-1,0-0.8,0.1c0.5,0.1,0.6-0.1,0.8,0c-0.2,0-0.3,0.1-0.3,0.1c-0.6,0-1.1-0.1-0.5-0.2
						c-1.3-0.1-1.4,0.3-3,0.2c0.1-0.1-0.1-0.1-0.5-0.1l-0.9,0.1c-1.1,0-0.6-0.2-0.6-0.3c-0.6,0-1.3,0-1.6,0.1l-0.7-0.2
						c0.5,0.1-0.5,0.1-0.8,0.1l0.3,0c-0.1-0.1-0.8,0-1.1,0c0.1,0.1,0.8,0.1,1.1,0.1c-0.3,0.1-0.8,0-1.2,0.1c0.1-0.1-0.9-0.1-1.4-0.1
						c-0.5,0-0.6,0.1-0.8,0.1c0-0.1-0.9,0-0.5-0.1c0.2,0,0.4,0.1,0.7,0c-0.3,0-0.3-0.2-1-0.1c-0.5,0.1,0.1,0.2-0.9,0.2
						c0.3,0,0.3-0.1,0.5-0.1l-1-0.1l0,0.1c-0.1,0,0,0-0.1-0.1c-0.3,0.1-1.5,0-1.7,0.2c-0.5,0-1-0.1-1.5-0.1l0.1,0
						c-0.6-0.1-1.3,0-1.8,0.1l0,0c-0.3,0-1,0-1.4,0.1c-0.8-0.1-0.3-0.4-1.1-0.3c-0.8,0-1.3,0.2-0.9,0.3c-1.4-0.1-3.1,0.1-4.4-0.1
						c-0.2,0-0.1,0.1-0.5,0.1c-2.1,0-4.5,0.1-6.1-0.1c0.6,0,0-0.1,0-0.2c-0.5,0.1-0.6-0.1-0.8,0.1c0.1,0.1,0,0.1,0.6,0.2
						c-1.3,0.1-3.2,0.1-3.9,0c0.3,0,0.1,0.1-0.2,0.1c0.1-0.2-0.8-0.2-1.5-0.1l-0.1,0.1l-0.5-0.1c-0.3,0-0.3,0.2-1,0.1
						c0,0-0.1-0.1-0.2-0.1c-0.7,0.1-1.8,0.2-2.5,0.1l-0.6-0.1c-0.3,0-0.9,0.1-0.3,0.1c-1.3-0.1-2.2-0.1-2.6-0.2
						c-2.3,0.3-5.7,0.3-8.4,0.3l0.1-0.1c-0.7-0.1-0.4,0.1-0.9,0.1c0.2-0.1-0.6-0.2,0-0.2c-1-0.1-1.3,0.1-2,0.2
						c-0.1,0.1,0.5-0.1,0.4,0.1c-0.1,0-1.4-0.1-1.6,0.1c-0.3-0.1-0.1-0.2,0.1-0.2l-0.6,0.1c-0.8-0.2,1.8-0.3,1-0.5l-0.6,0
						c-0.6-0.2,1.5-0.2,0.1-0.2c-0.6,0.1-1.2,0.3-0.6,0.3c-1.3,0-0.6,0.3-2,0.3c-0.4-0.1,1.1,0,0.9-0.1c-0.7-0.1-1.3,0.1-1.9,0
						c0.7,0.1,0.1,0.2-0.3,0.2c-0.7-0.1,0.5-0.1-0.6-0.2c-0.2,0.1-1.1,0.1-0.3,0.2c-0.4,0.2-1.1-0.1-1.6,0.1
						c-0.3-0.1,1.1-0.3-0.1-0.4c0.2,0.1-1.4,0.2-0.8,0.4c-0.4,0-0.5-0.1-0.2-0.2c-0.6-0.1-1.5,0.2-1.7,0l-0.2,0.1
						c-0.2,0-0.5-0.1-0.8-0.1c-0.6,0-1.8,0.2-1.7,0c-0.2,0-1.4,0-1,0.1c0.8,0.1,0.9-0.1,1.3,0.1c-0.6-0.2-1.1,0-1.6,0.1l-0.1-0.1
						c-0.3,0-0.9,0-1.1,0.1c0.2,0,0.1-0.1-0.1-0.1l-0.3,0.1c-1.1,0.1-0.3-0.2-1.3-0.2l0.8-0.1c-0.2,0-0.5-0.1-1.1-0.1
						c-0.2,0.1-0.6,0.2-0.7,0.3c-0.6,0-0.3-0.1-0.9,0l0.8-0.1c0.1,0-0.5-0.2-1.3-0.2c-0.5,0-1.3,0.2-0.5,0.2c-0.4,0-1-0.1-0.7-0.1
						c-0.9,0,0.1,0.1-0.7,0.2c-0.3-0.1-1.3-0.2-1.9-0.3l0.8-0.2l-0.5,0c0.7-0.1-0.4-0.1,0-0.3c-0.4,0-0.8,0-1.2,0.1
						c1.1,0.2-1.2,0.3-0.9,0.6c-1.5,0.1-0.9-0.5-2.5-0.2c0.3,0.1-0.5,0.2,0.5,0.2c-0.9,0-0.6,0.2-1.7,0.1c0.8-0.1-0.9-0.2,0.3-0.4
						c-0.1,0.1,0.7,0.1,0.8,0c-0.4-0.1,0.1-0.2-0.9-0.2c-0.6,0-1.4,0-1.3,0.1c0,0.1,0.9,0,0.5,0.1c-1.2,0-1.4-0.1-1.8,0.1
						c0.7,0,0.9,0.1,0.9,0.2l-0.9,0.1l0.2-0.1c-1.4-0.1-0.4,0.2-1.7,0.1l-0.6-0.2c0.3-0.1,1.9,0.1,1.7-0.2c-0.9,0-1.1,0.1-2,0
						c0.2,0,0.4,0,0.6,0c-0.3,0-0.6-0.3-1.8-0.1c-0.6,0.1-0.2,0.1-0.2,0.2c-1.4,0-1.8,0.1-2.7,0.1c0.2-0.2-1.6,0-0.6-0.2
						c0.5,0.1,2.5,0.1,2.9-0.1c-0.5-0.2,1.1,0,1.4-0.2c-1.1,0-1.1-0.2-1.2-0.3c-0.3,0-0.6,0-0.8,0.1c-0.1,0.1,0.3,0.1,0.3,0.2
						c-1.2,0-2.4,0-3.1,0.2c-0.4-0.1-0.3-0.2,0.2-0.2c-1.5,0-3.1,0-4.5,0c0.9,0.2-1.6,0-0.9,0.2c0.8,0,1.4,0.2,1,0.3
						c-0.5,0,0-0.1-0.2-0.1c-0.6,0.1-0.9-0.2-1.5,0c1.3-0.1,0.3-0.2,0.5-0.4c-1,0.1,0-0.1-0.9-0.1c-1,0.1-2.2,0.2-3.2,0.2
						c-1.4-0.1-3.4,0-4.6,0c-0.6-0.1-0.2-0.3-0.9-0.3c-0.8,0,0.6,0.2-0.6,0.1l0.1,0c-0.4,0-2.2-0.1-2.5,0.1l0.4-0.2
						c-0.2,0-0.4,0-0.6,0c0-0.1-0.3-0.1,0.1-0.2c-0.7-0.1-1.5,0-2.3,0l0.5,0.1c-1.4,0.1-2.3,0-3.6,0l0-0.1L6.7,213
						c0.2-0.1-0.5-0.2-0.9-0.1l2-0.3c0.6,0.1-0.6,0.1-0.3,0.2c0.3,0.1,1.5,0.1,1.7,0c-0.5,0-0.5,0-0.9,0.1c-0.2-0.2,0.6-0.1,0.9-0.3
						c-0.2,0-0.6,0-0.6,0c0.5-0.1,1-0.1,1.8-0.1c-0.5,0.1,0.3,0.1,0.1,0.1c0.1-0.1,0.8-0.2,1.8-0.1c0.7,0.2,1.9-0.1,3-0.1
						c-0.5,0.1-1.1,0.2-1.8,0.3c0.7,0.1,0.8,0,1.5,0.1c0.3-0.1,0.6-0.3,1.5-0.3l0.1,0.1c0.9-0.1,0.9-0.2,1.9-0.2
						c1.9,0,3.8,0,5.2,0.1l0.1,0.1c0.8-0.2,2.6-0.1,3.7-0.2c1.8,0.1,3.9-0.1,4.9,0.1c3.2-0.1,6-0.2,9.3-0.1l-0.6,0.1
						c0.6-0.1,0.4,0.1,1,0.1c-0.7-0.1,0.8-0.2,1.2-0.2c1.5,0.1,3.4,0,4.7-0.1l0.1,0.1c1.3-0.2,2.9,0,4.5,0c0.2,0,0.5,0.1,1,0.1
						c0.9-0.2,1.4-0.2,2.7-0.3c1,0,2.5,0,3.5,0.1c3.6-0.2,7.3-0.1,11-0.2l0.3,0.1c3.6-0.3,8.1,0,11.2-0.2l-0.3,0.2
						c1,0.1,2.2-0.1,2-0.2c1,0.1,2.4-0.1,3,0.1c1,0,1.2-0.1,2-0.1c2,0.1,2.7,0.1,4.6,0l-0.5,0c-0.2,0-0.2,0.1,0.2,0.1
						c0.7-0.1,2.6,0.1,1.9-0.2c2,0.1,4.7-0.1,6.6,0.1c-0.2-0.1,0.3-0.1,0.5-0.1c1.8,0,3.6,0.1,5,0c0.3,0-0.4,0.1,0.3,0.1
						c0.4,0,0-0.1,0.5-0.1c2.8-0.1,5.8,0.1,8.4,0.1c4.6-0.1,9.4-0.1,13.8-0.1l-0.1,0c1.5-0.2,3.5,0.2,4.6-0.1c0.3,0,1.3,0,1.1,0.1
						c1.2-0.1,3.3,0.1,5,0c-0.2,0-0.2,0-0.4,0c1.7,0.1,3.2,0,5,0.1c-0.2,0-0.5,0-0.6,0.1c0.7,0.1,1.7-0.2,2,0c0.4,0,0.3-0.1,0-0.1
						c4,0.1,8.2-0.1,12.3-0.1c3,0.1,0.2,0.4,2.5,0.2c0.2,0,0.1-0.1,0.2,0c0.9-0.1,1.4,0.3,2,0.1c-0.3-0.1,0.4-0.1,0.4-0.2
						c1.8,0.1,2.2,0.2,3.6,0.1l-0.1,0.1c1.7-0.2,3.6-0.1,5-0.3c9.2,0,18.1-0.2,27.1-0.2c8.9,0,17.6-0.1,26.7,0.1
						c2.1,0.2,2.3,0.2,4.6,0.1c-0.1,0-0.2,0-0.1,0.1c0.1-0.2,1.6,0,1.9-0.2c3.3,0,6.4,0,9.9,0c-0.5,0-0.8,0.2-0.2,0.1l0.7-0.1l0.1,0
						c0.4,0,0.9-0.1,0.5-0.2c8.6-0.1,17.1,0.2,25.6,0.1c2,0.1,4.9,0,7.1,0c6.5,0.2,12.3,0.4,18.9,0.2
						C295.8,212.2,295,212.6,292.3,212.7z"/>
					<path class="st14" d="M4.8,212.6c0.2,0.1,1,0.1,0.4,0.2C5.2,212.7,4.8,212.7,4.8,212.6z"/>
					<path class="st14" d="M24.9,213.4c0,0,0.3,0,0.3,0c-0.2,0-0.5,0.1-0.7,0C24.9,213.5,24.8,213.5,24.9,213.4z"/>
					<path class="st14" d="M30.1,213.5c-0.1,0.1-1.2,0.1-1.8,0.1L30.1,213.5z"/>
					<path class="st14" d="M34.8,213.8c0.4,0.1,0.3,0.1-0.3,0.1C34.6,213.8,34.7,213.8,34.8,213.8z"/>
					<path class="st14" d="M35.2,213.6c0.4,0,0.6,0,0.8,0.1C36,213.6,35.1,213.7,35.2,213.6z"/>
					<path class="st14" d="M45.6,213.8c0.3,0,0.8-0.1,1,0C46.3,213.8,45.4,213.9,45.6,213.8z"/>
					<path class="st14" d="M50.4,213.7c0.2,0,0.2,0,0.4,0c0.3,0,0,0.1-0.3,0.1L50.4,213.7z"/>
					<polygon class="st14" points="138.3,213.4 137.8,213.5 137.8,213.4 					"/>
					<path class="st14" d="M176.8,213.4c0.5,0,0.4,0.1,0.4,0.1C176.8,213.5,177.4,213.4,176.8,213.4z"/>
					<polygon class="st14" points="197.6,213.1 197.4,213.1 197.5,212.9 					"/>
				</g>
			</g>
		</g>
	</g>
</g>
<g class="st12">
	<path class="st14" d="M34.1,180.2c0-0.3-0.3-0.5-0.3-0.7c0-0.3,0.4-0.5,0.9-0.5c0.3,0,0.7,0.1,1.1,0.1c0.3,0,0.5,0,0.7,0
		c0.6,0,1,0.5,1,0.9c0,0.5-0.2,1-0.2,1.3c0,0.7,0.2,1.1,0.2,2c0,0.5-0.2,0.7-0.2,1.1c0,0.2,0,0.5,0,0.7c0,0.6-0.3,0.7-0.8,0.7
		c-0.4,0-1-0.1-1.4-0.1c-0.1,0.1-0.3,0.1-0.4,0.1c-1,0-1-1.6-1.3-2c-0.3-0.8-2.1-1.5-3.3-1.5c-1,0-3,0.7-3,1.9
		c0,0.5,0.4,0.9,0.4,1.4c0,0.2,0,0.4,0,0.5c0,1,2.6,1.9,4,2.7c2,1.1,4.5,1.6,6.1,4.8c0.3,0.7,0.6,1.5,0.6,2.3c0,0.7-0.3,1.5-0.5,2.2
		c-0.4,1.2-1.1,1.6-1.9,2.4c0,0.1,0,0.1,0,0.2c0,0.9-2.6,1.3-2.7,1.4c-0.5,0.2-1,0.3-1.6,0.3c-0.5,0-1.2,0-1.7-0.1
		c-0.4-0.1-0.7-0.3-1.1-0.3c-1.4,0-2-0.9-2.3-1.2c-0.2-0.2-0.5-0.3-0.7-0.5c0,0.1,0,0.2,0,0.3c0,0.3,0.1,0.6,0.1,0.9
		c0,0.3-0.1,0.5-0.5,0.5c-0.1,0-0.3,0-0.4-0.1c-0.4,0.1-0.8,0.2-1.3,0.2c-0.6,0-1.3-0.2-1.3-0.9c0-0.3,0.2-0.6,0.2-1
		c0-0.2-0.1-0.5-0.1-0.7c0-0.5,0.1-1,0.1-1.4c0-0.6-0.4-0.6-0.4-1.3c0-1.3,0.1-1.8,1.3-1.8c0.4,0,0.8,0.1,1.3,0.1
		c0.2,0,0.4-0.1,0.6-0.1c0.4,0.1,0.7,0.4,0.7,0.8c0,0.1,0,0.2-0.1,0.3c0.2,1.6,1.8,1.7,2.6,2.5c0.5,0.1,1,0.2,1.5,0.2
		c2.1,0,4.1-1.3,4.1-2.4c0-0.4,0-0.7,0-1c0-0.1,0-0.3,0-0.4c-0.4-1.1-2.4-1.7-3.7-2.6c-0.7-0.4-1-0.6-3-1.6
		c-0.6-0.3-1.4-0.5-1.8-0.9c-1.6-1.5-1-0.4-2.2-3.2c-0.2-0.4-0.4-1.1-0.4-1.5c0-1.3,0.7-2.8,0.9-3.2c1-2.1,3.8-2.9,3.8-2.9
		c0,0,0.5,0,0.7-0.1c0.4-0.1,0.6-0.3,1.3-0.3c3.4,0,4.1,1.7,4.5,1.8C34.1,180.3,34.1,180.3,34.1,180.2z M23.8,195.8
		c-0.1,0-0.2,0.2-0.2,0.4c0,0.1,0,0.2,0.1,0.2C23.7,196.2,23.7,196,23.8,195.8z M25.9,184.5c0,0.4,0.1,0.7,0.2,0.9
		C26.2,185,26,184.8,25.9,184.5z M26.2,181.4c0.2,0,0.3-0.1,0.3-0.2C26.4,181.3,26.2,181.3,26.2,181.4
		C26.1,181.4,26.2,181.4,26.2,181.4z M27.2,180.7c-0.1,0.1-0.4,0.3-0.4,0.4L27.2,180.7z M26.8,188.6c0,0.1,0.2,0.3,0.2,0.3
		C27,188.7,26.9,188.6,26.8,188.6z M28.9,188.4c0.1,0.1,0.2,0.3,0.4,0.3c0,0,0.1,0,0.1,0C29.2,188.6,29.1,188.5,28.9,188.4z
		 M28.9,200.5c0.2,0.1,0.5,0.2,0.7,0.2c0.1,0,0.2,0,0.4,0C29.7,200.5,29,200.5,28.9,200.5z M29,190.3c0.1,0,0.3,0.2,0.4,0.2
		C29.3,190.4,29.1,190.3,29,190.3z M30.8,179.7C30.8,179.7,30.8,179.8,30.8,179.7c0,0,0.1,0.1,0.2,0.1c0,0,0.1,0,0.1,0
		C31,179.8,30.9,179.7,30.8,179.7z M31.6,180c0,0.1,0.7,0.4,0.9,0.5C32.4,180.3,32,180,31.6,180z M33.3,190.7
		c0.2,0.1,0.4,0.3,0.6,0.3C33.8,190.8,33.5,190.7,33.3,190.7z M35.2,197.7C35.2,197.7,35.2,197.7,35.2,197.7
		C35.2,197.7,35.2,197.8,35.2,197.7C35.2,197.8,35.2,197.8,35.2,197.7z M36.1,182.6c0-0.2,0-0.5-0.1-0.6c0,0.5-0.1,1-0.1,1.6
		C36.1,183.3,36.1,182.9,36.1,182.6z M36.5,194c0,0.2,0.1,0.3,0.2,0.4C36.7,194.2,36.6,194.1,36.5,194z"/>
	<path class="st14" d="M52.4,184.2c0,1.1,0,2.2,0,3.3c0,0.5-0.1,1.1-0.1,1.6c0,0.2,0.1,0.3,0.2,0.5c0.1,0.6,0.1,1.1,0.1,1.6
		c0,0.5-0.2,0.9-0.2,1.4c0,0.5,0.1,1.1,0.2,1.6c0,0.6,0,1.2-0.1,1.8c-0.1,0.6,0,1.2,0,1.8c0.5,0.1,0.6,0.3,1.1,0.3
		c0.2,0,0.5-0.1,0.7-0.1c0.3,0.1,0.6,0.4,0.7,0.6c0.1,0.4-0.1,0.9,0,1.5c0,0.5,0.2,1.2-0.1,1.4c-0.2,0.2-0.5,0.1-0.8,0.1
		c-0.2,0-0.4,0-0.6,0c-0.4,0-0.7-0.1-1-0.1c-0.5,0-0.8,0.2-1.2,0.2c-0.4,0.1-0.9,0.1-1.3,0.1c-0.2,0-0.4-0.2-0.6-0.2
		c-0.1,0-0.3,0-0.4,0c-0.3,0-0.6-0.1-0.9-0.1c-0.4,0-1.1,0.2-1.4,0.1c-0.3-0.1-0.6-0.4-0.6-0.6c0-0.2,0-0.4,0-0.6c0-0.3,0-0.6,0-0.9
		c0-0.4-0.2-0.7-0.2-1c0.2-0.7,1.5-0.5,2.4-0.5c0-1.2,0.1-2.3,0.2-3.4c0-0.6,0.1-1.1,0.1-1.7c0-0.6-0.1-1.1-0.1-1.7
		c0-0.3,0.1-0.4,0.1-0.6c0-0.2-0.1-0.5-0.1-0.7c-0.1-0.6,0-1.4,0-2c0-0.2,0.1-0.4,0.1-0.6c0-0.4-0.1-0.7-0.1-1.1c0-0.3,0-0.7,0-1
		c0-0.2,0.1-0.3,0.1-0.4c0-0.5-0.1-0.9-0.1-1.3c0-0.3,0-0.7-0.1-0.9c-0.2-0.2-1.1,0-1.5,0c-0.5,0-0.7-0.2-1.2-0.1
		c-0.4,0-0.8,0.2-1.3,0.1c0,0.5-0.2,0.8-0.2,1.2c0,0.4,0.3,0.8,0,1.1c-0.2,0.2-0.5,0.2-0.9,0.2c-0.9,0-2.1,0.2-2.4-0.6
		c-0.1-0.3-0.1-1.1-0.1-1.7c0-0.3,0.1-0.5,0.1-0.9c0-0.5-0.1-1.1-0.1-1.5c0-0.6-0.1-1.4,0.3-1.5c0.3-0.1,0.9,0,1.3,0
		c0.5,0.1,0.9,0,1.2,0l1.3-0.1c1.1-0.1,2.1,0.1,3.2,0.1c0.6,0,1.3,0.1,1.9,0c1.4-0.1,2.7-0.2,4-0.1c0.7,0.1,1.4,0.1,2,0.1
		c0.7,0,1.4-0.2,2-0.2c1-0.1,1.8,0.1,2,0.9c0.1,0.5,0,1.3,0,1.9c0,0.6-0.1,1.3-0.2,1.8c0,0.4,0.1,0.9,0,1.2
		c-0.2,0.5-0.9,0.4-1.6,0.4c-0.4,0-0.8,0-1.1-0.1c-0.3-0.1-0.6-0.5-0.7-0.7c0-0.2,0.1-0.4,0.1-0.6c0-0.3,0-0.5-0.1-0.9
		c-0.5-0.2-1.2-0.2-1.8-0.2h-2C52.3,183.1,52.4,183.7,52.4,184.2z M42.8,184l-0.1-0.3l-0.1,0.2C42.7,183.9,42.7,184,42.8,184z
		 M47.5,200.3c-0.1,0-0.1,0-0.2-0.1v0.1C47.4,200.4,47.5,200.4,47.5,200.3z M47.6,180.2c0.5,0.1,1.1,0.3,1.5,0
		C48.6,180.2,48.1,180.1,47.6,180.2z M48.1,199.2c0.1,0.1,0.2,0.2,0.3,0.2C48.4,199.3,48.2,199.2,48.1,199.2z M49.8,195.3
		c0-0.3,0-0.5,0-0.7c0,0.4-0.1,1,0,1.4C49.9,195.9,49.8,195.6,49.8,195.3z M49.7,183.9l0.1,0.2C49.8,184,49.8,184,49.7,183.9z
		 M51.4,181.7L51.4,181.7c-0.1,0-0.1,0.1-0.1,0.1C51.3,181.7,51.4,181.8,51.4,181.7z M57.9,183.8c0,0.1,0,0.2,0.1,0.1
		C58,183.9,57.9,183.9,57.9,183.8z M58.7,180.3v-0.2c-0.3,0-0.6,0-0.8,0.1C58.2,180.1,58.5,180.2,58.7,180.3z"/>
	<path class="st14" d="M67.4,180.4c0.4-0.1,0.6-0.3,0.9-0.6c0.6-0.5,2.2-1,3.3-1c0.2,0,0.3,0,0.5,0c0.9,0,1.7-0.5,2.8-0.5
		c0.3,0,0.6,0,0.9,0c0.3,0,1.8,0.6,3.4,0.7c1.3,0.2,2.5,1.5,3.5,2.2c0.4,0.4,1.5,1.1,1.9,1.7c0,0,1,1.4,1,2.4c0,0.2,0,1.2,0.5,2.3
		c0.3,1.2,0.6,1.9,0.6,2.5c0,0.7-0.2,1.4-0.3,1.8c0,0.2-0.4,0.3-0.4,1.5c0,0.2,0.1,0.4,0.1,0.7c0,0.7-0.6,1.5-1.2,2.4
		c-0.1,0.1-0.7,2-3,3.2c-0.5,0.4-3.5,2.4-7.1,2.4c-1.2,0-1.9-0.3-2.6-0.5c-1.6,0-2.5-0.6-3.7-1c-1-0.5-1.5-1.2-2.4-1.7
		c0,0-2.1-1.6-2.8-3c-0.1-0.3-0.1-0.7-0.3-1.1c-0.6-0.7-1.2-1.7-1.2-3.2c0-0.3,0.1-0.6,0.1-0.9c0-0.3-0.2-0.5-0.2-0.9
		c0-3.2,1.1-4.1,1.7-5.9c0.3-0.9,1.2-1.7,1.8-2.3c-0.1,0.1,0.6-0.9,1.1-1.2C66.8,180.4,67,180.5,67.4,180.4z M62.9,187.5
		c0.3-0.3,0.1-0.4,0.3-0.7C63,186.8,62.8,187.4,62.9,187.5z M65.8,183.8c-0.1,0.1-0.6,0.5-0.6,0.5c0,0,0,0.4,0,0.4
		C65.4,184.5,65.7,184,65.8,183.8z M67.3,198.5c-0.6-0.3-1.2-0.5-1.6-1C65.8,197.9,66.8,198.5,67.3,198.5z M68.1,185.2
		c-0.5,0.4-0.6,1-0.9,1.6c-0.3,0.5-0.5,1.3-0.5,1.9c0,0.2,0,0.4,0,0.6c0,0.6-0.2,1.1-0.2,1.7c0,0.9,0.7,1.8,1.1,2.8
		c-0.1-0.1,0.1,0.9,0.7,1.6c1.5,1.5,2.3,1.7,3.9,2.3c0.9,0.2,2.1,0.6,3.4,0.6c0.6,0,1.1-0.2,1.4-0.3c1.3-0.6,2.3-1.2,3-2.1
		c1.2-1.8,2-2.3,2-6c0-0.4-0.1-1-0.1-1.6c-0.5-1.7-0.9-2.1-1.2-2.8c-0.5-0.7-0.7-1.4-3.2-2.6c-1-0.5-1.6-1.2-2.8-1.2
		c-1.2,0-1.8,0.5-3.7,0.9c-0.3,0.1-1.9,0.4-2.8,1.7C68.3,184.8,68.2,185,68.1,185.2z M71.3,200.6c0.5,0.1,1.1,0.3,1.1,0.3
		c0.1,0,0.4-0.2,0.4-0.2l-0.6,0l-1.5-0.2L71.3,200.6z M77.6,181.5c0,0-0.2,0.3-0.2,0.3c0.3,0,0.5,0.2,0.8,0.2
		C78.1,181.9,77.7,181.5,77.6,181.5z M79.8,200.1c0.5-0.1,1.5-0.6,1.6-1C80.9,199.4,80.4,199.7,79.8,200.1z M83.4,186.6
		c0-0.5,0-1-1-2.4C82.4,184.2,83.3,186.1,83.4,186.6z M85.3,192.1c-0.1,0.8-0.4,1.5-0.4,2.4v0.1C85.1,194.3,85.3,192.7,85.3,192.1z
		 M85.4,189.4c0,0.1,0.1,0.5,0.1,0.6v0.1c0,0.2,0.1,0.7,0.1,0.7s0.1-0.2,0.1-0.3C85.6,190.1,85.5,189.5,85.4,189.4L85.4,189.4z"/>
	<path class="st14" d="M105.2,195.8c0.6,0.9,0.4,2.2,3,2.2h0.5c0.6,0,1.1,0.3,1.1,1c0,0.4-0.1,0.7-0.1,1.1c0,0.2,0,0.4,0,0.7
		c0,1.1-0.7,1-1.7,1c-0.3,0-0.6-0.1-1-0.1c-0.3,0-0.6,0.1-1,0.1c-1.5,0-1.6-0.8-2.9-2.5c-0.7-0.9-1.2-1.6-2.5-3.2
		c-0.3-0.4-0.5-0.8-0.9-1.1c-0.3,0.2-0.8,0.2-1.3,0.2c-0.7,0-1.1-0.3-1.6-0.3c-0.2,0-0.6,0.5-0.6,0.7c0,0.3,0.1,0.6,0.1,0.9v1
		c0,1.1,2.5-0.4,2.5,1.5v1.2c0,0.7-0.1,1.3-0.8,1.3c-0.2,0-0.4-0.1-0.5-0.1c-0.5,0.1-1,0.4-1.6,0.4c-0.8,0-1.4-0.4-2.2-0.4
		c-0.9,0-1.4,0.4-2.6,0.4c-0.9,0-1.3-0.4-1.3-1.1c0-0.4,0.1-0.8,0.1-1.2c0-0.5-0.3-0.7-0.3-1c0-0.5,1.9-0.6,2.7-0.6
		c0-0.3,0.1-0.5,0.1-0.8c0-0.7-0.2-1.6-0.2-2.4c0-0.3,0-0.6,0.1-0.9c-0.1-0.3-0.2-0.5-0.2-0.7c0.1-0.4,0.2-0.5,0.2-0.9
		c0-3.1,0-6.6-0.1-9.5c-0.5-0.1-0.9-0.2-1.1-0.2c-0.2,0-0.3,0.1-0.4,0.1c-0.5,0-0.9-0.4-0.9-1.1v-0.8c0-0.4-0.1-0.8-0.1-1.2
		c0-0.3,0.1-0.5,0.4-0.5c0.5,0,0.9,0.2,1.4,0.2c1.4,0,2.7-0.2,3.8-0.2c0.3,0,0.5,0,0.8,0h0.8c0.6,0,1.2,0.2,1.8,0.2
		c1.1,0.1,2.2,0,3.2,0.2c1.1,0.2,2.6,0.6,3.6,1.4c1.9,1.5,2.4,3.3,2.5,3.5c0.1,0.5,0.5,0.6,0.5,1.3c0,0.6,0,1.2-0.1,1.8
		c0,0.6-0.4,1.2-0.4,1.8v0.4c0,1.6-1.1,2.5-1.9,3.3c-0.7,0.7-1.3,1.3-2.3,1.7C104.3,195.1,104.9,195.4,105.2,195.8z M91.5,181.2
		L91.5,181.2c-0.1,0-0.1-0.1-0.2-0.1v0.1c0,0,0,0.1,0,0.1C91.3,181.2,91.4,181.2,91.5,181.2z M92.5,180.4c0.4,0,0.9-0.1,1.2-0.1
		c-0.5,0.1-1.1,0-1.6,0.1C92.2,180.4,92.3,180.4,92.5,180.4z M93.7,189.6c0-0.1,0-0.2,0-0.3c0-0.1,0-0.2,0-0.2c0,0.1,0,0.3,0,0.4
		C93.7,189.5,93.7,189.6,93.7,189.6z M93.7,192.9v-0.7c0,0.2,0,0.3,0,0.5C93.7,192.8,93.7,192.8,93.7,192.9z M93.8,198.1
		c0-0.1,0-0.2,0-0.3c0,0.2,0,0.4,0,0.5c0,0.1,0,0.2,0,0.3C93.7,198.5,93.8,198.3,93.8,198.1z M93.7,193.1c0,0.2,0,0.4,0.1,0.5
		C93.8,193.4,93.8,193.2,93.7,193.1z M94.9,182.7C94.9,182.7,94.9,182.7,94.9,182.7C94.8,182.7,94.8,182.7,94.9,182.7
		c-0.1,0-0.1,0.1,0,0.1V182.7z M94.9,183.9c0-0.2,0-0.3,0-0.4v-0.1C94.9,183.6,94.9,183.8,94.9,183.9
		C94.9,183.9,94.9,184,94.9,183.9L94.9,183.9z M95.1,196.1c0-0.2,0-0.4-0.1-0.6c0,0.1,0,0.2,0,0.4c0,0.3,0.1,0.6,0.1,0.9V196.1z
		 M95.1,191.2c0,0.1,0,0.3,0.1,0.3l0,0C95.2,191.3,95.2,191.2,95.1,191.2z M97.6,191.5c0.5,0,0.9-0.1,1.6-0.1c0.3,0,0.6,0,0.8,0
		c1.3,0,2.7-0.6,3.3-1.1c0.8-0.6,1-2.5,1-3.8c0-3.5-4.6-3.9-5.1-4c-0.4,0-0.8,0-1.2,0c-0.4,0-1.8,0-1.8,0.3c0,0.4,0.1,0.7,0.1,1
		c0,0.6-0.2,1.2-0.2,1.8c0,0.4,0.2,0.8,0.2,1.2v0.3c0.1,0.6,0.3,1.1,0.3,1.6c0,0.5-0.2,0.9-0.2,1.5c0,0.8-0.1,1.3,1.1,1.4H97.6z
		 M97.5,192.6c-0.1,0-0.2-0.1-0.3-0.1h0C97.2,192.6,97.3,192.7,97.5,192.6C97.5,192.7,97.5,192.7,97.5,192.6L97.5,192.6z
		 M97.4,199.1c0.1,0,0.1,0.1,0.2,0.1C97.5,199.1,97.5,199.1,97.4,199.1z M98.2,194C98.2,194,98.2,194,98.2,194c0,0-0.1-0.1-0.1-0.1
		c-0.1,0-0.1,0-0.2,0C98,194,98.1,194,98.2,194z M101.2,180.4c0.5,0.1,0.8,0.3,1.2,0.3c0.1,0,0.2-0.1,0.3-0.1
		C102.4,180.5,101.7,180.4,101.2,180.4z M103.5,193.3L103.5,193.3c-0.2,0-0.3,0.1-0.3,0.1C103.3,193.4,103.4,193.4,103.5,193.3z
		 M104.8,181.4c0.1,0.1,0.3,0.2,0.4,0.2C105.1,181.5,104.9,181.4,104.8,181.4z M105.4,200.4c0,0.1,0.1,0.2,0.2,0.2c0,0,0.1,0,0.1,0
		C105.5,200.5,105.4,200.4,105.4,200.4z M105.6,186.2c0,0.1,0,0.2,0.1,0.2C105.6,186.2,105.6,186.2,105.6,186.2z M105.9,182.3
		c0.1,0.3,0.3,0.5,0.5,0.6C106.3,182.6,106,182.5,105.9,182.3z M107.4,200.4c-0.1,0-0.2,0-0.2,0c0.2,0,0.4,0.1,0.5,0.1
		c0.1,0,0.1,0,0.2,0C107.8,200.5,107.6,200.4,107.4,200.4z M108.3,199.1C108.3,199.1,108.3,199.1,108.3,199.1
		C108.3,199.1,108.4,199.2,108.3,199.1c0.1,0.1,0.1,0.1,0.1,0C108.4,199.1,108.4,199.1,108.3,199.1z"/>
	<path class="st14" d="M124.7,198.1c0.2,0,0.4-0.1,0.6-0.1c0.6,0,1.2,0.5,1.2,1.1c0,0.3-0.1,0.6-0.1,0.9c0,0.3,0,0.5,0,0.8
		c0,0.6-0.1,0.9-0.8,0.9c-0.2,0-0.5,0-0.7,0c-1.1,0-2.3,0.1-3.4,0.1c-0.8,0-1.7-0.2-2.2-0.2c-0.4,0-0.6,0.2-1,0.2
		c-0.8,0-1.1-0.8-1.1-1.6c0-0.3,0-0.6,0-0.9c0-0.2-0.1-0.4-0.1-0.6c0-0.8,2.6-0.6,2.6-0.6c0-0.9,0.1-2,0.1-3.1c0-1.3-0.3-2.1-0.8-3
		c-0.2-0.3-0.5-0.5-0.6-0.7c-0.5-0.6-0.7-1.5-1.2-2.2c-0.2-0.3-0.6-0.5-0.8-0.8c-0.3-0.5-0.7-1-1.1-1.8c-0.2-0.3-0.5-0.6-0.6-1
		c-0.2-0.3-0.2-0.6-0.4-0.8c-0.2-0.4-0.6-0.4-0.9-1.2c-0.2-0.5-0.1-0.8-0.9-0.8H112c-0.2,0-1.2-0.1-1.2-0.9c0-0.3,0.1-0.6,0.1-0.8
		c0-0.4-0.1-0.8-0.1-1.2c0-0.5,0.1-0.7,0.6-0.7c0.5,0,0.9,0.1,1.3,0.1c0.7,0,1.5-0.1,2.2-0.1c0.4,0,0.9,0.2,1.2,0.2
		c0.5,0,1.2-0.1,1.9-0.1c0.9,0,1.6,0.2,1.6,1.1c0,0.6-0.2,0.7-0.2,1.4c0,0.3,0.1,0.5,0.1,0.7c0,0.4-0.4,0.4-0.8,0.4
		c-0.4,0-0.7,0-1.1,0c0.1,0.7,0.9,1.2,1.1,1.6c0.5,0.9,0.9,1.9,1.4,2.8c0.1,0.2,0.3,0.3,0.5,0.5c0.4,0.6,0.5,1.1,1.3,1.8
		c0.6-0.3,1.1-1.5,1.5-2.2c0.5-1,1-1.6,1.4-2.5c0.3-0.6,1-1.1,1-2c-0.2-0.1-0.3-0.1-0.5-0.1H125c-0.4,0-1-0.2-1-0.8
		c0-0.3,0.2-0.5,0.2-0.6c0-0.2-0.2-0.4-0.2-0.6c0-0.8,0.1-1.8,0.7-1.8c0.5,0,0.6,0.3,1.2,0.3c0.4,0,0.8,0,1.2,0c0.4,0,0.7,0,1.1,0
		c0.9,0,1.7-0.2,2.5-0.2c0.4,0,0.7,0.2,1,0.2c0.2,0,0.3-0.1,0.5-0.1c0.4,0,0.8,0.4,0.8,0.7c0,0.2-0.1,0.4-0.1,0.7
		c0,0.5,0.1,1.1,0.1,1.6c-0.1,0.3-0.2,0.8-0.5,0.8c-0.2,0-0.4-0.1-0.6-0.1c-0.1,0-0.4,0-0.6,0h-0.4c-0.6,0-1.3,1.8-1.5,2l-0.5,0.7
		c-0.7,0.9-0.9,2.1-1.7,2.8c-0.1,0.1-0.3,0.2-0.4,0.3c-0.7,0.7-1.1,1.8-1.8,2.8c-0.5,0.7-1.3,1.3-1.3,4.1c0,0.8,0.1,1.7,0.1,2.4
		C124.2,197.9,124.4,198.1,124.7,198.1z M113.5,181.5c0.3,0.1,0.5,0.4,0.7,0.5C114,181.9,113.8,181.6,113.5,181.5z M117.5,187
		c-0.5-0.7-0.8-1.7-1.4-2.2c0.2,0.4,0.5,0.7,0.7,1.1C117.1,186.3,117.2,186.8,117.5,187z M116.2,181.7c0,0.1-0.1,0.3-0.1,0.5
		c0,0.2,0,0.5,0.2,0.5C116.2,182.5,116.3,181.9,116.2,181.7z M118,181.3c-0.1,0-0.2,0-0.3,0.1C117.9,181.4,118,181.5,118,181.3z
		 M118.9,199.2c0.2,0,0.4,0,0.5-0.1H119c-0.1,0-0.3,0-0.3,0.1C118.7,199.2,118.8,199.2,118.9,199.2z M119.3,187.7
		c0,0.3,0.2,0.5,0.4,0.6C119.6,188.1,119.5,187.8,119.3,187.7z M120.4,189.3c-0.1-0.1-0.2-0.2-0.3-0.3
		C120.2,189.2,120.3,189.3,120.4,189.3z M121.3,192.9c0-0.4-0.6-1.1-0.7-1.1C120.9,192.1,121.1,192.5,121.3,192.9L121.3,192.9z
		 M122.4,197.8C122.4,197.9,122.4,197.9,122.4,197.8L122.4,197.8L122.4,197.8z M122.7,192.3c0,0.1,0,0.2,0,0.2
		c0.1-0.6,0.3-1.2,0.6-1.5c-0.1,0.1-0.2,0.2-0.4,0.3C122.9,191.6,122.7,191.9,122.7,192.3z M124.4,189.4
		C124.4,189.4,124.4,189.3,124.4,189.4c-0.1,0.3-0.5,0.4-0.5,0.7v0.1C124.1,189.9,124.3,189.7,124.4,189.4z M124.9,200.5
		c0.1,0,0.1,0,0.1-0.1c-0.2,0-0.3,0-0.3,0.1H124.9z M125.6,181.4L125.6,181.4C125.6,181.4,125.6,181.5,125.6,181.4
		C125.7,181.5,125.7,181.5,125.6,181.4C125.6,181.4,125.7,181.4,125.6,181.4z M126.2,181.6L126.2,181.6
		C126.2,181.6,126.2,181.6,126.2,181.6l0.2,0C126.3,181.6,126.3,181.6,126.2,181.6z M129.8,180.1h-0.2
		C129.7,180.1,129.7,180.1,129.8,180.1c0.3,0,0.5,0,0.6,0C130.2,180.1,130,180.1,129.8,180.1z M130.8,180.1c0.3,0,0.4,0.2,0.6,0.2
		c0-0.2-0.1-0.2-0.4-0.2C131,180.1,130.9,180.1,130.8,180.1z"/>
	<path class="st14" d="M158.7,182.7c-0.3,0-0.7,0-1,0c-0.5,0-0.8-0.1-1.2-0.1h-0.4c-0.2,0-0.4-0.1-0.6-0.2c-0.7,0-1.3,0.2-2.1,0.2
		h-0.7c-1.1,0-0.8,1.6-0.8,2.8c0,1.3,0.1,2.5,0.2,3.6c0.4,0,0.7,0.2,1.2,0.2c0.4,0,0.8,0,1.3,0c0.4,0,0.7,0,1.1,0
		c0.4,0,0.7-0.1,0.9-0.1c0.7,0,1.2,0.7,1.2,1.4c0,2.1-0.5,2.2-1.8,2.2c-0.6,0-1.1-0.1-1.5-0.1c-0.2,0-0.4,0.1-0.6,0.1
		c-0.3,0-0.6,0-0.8,0c-0.3,0-0.6,0-0.8,0.2c0,0.7-0.1,1.3-0.1,2c0,0.3,0.1,0.7,0.1,1c0,0.6-0.3,0.8-0.3,1.4c0,0.4,0.1,0.8,0.1,1.2
		c0.4,0,0.8-0.3,1.2-0.3c0.5-0.1,1-0.1,1.5-0.1c1.1,0,2.1,0.2,3.2,0.2c2.4,0,1-1.6,1.7-2.5c0.2-0.3,1.5-0.4,1.8-0.4
		c0.7,0,1.6,0.5,1.6,1.1c0,0.2-0.1,0.5-0.1,0.7c0,0.3,0.1,0.5,0.1,0.8c0,0.2-0.2,0.4-0.2,0.6c0,0.2,0.2,0.5,0.2,0.7
		c0,0.4-0.2,0.8-0.2,1.2c0,0.2,0.1,0.4,0.1,0.6c0,0.5-0.3,0.7-0.7,0.7c-0.6,0-1.7-0.1-2.4-0.1c-0.7,0-1.3,0.1-2,0.1
		c-1.1,0-2.1-0.1-3.2-0.1h-1.1c-0.5,0-1,0-1.4,0c-0.8,0-1.7,0.3-2.5,0.3c-0.2,0-0.4,0-0.5,0c-0.5,0-1,0.1-1.5,0.1c-1,0-2-0.2-2-1.1
		c0-0.4,0.1-0.9,0.1-1.4c0-0.3-0.1-0.7-0.1-0.9c0-0.3,0.2-0.5,0.4-0.5c0.2,0,0.3,0.1,0.5,0.1c0.2,0,0.5-0.1,0.7-0.2
		c0.2,0,0.4,0,0.6,0c0.1,0,0.2,0,0.3,0c0.1-2.7,0.1-5.8,0.1-8.6v-1.3c0-0.7,0.1-1.5,0.1-1.9c0-0.3,0-0.5,0-0.8v-0.6
		c0-0.5-0.2-1-0.2-1.7c0-0.1,0-0.2,0-0.3c-0.2,0-0.4,0-0.5,0c-0.2,0-0.5,0-0.7,0c-0.6,0-1.2-0.1-1.2-0.9c0-0.3,0.1-0.6,0.1-1
		c0-0.3-0.3-0.6-0.3-1.1c0-0.6,1-0.7,1.6-0.7c0.9,0,1.7,0.2,2.6,0.2c1.1,0,2.7-0.3,3.9-0.3c0.8,0,1.7,0.2,2.6,0.2
		c1.2,0,3-0.2,4.4-0.2c0.5,0,0.9,0.1,1.2,0.1h0.3c0.3,0,0.7,0.3,0.8,0.7c0,0.2-0.2,0.5-0.2,1.1c0,0.7,0.2,1.3,0.2,2.2
		c0,0.2,0,0.5,0,0.7c0,0.3,0.1,0.6,0.1,0.8c0,0.7-0.9,0.6-2.1,0.6c-0.7,0-1.4-0.1-1.4-0.8c0-0.2,0.1-0.3,0.1-0.4c0-0.1,0-0.2,0-0.4
		c0-0.3,0-0.5,0-0.8C159.1,182.7,158.9,182.7,158.7,182.7z M146.7,180.3C146.7,180.2,146.7,180.2,146.7,180.3
		C146.7,180.2,146.7,180.2,146.7,180.3C146.7,180.2,146.7,180.3,146.7,180.3z M147.6,199.4c-0.2,0-0.5,0-0.7,0.1
		C147.1,199.4,147.4,199.5,147.6,199.4z M149.3,182.4C149.3,182.3,149.3,182.3,149.3,182.4l-0.2-0.1c0.1,0.1,0.1,0.2,0.2,0.3
		C149.3,182.5,149.3,182.4,149.3,182.4z M149.6,188.5c0-0.2,0-0.5-0.1-0.6c0,0.5-0.1,0.8-0.2,1.2C149.5,189,149.6,188.7,149.6,188.5
		z M149.5,186.3c0-0.2,0-0.3-0.1-0.5v0.2c0,0.3,0,0.5,0,0.8c0,0.1,0,0.2,0,0.3C149.5,186.9,149.5,186.6,149.5,186.3z M150.9,181.5
		c0.4,0,0.8-0.2,1.2-0.2h-0.5c-0.4,0-0.8,0-1.1,0.2C150.7,181.5,150.8,181.5,150.9,181.5z M150.7,192.2c-0.1,0.3-0.1,0.5-0.1,0.8
		c0,0.2,0,0.5,0.1,0.6C150.7,193.2,150.7,192.6,150.7,192.2z M154.8,200.3c0.1,0,0.3,0,0.4,0C155,200.3,154.9,200.3,154.8,200.3
		c-0.2-0.1-0.3-0.1-0.4,0H154.8z M156.6,199.2c-0.2,0-0.4-0.1-0.5-0.1c-0.1,0-0.1,0-0.2,0C156.1,199.2,156.5,199.2,156.6,199.2z
		 M156.3,200.4c0.1,0,0.1,0,0.1,0c-0.1,0-0.2,0-0.3,0c0,0,0,0-0.1,0C156.1,200.4,156.2,200.4,156.3,200.4z M157.7,199.3h-0.5
		c0.1,0,0.1,0.1,0.2,0.1C157.6,199.3,157.6,199.3,157.7,199.3C157.7,199.3,157.7,199.3,157.7,199.3z M160.1,200.2
		c-0.3,0-0.7,0-1,0.1C159.4,200.3,159.9,200.4,160.1,200.2z M160.7,180.1h-0.4c-0.1,0-0.1,0-0.2,0c0.1,0,0.1,0.1,0.2,0.1
		C160.4,180.2,160.5,180.2,160.7,180.1z M161.1,180.1c-0.1,0-0.1,0-0.2,0c0.1,0,0.2,0.1,0.3,0.1h0
		C161.2,180.1,161.1,180.1,161.1,180.1z M161.1,196.7c0-0.1,0.1-0.1,0.1-0.2c-0.1,0-0.2,0.1-0.3,0.1
		C160.9,196.6,161.1,196.6,161.1,196.7z"/>
	<path class="st14" d="M188.8,182.9c0,0.7-0.1,1.4-0.2,2.1v0.7c0,0.4,0,0.8,0,1.2c0,0.6,0.3,0.8,0.3,1.3c0,0.2,0,0.5-0.1,0.7v0.8
		c0,0.6-0.2,1-0.2,1.7c0,1,0.1,2.1,0.1,3.2c0,0.4-0.1,0.8-0.1,1.2c0,0.4,0.2,0.7,0.2,1.3c0,0.6-0.1,1.3-0.1,1.9
		c0,0.5,0.2,0.7,0.2,1.6c0,0.7-0.2,1.2-0.5,1.2c-0.2,0-0.3-0.1-0.5-0.1c-0.4,0-0.7,0.2-1.1,0.2c-1.2,0-1.3-0.5-1.8-1.4
		c-0.5-0.5-1.1-0.9-1.3-1.2c-0.4-0.5-0.7-1.1-1.1-1.6c-0.3-0.4-0.7-0.7-0.9-1.1c-0.1-0.1-0.1-0.4-0.2-0.5c-0.2-0.3-0.8-0.5-1.1-0.9
		c-0.4-0.5-0.8-1.2-1.2-1.6c-0.4-0.4-1.5-1.2-1.5-1.8c-0.5-0.4-0.8-0.5-1.1-1.3c-0.3-0.4-0.8-0.8-1.2-1.3c-0.7-0.9-0.9-1.3-2-2.4
		c-0.1,0.4-0.1,0.7-0.1,1.1c0,0.7,0.1,1.5,0.1,2.3c0,0.3,0,0.6-0.1,0.9c0.1,0.3,0.1,0.7,0.1,1.1c0,0.5-0.2,0.8-0.2,1.4
		c0,0.7,0.1,1.6,0.1,2.4c0,0.3,0,0.6,0,0.8c0.1,0.2,0.1,0.5,0.1,0.7v0.3c0.2,0.1,0.4,0.1,0.6,0.1c0.3,0,0.5-0.2,0.7-0.2
		c0.5,0,1.1,0.3,1.1,0.8c0,0.2-0.1,0.6-0.1,0.9c0,0.3,0.1,0.4,0.1,0.7c0,0.7-0.2,1.2-0.8,1.2c-0.6,0-1.2-0.2-1.8-0.2
		c-0.4,0-0.7,0.3-1.4,0.3c-0.6,0-1.4-0.2-2-0.2c-0.4,0-0.6,0.2-1,0.2c-1.2,0-1.9-0.2-1.9-1.3c0-0.4,0.1-0.8,0.1-1.1
		c-0.1-0.2-0.2-0.4-0.2-0.7c0-0.4,0.2-0.6,0.6-0.6c0.3,0,0.6,0.1,1,0.1c0.5,0,0.7-0.1,1-0.3c0-0.8,0-1.7,0-2.5c0-0.5,0-1,0-1.5
		c0-0.9,0.1-1.6,0.1-2.5c0-0.9,0-1.8,0-2.7c0-0.9,0-1.7,0-2.6c0-0.9-0.1-1.8-0.1-2.7c0-0.2,0-0.4,0-0.6c-0.4,0-0.9,0-1.2-0.2
		c-0.1,0.1-0.3,0.2-0.4,0.2c-0.5,0-1-0.6-1-1.2c0-0.2,0.1-0.4,0.1-0.6c-0.1-0.2-0.2-0.6-0.2-0.9c0-0.7,0.2-1,1-1
		c0.8,0,1.7,0.1,2.4,0.1c0.3,0,0.7-0.1,1-0.1c0.8,0,1.2,1.1,1.8,1.6c0.3,0.4,0.9,0.9,1.5,1.6c0.3,0.4,0.1,0.5,0.7,0.8
		c0.5,0.4,0.5,0.6,0.7,0.9c0.7,1.2,1.7,1.9,1.9,2.1c0.8,1,1.4,1.8,2.3,2.8c0.3,0.4,0.4,0.5,0.7,0.7c2.6,3.3,2.9,4,3.8,4.5
		c0.2-0.5,0.2-1,0.2-1.7c0-0.5,0-1.1,0-1.7c0-0.7,0.1-1.4,0.1-2.1c0-1.8-0.2-3.6-0.2-5.5v-0.5c-0.2-0.1-0.4-0.2-0.6-0.2
		c-0.3,0-0.5,0-0.8,0c-0.7,0-1.2-0.5-1.2-1.3c0-0.3,0.1-0.5,0.2-0.8c-0.1-0.2-0.2-0.5-0.2-0.7c0-0.3,0.2-0.9,0.8-0.9
		c0.3,0,0.5,0.1,0.7,0.1c1.2,0,3.5-0.2,4.2-0.2c0.7,0,1.5,0.1,1.9,0.2c0.1,0,0.2,0,0.3,0c1,0,1.2,1.2,1.2,2.5c0,0.8-0.1,1.2-0.6,1.2
		c-0.3,0-0.7-0.1-1-0.1c-0.4,0-0.6,0.1-0.9,0.1V182.9z M168.7,200.4c-0.2,0-0.3-0.1-0.4-0.2v0.2
		C168.5,200.5,168.6,200.5,168.7,200.4z M169,180.2h-0.4c-0.1,0-0.3,0-0.3,0c0.2,0,0.4,0.1,0.5,0.2L169,180.2z M170.9,191.4
		c0-0.2,0-0.5-0.1-0.7v0.8c0,0.2,0,0.3,0,0.4C170.9,191.7,170.9,191.5,170.9,191.4z M171.2,180.4L171.2,180.4c0,0,0-0.1-0.1-0.1
		c-0.1,0-0.1,0-0.2,0C171,180.3,171.1,180.4,171.2,180.4z M171.7,180.8c0.2,0.2,0.3,0.6,0.5,0.6C172,181.2,171.9,180.9,171.7,180.8z
		 M171.8,195.1c0,0.2,0,0.4,0,0.6c0,0.2,0,0.3,0.2,0.4C171.8,195.8,171.8,195.3,171.8,195.1z M172,183.4L172,183.4
		C172,183.3,172,183.4,172,183.4C171.9,183.4,171.9,183.3,172,183.4L172,183.4C171.9,183.5,171.9,183.5,172,183.4
		C171.9,183.4,172,183.4,172,183.4z M174.6,200.2c-0.2,0.1-0.4,0.1-0.6,0.1c-0.3,0-0.6-0.1-0.9-0.1c-0.1,0-0.3,0-0.4,0.1h0.2
		c0.6,0,1.1,0.1,1.6,0.2V200.2z M174.8,186.8c-0.2-0.3-0.4-0.7-0.7-0.8c0,0,0.1,0.1,0.1,0.2C174.5,186.3,174.6,186.8,174.8,186.8z
		 M176.7,186.6L176.7,186.6c0-0.2-0.7-0.9-0.9-1.1c-0.1,0-0.1,0.1-0.1,0.1c0,0.1,0.2,0.3,0.3,0.4
		C176.2,186.1,176.4,186.4,176.7,186.6z M180.1,190.3c-0.5-0.4-0.8-1-1.3-1.4c0.1,0.3,0.4,0.5,0.6,0.8
		C179.6,189.9,179.8,190.1,180.1,190.3z M184.3,180.3l-0.5-0.1c0,0,0,0.1,0,0.2C184,180.4,184.2,180.4,184.3,180.3z M184,197.9
		c0.1,0.1,0.1,0.2,0.2,0.3C184.2,198,184.1,197.9,184,197.9z M185.9,181.9h-0.3c0.1,0,0.2,0.2,0.3,0.2
		C185.9,182,185.9,182,185.9,181.9z M186.2,187.5c0.1-0.4,0.1-0.8,0.1-1.3c0-0.5,0-0.9-0.2-1.3c0,0.2,0,0.5,0,0.8v1
		C186.1,187,186.1,187.3,186.2,187.5z M186.3,190.5c0-0.1,0-0.2,0-0.2c0,0.1,0,0.5,0,0.5V190.5z M187.4,183.3c0,0.2-0.1,0.5-0.1,0.7
		c0,0.1,0,0.1,0,0.2c0-0.3,0.1-0.8,0.1-1.2c-0.1,0,0-0.1-0.1-0.1c-0.1,0-0.1,0-0.1,0.1h0C187.4,183,187.4,183.1,187.4,183.3z
		 M187.4,196.5c0-0.2,0-0.3-0.1-0.4c0,0.2-0.1,0.4-0.1,0.6c0,0.2,0,0.3,0.1,0.4V196.5z M187.4,198.1c0,0.3-0.1,0.6-0.1,0.9
		c0,0.1,0,0.3,0.1,0.4C187.4,199,187.4,198.5,187.4,198.1z M187.4,197.8c0-0.1,0-0.2,0-0.3C187.4,197.7,187.4,197.7,187.4,197.8z
		 M190,181.5c0.1,0,0.1-0.1,0.1-0.2c0,0,0-0.1,0-0.1c0,0.1-0.2,0.1-0.2,0.3C189.9,181.4,189.9,181.5,190,181.5z"/>
	<path class="st14" d="M212,180.6c0-0.2,0-0.4,0-0.6c0-0.6-0.3-0.8-0.3-1.2c0-0.3,0.3-0.4,0.6-0.4c0.3,0,0.6,0.1,0.8,0.2
		c0.3,0,0.7,0,1.1,0c0.7,0,1.3,0.1,1.3,0.7c0,0.3-0.2,0.3-0.2,0.7c0,1.1,0.2,1.8,0.2,2.6c0,0.9-0.1,1.9-0.1,2.8c0,0.3,0.1,0.7,0.1,1
		c0,0.2-0.2,0.4-0.4,0.4c-0.4,0-0.6-0.3-0.8-0.3c-0.5,0-0.9,0.2-1.3,0.2c-0.8,0-0.9-0.5-1.1-1.2c-0.2-0.8-1.5-2.1-1.7-2.3
		c-0.6-0.5-2.4-1-3.8-1c-1.5,0-4.1,1-4.7,1.5c-0.2,0.1-0.2,0.4-0.5,0.4h-0.1c-0.3,0.6-0.6,0.7-0.8,1.1c-0.1,0.2-0.2,0.6-0.3,0.8
		c-0.5,0.9-1.1,1.8-1.1,3.2c0,0.3,0,0.5,0,0.8c0,0.4,0,0.7,0,1c0,1.7,0.9,3.2,1.3,3.8c0.4,0.6,1.2,1.1,1.8,1.5
		c0.7,0.5,1.3,1,2.1,1.3c0.4,0.1,1,0.1,1.4,0.3c0.6,0.2,1.2,0.5,1.9,0.5c0.9,0,2.4-0.2,3.1-0.4c0.4-0.1,0.6-0.4,1-0.5
		c0.3-0.1,0.7,0.1,0.7-0.4v-0.3c0-0.3,0.1-0.5,0.1-0.8c0-0.4,0-2.8-0.2-2.8c-0.2,0-0.4,0.2-0.7,0.2c-0.5,0-0.8-0.3-1.4-0.3
		c-0.5,0-1.1,0.2-1.6,0.2c-1.3,0-2.6-0.3-2.6-1.3c0-0.3,0.1-0.5,0.1-0.7c0-0.3-0.1-0.7-0.1-1c0-0.6,0.3-0.4,0.8-0.5
		c0.2-0.1,0.2-0.3,0.6-0.3c0.4,0,0.7,0.2,1,0.2c1.1,0.2,3.2,0.1,4.8,0.1c0.4,0,0.8,0,1.3,0c0.9,0,2,0.1,2,0.9c0,0.5-0.4,1.2-0.4,1.7
		c0,1.4,0.2,2.8,0.3,4.2c0,1.2-0.1,3.2-0.7,3.2c-0.1,0-0.2,0-0.3-0.1c-1.1,0.6-1.4,1.4-3.2,1.6l-2.5,0.4c-0.6,0.1-1,0.4-1.6,0.4
		c-0.6,0-1.2-0.2-1.7-0.2c-2.4-0.2-4.2-0.3-5.6-1.6c-1-0.3-1.7-0.9-2.3-1.7c-0.4-0.3-0.8-0.6-1.1-1c-0.3-0.6-0.8-0.6-1.2-1.4
		c-0.1-0.3-0.2-0.5-0.3-0.8c-0.5-1.3-1.3-2.6-1.3-4.6c0-0.4,0.1-0.8,0.1-1.2v-0.5c0-2.4,1.7-5,1.9-5.5c0.8-1.9,1.7-2.6,3.8-3.6
		c0.5-0.3,0.7-0.6,1.4-0.7c0.4-0.2,0.7-0.6,1.4-0.6h0.5c0.7-0.1,1.3-0.4,2-0.4c0.9,0,1.7,0.3,2.6,0.4c1.4,0.2,2.7,0.7,3.4,1.4
		c0.3,0.3,0.4,0.7,0.6,0.9C212,180.9,212,180.8,212,180.6z M195.8,190.5c0,0.1,0,0.4,0,0.4C195.9,190.8,195.9,190.6,195.8,190.5z
		 M196.3,186.9c0,0.3-0.3,0.6-0.3,1c0,0.1,0,0.1,0,0.2C196.2,187.7,196.3,187.3,196.3,186.9z M197.3,190.4c0-0.2,0.1-0.5,0.1-0.7
		c0-0.1,0-0.2,0-0.3c-0.1,0.2-0.1,0.4-0.1,0.6C197.2,190.1,197.3,190.3,197.3,190.4z M197.3,191.4c0.1,0.5,0.1,1,0.4,1.2
		C197.7,192.5,197.4,191.7,197.3,191.4z M197.9,183.8L197.9,183.8c-0.1,0.2-0.2,0.3-0.3,0.5C197.7,184.3,197.9,183.9,197.9,183.8z
		 M198.8,197.5c-0.3-0.2-0.5-0.5-0.9-0.7c0.4,0.7,1.1,1,1.9,1.4C199.5,197.9,199.1,197.8,198.8,197.5z M203.6,180.1L203.6,180.1
		c-0.3,0.1-0.8,0.1-1,0.3C203,180.3,203.6,180.1,203.6,180.1z M206.7,200.7h-0.4c-0.1,0-0.3,0-0.3,0c0.2,0,0.4,0.1,0.6,0.1
		C206.6,200.8,206.6,200.8,206.7,200.7z M206.9,180C206.9,180,206.9,180,206.9,180L206.9,180c0,0,0.1,0.1,0.2,0.1c0,0,0,0,0.1,0
		C207.1,180,207,180,206.9,180z M207,190.9v0.2c0.3,0,0.8,0,1.1-0.1C207.7,191,207.4,190.9,207,190.9z M209.2,181.7
		c-0.5-0.2-0.9-0.5-1.5-0.5h-0.3C207.9,181.4,208.7,181.5,209.2,181.7z M212.7,191.2c0.1,0,0.2,0,0.3,0c-0.2,0-0.5,0-0.8,0
		c-0.1,0-0.2,0-0.3,0C212.1,191.2,212.4,191.2,212.7,191.2z M213.4,185.3c0,0-0.5,0-0.5-0.1v0.1
		C213.2,185.4,213.3,185.4,213.4,185.3z M213.8,179.9C213.9,180,213.9,180,213.8,179.9C213.9,179.9,213.9,179.9,213.8,179.9z
		 M214.4,191.3h-0.4c0.1,0.1,0.2,0.2,0.3,0.3C214.4,191.4,214.4,191.4,214.4,191.3z M214.3,196.7
		C214.3,196.7,214.3,196.6,214.3,196.7L214.3,196.7c-0.1,0.1-0.1,0.1,0,0.1C214.3,196.8,214.3,196.8,214.3,196.7z"/>
	<path class="st14" d="M226.7,183.9c0,0.6,0.1,1.2,0.1,1.8c0,0.7-0.3,1.3-0.3,1.9c0,0.4,0.3,0.7,0.3,1.2c0,0.9-0.2,1.6-0.2,2.4
		c0,1.3,0.2,2.5,0.2,3.7c0,1.1-0.1,2.1-0.1,3.1c0.1,0.1,0.3,0.1,0.5,0.1c0.4,0,0.7-0.1,1.1-0.1c0.4,0,1,0.3,1,0.9
		c0,0.5-0.3,0.9-0.3,1.5c0,0.3,0.1,0.5,0.1,0.7c0,0.7-5.1,0.6-5.2,0.6c-0.5,0-0.8-0.2-1.1-0.2c-0.2,0-0.4,0.1-0.6,0.1
		c-0.8,0-1.7,0-1.9-0.7c-0.1-0.5-0.1-1-0.1-1.6c0-0.2-0.2-0.5-0.2-0.8c0-0.5,0.4-0.7,1-0.7c0.4,0,0.7,0.1,1.1,0.1
		c0.3,0,0.4-0.1,0.6-0.1h0.1c0-1,0.1-2,0.1-3c0-0.7-0.2-1.4-0.2-2c0-0.2,0-0.5,0-0.7v-0.8c0-0.6,0.2-1.2,0.2-1.8
		c0-0.7-0.3-1.3-0.3-2.1c0-0.9,0.3-1.3,0.3-2.2c0-0.7-0.2-1.4-0.2-2c0-0.3,0-0.5,0.1-0.8c-0.3,0-0.6,0-0.9,0c-0.9,0-1.7-0.2-1.7-1.5
		c0-0.3,0-0.6,0-0.9c0-0.2,0-0.5,0-0.7c0-0.6,0.5-0.8,1-0.8c0.4,0,0.7,0.1,1.1,0.1c0.6,0,1.3-0.1,1.9-0.1c1,0,2.1,0.2,3.1,0.2
		c0.2,0,0.5-0.1,0.8-0.1c0.4,0,0.9,0.3,0.9,0.8v0.4c0,0.2,0.1,0.3,0.1,0.5c0,0.3-0.1,0.5-0.1,0.9v0.5c0,0.6-0.3,0.7-0.8,0.7
		c-0.2,0-0.4,0-0.5,0c-0.6,0-0.6,0.3-0.9,0.3c0,0-0.1,0-0.1,0C226.8,183.3,226.7,183.6,226.7,183.9z M221.9,200.4
		c-0.1,0-0.3,0-0.3,0c0,0,0,0.1,0,0.1C221.7,200.5,221.8,200.5,221.9,200.4z M221.6,180.1c0.1,0,0.2,0.1,0.4,0.1
		c0.2,0,0.3,0,0.4-0.1c-0.2,0-0.4,0-0.6,0L221.6,180.1C221.6,180.1,221.7,180.1,221.6,180.1z M224.2,182.3c0.1-0.1,0.2-0.1,0.2-0.2
		V182c-0.1,0-0.2,0.1-0.4,0.1C224,182.2,224.1,182.2,224.2,182.3z M224,188.5c0,0.2,0.1,0.4,0.1,0.5
		C224.2,188.8,224.1,188.6,224,188.5z M224.2,191.2c0-0.1,0-0.2,0-0.3v0.1c0,0.3-0.1,0.5-0.1,0.8c0,0.1,0,0.2,0,0.2
		C224.1,191.8,224.2,191.5,224.2,191.2z M225.1,184.8C225.1,184.7,225,184.7,225.1,184.8c0,0-0.1,0.1-0.1,0.1c0,0,0,0.1,0,0.1
		C225,184.9,225.1,184.8,225.1,184.8z M225.1,187c-0.1-0.5,0-1-0.2-1.4l0.1,1.1C225.1,186.8,225.1,187,225.1,187z M225.1,184.5
		c0.2-0.3,0.2-0.9,0.3-1.3c0,0-0.1,0-0.1,0C225.3,183.7,225.2,184.1,225.1,184.5z M225.5,194.5c0-0.2,0-0.3,0-0.4
		c0,0.2-0.1,0.5-0.1,0.8c0,0.1,0,0.3,0.1,0.4V194.5z M226.2,199c0,0.2,0.1,0.2,0.2,0.2l0,0C226.4,199.1,226.3,199,226.2,199z
		 M227.6,181.6c0.1,0,0.2,0,0.2,0c0,0,0-0.2,0-0.2c-0.2,0.1-0.5,0-0.7,0.2C227.3,181.5,227.4,181.6,227.6,181.6z"/>
	<path class="st14" d="M255.5,182.9c0,0.7-0.1,1.4-0.2,2.1v0.7c0,0.4,0,0.8,0,1.2c0,0.6,0.3,0.8,0.3,1.3c0,0.2,0,0.5-0.1,0.7v0.8
		c0,0.6-0.2,1-0.2,1.7c0,1,0.1,2.1,0.1,3.2c0,0.4-0.1,0.8-0.1,1.2c0,0.4,0.2,0.7,0.2,1.3c0,0.6-0.1,1.3-0.1,1.9
		c0,0.5,0.2,0.7,0.2,1.6c0,0.7-0.2,1.2-0.5,1.2c-0.2,0-0.3-0.1-0.5-0.1c-0.4,0-0.7,0.2-1.1,0.2c-1.2,0-1.3-0.5-1.8-1.4
		c-0.5-0.5-1.1-0.9-1.3-1.2c-0.4-0.5-0.7-1.1-1.1-1.6c-0.3-0.4-0.7-0.7-0.9-1.1c-0.1-0.1-0.1-0.4-0.2-0.5c-0.2-0.3-0.8-0.5-1.1-0.9
		c-0.4-0.5-0.8-1.2-1.2-1.6c-0.4-0.4-1.5-1.2-1.5-1.8c-0.5-0.4-0.8-0.5-1.1-1.3c-0.3-0.4-0.8-0.8-1.2-1.3c-0.7-0.9-0.9-1.3-2-2.4
		c-0.1,0.4-0.1,0.7-0.1,1.1c0,0.7,0.1,1.5,0.1,2.3c0,0.3,0,0.6-0.1,0.9c0.1,0.3,0.1,0.7,0.1,1.1c0,0.5-0.2,0.8-0.2,1.4
		c0,0.7,0.1,1.6,0.1,2.4c0,0.3,0,0.6,0,0.8c0.1,0.2,0.1,0.5,0.1,0.7v0.3c0.2,0.1,0.4,0.1,0.6,0.1c0.3,0,0.5-0.2,0.7-0.2
		c0.5,0,1.1,0.3,1.1,0.8c0,0.2-0.1,0.6-0.1,0.9c0,0.3,0.1,0.4,0.1,0.7c0,0.7-0.2,1.2-0.8,1.2c-0.6,0-1.2-0.2-1.8-0.2
		c-0.4,0-0.7,0.3-1.4,0.3c-0.6,0-1.4-0.2-2-0.2c-0.4,0-0.6,0.2-1,0.2c-1.2,0-1.9-0.2-1.9-1.3c0-0.4,0.1-0.8,0.1-1.1
		c-0.1-0.2-0.2-0.4-0.2-0.7c0-0.4,0.2-0.6,0.6-0.6c0.3,0,0.6,0.1,1,0.1c0.5,0,0.7-0.1,1-0.3c0-0.8,0-1.7,0-2.5c0-0.5,0-1,0-1.5
		c0-0.9,0.1-1.6,0.1-2.5c0-0.9,0-1.8,0-2.7c0-0.9,0-1.7,0-2.6c0-0.9-0.1-1.8-0.1-2.7c0-0.2,0-0.4,0-0.6c-0.4,0-0.9,0-1.2-0.2
		c-0.1,0.1-0.3,0.2-0.4,0.2c-0.5,0-1-0.6-1-1.2c0-0.2,0.1-0.4,0.1-0.6c-0.1-0.2-0.2-0.6-0.2-0.9c0-0.7,0.2-1,1-1
		c0.8,0,1.7,0.1,2.4,0.1c0.3,0,0.7-0.1,1-0.1c0.8,0,1.2,1.1,1.8,1.6c0.3,0.4,0.9,0.9,1.5,1.6c0.3,0.4,0.1,0.5,0.7,0.8
		c0.5,0.4,0.5,0.6,0.7,0.9c0.7,1.2,1.7,1.9,1.9,2.1c0.8,1,1.4,1.8,2.3,2.8c0.3,0.4,0.4,0.5,0.7,0.7c2.6,3.3,2.9,4,3.8,4.5
		c0.2-0.5,0.2-1,0.2-1.7c0-0.5,0-1.1,0-1.7c0-0.7,0.1-1.4,0.1-2.1c0-1.8-0.2-3.6-0.2-5.5v-0.5c-0.2-0.1-0.4-0.2-0.6-0.2
		c-0.3,0-0.5,0-0.8,0c-0.7,0-1.2-0.5-1.2-1.3c0-0.3,0.1-0.5,0.2-0.8c-0.1-0.2-0.2-0.5-0.2-0.7c0-0.3,0.2-0.9,0.8-0.9
		c0.3,0,0.5,0.1,0.7,0.1c1.2,0,3.5-0.2,4.2-0.2c0.7,0,1.5,0.1,1.9,0.2c0.1,0,0.2,0,0.3,0c1,0,1.2,1.2,1.2,2.5c0,0.8-0.1,1.2-0.6,1.2
		c-0.3,0-0.7-0.1-1-0.1c-0.4,0-0.6,0.1-0.9,0.1V182.9z M235.3,200.4c-0.2,0-0.3-0.1-0.4-0.2v0.2
		C235.1,200.5,235.3,200.5,235.3,200.4z M235.7,180.2h-0.4c-0.1,0-0.3,0-0.3,0c0.2,0,0.4,0.1,0.5,0.2L235.7,180.2z M237.6,191.4
		c0-0.2,0-0.5-0.1-0.7v0.8c0,0.2,0,0.3,0,0.4C237.6,191.7,237.6,191.5,237.6,191.4z M237.8,180.4L237.8,180.4c0,0,0-0.1-0.1-0.1
		c-0.1,0-0.1,0-0.2,0C237.7,180.3,237.8,180.4,237.8,180.4z M238.3,180.8c0.2,0.2,0.3,0.6,0.5,0.6
		C238.7,181.2,238.5,180.9,238.3,180.8z M238.4,195.1c0,0.2,0,0.4,0,0.6c0,0.2,0,0.3,0.2,0.4C238.4,195.8,238.4,195.3,238.4,195.1z
		 M238.6,183.4L238.6,183.4C238.6,183.3,238.6,183.4,238.6,183.4C238.6,183.4,238.6,183.3,238.6,183.4L238.6,183.4
		C238.5,183.5,238.5,183.5,238.6,183.4C238.6,183.4,238.6,183.4,238.6,183.4z M241.2,200.2c-0.2,0.1-0.4,0.1-0.6,0.1
		c-0.3,0-0.6-0.1-0.9-0.1c-0.1,0-0.3,0-0.4,0.1h0.2c0.6,0,1.1,0.1,1.6,0.2V200.2z M241.5,186.8c-0.2-0.3-0.4-0.7-0.7-0.8
		c0,0,0.1,0.1,0.1,0.2C241.1,186.3,241.2,186.8,241.5,186.8z M243.3,186.6L243.3,186.6c0-0.2-0.7-0.9-0.9-1.1
		c-0.1,0-0.1,0.1-0.1,0.1c0,0.1,0.2,0.3,0.3,0.4C242.8,186.1,243.1,186.4,243.3,186.6z M246.7,190.3c-0.5-0.4-0.8-1-1.3-1.4
		c0.1,0.3,0.4,0.5,0.6,0.8C246.2,189.9,246.5,190.1,246.7,190.3z M251,180.3l-0.5-0.1c0,0,0,0.1,0,0.2
		C250.6,180.4,250.8,180.4,251,180.3z M250.6,197.9c0.1,0.1,0.1,0.2,0.2,0.3C250.8,198,250.7,197.9,250.6,197.9z M252.6,181.9h-0.3
		c0.1,0,0.2,0.2,0.3,0.2C252.5,182,252.5,182,252.6,181.9z M252.8,187.5c0.1-0.4,0.1-0.8,0.1-1.3c0-0.5,0-0.9-0.2-1.3
		c0,0.2,0,0.5,0,0.8v1C252.8,187,252.8,187.3,252.8,187.5z M252.9,190.5c0-0.1,0-0.2,0-0.2c0,0.1,0,0.5,0,0.5V190.5z M254,183.3
		c0,0.2-0.1,0.5-0.1,0.7c0,0.1,0,0.1,0,0.2c0-0.3,0.1-0.8,0.1-1.2c-0.1,0,0-0.1-0.1-0.1c-0.1,0-0.1,0-0.1,0.1h0
		C254,183,254,183.1,254,183.3z M254.1,196.5c0-0.2,0-0.3-0.1-0.4c0,0.2-0.1,0.4-0.1,0.6c0,0.2,0,0.3,0.1,0.4V196.5z M254.1,198.1
		c0,0.3-0.1,0.6-0.1,0.9c0,0.1,0,0.3,0.1,0.4C254,199,254.1,198.5,254.1,198.1z M254.1,197.8c0-0.1,0-0.2,0-0.3
		C254,197.7,254,197.7,254.1,197.8z M256.6,181.5c0.1,0,0.1-0.1,0.1-0.2c0,0,0-0.1,0-0.1c0,0.1-0.2,0.1-0.2,0.3
		C256.5,181.4,256.6,181.5,256.6,181.5z"/>
	<path class="st14" d="M275,182.7c-0.3,0-0.7,0-1,0c-0.5,0-0.8-0.1-1.2-0.1h-0.4c-0.2,0-0.4-0.1-0.6-0.2c-0.7,0-1.3,0.2-2.1,0.2H269
		c-1.1,0-0.8,1.6-0.8,2.8c0,1.3,0.1,2.5,0.2,3.6c0.4,0,0.7,0.2,1.2,0.2c0.4,0,0.8,0,1.3,0c0.4,0,0.7,0,1.1,0c0.4,0,0.7-0.1,0.9-0.1
		c0.7,0,1.2,0.7,1.2,1.4c0,2.1-0.5,2.2-1.8,2.2c-0.6,0-1.1-0.1-1.5-0.1c-0.2,0-0.4,0.1-0.6,0.1c-0.3,0-0.5,0-0.8,0
		c-0.3,0-0.6,0-0.8,0.2c0,0.7-0.1,1.3-0.1,2c0,0.3,0.1,0.7,0.1,1c0,0.6-0.3,0.8-0.3,1.4c0,0.4,0.1,0.8,0.1,1.2
		c0.4,0,0.8-0.3,1.2-0.3c0.5-0.1,1-0.1,1.5-0.1c1.1,0,2.1,0.2,3.2,0.2c2.4,0,1-1.6,1.6-2.5c0.2-0.3,1.5-0.4,1.8-0.4
		c0.7,0,1.6,0.5,1.6,1.1c0,0.2-0.1,0.5-0.1,0.7c0,0.3,0.1,0.5,0.1,0.8c0,0.2-0.2,0.4-0.2,0.6c0,0.2,0.2,0.5,0.2,0.7
		c0,0.4-0.2,0.8-0.2,1.2c0,0.2,0.1,0.4,0.1,0.6c0,0.5-0.3,0.7-0.7,0.7c-0.6,0-1.7-0.1-2.4-0.1c-0.7,0-1.3,0.1-2,0.1
		c-1.1,0-2.1-0.1-3.2-0.1h-1.1c-0.5,0-1,0-1.4,0c-0.8,0-1.7,0.3-2.5,0.3c-0.2,0-0.4,0-0.5,0c-0.5,0-1,0.1-1.5,0.1c-1,0-2-0.2-2-1.1
		c0-0.4,0.1-0.9,0.1-1.4c0-0.3-0.1-0.7-0.1-0.9c0-0.3,0.2-0.5,0.4-0.5c0.2,0,0.3,0.1,0.5,0.1c0.2,0,0.5-0.1,0.7-0.2
		c0.2,0,0.4,0,0.6,0c0.1,0,0.2,0,0.3,0c0.1-2.7,0.1-5.8,0.1-8.6v-1.3c0-0.7,0.1-1.5,0.1-1.9c0-0.3,0-0.5,0-0.8v-0.6
		c0-0.5-0.2-1-0.2-1.7c0-0.1,0-0.2,0-0.3c-0.2,0-0.4,0-0.5,0c-0.2,0-0.5,0-0.7,0c-0.6,0-1.2-0.1-1.2-0.9c0-0.3,0.1-0.6,0.1-1
		c0-0.3-0.3-0.6-0.3-1.1c0-0.6,1-0.7,1.6-0.7c0.9,0,1.7,0.2,2.6,0.2c1.1,0,2.7-0.3,3.9-0.3c0.8,0,1.7,0.2,2.6,0.2
		c1.2,0,3-0.2,4.4-0.2c0.5,0,0.9,0.1,1.2,0.1h0.3c0.3,0,0.7,0.3,0.8,0.7c0,0.2-0.2,0.5-0.2,1.1c0,0.7,0.2,1.3,0.2,2.2
		c0,0.2,0,0.5,0,0.7c0,0.3,0.1,0.6,0.1,0.8c0,0.7-0.9,0.6-2.1,0.6c-0.7,0-1.4-0.1-1.4-0.8c0-0.2,0.1-0.3,0.1-0.4c0-0.1,0-0.2,0-0.4
		c0-0.3,0-0.5,0-0.8C275.5,182.7,275.3,182.7,275,182.7z M263.1,180.3C263.1,180.2,263.1,180.2,263.1,180.3
		C263.1,180.2,263,180.2,263.1,180.3C263.1,180.2,263,180.3,263.1,180.3z M263.9,199.4c-0.2,0-0.5,0-0.7,0.1
		C263.5,199.4,263.7,199.5,263.9,199.4z M265.6,182.4C265.6,182.3,265.7,182.3,265.6,182.4l-0.2-0.1c0.1,0.1,0.1,0.2,0.2,0.3
		C265.7,182.5,265.6,182.4,265.6,182.4z M265.9,188.5c0-0.2,0-0.5-0.1-0.6c0,0.5-0.1,0.8-0.2,1.2C265.8,189,265.9,188.7,265.9,188.5
		z M265.9,186.3c0-0.2,0-0.3-0.1-0.5v0.2c0,0.3,0,0.5,0,0.8c0,0.1,0,0.2,0,0.3C265.8,186.9,265.9,186.6,265.9,186.3z M267.2,181.5
		c0.4,0,0.8-0.2,1.2-0.2H268c-0.4,0-0.8,0-1.1,0.2C267,181.5,267.1,181.5,267.2,181.5z M267.1,192.2c-0.1,0.3-0.1,0.5-0.1,0.8
		c0,0.2,0,0.5,0.1,0.6C267.1,193.2,267.1,192.6,267.1,192.2z M271.2,200.3c0.1,0,0.3,0,0.4,0C271.3,200.3,271.2,200.3,271.2,200.3
		c-0.2-0.1-0.3-0.1-0.4,0H271.2z M273,199.2c-0.2,0-0.4-0.1-0.5-0.1c-0.1,0-0.1,0-0.2,0C272.4,199.2,272.8,199.2,273,199.2z
		 M272.6,200.4c0.1,0,0.1,0,0.1,0c-0.1,0-0.2,0-0.3,0c0,0,0,0-0.1,0C272.4,200.4,272.5,200.4,272.6,200.4z M274.1,199.3h-0.5
		c0.1,0,0.1,0.1,0.2,0.1C273.9,199.3,273.9,199.3,274.1,199.3C274.1,199.3,274.1,199.3,274.1,199.3z M276.5,200.2
		c-0.3,0-0.7,0-1,0.1C275.8,200.3,276.2,200.4,276.5,200.2z M277,180.1h-0.4c-0.1,0-0.1,0-0.2,0c0.1,0,0.1,0.1,0.2,0.1
		C276.7,180.2,276.9,180.2,277,180.1z M277.4,180.1c-0.1,0-0.1,0-0.2,0c0.1,0,0.2,0.1,0.3,0.1h0
		C277.6,180.1,277.5,180.1,277.4,180.1z M277.5,196.7c0-0.1,0.1-0.1,0.1-0.2c-0.1,0-0.2,0.1-0.3,0.1
		C277.3,196.6,277.4,196.6,277.5,196.7z"/>
</g>
</svg>
